<svg width="390" height="138" viewBox="0 0 390 138" fill="none" xmlns="http://www.w3.org/2000/svg">
<g clip-path="url(#clip0_143_2982)">
<g opacity="0.25" clip-path="url(#clip1_143_2982)">
<path d="M-6.86775 137.505C3.81869 145.97 18.212 149.404 32.0498 151.564C60.5669 156.01 62.8273 125.526 83.783 125.457C102.031 125.389 113.872 121.549 123.802 109.791C140.618 89.9066 166.823 102.521 182.751 116.698C207.412 138.643 233.311 168.185 274.974 161.079C306.506 155.707 325.48 144.013 339.82 121.544C345.866 112.07 352.034 101.421 355.119 90.9431C358.203 80.4652 354.948 65.4847 368.3 59.8753C394.872 48.5441 435.108 70.6582 463.901 66.3188C484.979 63.0977 493.468 55.6178 485.978 37.7335C475.623 13.1571 514.904 8.44694 536.971 5.86091C556.145 3.60575 585.916 13.1173 602.142 2.87348" stroke="#AFDFFF" stroke-width="0.399036" stroke-miterlimit="10"/>
<path d="M-7.74229 134.134C2.86655 142.293 16.9963 145.573 30.5527 147.554C46.3786 149.868 57.2261 139.162 64.8888 130.231C70.1754 124.073 75.5966 118.527 81.726 118.751C100.562 119.437 110.69 115.324 121.604 104.241C124.33 101.28 127.795 98.7881 131.812 96.8976C150.334 88.9193 167.927 100.758 180.133 110.823C193.552 121.913 206.538 136.551 222.12 146.103C238.795 156.294 255.053 160.035 275.391 157.834C287.795 156.483 301.972 153.032 311.268 147.081C322.608 139.796 331.129 129.908 338.504 119.398C339.986 117.271 341.328 114.918 342.64 112.553C347.827 103.184 351.513 94.6361 353.51 84.4197C355.423 74.6352 352.949 63.2793 364.048 57.1142C364.476 56.8702 364.932 56.6568 365.412 56.4763C393.468 45.6555 432.955 68.3377 461.941 64.3915C483.741 61.4193 490.166 53.6396 482.864 35.7542C477.499 22.6472 487.763 15.6165 500.696 11.3067C511.286 7.77296 524.492 6.02894 536.704 4.7107C556.015 2.61696 585.102 11.7317 601.269 1.8986" stroke="#AFDFFF" stroke-width="0.399036" stroke-miterlimit="10"/>
<path d="M-8.61794 130.683C2.18849 138.334 15.7215 141.366 29.0338 142.947C45.0467 144.841 55.4677 132.66 62.9752 123.63C68.2418 117.293 73.6447 111.897 79.7152 112.09C97.8198 112.687 107.952 109.226 119.564 99.1116C122.43 96.4988 126.005 94.4126 130.062 92.9859C148.851 86.7685 164.378 95.3972 177.502 105.389C191.853 116.295 205.681 130.634 221.079 140.581C237.638 151.289 254.887 156.598 275.762 154.614C287.692 153.471 301.413 149.981 310.353 143.954C321.315 136.441 330.394 127.429 337.189 117.316C338.653 115.17 340.048 112.896 341.385 110.591C347.009 100.72 349.57 92.4777 350.971 81.5776C352.25 71.5953 349.801 60.0334 361.243 53.8859C361.682 53.6473 362.144 53.4349 362.627 53.2505C391.087 42.7201 430.92 66.2564 459.998 62.5788C482.294 59.7473 486.49 51.6399 479.813 33.8627C474.741 20.3171 487.023 13.9743 500.184 10.0141C511.101 6.721 524.194 4.95525 536.452 3.60243C555.714 1.47865 583.956 10.2491 600.372 0.936875" stroke="#AFDFFF" stroke-width="0.399036" stroke-miterlimit="10"/>
<path d="M-9.48585 127.169C0.829992 133.956 14.5709 137.254 27.4886 137.871C44.1172 138.658 53.5467 126.035 61.0855 116.92C66.3569 110.543 71.7569 105.429 77.7665 105.606C94.0384 106.06 106.423 103.332 117.694 94.4703C120.822 92.2006 124.564 90.4885 128.686 89.4418C147.182 84.0812 161.599 90.7497 175.13 100.494C189.961 111.144 204.332 124.802 219.757 134.873C236.789 145.992 254.747 152.939 275.959 151.278C288.263 150.243 299.744 146.576 309.142 140.68C320.014 133.575 329.064 124.959 335.876 115.227C337.357 113.108 338.761 110.851 340.144 108.511C346.319 98.0634 347.476 90.1084 348.258 78.5381C348.94 68.3946 346.738 56.6939 358.566 50.6337C359.012 50.3952 359.481 50.1837 359.971 50.0008C388.873 39.87 429.043 64.1628 458.093 60.715C480.631 58.0415 482.67 49.4543 476.85 31.9263C472.269 18.0465 486.542 12.4287 499.9 8.74166C511.026 5.70719 524.002 3.87093 536.267 2.47058C555.347 0.292522 583.122 8.85345 599.509 -0.0442932" stroke="#AFDFFF" stroke-width="0.399036" stroke-miterlimit="10"/>
<path d="M-10.3737 123.636C-0.0286534 129.84 13.5741 132.47 25.9311 132.456C42.3658 132.432 51.514 119.372 59.2121 110.236C64.5019 103.966 69.9576 99.2524 75.9073 99.4063C91.6218 99.8894 103.83 97.6622 116.011 90.5113C119.554 88.5979 123.479 87.1224 127.656 86.1331C145.784 81.4753 159.858 86.5021 173.278 96.0319C187.855 106.37 202.861 119.188 218.113 129.134C235.673 140.551 255.501 149.655 275.823 147.837C287.614 146.667 298.613 143.114 307.737 137.526C318.658 130.866 327.773 122.623 334.626 113.209C336.125 111.117 337.529 108.86 338.966 106.502C344.677 97.1967 345.7 90.005 345.751 79.5436C345.815 68.2957 342.146 54.2215 356.056 47.5466C356.515 47.3131 356.995 47.103 357.492 46.9175C386.849 37.0833 427.291 62.0605 456.17 58.809C478.723 56.274 478.808 47.1673 473.954 29.9499C469.992 15.8802 486.367 10.8561 499.687 7.47804C511.033 4.6071 523.883 2.77956 536.164 1.325C555.053 -0.908582 582.342 7.44035 598.7 -1.05084" stroke="#AFDFFF" stroke-width="0.399036" stroke-miterlimit="10"/>
<path d="M-11.2501 120.104C-0.858705 125.671 12.5831 127.477 24.3558 126.853C40.446 125.967 49.3885 112.794 57.3796 103.742C62.7022 97.717 68.1785 93.52 74.1328 93.7227C89.2981 94.2515 101.804 93.0172 114.674 86.9874C118.491 85.316 122.576 84.0085 126.845 83.0914C144.569 78.9231 158.406 82.5461 171.779 91.7807C186.074 101.682 200.993 113.758 216.11 123.438C234.156 134.987 254.806 145.582 275.123 144.15C285.445 143.421 296.603 139.86 306.231 134.537C317.318 128.353 326.508 120.392 333.237 111.142C334.753 109.076 336.153 106.762 337.654 104.485C348.808 87.5694 329.656 55.1519 353.531 44.5935C354.013 44.3604 354.517 44.1531 355.039 43.9732C384.919 34.3073 424.32 60.1064 453.883 56.8175C476.972 54.2594 474.789 44.8925 471.032 28.0179C467.965 13.9848 486.285 9.47095 499.603 6.36597C511.526 3.73258 523.703 1.70605 536.06 0.298811C554.768 -2.00489 581.528 6.14287 597.847 -1.94304" stroke="#AFDFFF" stroke-width="0.399036" stroke-miterlimit="10"/>
<path d="M-12.1213 116.613C-1.64402 121.475 11.5762 122.354 22.7892 121.091C38.4226 119.321 47.1649 106.332 55.5918 97.4781C60.9608 91.845 66.506 88.2836 72.4536 88.5417C87.166 89.1842 100.636 88.8713 113.68 83.731C117.721 82.2616 121.944 81.0784 126.299 80.195C143.797 76.2484 157.417 78.9928 170.706 87.7187C184.557 96.8025 199.036 108.632 213.863 117.939C230.594 128.443 253.37 142.264 273.867 140.21C284.978 139.192 295.516 136.298 304.754 131.728C315.97 125.93 325.263 118.222 331.985 109.141C333.521 107.093 334.913 104.674 336.48 102.453C348.546 85.4312 324.08 52.704 351.302 41.7816C351.81 41.5694 352.336 41.381 352.876 41.2176C383.394 31.983 420.001 55.8259 451.655 54.8579C476.767 54.1381 470.431 39.731 468.36 26.1006C466.239 12.1024 486.404 8.06255 499.654 5.17437C511.589 2.66892 523.724 0.658514 536.011 -0.84862C554.532 -3.23953 580.74 4.71246 597.022 -2.97609" stroke="#AFDFFF" stroke-width="0.399036" stroke-miterlimit="10"/>
<path d="M-12.9971 113.17C-2.03672 117.584 10.6041 116.784 21.2302 115.361C35.8217 113.392 44.8102 100.184 53.8532 91.6786C59.2831 86.5755 64.9156 83.7563 70.8834 84.1054C85.6571 84.9321 99.278 85.3532 112.854 80.8244C117.062 79.5172 121.386 78.4141 125.8 77.5212C142.879 73.7487 156.621 75.4066 169.838 83.7779C183.26 92.2707 197.222 103.788 211.503 112.699C228.309 123.18 251.02 137.282 271.96 136.054C282.614 135.431 293.454 133.543 303.137 128.958C314.483 123.514 323.897 116.041 330.655 107.114C332.22 105.077 333.664 102.745 335.242 100.437C347.223 82.9947 319.447 49.8965 349.197 39.1614C349.732 38.9694 350.289 38.7798 350.841 38.622C381.823 29.9585 417.614 53.4608 449.266 53.0232C474.444 52.7054 466.726 37.2937 465.777 24.3146C464.781 10.5257 486.473 6.89712 499.789 4.16158C511.421 1.77568 523.817 -0.195466 535.943 -1.8298C554.306 -4.29624 579.92 3.47082 596.185 -3.82578" stroke="#AFDFFF" stroke-width="0.399036" stroke-miterlimit="10"/>
<path d="M-13.8629 109.8C-2.79929 113.367 9.54207 111.678 19.6596 109.711C33.8333 106.967 42.2361 94.3637 52.1304 86.4197C57.6563 81.9876 63.2892 80.1091 69.2895 80.5345C84.1185 81.5931 98.2661 82.2391 112.151 78.1741C116.486 76.9062 120.926 75.8365 125.451 74.9703C142.57 71.7253 155.327 71.438 169.296 79.8931C182.331 87.784 195.812 99.0576 209.543 107.669C226.596 118.356 248.783 132.033 269.872 131.989C280.682 131.971 291.586 130.671 301.572 126.267C313.055 121.125 322.603 113.841 329.414 105.025C331.141 102.881 332.707 100.656 334.103 98.3604C344.249 81.0567 316.115 46.6928 347.396 36.6909C347.961 36.5105 348.547 36.3327 349.13 36.1865C380.419 28.1715 415.539 51.182 446.944 51.1404C471.888 51.1156 463.205 34.6941 463.373 22.4138C463.55 9.12159 486.495 5.76615 500.007 3.13491C511.646 0.862437 523.886 -1.19216 535.901 -2.86406C554.098 -5.43105 579.096 2.16441 595.345 -4.74024" stroke="#AFDFFF" stroke-width="0.399036" stroke-miterlimit="10"/>
<path d="M-14.7324 106.559C-3.226 108.893 7.95982 106.823 18.0944 104.286C31.8303 100.846 39.4596 88.9282 50.4561 81.8904C52.7537 80.3018 55.4742 79.1131 58.4527 78.3966C61.4311 77.68 64.6053 77.4505 67.7824 77.7219C82.7508 78.8377 97.3625 79.6206 111.53 75.815C115.851 74.6611 120.531 73.5749 125.076 72.6413C141.804 69.2682 155.036 68.251 168.863 76.158C181.565 83.4376 194.675 94.5776 207.835 102.902C226.019 114.435 246.861 126.364 267.662 128.166C278.935 129.21 290.144 127.673 299.893 123.747C311.536 118.869 321.245 111.741 328.144 103.005C330.009 100.891 331.515 98.5905 332.627 96.1544C339.6 78.207 313.176 43.5369 345.832 34.4261C346.428 34.2574 347.021 34.1046 347.623 33.9689C379.328 27.0094 413.23 49.0275 444.562 49.3307C469.273 49.5831 460.111 32.468 461.208 20.5421C462.393 7.63798 486.871 4.57372 500.313 2.08674C511.968 -0.0631437 523.964 -2.17954 535.855 -3.93905C553.949 -6.60699 578.265 0.841041 594.519 -5.68499" stroke="#AFDFFF" stroke-width="0.399036" stroke-miterlimit="10"/>
<path d="M-15.5941 103.423C-4.08902 104.824 6.71405 102.12 16.5505 99.1138C29.6597 95.1552 36.6595 83.7714 48.7637 78.195C53.9668 75.8276 60.1303 74.8856 66.3273 75.5106C81.4952 76.6186 96.537 77.3896 110.929 73.7079C115.332 72.5799 120.045 71.4737 124.641 70.4658C141.04 66.8758 154.707 65.1157 168.515 72.4978C180.96 79.143 193.71 90.1428 206.376 98.3184C224.358 109.875 244.735 121.764 265.42 124.524C276.109 125.931 287.524 125.408 298.218 121.284C310.03 116.64 319.911 109.645 326.919 100.966C328.736 98.8069 330.015 96.3865 330.695 93.8208C335.012 75.5497 310.043 40.253 344.429 32.5589C345.043 32.4165 345.674 32.2924 346.305 32.1763C378.371 26.3703 410.84 46.9434 442.186 47.6424C466.712 48.2179 457.017 30.1536 459.29 18.7889C461.784 6.29349 486.979 3.59809 500.68 1.13455C512.264 -0.943635 524.071 -3.13933 535.8 -4.9506C553.964 -7.75486 576.972 -0.64297 593.694 -6.54921" stroke="#AFDFFF" stroke-width="0.399036" stroke-miterlimit="10"/>
<path d="M-16.451 100.416C-5.01294 100.909 5.58312 97.6733 15.0162 94.2879C27.0362 90.0037 34.6116 79.301 47.0998 75.2909C52.7907 73.4516 58.6619 73.3065 64.9124 73.7383C80.294 74.808 95.7297 75.434 110.302 71.734C114.79 70.5923 119.51 69.4227 124.142 68.2986C138.035 64.9419 154.518 60.7431 168.172 68.7898C180.961 76.2971 192.934 85.6987 205.156 93.7479C222.863 105.416 242.617 117.269 263.194 120.828C274.096 122.719 285.456 122.736 296.442 118.704C308.375 114.272 319.042 107.452 325.552 98.7175C327.102 96.4 328.015 93.8347 328.237 91.1737C330.535 72.7372 307.432 37.0567 343.264 30.8813C343.915 30.7756 344.577 30.6633 345.236 30.5668C377.36 25.829 408.647 44.9478 439.829 45.8839C463.991 46.6081 453.995 27.5826 457.551 16.9289C461.521 5.01529 486.808 2.59638 501.081 0.0738323C512.565 -1.96019 524.161 -4.22183 535.72 -6.09404C553.772 -9.01635 576.105 -2.02689 592.873 -7.53365" stroke="#AFDFFF" stroke-width="0.399036" stroke-miterlimit="10"/>
<path d="M-17.296 97.564C-6.04605 97.1978 4.24613 93.5392 13.5051 89.8673C24.6412 85.4593 32.9624 76.0133 45.4704 73.0427C51.3358 71.6588 57.1687 71.9995 63.5074 72.3937C79.0683 73.3647 94.9028 73.8061 109.615 69.8981C114.141 68.7047 118.873 67.4401 123.51 66.1879C137.355 62.4476 153.797 57.8176 167.733 65.0947C180.506 71.788 192.253 81.2426 204.096 89.2215C221.478 100.986 240.664 112.875 260.992 117.184C271.998 119.513 283.383 120.185 294.67 116.165C306.537 111.934 318.515 105.338 323.69 96.3203C324.872 94.2534 325.29 91.3376 325.386 88.4872C326.12 69.418 304.9 34.5859 342.344 29.5878C343.013 29.5005 343.705 29.3998 344.394 29.3229C376.448 25.5817 406.613 43.1889 437.493 44.2892C461.284 45.1451 451.181 24.9328 455.995 15.1882C461.535 4.03653 486.367 1.83554 501.498 -0.871834C512.879 -2.91048 524.268 -5.19723 535.599 -7.16959C553.495 -10.2637 575.221 -3.35623 592.043 -8.44641" stroke="#AFDFFF" stroke-width="0.399036" stroke-miterlimit="10"/>
<path d="M-18.137 94.8723C-7.12881 93.7451 2.98922 89.8 12.0129 85.9145C22.2365 81.5321 31.5946 73.4424 43.848 71.4457C49.7878 70.4809 55.6632 70.9876 62.0704 71.3339C77.8959 72.1923 94.0661 72.2807 108.819 68.1284C113.366 66.8412 118.091 65.4631 122.715 64.0567C136.535 59.8469 152.722 54.7277 167.103 61.3595C179.968 67.3001 191.582 76.7305 203.147 84.6755C220.336 96.4813 238.804 108.507 258.842 113.489C269.86 116.23 281.341 117.564 292.867 113.565C304.392 109.566 317.549 103.499 321.25 93.7073C322.044 91.0784 322.348 88.3521 322.153 85.6088C321.651 65.5287 302.65 32.4783 341.654 28.4903C342.352 28.4226 343.063 28.3403 343.77 28.2817C375.637 25.394 404.775 41.4772 435.202 42.6912C458.638 43.6245 448.66 22.567 454.774 13.4713C461.884 2.90479 486.197 0.930024 501.93 -1.91306C513.1 -3.93719 524.302 -6.31115 535.423 -8.28485C553.249 -11.492 574.282 -4.6448 591.201 -9.32923" stroke="#AFDFFF" stroke-width="0.399036" stroke-miterlimit="10"/>
<path d="M-18.9694 92.3508C-8.30079 90.5791 1.3946 86.4137 10.5403 82.4708C20.4713 78.1733 30.2653 71.5678 42.2372 70.2524C48.2535 69.6024 54.1412 70.0945 60.6028 70.4233C76.6443 71.1392 93.1501 70.8745 107.878 66.3252C112.419 64.9167 117.141 63.3935 121.724 61.8131C135.453 57.0538 151.2 51.5191 166.142 57.5761C179.283 62.8751 190.818 72.1028 202.205 80.0502C219.199 91.9126 237.019 104.109 256.72 109.708C267.672 112.819 279.327 114.874 291.072 110.878C302.551 107.002 315.929 101.525 318.295 90.9352C318.776 88.2003 318.874 85.4144 318.586 82.6254C317.118 61.3825 300.951 30.6311 341.2 27.4941L343.363 27.3314C374.596 25.3554 403.132 39.9502 433.007 41.2257C456.169 42.1819 446.378 20.6166 453.905 11.942C462.672 1.83483 486.196 0.0774444 502.387 -2.91892C513.326 -4.93897 524.33 -7.40139 535.231 -9.45022C552.999 -12.785 573.371 -6.00224 590.405 -10.2626" stroke="#AFDFFF" stroke-width="0.399036" stroke-miterlimit="10"/>
<path d="M-19.7923 90.008C-9.52283 87.7375 -0.0775338 83.5658 9.10129 79.7796C19.0043 75.7119 28.8486 70.238 40.6821 69.3721C46.7577 68.9223 52.6184 69.3789 59.1337 69.6098C75.3818 70.174 92.1831 69.5433 106.795 64.4894C111.322 62.9345 116.013 61.2387 120.535 59.474C134.112 54.1575 149.082 48.2227 164.804 53.7074C178.409 58.4679 189.954 67.3511 201.238 75.2861C218.047 87.118 235.32 99.6093 254.691 105.772C265.549 109.225 277.432 111.894 289.265 108.03C301.098 104.165 313.36 99.0095 314.824 87.9322C315.07 85.1582 315.023 82.3589 314.684 79.5618C312.528 57.1016 299.85 29.0263 340.865 26.7302C341.601 26.6913 342.339 26.6365 343.074 26.6134C373.591 25.3702 401.689 38.5772 430.86 39.799C453.738 40.7688 444.15 18.9067 453.242 10.5192C463.742 0.86421 486.238 -0.785138 502.793 -3.93816C513.493 -5.97121 524.261 -8.55882 534.966 -10.6236C552.708 -14.0901 572.427 -7.35471 589.604 -11.1555" stroke="#AFDFFF" stroke-width="0.399036" stroke-miterlimit="10"/>
<path d="M-20.6165 87.761C-10.7346 85.1539 -1.47085 81.1851 7.68481 77.5891C17.5627 73.7273 27.514 69.2634 39.0369 68.5446C45.1225 68.1844 50.9696 68.4947 57.5049 68.6476C73.9409 69.0417 91.0226 68.0834 105.467 62.4303C109.954 60.6935 114.604 58.8159 119.035 56.8473C133.882 50.2945 146.525 46.7293 162.644 49.9871C176.211 52.7412 188.804 62.4595 200.02 70.3461C216.62 82.0157 233.609 94.9468 252.649 101.68C263.415 105.459 275.52 108.542 287.446 105.026C298.984 101.608 310.199 95.5211 310.948 84.9115C311.038 82.1011 310.897 79.2777 310.525 76.4584C308.049 52.7613 299.474 27.5654 340.755 26.0817C341.49 26.0586 342.247 26.0222 342.99 26.0083C372.639 25.3748 400.439 37.3316 428.823 38.4977C451.549 39.4249 441.958 17.3372 452.847 9.20887C465.106 0.0415292 486.38 -1.61202 503.198 -4.95008C513.631 -7.01575 524.168 -9.68767 534.586 -11.8034C552.323 -15.3913 571.43 -8.69822 588.78 -12.0277" stroke="#AFDFFF" stroke-width="0.399036" stroke-miterlimit="10"/>
<path d="M-21.4352 85.5629C-11.8984 82.7851 -2.86378 78.9814 6.28611 75.6902C16.2999 72.0861 26.0458 68.4494 37.4378 67.6905C43.5544 67.3564 49.7117 67.2851 55.8816 67.477C72.4699 67.7369 89.7185 66.4372 103.953 60.1877C108.373 58.2337 113.09 56.1472 117.247 54.0246C130.616 47.2515 144.408 44.8072 159.456 46.8975C173.846 48.8996 187.104 57.3644 198.517 65.1864C215.032 76.5161 231.244 89.0471 250.565 97.2534C260.86 101.635 274.38 105.203 285.565 101.678C296.751 98.152 306.221 91.6277 306.592 81.6313C306.679 79.2862 306.351 76.2314 306.06 73.2132C303.621 48.4432 299.705 26.1866 340.671 25.4041C341.425 25.3915 342.191 25.3722 342.932 25.3741C371.663 25.2398 399.206 36.1361 426.767 37.1939C449.44 38.0423 439.612 15.8374 452.518 7.8824C466.52 -0.751004 486.391 -2.46301 503.429 -6.07161C513.598 -8.2016 523.886 -10.9683 534.034 -13.1008C551.775 -16.8088 570.333 -10.1505 587.872 -12.9746" stroke="#AFDFFF" stroke-width="0.399036" stroke-miterlimit="10"/>
<path d="M-22.2562 83.5413C-13.0496 80.6429 -4.12634 77.0668 4.89225 74.0812C14.8252 70.7969 24.7911 67.7578 35.8299 66.7227C41.898 66.1358 48.035 65.8628 54.2009 65.9054C70.9125 66.0115 88.3101 64.4325 102.256 57.5529C106.628 55.3841 111.126 53.3834 115.044 51.513C127.898 45.3527 140.907 43.0782 155.549 44.3874C170.19 45.6965 184.511 53.0767 196.358 60.2521C213.344 70.5459 229.479 83.9679 248.503 92.6366C258.326 97.1134 272.71 101.913 283.132 98.0447C292.981 94.4206 301.767 87.8531 302.025 78.3574C302.096 76.0586 301.777 73.013 301.544 70.034C299.594 44.4231 300.693 25.0205 340.83 24.8607C341.583 24.8559 342.369 24.8391 343.109 24.8569C370.12 25.5422 398.228 35.0602 424.934 36.0138C444.292 36.6997 442.549 13.5098 452.467 6.66211C464.645 -1.75138 486.372 -3.43019 503.701 -7.1963C513.707 -9.3622 523.583 -12.2674 533.502 -14.4038C551.329 -18.2218 569.336 -11.5904 587.079 -13.859" stroke="#AFDFFF" stroke-width="0.399036" stroke-miterlimit="10"/>
<path d="M-23.0599 81.5622C-14.183 78.6236 -5.56481 75.2355 3.49855 72.5689C13.5278 69.6099 23.5449 66.9228 34.1797 65.4284C40.1741 64.4505 46.3039 63.8976 52.4956 63.7763C69.3913 63.7441 86.2636 61.5865 100.255 54.7606C104.377 52.7544 108.681 51.1481 112.395 49.4941C123.837 44.2873 137.071 41.0192 150.939 42.2422C166.274 43.6117 180.284 49.2496 192.619 55.7689C210.434 65.1748 227.843 79.4674 246.234 87.5767C255.845 91.8267 269.447 97.64 279.268 93.9C287.864 90.6136 296.775 84.1337 297.138 74.9725C297.233 72.7329 296.973 69.7185 296.869 66.8034C295.869 40.6813 302.187 23.9162 341.017 24.2725C341.78 24.277 342.554 24.2748 343.303 24.3017C369.417 25.304 397.221 34.1497 423.139 34.8788C441.774 35.4121 441.92 12.0745 452.49 5.44304C465.359 -2.63703 486.51 -4.39402 503.797 -8.40658C513.477 -10.6443 523.116 -13.6589 532.745 -15.8224C550.542 -19.8211 568.267 -13.1034 586.233 -14.7982" stroke="#AFDFFF" stroke-width="0.399036" stroke-miterlimit="10"/>
<path d="M-23.8711 79.6382C-23.8711 79.6382 -16.5175 76.2488 2.12096 71.0904C11.9854 68.3687 22.3672 65.8626 32.5855 63.7548C38.633 62.5056 44.4307 60.9044 50.7764 60.8976C67.3376 60.8648 83.6492 58.5906 97.9595 52.4951C101.94 50.7932 105.98 49.3798 109.423 47.8858C120.458 43.1037 132.786 39.7253 146.052 40.489C161.226 41.3726 175.216 45.971 187.864 51.8049C206.272 60.302 224.264 73.7493 242.586 82.1717C251.622 86.3355 265.213 92.839 274.181 89.3246C282.139 86.2098 291.408 80.481 292.024 71.5596C292.184 69.3922 292.052 66.4417 292.095 63.6008C292.558 37.3996 304.075 22.9159 341.247 23.6732C342.007 23.6935 342.781 23.6913 343.518 23.7329C368.774 25.0083 396.229 33.3694 421.425 33.8418C431.436 34.0401 433.509 30.1442 437.433 24.5361C443.571 15.7648 442.008 10.4048 452.581 4.2641C465.933 -3.48389 486.673 -5.47578 503.744 -9.60308C513.135 -11.876 522.561 -15.1175 531.854 -17.2657C549.472 -21.3344 567.208 -14.6235 585.363 -15.6439" stroke="#AFDFFF" stroke-width="0.399036" stroke-miterlimit="10"/>
<path d="M-24.6767 77.7633C-24.6767 77.7633 -17.75 74.2736 0.724701 69.6018C10.7656 67.0623 21.0501 64.4962 30.9667 61.6039C37.0142 59.8402 42.8898 57.4285 49.0736 57.3778C64.8417 57.2484 81.1247 56.1526 95.4025 50.7525C99.2166 49.3037 103.051 48.0341 106.352 46.6755C116.915 42.254 128.331 38.6359 140.997 39.0049C155.798 39.433 169.618 43.1987 182.333 48.3092C201.086 55.8515 219.521 67.9859 237.572 76.7451C246.168 80.9196 258.929 87.8848 268.185 84.494C278.321 80.744 283.99 76.8519 286.893 68.2091C287.52 66.3238 287.204 63.2543 287.456 60.5032C289.828 34.6792 306.284 22.0353 341.621 23.0997C342.381 23.12 343.163 23.1349 343.889 23.1831C368.342 24.6985 395.365 32.7417 419.936 32.9448C430.053 33.0357 431.796 28.9387 435.891 23.3835C442.442 14.4856 441.718 9.27606 452.87 3.18976C466.531 -4.27123 486.825 -6.54267 503.655 -10.8439C512.793 -13.1799 521.862 -16.6658 531.024 -18.7657C548.777 -22.7456 566.251 -16.2032 584.57 -16.5043" stroke="#AFDFFF" stroke-width="0.399036" stroke-miterlimit="10"/>
<path d="M-25.4828 75.8806C-25.4828 75.8806 -18.9259 72.3379 -0.627557 67.9983C9.7176 65.6442 19.7245 62.589 29.2822 58.8666C35.3162 56.442 41.0176 54.2582 47.2114 54.2972C62.9319 54.3871 78.2362 54.2896 92.6894 49.337C96.3538 48.087 100.1 46.9354 103.131 45.6564C113.861 41.1428 124.133 38.1651 135.9 37.5885C149.112 36.9065 163.739 40.7384 176.289 45.1453C195.088 51.7124 213.523 62.7293 231.444 71.2716C239.811 75.2655 252.413 82.4203 261.455 79.3251C269.637 76.5189 279.449 73.2842 281.571 64.699C282.078 62.6865 282.253 59.9583 282.753 57.3098C287.438 32.3222 308.36 21.0344 341.885 22.2962C342.645 22.3244 343.405 22.3447 344.13 22.4008C367.867 24.1265 394.36 32.0648 418.414 31.9638C428.653 31.9167 430.075 27.6198 434.356 22.0794C441.285 13.0827 441.433 8.00362 453.073 1.94459C466.927 -5.292 486.78 -7.81003 503.258 -12.307C512.157 -14.7364 520.929 -18.4514 530.052 -20.4033C548.009 -24.2538 565.277 -17.817 583.659 -17.443" stroke="#AFDFFF" stroke-width="0.399036" stroke-miterlimit="10"/>
<path d="M-26.2886 73.9975C-26.2886 73.9975 -20.0913 70.4029 -2.06521 66.2392C8.76619 63.7317 18.1369 60.0011 27.5364 55.5183C32.7119 52.9197 38.8833 51.6505 45.2374 51.8778C60.582 52.3078 75.6166 52.7081 89.8929 48.2646C93.3289 47.276 96.6837 46.1443 99.9434 44.874C110.139 40.5524 119.881 37.1163 131.035 36.1676C143.52 35.0996 157.981 38.4932 170.151 42.2428C188.729 47.9629 206.93 57.8097 224.647 65.9655C232.932 69.7804 245.267 76.8947 254.312 74.1213C262.762 71.5166 273.096 69.825 276.309 61.3002C277.034 59.3787 277.423 56.789 278.207 54.2958C285.726 30.4976 309.973 20.0569 342.15 21.4921C342.898 21.527 343.658 21.5552 344.373 21.6101C367.5 23.5349 393.33 31.5935 417.029 31.1438C427.39 30.9507 428.505 26.4315 432.963 20.8965C440.242 11.8542 441.458 6.76834 453.338 0.794884C467.291 -6.2286 486.799 -8.99777 502.707 -13.7972C511.302 -16.3923 520.031 -20.1769 529.124 -22.0521C547.223 -25.7888 564.405 -19.4187 582.864 -18.2958" stroke="#AFDFFF" stroke-width="0.399036" stroke-miterlimit="10"/>
<path d="M-27.089 72.0745C-27.089 72.0745 -21.1923 68.4594 -3.46494 64.2593C7.45851 61.6826 16.5555 56.4233 25.7121 52.3048C31.0742 49.9029 37.0636 49.4747 43.1785 49.8176C58.2528 50.6649 72.9955 51.4879 87.0812 47.4071C90.4514 46.5067 93.7256 45.4283 96.8819 44.1791C106.469 40.0407 116.136 36.2014 126.506 34.6506C138.221 32.8619 152.225 36.4087 164.178 39.537C182.625 44.3568 200.162 53.4795 217.459 60.7961C225.977 64.4064 238.156 71.0837 246.965 68.8765C255.774 66.6693 266.561 66.3271 271.149 57.9217C272.143 56.1132 272.775 53.6737 273.891 51.2853C284.249 29.1514 311.467 18.9521 342.398 20.4848C343.136 20.5184 343.873 20.5599 344.588 20.6148C368.08 22.3829 392.007 31.1264 415.806 30.2868C426.299 29.957 427.063 25.2263 431.736 19.6451C439.319 10.5995 441.694 5.42991 453.668 -0.451775C467.532 -7.26096 486.493 -10.2576 501.91 -15.3983C510.332 -18.2073 519.076 -21.9419 528.17 -23.7446C546.379 -27.3553 563.599 -21.0369 582.069 -19.1488" stroke="#AFDFFF" stroke-width="0.399036" stroke-miterlimit="10"/>
<path d="M-27.9044 70.1098C-27.9044 70.1098 -22.2372 66.4909 -4.8845 62.0201C5.77437 59.2986 14.3244 52.9516 23.8138 49.5329C29.0946 47.6275 35.0048 47.5917 41.0798 48.0905C55.9401 49.3218 70.406 50.5292 84.3382 46.6789C87.6334 45.832 90.815 44.7701 93.8502 43.5041C103.214 39.3144 112.54 34.8386 122.473 32.9212C133.617 30.7653 146.983 34.138 158.639 36.8763C176.302 41.0137 193.446 49.1559 210.198 55.8757C218.839 59.3401 230.683 65.679 239.64 63.715C248.987 61.6377 260.102 62.6378 266.167 54.6374C267.413 52.9883 268.373 50.6853 269.849 48.4371C283.107 28.2403 312.455 17.8019 342.555 19.3781C343.282 19.4184 343.998 19.4575 344.702 19.519C367.897 21.4038 390.912 30.7757 414.562 29.5241C425.198 28.9626 425.69 23.9815 430.549 18.415C438.367 9.40619 441.95 4.11024 453.904 -1.69348C467.646 -8.35677 485.721 -11.6381 500.864 -17.1017C509.274 -20.1534 518.012 -23.76 527.161 -25.4917C545.436 -28.9577 562.837 -22.7539 581.245 -20.0131" stroke="#AFDFFF" stroke-width="0.399036" stroke-miterlimit="10"/>
<path d="M-28.7153 68.0904C-28.7153 68.0904 -22.9032 64.5694 -6.32214 59.4821C3.85196 56.3639 11.5889 49.741 21.8551 47.0681C27.254 45.6515 32.946 45.8625 38.9596 46.5226C53.5646 48.1328 67.9111 49.7196 81.693 45.9877C84.9604 45.161 88.0954 44.0835 91.0534 42.7703C100.19 38.3841 109.338 33.3078 119.056 30.8495C129.647 28.168 142.738 31.3947 153.792 34.0999C170.323 38.1718 186.966 45.0229 203.161 51.1682C211.933 54.496 223.959 60.6319 232.561 58.6648C241.805 56.5749 254.241 59.0867 261.474 51.4537C262.914 49.9247 264.294 47.7774 266.165 45.722C282.4 27.6003 312.768 16.5064 342.604 18.1067C343.31 18.1444 344.038 18.1768 344.678 18.2467C366.571 20.6964 390.479 30.3701 413.52 28.8031C421.752 28.2381 423.938 24.6213 428.076 20.0039C436.777 10.2665 440.738 3.40873 454.143 -2.98198C467.836 -9.49852 484.857 -13.1334 499.704 -18.9144C508.196 -22.2133 516.936 -25.659 526.144 -27.2789C544.494 -30.5831 562.17 -24.4984 580.428 -20.8675" stroke="#AFDFFF" stroke-width="0.399036" stroke-miterlimit="10"/>
<path d="M-29.5264 65.9976C-29.5264 65.9976 -23.1555 62.6091 -7.75705 56.5898C1.18458 53.1205 9.56238 46.7284 19.8776 44.769C25.3332 43.7452 30.8877 44.1404 36.8408 44.954C51.2337 46.9323 65.5404 48.9323 79.208 45.1944C82.4873 44.3801 85.6083 43.2656 88.5079 41.8733C97.7195 37.0459 106.425 31.0555 116.377 28.2962C126.654 25.4478 138.941 28.2389 149.905 30.9974C165.411 34.9042 181.248 41.1666 196.642 46.6758C205.546 49.8668 217.054 55.5377 225.915 53.7629C235.941 51.7684 248.392 55.2788 257.116 48.3581C258.864 46.9631 260.55 45.054 262.896 43.1288C282.417 27.1199 312.203 15.0546 342.49 16.6455C343.175 16.6808 343.893 16.7119 344.563 16.7855C366.202 19.349 389.622 30.1129 412.583 28.0859C420.919 27.3567 422.839 23.5225 427.078 18.8451C435.964 9.04987 440.99 2.11281 454.39 -4.31877C467.79 -10.7503 484.349 -15.0526 498.548 -20.84C506.819 -24.2062 516.213 -27.9581 525.156 -29.1199C543.338 -31.4796 560.729 -26.483 579.658 -21.7493" stroke="#AFDFFF" stroke-width="0.399036" stroke-miterlimit="10"/>
<path d="M-30.3481 63.8232C-30.3481 63.8232 -24.1594 60.2999 -9.22063 53.4207C-0.978452 49.6008 7.74221 43.9982 17.881 42.6283C23.3235 41.8843 28.8307 42.4104 34.7767 43.3679C49.0036 45.6797 63.3602 48.128 76.9532 44.3167C80.2539 43.4683 83.3708 42.2832 86.2257 40.7912C95.6084 35.5024 104.431 28.6338 114.568 25.2216C124.705 21.8094 136.153 24.3617 147.185 27.4179C161.628 31.3882 176.437 37.4129 190.883 42.3885C199.914 45.4824 210.781 50.6572 219.911 49.076C230.762 47.1819 243.123 51.5095 253.242 45.4099C255.274 44.1781 257.324 42.45 260.149 40.7119C282.564 26.9448 311.384 13.4594 342.211 14.9875C342.876 15.0203 343.551 15.0622 344.191 15.1241C367.172 17.224 387.859 30.091 411.689 27.3659C420.168 26.4049 421.787 22.3813 426.128 17.636C435.157 7.78572 441.199 0.747297 454.533 -5.74852C467.694 -12.1852 483.43 -17.1986 497.321 -22.8628C505.603 -26.2356 515.108 -29.9499 524.123 -31.0225C542.389 -33.2033 560.164 -28.3608 578.86 -22.6586" stroke="#AFDFFF" stroke-width="0.399036" stroke-miterlimit="10"/>
<path d="M-31.2029 61.5642C-31.2029 61.5642 -25.7376 57.0282 -10.7296 49.9242C-2.73205 46.1389 5.99029 41.3806 15.8382 40.4255C21.3061 39.9017 26.7654 40.4783 32.6238 41.5537C46.7522 44.159 61.2167 47.0948 74.7848 43.1438C78.1757 42.2309 81.3545 40.9457 84.2289 39.3257C93.8765 33.5787 101.797 25.6194 113.827 22.3655C125.057 19.3356 135.089 20.4693 145.693 23.3527C158.753 26.9213 172.495 33.7246 186.154 38.2988C195.192 41.3293 205.465 46.0698 214.752 44.6525C226.396 42.855 238.567 47.8831 249.917 42.665C252.242 41.5976 254.698 40.144 258.056 38.487C281.761 26.7502 311.18 11.8665 341.704 13.221C342.338 13.25 342.992 13.2894 343.623 13.3422C366.655 15.4562 386.837 29.9742 410.791 26.7418C419.358 25.5744 420.735 21.3122 425.181 16.4752C434.288 6.58619 441.327 -0.57197 454.534 -7.13955C467.373 -13.5109 482.225 -19.4199 496.008 -24.8802C504.431 -28.2038 513.933 -31.9022 523.006 -32.8471C541.33 -34.8199 559.622 -30.1799 577.986 -23.4808" stroke="#AFDFFF" stroke-width="0.399036" stroke-miterlimit="10"/>
<path d="M-31.9622 59.2204C-31.9622 59.2204 -26.7728 53.26 -12.1739 46.5966C-4.33728 43.0168 4.27341 38.8318 13.9424 38.1444C19.5136 37.8202 25.178 38.2706 30.672 39.4747C44.7837 42.3031 59.4468 45.7535 73.0146 41.6337C76.5207 40.6564 79.7765 39.2551 82.6669 37.4791C92.355 31.1421 100.582 23.2442 113.459 19.9889C124.531 17.2213 134.646 17.6816 145.188 20.035C157.643 22.8224 170.277 29.7158 182.706 34.2528C191.192 37.3607 201.5 41.6392 210.607 40.417C222.953 38.7694 234.963 44.3566 247.235 40.055C249.834 39.1494 252.931 37.7499 256.611 36.1963C280.907 25.9546 311.122 10.1147 340.929 11.0924C341.543 11.1189 342.177 11.1479 342.776 11.2048C365.896 13.2814 385.826 29.8671 409.96 26.0213C418.578 24.6913 419.861 20.1684 424.39 15.2531C433.553 5.33074 441.414 -1.96848 454.479 -8.64995C466.95 -15.0097 481.061 -21.7888 494.7 -27.0094C503.253 -30.2929 512.772 -33.9492 521.91 -34.8299C540.284 -36.6117 559.197 -32.0086 577.155 -24.3781" stroke="#AFDFFF" stroke-width="0.399036" stroke-miterlimit="10"/>
<path d="M-32.8234 56.7679C-32.8234 56.7679 -28.6928 49.5449 -13.7304 43.4162C-5.22431 39.9179 2.35707 36.2025 11.9337 35.6727C17.505 35.3515 23.1685 35.7992 28.6643 36.9951C42.7895 39.9699 57.7571 43.9236 71.3452 39.6374C75.0185 38.6013 78.3893 37.064 81.3061 35.0944C90.5504 28.454 100.156 20.8206 113.319 17.962C123.614 15.5851 134.723 15.4442 145.48 17.5542C156.847 19.9196 169.15 25.7517 180.736 30.2663C190.376 34.0213 199.845 37.7232 207.649 36.471C220.079 34.4798 233.516 40.0158 245.455 37.595C248.252 37.0352 251.726 35.4566 255.675 34.0161C280.216 25.0262 311.008 8.30791 339.926 8.86375C340.509 8.87856 341.123 8.90505 341.702 8.95154C364.969 10.9335 384.869 29.8309 409.267 25.358C417.82 23.795 419.073 19.0031 423.661 14.0307C432.849 4.07126 441.462 -3.39364 454.354 -10.2007C466.517 -16.5981 479.92 -24.0905 493.398 -29.186C502.043 -32.4503 511.686 -36.019 520.842 -36.7851C539.231 -38.3479 558.875 -33.8246 576.353 -25.2557" stroke="#AFDFFF" stroke-width="0.399036" stroke-miterlimit="10"/>
<path d="M-33.6643 54.2298C-33.6643 54.2298 -29.7603 46.2074 -15.2476 40.3374C-7.04466 37.0113 0.42698 33.596 10.0573 32.9682C15.6171 32.5658 21.2897 32.9571 26.7979 34.123C40.9398 37.132 56.3958 41.5392 69.9768 37.1396C73.7106 35.9699 77.1147 34.2958 80.0394 32.1908C89.4478 25.2328 99.8604 18.5258 113.249 16.1368C123.935 14.2226 135.991 13.5848 146.37 15.7414C157.584 18.0721 169.11 22.3865 179.98 26.5969C188.961 30.1027 197.226 33.9073 206.101 32.7855C218.981 31.1385 232.047 37.1439 244.259 35.1423C247.188 34.6951 250.925 33.1886 255.114 31.8417C279.758 23.8934 310.592 6.48087 338.583 6.40926C339.148 6.40571 339.743 6.41385 340.313 6.45116C363.957 8.08507 383.742 29.8145 408.556 24.6768C417.038 22.9202 418.348 17.8298 422.973 12.8136C432.165 2.82247 441.323 -4.82528 454.098 -11.7912C466.011 -18.2834 478.659 -26.3502 492.023 -31.3712C500.783 -34.6375 510.462 -38.0732 519.712 -38.7474C538.127 -40.098 558.571 -35.622 575.506 -26.1142" stroke="#AFDFFF" stroke-width="0.399036" stroke-miterlimit="10"/>
<path d="M-34.5037 51.5952C-34.5037 51.5952 -30.8675 43.0256 -16.8434 37.3052C-8.91338 34.0744 -1.53314 30.8089 8.18794 29.9509C13.7333 29.3654 19.4404 29.6211 24.9983 30.7042C39.0498 33.5977 55.0243 38.3815 68.5062 33.9377C72.1942 32.7897 75.6038 31.2077 78.6213 29.2446C88.5357 22.509 99.5039 16.3038 113.187 14.3285C124.443 12.641 136.147 12.6507 147.678 14.3572C158.233 16.0048 169.685 19.6428 180.169 23.4202C188.75 26.5156 196.151 30.3757 205.649 29.2896C218.433 27.824 231.527 34.2026 243.58 32.6479C246.607 32.2608 250.569 30.8782 254.945 29.6264C269.998 25.3257 284.815 20.0476 299.525 14.9575C310.991 11.0158 324.031 3.84897 337.179 3.68985C337.755 3.67785 338.333 3.68919 338.91 3.72383C362.841 5.23191 382.797 29.595 407.873 23.8461C416.176 21.931 417.727 16.4921 422.332 11.4655C430.935 1.81807 441.529 -6.6229 453.727 -13.5487C465.424 -20.1636 477.318 -28.7323 490.676 -33.7057C499.436 -36.9641 509.299 -40.2809 518.597 -40.8367C537.069 -41.9713 558.332 -37.4357 574.683 -27.0746" stroke="#AFDFFF" stroke-width="0.399036" stroke-miterlimit="10"/>
<path d="M-35.3411 48.8639C-35.3411 48.8639 -31.9998 39.969 -18.3964 34.2697C-10.6904 31.0759 -3.4347 27.8032 6.37294 26.5779C11.9979 25.8803 17.6483 25.6601 23.2689 26.7146C37.107 29.3006 53.123 34.5157 66.6996 30.5818C70.4327 29.5833 73.9112 28.1392 77.0155 26.2991C87.432 19.8176 99.315 13.7399 112.984 12.4785C124.881 11.2644 137.066 11.4985 149.108 13.1725C159.983 14.8865 170.679 17.4282 181.037 20.76C189.3 23.3745 196.114 27.1631 205.909 26.0408C218.131 24.6434 231.714 31.2986 243.348 30.1832C246.437 29.8841 250.587 28.5888 255.119 27.4284C270.56 23.3601 285.628 18.5894 300.249 13.1399C311.084 9.14549 323.107 1.22773 335.753 0.991284C336.325 0.9731 336.9 0.978737 337.475 1.00817C361.714 2.39294 381.997 29.3848 407.167 23.0363C415.221 21.0185 417.159 15.1524 421.695 10.1737C430.431 0.451231 441.052 -8.1266 453.218 -15.2833C464.742 -22.1042 475.877 -31.0547 489.323 -35.9772C498.141 -39.2044 508.124 -42.386 517.495 -42.8526C536.023 -43.7632 558.125 -39.1656 573.869 -27.9458" stroke="#AFDFFF" stroke-width="0.399036" stroke-miterlimit="10"/>
<path d="M-36.1688 46.1262C-36.1688 46.1262 -33.1452 37.0076 -19.9489 31.2185C-12.5481 27.9554 -5.27697 24.556 4.64585 22.8141C10.3271 21.8258 15.963 21.2099 21.4356 22.2785C35.1075 24.9408 50.9929 30.542 64.7408 27.1757C68.5416 26.3366 72.1134 25.0359 75.3287 23.32C86.8151 16.8081 98.6329 12.2098 112.62 10.4806C124.485 9.01551 138.169 9.77393 150.499 11.9592C161.25 13.7279 171.91 15.9253 182.435 18.5426C190.539 20.6634 196.821 24.2666 206.807 23.0389C218.321 21.6195 232.426 28.4509 243.474 27.6822C246.635 27.4724 250.881 26.253 255.528 25.1789C271.206 21.5535 286.364 16.8635 300.834 11.1612C311.324 6.99604 321.84 -1.41888 334.333 -1.77839C334.916 -1.80112 335.502 -1.79952 336.088 -1.77359C360.661 -0.637627 381.315 29.0526 406.471 22.1395C414.312 19.9832 416.582 13.7878 421.088 8.80532C429.91 -0.992006 440.514 -9.71032 452.602 -17.1028C463.965 -24.1444 474.273 -33.3403 487.922 -38.3024C496.821 -41.5037 506.914 -44.5594 516.353 -44.905C534.982 -45.6025 557.905 -40.8887 573.021 -28.8852" stroke="#AFDFFF" stroke-width="0.399036" stroke-miterlimit="10"/>
<path d="M-37.0052 43.4679C-37.0052 43.4679 -34.3022 34.1495 -21.5405 28.0663C-14.3753 24.6781 -7.09774 21.0543 2.94445 18.6757C8.69167 17.3176 14.0521 16.7325 19.3466 17.8035C32.8863 20.5221 48.6008 26.4963 62.5254 23.7385C66.3971 23.0705 70.0662 21.9188 73.3937 20.3269C85.3932 14.1509 97.67 9.81752 111.914 8.29654C124.39 6.96214 138.649 7.98346 151.514 10.4912C162.212 12.5983 173.231 14.4712 184.011 16.6767C191.967 18.297 197.963 21.6725 208.042 20.2793C218.877 18.7691 233.383 25.6574 243.884 25.1758C247.113 25.0144 251.426 23.9318 256.202 22.9057C271.607 19.6688 287.459 15.16 301.304 9.10425C311.496 4.63755 320.305 -4.08988 332.908 -4.5807C333.485 -4.59884 334.071 -4.6078 334.644 -4.58633C359.443 -3.59957 381.109 28.6016 405.722 21.1642C413.318 18.8736 415.924 12.4135 420.463 7.41101C429.369 -2.43455 439.905 -11.2959 451.825 -18.9659C463.06 -26.2401 472.681 -35.7207 486.575 -40.6289C495.543 -43.7976 505.746 -46.7273 515.255 -46.9599C534.023 -47.4314 557.736 -42.5893 572.223 -29.7942" stroke="#AFDFFF" stroke-width="0.399036" stroke-miterlimit="10"/>
<path d="M-37.8435 40.8247C-35.5844 34.181 -30.3327 28.5127 -23.0043 24.8082C-16.065 21.2155 -8.44086 16.8059 1.28555 14.1879C6.88149 12.6988 12.0787 12.1661 17.2178 13.2262C30.7272 16.0215 46.202 22.248 60.2309 20.1782C64.1872 19.6937 67.9671 18.6891 71.4115 17.2067C83.9418 11.3927 96.6685 7.22675 111.069 5.79715C124.725 4.61539 138.721 5.56059 152.249 8.57823C163.343 11.0311 174.501 13.3148 185.856 15.0839C193.748 16.2864 199.624 19.3658 209.73 17.7508C219.995 16.1149 234.484 22.8001 244.734 22.6578C247.874 22.6223 252.379 21.5952 257.053 20.637C273.135 17.33 290.918 13.0161 304.767 5.39301C313.529 0.559274 319.578 -6.79189 331.483 -7.38386C332.056 -7.41513 332.632 -7.42272 333.21 -7.40659C358.293 -6.60236 381.576 28.1113 404.874 20.0554C411.979 17.5924 415.1 11.0182 419.816 5.94078C428.832 -3.90587 439.243 -12.9091 450.871 -20.9158C461.918 -28.5345 471.02 -38.1266 485.138 -42.9914C494.195 -46.1171 504.033 -48.5365 514.098 -49.047C533.138 -50.0321 558.616 -43.4635 571.376 -30.742" stroke="#AFDFFF" stroke-width="0.399036" stroke-miterlimit="10"/>
<path d="M-38.6976 38.2286C-36.534 31.4801 -31.5556 25.5982 -24.5096 21.4655C-17.0409 17.0449 -9.27807 12.3547 -0.455474 9.69093C4.80828 8.09706 9.9865 7.63443 15.0367 8.65158C28.7889 11.4282 43.4091 17.9766 57.7036 16.5582C61.7681 16.2539 65.6849 15.3891 69.2724 14.0039C82.1864 8.55825 95.2344 4.41532 109.836 2.96201C123.924 1.61799 138.415 2.67554 152.315 6.06214C163.846 8.97012 175.428 12.1416 187.526 13.5671C195.549 14.5444 201.421 17.2294 211.493 15.377C221.32 13.5672 235.899 20.1106 245.766 20.0262C248.905 19.9985 253.388 19.1537 258.075 18.2614C273.902 15.2449 291.554 11.1482 304.565 3.0211C312.96 -2.22725 317.959 -9.54543 330.067 -10.2574C330.64 -10.2939 331.217 -10.3068 331.796 -10.296C357.022 -9.63515 381.287 27.2321 403.931 18.7911C410.885 16.1971 414.311 9.60391 419.104 4.41514C428.261 -5.39657 438.529 -14.533 449.796 -22.8956C460.587 -30.9956 469.523 -40.592 483.743 -45.3479C492.886 -48.4147 502.796 -50.737 512.942 -51.1333C532.223 -51.8718 558.343 -45.0803 570.51 -31.6915" stroke="#AFDFFF" stroke-width="0.399036" stroke-miterlimit="10"/>
<path d="M-39.5434 35.6409C-37.5734 28.6849 -32.8343 22.5088 -25.975 17.9582C-18.7606 13.1368 -11.2585 8.01283 -2.32653 5.13727C2.80718 3.49541 7.86181 3.01771 12.7894 4.01189C26.52 6.7939 40.6999 13.6103 55.0456 12.8011C59.2056 12.6844 63.2521 11.9669 66.9791 10.6851C80.245 5.612 93.5855 1.38411 108.293 -0.249288C122.069 -1.78712 138.014 -0.962421 151.678 2.79237C163.815 6.12796 175.95 10.6774 188.937 12.0985C197.334 13.0168 203.264 15.3069 213.263 13.1965C222.779 11.188 237.351 17.5375 246.934 17.4668C250.072 17.447 254.521 16.7106 259.191 15.8725C274.768 13.1069 291.767 9.1397 304.024 0.59115C312.022 -5.00301 316.376 -12.2551 328.623 -13.0867C329.192 -13.122 329.78 -13.1468 330.355 -13.1412C355.811 -12.7417 379.179 25.8252 402.751 17.3204C411.301 14.2295 415.778 5.45675 421.41 -0.618621C429.555 -9.39466 439.119 -17.2825 448.6 -24.923C458.792 -33.1683 468.085 -43.0427 482.367 -47.7026C491.597 -50.7107 501.6 -52.9333 511.824 -53.2073C531.361 -53.7219 558.068 -46.69 569.673 -32.6379" stroke="#AFDFFF" stroke-width="0.399036" stroke-miterlimit="10"/>
<path d="M-40.4007 33.0686C-38.5503 25.8779 -34.0524 19.3777 -27.4356 14.3315C-20.632 9.10634 -13.1586 3.61707 -4.24942 0.585962C0.744916 -1.11307 5.74707 -1.58912 10.5314 -0.620432C24.2021 2.13821 37.9511 9.23174 52.219 8.97586C56.4552 9.02625 60.6118 8.44058 64.4602 7.25109C78.0583 2.54002 91.6724 -1.96005 106.383 -3.87449C121.093 -5.78893 136.373 -5.17379 150.104 -1.45108C162.531 1.91172 175.841 8.74282 189.854 10.4979C198.804 11.5882 204.936 13.5089 214.863 11.1324C224.208 8.90206 238.68 15.0306 248.121 14.9343C251.259 14.9146 255.534 14.141 260.294 13.4263C275.985 11.0928 291.839 6.74488 303.16 -1.92577C310.782 -7.78276 314.98 -14.9574 327.187 -15.8824C327.76 -15.9298 328.338 -15.9506 328.919 -15.9447C355.114 -15.6884 377.276 24.1065 401.53 15.8454C410.252 12.888 414.973 3.91181 420.647 -2.25486C428.748 -11.0926 438.233 -19.1105 447.221 -26.9881C456.957 -35.5222 466.57 -45.5344 480.99 -50.0409C490.307 -52.9901 500.818 -55.4402 510.706 -55.2648C530.161 -54.9451 557.188 -49.0722 568.838 -33.5916" stroke="#AFDFFF" stroke-width="0.399036" stroke-miterlimit="10"/>
<path d="M-41.246 30.4896C-39.7618 22.5101 -34.8615 16.434 -28.8584 10.5727C-22.8553 4.71135 -15.0578 -0.778639 -6.18373 -3.95069C-1.29787 -5.70314 3.67435 -6.19088 8.36794 -5.24932C21.9488 -2.52574 35.4313 4.9534 49.471 5.11192C53.6479 5.14637 58.2642 4.92079 62.0155 3.72959C75.7549 -0.682872 89.4517 -5.26131 104.274 -7.92585C119.365 -10.6462 134.556 -10.9263 148.236 -6.87211C161.179 -3.02835 175.217 6.06218 190.25 8.62492C199.938 10.2713 206.432 11.786 216.313 9.18681C228.376 6.00924 237.081 13.9195 249.43 12.5133C252.504 12.1642 256.79 11.6491 261.49 10.9915C277.27 8.78936 291.242 4.44536 302.05 -4.48067C309.341 -10.5308 313.844 -17.7245 325.905 -18.7397C326.475 -18.7935 327.051 -18.82 327.629 -18.8191C354.558 -18.7548 375.534 22.1981 400.454 14.2191C409.464 11.2968 414.289 2.23689 419.999 -4.0461C427.999 -12.8318 437.185 -20.9666 445.84 -29.0373C455.283 -37.9046 465.144 -47.8947 479.692 -52.3373C489.105 -55.2106 499.717 -57.5518 509.657 -57.2897C529.371 -56.7777 556.993 -50.6394 568.075 -34.5285" stroke="#AFDFFF" stroke-width="0.399036" stroke-miterlimit="10"/>
<path d="M-42.0906 27.9023C-40.8273 19.5904 -36.087 12.9401 -30.267 6.69467C-24.7133 0.746448 -16.9676 -5.17597 -8.10805 -8.48646C-3.77952 -10.2471 1.30621 -10.7342 6.26499 -9.86312C19.7889 -7.18668 32.8462 0.522059 46.7257 1.22384C51.0615 1.53262 55.3765 1.1526 59.405 0.107174C73.5004 -4.05289 87.5339 -8.99231 102.297 -12.6288C117.649 -16.3786 132.869 -17.4109 146.511 -13.1282C159.89 -8.92573 174.172 2.63046 189.814 6.28839C200.474 8.79284 207.44 10.0434 217.244 7.21773C229.364 3.74162 238.184 11.5693 250.541 10.0919C253.585 9.73104 257.822 9.18591 262.472 8.51418C277.902 6.26934 290.436 2.05575 300.574 -6.9439C307.606 -13.1864 312.399 -20.4413 324.365 -21.5402C324.928 -21.6023 325.498 -21.6376 326.071 -21.646C353.675 -21.7165 373.539 20.2183 399.09 12.5415C408.303 9.76441 413.28 0.481853 419.001 -5.88829C426.885 -14.664 435.707 -22.8994 444.108 -31.2021C453.445 -40.4038 463.427 -50.3551 478.173 -54.7092C487.692 -57.5133 498.416 -59.7365 508.408 -59.3876C528.372 -58.6924 556.545 -52.2779 567.084 -35.5659" stroke="#AFDFFF" stroke-width="0.399036" stroke-miterlimit="10"/>
<path d="M-42.9451 25.2978C-41.8836 16.5834 -37.3503 9.40137 -31.6572 2.73851C-26.4176 -3.37661 -18.8471 -9.57762 -9.98525 -12.9924C-5.71882 -14.7914 -0.669591 -15.3159 4.2645 -14.4725C17.753 -11.8486 30.4077 -3.92358 44.2112 -2.68435C48.5612 -2.24024 52.9235 -2.53194 56.9945 -3.53912C71.6786 -7.55512 86.144 -13.2941 100.779 -17.9352C115.881 -22.7204 130.387 -24.1612 144.934 -20.0175C160.349 -15.6153 172.63 -2.38946 188.502 3.32257C197.635 6.59787 208.94 7.84621 217.73 5.27499C230.091 1.62717 239.186 9.33573 251.594 7.79198C254.609 7.41154 258.776 6.84179 263.345 6.14418C278.49 3.83252 289.559 -0.366585 299.203 -9.43438C306.005 -15.8417 311.033 -23.1402 322.966 -24.3076C323.536 -24.3692 324.113 -24.4037 324.693 -24.4108C352.881 -24.6433 371.766 18.2014 397.866 10.8324C415.719 5.7714 430.576 -21.1206 442.517 -33.3336C451.746 -42.7735 461.888 -52.7456 476.84 -56.9862C486.465 -59.721 497.289 -61.8195 507.334 -61.3918C527.571 -60.5347 556.241 -53.8265 566.249 -36.528" stroke="#AFDFFF" stroke-width="0.399036" stroke-miterlimit="10"/>
<path d="M-43.7862 22.6789C-42.876 14.058 -39.1601 5.89235 -32.9812 -1.06474C-27.3789 -7.49747 -20.6591 -13.9227 -11.7631 -17.4459C-7.52055 -19.2609 -2.4864 -19.8045 2.4409 -18.9798C15.9268 -16.4205 28.221 -8.28215 41.8887 -6.52884C46.2179 -5.95496 50.5957 -6.18238 54.6592 -7.19222C70.1126 -11.2592 84.9847 -18.621 99.5284 -23.7153C112.903 -28.3973 128.211 -32.6428 143.523 -27.3125C160.42 -21.4354 171.954 -7.31164 186.739 -0.743117C196.329 3.51224 206.822 6.527 217.622 3.16342C230.189 -0.724502 239.899 7.17942 252.475 5.53566C255.46 5.14353 259.546 4.5479 264.026 3.81523C278.876 1.35502 288.674 -2.88623 297.854 -11.9142C304.479 -18.4153 309.664 -25.7993 321.512 -27.0414C322.079 -27.1021 322.653 -27.1396 323.229 -27.1538C351.958 -27.5374 369.912 16.0942 396.525 9.05318C414.649 4.25826 429.079 -23.1601 440.837 -35.5079C449.991 -45.0937 460.276 -55.1287 475.445 -59.2625C485.175 -61.9122 496.108 -63.8847 506.187 -63.3886C526.718 -62.3751 555.829 -55.4203 565.338 -37.5474" stroke="#AFDFFF" stroke-width="0.399036" stroke-miterlimit="10"/>
<path d="M-44.6227 20.0287C-43.9287 11.0734 -40.4411 2.51822 -34.4561 -4.91021C-29.1415 -11.5549 -22.5414 -18.2841 -13.5702 -21.9106C-9.32437 -23.7476 -4.27621 -24.3097 0.671505 -23.4963C14.171 -21.0479 26.1532 -12.6662 39.6862 -10.4067C43.9785 -9.68409 48.369 -9.83678 52.4193 -10.8495C68.7482 -15.0671 83.5741 -23.9379 98.3897 -29.8915C111.342 -35.1395 126.679 -40.2256 142.115 -34.8803C159.597 -28.8274 170.715 -14.0387 184.923 -5.65116C194.337 -0.122846 204.894 4.59612 216.788 0.835138C229.72 -3.21735 240.164 5.09755 253.074 3.28546C256.044 2.84329 260.024 2.2668 264.419 1.45153C278.936 -1.10553 287.686 -5.57901 296.495 -14.3948C303.066 -20.9669 308.238 -28.4168 320.094 -29.7222C320.661 -29.7884 321.235 -29.8286 321.812 -29.8425C351.021 -30.4733 368.102 14.057 395.18 7.23341C413.762 2.53457 427.492 -25.3148 439.189 -37.6701C448.307 -47.3085 458.733 -57.471 474.095 -61.4767C483.931 -64.0493 494.975 -65.8958 505.097 -65.3301C525.935 -64.1746 555.444 -56.9703 564.456 -38.5389" stroke="#AFDFFF" stroke-width="0.399036" stroke-miterlimit="10"/>
<path d="M-45.4598 17.37C-44.9451 8.11238 -41.675 -0.793047 -35.9029 -8.65616C-30.8768 -15.5932 -24.3462 -22.5239 -15.2389 -26.2384C-10.9805 -28.1285 -5.89967 -28.7456 -0.894511 -27.9803C12.6622 -25.5732 24.3928 -17.0131 37.7825 -14.2645C42.0396 -13.3705 46.4608 -13.4262 50.5231 -14.4251C67.5784 -18.7713 82.5697 -29.5997 97.5078 -36.3022C110.06 -41.9526 125.311 -47.7085 140.852 -42.4548C158.824 -36.3905 169.847 -20.9059 183.193 -11.1923C191.959 -4.81024 202.486 2.05154 215.173 -1.78963C228.664 -5.87862 239.946 3.10125 253.495 1.10967C256.445 0.66499 260.336 0.0375972 264.624 -0.750604C278.54 -3.43715 286.728 -8.27651 295.17 -16.8235C301.715 -23.439 306.821 -30.9531 318.716 -32.3181C319.283 -32.3879 319.857 -32.4307 320.435 -32.4464C350.115 -33.2529 366.315 11.8133 393.762 5.30798C412.704 0.829846 425.826 -27.5197 437.493 -39.8867C446.603 -49.5422 457.17 -59.8322 472.728 -63.7337C482.699 -66.3033 493.274 -67.4979 503.994 -67.2654C525.537 -66.5788 555.55 -57.673 563.538 -39.5835" stroke="#AFDFFF" stroke-width="0.399036" stroke-miterlimit="10"/>
<path d="M-46.2931 14.6874C-45.9682 5.1164 -42.9161 -4.14688 -37.3543 -12.4431C-32.594 -19.6859 -26.0683 -26.8343 -16.8341 -30.6458C-12.5033 -32.5361 -7.36133 -33.1547 -2.29023 -32.3956C11.5282 -30.0772 22.9987 -21.3558 36.2285 -18.1524C40.4799 -17.0272 45.0084 -17.0431 49.0596 -18.1974C66.6597 -23.4983 81.1546 -35.4002 96.7631 -42.8009C109.179 -48.7091 124.035 -54.907 139.633 -49.8635C157.904 -43.9396 169.114 -28.2715 181.49 -17.2852C189.233 -10.4007 200.284 -1.1515 213.297 -4.92084C227.133 -8.92755 239.439 1.08553 253.496 -1.04514C256.446 -1.48982 260.243 -2.20105 264.402 -3.04517C288.564 -7.98093 294.034 -32.2056 317.281 -34.9534C317.849 -35.0219 318.423 -35.0673 319.001 -35.0895C349.233 -35.9655 364.517 9.32676 392.369 3.36116C411.302 -0.699999 424.412 -29.7184 435.879 -42.0854C444.965 -51.8886 455.715 -62.1322 471.418 -65.8472C481.502 -68.3177 492.16 -69.4247 502.945 -69.122C524.857 -68.286 555.046 -59.198 562.657 -40.5915" stroke="#AFDFFF" stroke-width="0.399036" stroke-miterlimit="10"/>
<path d="M-47.116 11.9986C-47.0958 1.87906 -43.6586 -7.37403 -38.8142 -16.1663C-34.6665 -23.7008 -27.7401 -31.0495 -18.2986 -34.9323C-13.8743 -36.7985 -8.69511 -37.4598 -3.53969 -36.8167C10.7116 -35.0486 22.0466 -26.1588 35.1184 -22.5164C39.3635 -21.2385 43.974 -21.2255 48.0232 -22.48C65.7874 -28.3558 80.2616 -41.2893 96.1392 -49.2683C108.244 -55.3671 122.77 -61.6857 138.41 -56.9024C156.946 -51.2678 168.304 -35.4449 179.805 -23.7934C186.959 -16.5384 197.879 -5.01385 211.47 -8.46358C225.602 -12.0645 238.367 -0.845741 253.172 -3.19088C256.111 -3.63681 259.829 -4.38186 263.879 -5.27939C287.398 -10.5185 292.968 -34.6989 315.948 -37.4873C316.516 -37.5558 317.09 -37.6012 317.668 -37.6234C348.34 -38.5906 362.842 6.76731 390.961 1.3568C409.777 -2.26033 423.016 -31.9062 434.285 -44.2733C443.358 -54.2308 454.297 -64.3951 470.223 -67.9704C480.433 -70.3208 491.182 -71.3205 502.036 -70.929C524.389 -69.9427 554.696 -60.7116 561.873 -41.6274" stroke="#AFDFFF" stroke-width="0.399036" stroke-miterlimit="10"/>
<path d="M-47.9565 9.29141C-48.1246 -1.08423 -44.9128 -10.7185 -40.2254 -19.8515C-36.342 -27.6192 -29.367 -35.1951 -19.7144 -39.1809C-15.1788 -41.067 -9.94757 -41.8517 -4.65906 -41.4392C9.93465 -40.3368 21.3807 -31.329 34.3238 -27.3163C36.4167 -26.6253 38.6414 -26.2606 40.8647 -26.2439C43.088 -26.2273 45.2642 -26.5591 47.263 -27.2195C65.156 -33.4656 79.4367 -47.299 95.4681 -55.5968C107.395 -61.7737 121.483 -67.7677 137.121 -63.3946C155.963 -58.1248 167.235 -42.7064 178.135 -30.5893C184.947 -23.0142 195.55 -9.48622 209.6 -12.4137C224.228 -15.4557 236.451 -2.7836 252.348 -5.34934C255.298 -5.79402 258.927 -6.58204 262.815 -7.52341C285.749 -13.1072 291.778 -37.1995 314.496 -39.9796C315.069 -40.0465 315.651 -40.1042 316.207 -40.1249C347.202 -41.1732 361.111 4.1607 389.384 -0.708527C408.025 -3.92084 421.563 -34.1333 432.576 -46.4592C441.642 -56.6105 452.802 -66.6193 468.897 -70.0373C479.231 -72.2642 490.071 -73.1512 500.993 -72.6639C523.846 -71.4881 554.133 -62.1711 560.923 -42.6597" stroke="#AFDFFF" stroke-width="0.399036" stroke-miterlimit="10"/>
<path d="M-48.7889 6.59307C-49.0888 -3.83103 -46.6944 -14.0635 -41.7467 -23.502C-37.5765 -31.3071 -31.6399 -39.0257 -21.1327 -43.3334C-16.4667 -45.2986 -11.1576 -46.2811 -5.70152 -46.1891C9.20564 -45.7722 20.9369 -36.8743 33.7661 -32.4414C35.8524 -31.6858 38.0972 -31.2813 40.3449 -31.256C42.5926 -31.2307 44.7894 -31.5852 46.7829 -32.2949C64.7254 -38.7761 78.6909 -53.283 94.7947 -61.6605C106.569 -67.7916 120.057 -73.0548 135.698 -69.1396C154.818 -64.3504 165.958 -49.9128 176.469 -37.5136C183.15 -29.6329 193.396 -14.5485 207.782 -16.7194C223.216 -19.0844 233.764 -4.67868 251.076 -7.53037C254.042 -8.02133 257.563 -8.78229 261.366 -9.70993C284.428 -15.3103 290.316 -39.6207 313.109 -42.4158C313.682 -42.4827 314.262 -42.5326 314.819 -42.5532C346.009 -43.5777 359.559 1.53548 387.81 -2.81379C406.196 -5.64716 420.069 -36.3815 430.92 -48.6629C439.999 -58.9251 451.346 -68.8388 467.64 -72.0799C478.098 -74.1789 489.028 -74.9508 500.019 -74.3665C523.264 -73.0626 553.602 -63.7473 560.05 -43.7389" stroke="#AFDFFF" stroke-width="0.399036" stroke-miterlimit="10"/>
<path d="M-49.6109 3.90436C-50.5161 -14.4078 -43.9955 -38.2472 -22.5519 -47.4696C5.08298 -59.3789 24.7033 -30.1202 46.4647 -37.5753C74.5346 -47.2206 95.4632 -82.5062 134.082 -73.9752C153.187 -69.7506 163.74 -57.3543 174.193 -45.1711C181.518 -36.6572 191.289 -19.8216 205.972 -21.3374C215.309 -22.3064 219.04 -17.0604 226.642 -13.9958C238.865 -9.04982 246.64 -8.26351 259.749 -11.788C282.074 -17.7836 289.169 -42.2203 311.716 -44.7962C343.923 -48.4143 357.241 -0.965701 386.183 -4.98947C401.529 -7.1401 409.883 -27.9262 417.898 -37.8598C429.563 -52.2771 443.821 -70.4708 466.417 -74.0536C495.742 -78.7302 549.935 -75.9398 559.123 -44.7923" stroke="#AFDFFF" stroke-width="0.399036" stroke-miterlimit="10"/>
</g>
</g>
<defs>
<clipPath id="clip0_143_2982">
<rect width="390" height="138" rx="12" fill="white"/>
</clipPath>
<clipPath id="clip1_143_2982">
<rect width="648.215" height="282.749" fill="white" transform="translate(-33.2134 -141) rotate(6.94502)"/>
</clipPath>
</defs>
</svg>
