<svg width="390" height="228" viewBox="0 0 390 228" fill="none" xmlns="http://www.w3.org/2000/svg">
<g clip-path="url(#clip0_260_2103)">
<g filter="url(#filter0_d_260_2103)">
<rect x="0.5" y="0.5" width="389" height="227" rx="11.5" stroke="#E9EAEB" shape-rendering="crispEdges"/>
</g>
<g opacity="0.25" clip-path="url(#clip1_260_2103)">
<path d="M-91.8479 234.888C-78.8829 245.158 -61.4206 249.324 -44.6324 251.944C-10.0349 257.339 -7.29249 220.354 18.1314 220.271C40.2708 220.188 54.6357 215.53 66.6835 201.264C87.0845 177.14 118.877 192.445 138.201 209.644C168.12 236.269 199.542 272.109 250.088 263.488C288.343 256.97 311.363 242.783 328.76 215.523C336.095 204.029 343.579 191.11 347.321 178.398C351.064 165.686 347.114 147.511 363.313 140.706C395.55 126.958 444.365 153.788 479.297 148.523C504.87 144.615 515.17 135.54 506.082 113.843C493.52 84.0263 541.176 78.3119 567.948 75.1745C591.209 72.4385 627.328 83.978 647.015 71.5501" stroke="#AFDFFF" stroke-width="0.484118" stroke-miterlimit="10"/>
<path d="M-92.9089 230.798C-80.038 240.696 -62.8956 244.676 -46.4487 247.08C-27.2484 249.887 -14.088 236.898 -4.79141 226.062C1.62236 218.592 8.19943 211.863 15.6357 212.135C38.4879 212.967 50.7753 207.978 64.0169 194.531C67.3239 190.939 71.5273 187.916 76.4013 185.622C98.8727 175.942 120.216 190.306 135.024 202.517C151.305 215.971 167.06 233.73 185.965 245.319C206.195 257.683 225.919 262.222 250.593 259.551C265.643 257.912 282.842 253.725 294.12 246.506C307.878 237.667 318.217 225.67 327.163 212.919C328.961 210.339 330.59 207.484 332.182 204.616C338.475 193.248 342.946 182.878 345.369 170.484C347.69 158.613 344.689 144.836 358.155 137.356C358.673 137.06 359.227 136.801 359.809 136.582C393.847 123.454 441.754 150.973 476.92 146.185C503.369 142.579 511.163 133.141 502.304 111.442C495.796 95.5399 508.248 87.0102 523.938 81.7815C536.787 77.4942 552.807 75.3783 567.624 73.779C591.052 71.2389 626.342 82.297 645.955 70.3673" stroke="#AFDFFF" stroke-width="0.484118" stroke-miterlimit="10"/>
<path d="M-93.9715 226.611C-80.8609 235.894 -64.4425 239.572 -48.2916 241.49C-28.8645 243.788 -16.2216 229.01 -7.11327 218.054C-0.723721 210.366 5.8311 203.82 13.1959 204.053C35.1608 204.778 47.4534 200.579 61.541 188.308C65.0179 185.138 69.3556 182.607 74.2781 180.876C97.0726 173.333 115.91 183.802 131.833 195.924C149.243 209.155 166.02 226.551 184.701 238.62C204.791 251.611 225.717 258.052 251.044 255.645C265.517 254.258 282.164 250.023 293.01 242.712C306.309 233.597 317.325 222.663 325.569 210.394C327.344 207.791 329.037 205.032 330.659 202.235C337.482 190.259 340.589 180.26 342.289 167.035C343.84 154.925 340.869 140.898 354.751 133.439C355.283 133.15 355.844 132.892 356.43 132.668C390.958 119.893 439.284 148.448 474.562 143.986C501.612 140.55 506.703 130.714 498.602 109.147C492.449 92.713 507.349 85.0179 523.317 80.2132C536.561 76.218 552.446 74.0757 567.318 72.4345C590.687 69.8579 624.95 80.4983 644.867 69.2006" stroke="#AFDFFF" stroke-width="0.484118" stroke-miterlimit="10"/>
<path d="M-95.0241 222.347C-82.5087 230.582 -65.838 234.583 -50.166 235.332C-29.9919 236.287 -18.5518 220.972 -9.4056 209.913C-3.0102 202.177 3.54113 195.972 10.8322 196.187C30.5735 196.738 45.5986 193.428 59.2727 182.677C63.0675 179.923 67.608 177.846 72.6085 176.576C95.0481 170.073 112.54 178.163 128.955 189.985C146.949 202.906 164.384 219.475 183.097 231.694C203.761 245.184 225.548 253.613 251.284 251.597C266.21 250.342 280.139 245.893 291.541 238.739C304.732 230.119 315.711 219.666 323.976 207.859C325.773 205.288 327.476 202.55 329.153 199.711C336.645 187.036 338.049 177.385 338.998 163.348C339.825 151.041 337.153 136.846 351.504 129.494C352.044 129.204 352.614 128.948 353.208 128.726C388.273 116.435 437.007 145.907 472.251 141.724C499.595 138.481 502.068 128.063 495.008 106.797C489.45 89.9582 506.767 83.1427 522.973 78.6694C536.471 74.988 552.214 72.7602 567.093 71.0612C590.242 68.4188 623.94 78.8051 643.82 68.0101" stroke="#AFDFFF" stroke-width="0.484118" stroke-miterlimit="10"/>
<path d="M-96.1013 218.061C-83.5504 225.589 -67.0472 228.779 -52.0556 228.762C-32.1166 228.733 -21.0179 212.889 -11.6784 201.805C-5.2607 194.198 1.35822 188.479 8.57662 188.666C27.6417 189.252 42.4531 186.55 57.2313 177.874C61.5298 175.553 66.2909 173.762 71.3588 172.562C93.3521 166.911 110.427 173.01 126.709 184.572C144.394 197.114 162.6 212.665 181.103 224.731C202.408 238.583 226.463 249.628 251.119 247.423C265.423 246.004 278.767 241.693 289.837 234.914C303.086 226.833 314.144 216.833 322.459 205.412C324.277 202.873 325.98 200.135 327.724 197.275C334.654 185.985 335.894 177.26 335.956 164.568C336.033 150.922 331.582 133.846 348.459 125.748C349.016 125.465 349.597 125.21 350.2 124.985C385.818 113.054 434.881 143.357 469.919 139.412C497.28 136.337 497.383 125.288 491.494 104.4C486.688 87.3301 506.554 81.2348 522.715 77.1364C536.48 73.6533 552.069 71.4361 566.969 69.6714C589.885 66.9616 622.993 77.0907 642.839 66.789" stroke="#AFDFFF" stroke-width="0.484118" stroke-miterlimit="10"/>
<path d="M-97.1648 213.776C-84.5577 220.53 -68.2499 222.722 -53.967 221.964C-34.446 220.889 -23.5968 204.907 -13.9019 193.925C-7.44441 186.616 -0.800449 181.524 6.42343 181.77C24.8223 182.412 39.9942 180.914 55.6086 173.599C60.24 171.571 65.1956 169.985 70.375 168.872C91.8775 163.815 108.665 168.21 124.89 179.414C142.233 191.427 160.333 206.078 178.673 217.822C200.567 231.832 225.619 244.687 250.268 242.949C262.791 242.065 276.329 237.745 288.009 231.286C301.46 223.784 312.61 214.125 320.773 202.904C322.613 200.397 324.312 197.59 326.132 194.827C339.665 174.305 316.429 134.975 345.395 122.166C345.98 121.883 346.591 121.631 347.224 121.413C383.476 109.686 431.277 140.986 467.144 136.996C495.155 133.892 492.507 122.528 487.95 102.056C484.228 85.0304 506.454 79.5542 522.612 75.7872C537.077 72.5923 551.85 70.1337 566.842 68.4264C589.54 65.6315 622.005 75.5165 641.804 65.7065" stroke="#AFDFFF" stroke-width="0.484118" stroke-miterlimit="10"/>
<path d="M-98.2215 209.541C-85.5103 215.44 -69.4712 216.506 -55.8675 214.974C-36.9007 212.826 -26.2943 197.068 -16.0707 186.326C-9.55689 179.492 -2.82931 175.171 4.38637 175.484C22.2358 176.264 38.5778 175.884 54.4031 169.648C59.3059 167.865 64.4286 166.43 69.7123 165.358C90.9411 160.57 107.465 163.9 123.588 174.486C140.392 185.507 157.958 199.858 175.947 211.15C196.245 223.893 223.878 240.661 248.745 238.17C262.224 236.935 275.01 233.424 286.217 227.879C299.825 220.845 311.1 211.494 319.255 200.476C321.118 197.991 322.807 195.056 324.708 192.362C339.347 171.711 309.664 132.005 342.69 118.754C343.307 118.497 343.944 118.268 344.6 118.07C381.625 106.866 426.038 135.793 464.441 134.619C494.907 133.745 487.22 116.266 484.708 99.7297C482.135 82.7468 506.598 77.8456 522.674 74.3416C537.153 71.3019 551.877 68.8629 566.783 67.0344C589.253 64.1337 621.05 73.7812 640.802 64.4533" stroke="#AFDFFF" stroke-width="0.484118" stroke-miterlimit="10"/>
<path d="M-99.284 205.364C-85.9866 210.719 -70.6506 209.749 -57.7588 208.023C-40.056 205.634 -29.151 189.61 -18.1799 179.29C-11.5923 173.099 -4.75877 169.679 2.48152 170.102C20.4052 171.105 36.9304 171.616 53.4008 166.122C58.5067 164.536 63.7516 163.197 69.1068 162.114C89.828 157.537 106.5 159.549 122.535 169.705C138.819 180.009 155.758 193.982 173.083 204.792C193.474 217.508 221.026 234.617 246.431 233.128C259.357 232.371 272.508 230.081 284.256 224.518C298.021 217.914 309.442 208.847 317.641 198.016C319.54 195.546 321.292 192.716 323.206 189.916C337.742 168.755 304.044 128.599 340.137 115.575C340.787 115.342 341.461 115.112 342.131 114.921C379.719 104.41 423.142 132.924 461.543 132.393C492.089 132.007 482.725 113.309 481.574 97.5629C480.365 80.8339 506.683 76.4316 522.838 73.1128C536.95 70.2182 551.99 67.8268 566.701 65.844C588.979 62.8516 620.055 72.2748 639.788 63.4224" stroke="#AFDFFF" stroke-width="0.484118" stroke-miterlimit="10"/>
<path d="M-100.334 201.276C-86.9115 205.603 -71.9387 203.554 -59.6639 201.168C-42.4681 197.839 -32.2738 182.548 -20.2697 172.91C-13.5657 167.533 -6.7317 165.254 0.548041 165.77C18.5389 167.054 35.703 167.838 52.5487 162.906C57.8074 161.368 63.1946 160.07 68.6839 159.019C89.4539 155.082 104.93 154.734 121.878 164.992C137.693 174.565 154.047 188.243 170.706 198.689C191.396 211.656 218.314 228.249 243.899 228.196C257.014 228.174 270.243 226.596 282.358 221.254C296.29 215.016 307.872 206.178 316.136 195.482C318.231 192.881 320.131 190.181 321.825 187.397C334.135 166.403 300.002 124.713 337.952 112.578C338.638 112.359 339.349 112.143 340.055 111.966C378.016 102.242 420.624 130.159 458.726 130.108C488.988 130.078 478.454 110.155 478.658 95.2568C478.873 79.1304 506.71 75.0595 523.103 71.8673C537.223 69.1103 552.073 66.6176 566.65 64.5892C588.727 61.4749 619.055 70.6898 638.768 62.313" stroke="#AFDFFF" stroke-width="0.484118" stroke-miterlimit="10"/>
<path d="M-101.389 197.343C-87.4295 200.175 -73.8587 197.663 -61.5633 194.586C-44.8986 190.413 -35.6425 175.953 -22.3014 167.415C-19.5139 165.488 -16.2133 164.046 -12.5998 163.176C-8.98629 162.307 -5.13535 162.028 -1.28075 162.358C16.8792 163.711 34.6064 164.661 51.7943 160.044C57.0374 158.644 62.7144 157.326 68.2293 156.194C88.5237 152.101 104.577 150.867 121.352 160.46C136.763 169.292 152.668 182.807 168.634 192.906C190.694 206.899 215.981 221.371 241.217 223.558C254.894 224.823 268.493 222.959 280.321 218.196C294.446 212.278 306.225 203.631 314.595 193.032C316.858 190.467 318.684 187.676 320.034 184.72C328.494 162.946 296.436 120.884 336.055 109.83C336.777 109.626 337.497 109.44 338.228 109.276C376.692 100.832 417.823 127.545 455.836 127.913C485.816 128.219 474.7 107.455 476.031 92.986C477.469 77.3305 507.165 73.6129 523.473 70.5956C537.614 67.9874 552.168 65.4197 566.593 63.285C588.546 60.0482 618.046 69.0843 637.767 61.1668" stroke="#AFDFFF" stroke-width="0.484118" stroke-miterlimit="10"/>
<path d="M-102.435 193.538C-88.4768 195.239 -75.3703 191.958 -63.4365 188.311C-47.5322 183.508 -39.0399 169.697 -24.3549 162.932C-18.0423 160.059 -10.5646 158.917 -3.04632 159.675C15.3557 161.019 33.6046 161.954 51.0659 157.488C56.4066 156.119 62.1246 154.777 67.7013 153.554C87.5965 149.199 104.178 147.063 120.93 156.02C136.028 164.082 151.497 177.427 166.863 187.346C188.68 201.366 213.402 215.79 238.496 219.139C251.465 220.846 265.314 220.211 278.288 215.208C292.618 209.574 304.607 201.087 313.109 190.558C315.313 187.938 316.864 185.002 317.69 181.889C322.927 159.722 292.635 116.9 334.353 107.565C335.096 107.392 335.863 107.242 336.628 107.101C375.531 100.057 414.923 125.017 452.953 125.864C482.708 126.563 470.946 104.647 473.703 90.8589C476.729 75.6992 507.297 72.4291 523.919 69.4403C537.972 66.919 552.297 64.2552 566.527 62.0577C588.564 58.6555 616.477 67.2838 636.766 60.1182" stroke="#AFDFFF" stroke-width="0.484118" stroke-miterlimit="10"/>
<path d="M-103.474 189.891C-89.5972 190.489 -76.7419 186.563 -65.2974 182.456C-50.7146 177.258 -41.524 164.273 -26.373 159.408C-19.4687 157.177 -12.3456 157.001 -4.76248 157.525C13.8988 158.822 32.6257 159.582 50.3052 155.093C55.7495 153.708 61.4768 152.289 67.096 150.925C83.9513 146.853 103.949 141.759 120.514 151.521C136.03 160.629 150.556 172.035 165.383 181.801C186.866 195.956 210.833 210.337 235.796 214.655C249.023 216.949 262.805 216.97 276.133 212.078C290.611 206.701 303.552 198.426 311.45 187.83C313.331 185.018 314.438 181.906 314.708 178.678C317.496 156.31 289.468 113.022 332.939 105.53C333.729 105.402 334.531 105.265 335.332 105.148C374.305 99.4002 412.263 122.595 450.093 123.731C479.408 124.61 467.28 101.528 471.594 88.6024C476.411 74.1486 507.09 71.2139 524.405 68.1535C538.338 65.6858 552.407 62.9419 566.43 60.6705C588.332 57.1251 615.427 65.6049 635.77 58.924" stroke="#AFDFFF" stroke-width="0.484118" stroke-miterlimit="10"/>
<path d="M-104.499 186.43C-90.8506 185.986 -78.3639 181.548 -67.1307 177.093C-53.6202 171.745 -43.5247 160.285 -28.3498 156.681C-21.2339 155.002 -14.1572 155.415 -6.46703 155.893C12.4118 157.071 31.6225 157.607 49.4722 152.866C54.9622 151.418 60.7036 149.884 66.329 148.364C83.1268 143.827 103.074 138.209 119.981 147.038C135.478 155.159 149.73 166.629 164.098 176.309C185.186 190.583 208.463 205.006 233.126 210.234C246.477 213.06 260.29 213.874 273.984 208.997C288.381 203.865 302.913 195.862 309.191 184.922C310.625 182.414 311.132 178.877 311.249 175.418C312.14 152.283 286.395 110.024 331.823 103.96C332.635 103.854 333.474 103.732 334.31 103.639C373.199 99.1002 409.796 120.462 447.259 121.796C476.123 122.835 463.867 98.3129 469.707 86.4905C476.428 72.9611 506.555 70.2908 524.912 67.0062C538.719 64.5329 552.537 61.7586 566.284 59.3657C587.995 55.6118 614.354 63.9921 634.763 57.8166" stroke="#AFDFFF" stroke-width="0.484118" stroke-miterlimit="10"/>
<path d="M-105.52 183.165C-92.1644 181.797 -79.889 177.011 -68.9413 172.297C-56.5379 166.98 -45.1845 157.166 -30.3183 154.743C-23.1122 153.573 -15.9839 154.187 -8.2106 154.608C10.9892 155.649 30.6071 155.756 48.5057 150.719C54.0222 149.157 59.755 147.485 65.3652 145.779C82.1309 140.671 101.77 134.461 119.216 142.506C134.824 149.714 148.915 161.155 162.946 170.794C183.8 185.117 206.206 199.707 230.516 205.75C243.883 209.076 257.813 210.695 271.796 205.843C285.778 200.992 301.741 193.631 306.231 181.751C307.195 178.562 307.563 175.254 307.327 171.926C306.718 147.565 283.665 107.467 330.986 102.629C331.833 102.547 332.695 102.447 333.553 102.376C372.214 98.8724 407.565 118.385 444.479 119.858C472.913 120.99 460.807 95.4427 468.226 84.4075C476.851 71.5881 506.348 69.1923 525.435 65.743C538.987 63.2873 552.577 60.4071 566.07 58.0126C587.697 54.1216 613.215 62.4288 633.741 56.7455" stroke="#AFDFFF" stroke-width="0.484118" stroke-miterlimit="10"/>
<path d="M-106.53 180.106C-93.5866 177.956 -81.8239 172.903 -70.7282 168.119C-58.6798 162.905 -46.7975 154.891 -32.2729 153.295C-24.9738 152.507 -17.8307 153.104 -9.99138 153.503C9.47042 154.371 29.4956 154.05 47.3641 148.531C52.8731 146.822 58.602 144.974 64.1618 143.057C80.8185 137.283 99.9232 130.568 118.05 137.916C133.994 144.345 147.988 155.54 161.803 165.182C182.42 179.574 204.04 194.371 227.942 201.164C241.229 204.938 255.37 207.431 269.618 202.583C283.545 197.881 299.775 191.236 302.646 178.388C303.23 175.07 303.348 171.69 302.999 168.307C301.218 142.534 281.604 105.226 330.435 101.42L333.059 101.223C370.952 98.8256 405.571 116.532 441.817 118.08C469.917 119.24 458.038 93.0763 467.17 82.5522C477.807 70.2899 506.347 68.1578 525.989 64.5226C539.261 62.0718 552.611 59.0844 565.836 56.5987C587.393 52.5528 612.109 60.7818 632.775 55.6131" stroke="#AFDFFF" stroke-width="0.484118" stroke-miterlimit="10"/>
<path d="M-107.528 177.263C-95.0691 174.509 -83.6098 169.448 -72.4739 164.854C-60.4594 159.919 -48.5161 153.278 -34.1594 152.227C-26.7884 151.682 -19.6781 152.236 -11.7736 152.516C7.93886 153.2 28.3225 152.435 46.0499 146.304C51.5426 144.417 57.2336 142.36 62.7191 140.219C79.1919 133.769 97.3539 126.569 116.428 133.223C132.933 138.998 146.94 149.776 160.63 159.402C181.023 173.757 201.979 188.912 225.48 196.388C238.653 200.577 253.07 203.816 267.426 199.127C281.782 194.439 296.659 188.184 298.435 174.745C298.733 171.379 298.676 167.983 298.265 164.59C295.649 137.341 280.268 103.279 330.028 100.494C330.921 100.446 331.817 100.38 332.708 100.352C369.732 98.8435 403.821 114.866 439.212 116.349C466.968 117.525 455.336 91.0019 466.366 80.826C479.104 69.1124 506.398 67.1114 526.482 63.2861C539.464 60.8195 552.528 57.6802 565.515 55.1752C587.04 50.9695 610.964 59.141 631.804 54.5299" stroke="#AFDFFF" stroke-width="0.484118" stroke-miterlimit="10"/>
<path d="M-108.528 174.537C-96.5393 171.374 -85.3003 166.559 -74.1924 162.196C-62.2084 157.511 -50.1353 152.096 -36.1555 151.223C-28.7723 150.787 -21.6785 151.163 -13.7497 151.348C6.19078 151.827 26.9145 150.664 44.4388 143.805C49.8822 141.698 55.524 139.42 60.9002 137.032C78.9126 129.082 94.2515 124.757 113.807 128.709C130.266 132.05 145.544 143.841 159.153 153.409C179.291 167.567 199.903 183.255 223.002 191.424C236.064 196.009 250.75 199.749 265.219 195.484C279.218 191.336 292.824 183.952 293.733 171.08C293.842 167.67 293.67 164.245 293.219 160.825C290.215 132.075 279.812 101.507 329.895 99.7067C330.786 99.6787 331.704 99.6345 332.607 99.6176C368.576 98.849 402.305 113.355 436.741 114.77C464.313 115.895 452.676 89.0977 465.887 79.2362C480.76 68.1142 506.57 66.1081 526.974 62.0583C539.631 59.5522 552.415 56.3106 565.055 53.7438C586.573 49.3908 609.755 57.511 630.803 53.4716" stroke="#AFDFFF" stroke-width="0.484118" stroke-miterlimit="10"/>
<path d="M-109.521 171.87C-97.9508 168.5 -86.9899 163.886 -75.889 159.893C-63.7401 155.52 -51.9161 151.108 -38.0952 150.187C-30.6744 149.782 -23.2043 149.695 -15.7188 149.928C4.40638 150.244 25.3328 148.667 42.6028 141.085C47.9642 138.714 53.6876 136.183 58.7314 133.608C74.9502 125.39 91.6833 122.425 109.94 124.961C127.398 127.39 143.483 137.659 157.329 147.149C177.366 160.895 197.035 176.097 220.475 186.054C232.965 191.369 249.368 195.699 262.938 191.421C276.508 187.144 287.998 179.228 288.448 167.101C288.554 164.255 288.156 160.549 287.803 156.888C284.844 126.836 280.093 99.8339 329.793 98.8846C330.708 98.8693 331.637 98.8459 332.537 98.8482C367.393 98.6853 400.809 111.905 434.246 113.188C461.754 114.218 449.83 87.2781 465.488 77.6269C482.476 67.1527 506.583 65.0757 527.255 60.6977C539.592 58.1135 552.073 54.757 564.385 52.1698C585.908 47.6712 608.423 55.7491 629.702 52.3229" stroke="#AFDFFF" stroke-width="0.484118" stroke-miterlimit="10"/>
<path d="M-110.517 169.418C-99.3473 165.901 -88.5214 161.563 -77.5799 157.941C-65.529 153.956 -53.4382 150.269 -40.0457 149.013C-32.6838 148.301 -25.2383 147.97 -17.7577 148.022C2.51711 148.15 23.6243 146.235 40.5436 137.888C45.8479 135.257 51.305 132.83 56.058 130.56C71.6536 123.087 87.4358 120.327 105.199 121.915C122.963 123.504 140.337 132.458 154.71 141.163C175.318 153.651 194.893 169.935 217.973 180.452C229.891 185.884 247.342 191.706 259.986 187.014C271.935 182.617 282.595 174.649 282.907 163.129C282.993 160.34 282.607 156.645 282.324 153.03C279.958 121.959 281.291 98.4192 329.986 98.2253C330.9 98.2196 331.854 98.1992 332.752 98.2207C365.521 99.0521 399.622 110.6 432.022 111.757C455.509 112.589 453.394 84.4542 465.426 76.1464C480.201 65.939 506.56 63.9023 527.585 59.3332C539.724 56.7055 551.706 53.1808 563.74 50.5889C585.368 45.9568 607.214 54.0021 628.741 51.2498" stroke="#AFDFFF" stroke-width="0.484118" stroke-miterlimit="10"/>
<path d="M-111.493 167.017C-100.723 163.452 -90.2672 159.341 -79.2714 156.106C-67.1037 152.516 -54.9508 149.256 -42.0484 147.443C-34.7759 146.256 -27.3391 145.586 -19.8272 145.439C0.67095 145.399 21.1408 142.782 38.1155 134.501C43.1169 132.066 48.3381 130.118 52.8435 128.111C66.7257 121.794 82.7816 117.829 99.6068 119.313C118.211 120.974 135.208 127.814 150.173 135.724C171.787 147.135 192.907 164.475 215.22 174.314C226.881 179.47 243.383 186.523 255.298 181.985C265.726 177.998 276.537 170.136 276.978 159.022C277.093 156.305 276.778 152.648 276.651 149.111C275.439 117.419 283.103 97.0794 330.213 97.5118C331.138 97.5172 332.077 97.5145 332.986 97.5472C364.668 98.7631 398.4 109.495 429.844 110.379C452.452 111.027 452.63 82.7129 465.454 74.6675C481.067 64.8646 506.728 62.7329 527.7 57.8648C539.444 55.15 551.138 51.4926 562.821 48.8678C584.412 44.0166 605.916 52.1665 627.713 50.1104" stroke="#AFDFFF" stroke-width="0.484118" stroke-miterlimit="10"/>
<path d="M-112.476 164.683C-112.476 164.683 -103.555 160.57 -80.9424 154.312C-68.9746 151.01 -56.3793 147.97 -43.9823 145.412C-36.6453 143.897 -29.6114 141.954 -21.9126 141.946C-1.82026 141.906 17.9693 139.147 35.3307 131.752C40.1603 129.687 45.0613 127.972 49.2387 126.16C62.627 120.358 77.5832 116.259 93.6773 117.186C112.087 118.258 129.06 123.837 144.405 130.915C166.737 141.223 188.566 157.538 210.794 167.756C221.757 172.808 238.246 180.698 249.126 176.434C258.781 172.655 270.026 165.705 270.774 154.881C270.967 152.252 270.807 148.672 270.859 145.226C271.422 113.438 285.394 95.866 330.492 96.7848C331.414 96.8094 332.353 96.8067 333.247 96.8571C363.888 98.4045 397.197 108.548 427.765 109.121C439.91 109.362 442.426 104.636 447.186 97.8316C454.633 87.19 452.737 80.6873 465.565 73.2372C481.763 63.8372 506.926 61.4206 527.636 56.4133C539.03 53.6558 550.466 49.7231 561.74 47.1169C583.114 42.1806 604.632 50.3225 626.658 49.0844" stroke="#AFDFFF" stroke-width="0.484118" stroke-miterlimit="10"/>
<path d="M-113.454 162.408C-113.454 162.408 -105.051 158.174 -82.6367 152.506C-70.4549 149.425 -57.9775 146.312 -45.9464 142.803C-38.6095 140.663 -31.4811 137.737 -23.9789 137.676C-4.84867 137.519 14.9062 136.189 32.2283 129.638C36.8556 127.88 41.5071 126.34 45.5123 124.692C58.3274 119.327 72.1777 114.938 87.5439 115.385C105.501 115.905 122.268 120.473 137.694 126.674C160.446 135.824 182.811 150.546 204.711 161.173C215.14 166.237 230.622 174.687 241.851 170.574C254.149 166.024 261.027 161.302 264.548 150.817C265.309 148.529 264.926 144.805 265.231 141.468C268.109 110.137 288.074 94.7977 330.945 96.089C331.868 96.1136 332.817 96.1317 333.697 96.1901C363.364 98.0286 396.149 107.787 425.958 108.033C438.233 108.143 440.348 103.173 445.316 96.4333C453.263 85.6382 452.384 79.3179 465.915 71.9338C482.489 62.882 507.109 60.1263 527.528 54.9079C538.615 52.0739 549.618 47.8447 560.733 45.297C582.271 40.4686 603.471 48.4059 625.696 48.0406" stroke="#AFDFFF" stroke-width="0.484118" stroke-miterlimit="10"/>
<path d="M-114.432 160.124C-114.432 160.124 -106.477 155.826 -84.2769 150.561C-71.726 147.705 -59.5854 143.998 -47.9898 139.482C-40.6693 136.54 -33.7522 133.891 -26.2378 133.938C-7.16541 134.047 11.4021 133.929 28.937 127.921C33.3827 126.404 37.9281 125.007 41.6045 123.455C54.6233 117.979 67.0855 114.367 81.3613 113.667C97.3901 112.84 115.136 117.489 130.362 122.835C153.169 130.802 175.535 144.168 197.277 154.532C207.428 159.377 222.717 168.058 233.687 164.303C243.613 160.898 255.517 156.974 258.092 146.558C258.706 144.116 258.919 140.806 259.526 137.593C265.21 107.278 290.593 93.5832 331.266 95.1141C332.188 95.1483 333.11 95.1729 333.99 95.241C362.788 97.3346 394.929 106.966 424.112 106.843C436.534 106.786 438.26 101.573 443.454 94.8511C451.859 83.9362 452.039 77.7741 466.162 70.4232C482.969 61.6436 507.055 58.5887 527.047 53.1329C537.843 50.1855 548.486 45.6784 559.554 43.3103C581.339 38.6387 602.289 46.448 624.591 46.9017" stroke="#AFDFFF" stroke-width="0.484118" stroke-miterlimit="10"/>
<path d="M-115.41 157.839C-115.41 157.839 -107.891 153.478 -86.0215 148.427C-72.8806 145.384 -61.5119 140.858 -50.1082 135.42C-43.8292 132.267 -36.342 130.727 -28.633 131.003C-10.0166 131.525 8.22365 132.01 25.5439 126.619C29.7125 125.42 33.7826 124.047 37.7373 122.506C50.1064 117.263 61.9261 113.094 75.458 111.943C90.6054 110.647 108.15 114.765 122.915 119.314C145.454 126.253 167.536 138.2 189.031 148.094C199.081 152.723 214.047 161.354 225.02 157.989C235.271 154.829 247.81 152.777 251.707 142.435C252.587 140.103 253.059 136.961 254.011 133.937C263.133 105.064 292.55 92.3973 331.587 94.1385C332.495 94.1808 333.417 94.2151 334.284 94.2816C362.342 96.6168 393.679 106.394 422.432 105.848C435.002 105.614 436.355 100.131 441.763 93.416C450.595 82.4456 452.069 76.2753 466.483 69.0282C483.411 60.5072 507.078 57.1476 526.378 51.3248C536.806 48.1764 547.396 43.5848 558.427 41.3098C580.386 36.7764 601.231 44.5047 623.626 45.8671" stroke="#AFDFFF" stroke-width="0.484118" stroke-miterlimit="10"/>
<path d="M-116.381 155.506C-116.381 155.506 -109.227 151.12 -87.7195 146.025C-74.467 142.898 -63.4303 136.518 -52.3214 131.521C-45.8159 128.607 -38.5495 128.088 -31.1308 128.504C-12.8424 129.532 5.04373 130.53 22.1328 125.579C26.2216 124.487 30.194 123.178 34.0232 121.663C45.655 116.642 57.3822 111.984 69.9632 110.103C84.1772 107.933 101.166 112.236 115.668 116.031C138.049 121.878 159.325 132.946 180.309 141.823C190.644 146.203 205.42 154.304 216.107 151.626C226.794 148.948 239.881 148.533 245.448 138.336C246.653 136.142 247.42 133.182 248.775 130.284C261.341 103.431 294.362 91.0569 331.888 92.9164C332.784 92.9572 333.678 93.0076 334.545 93.0742C363.045 95.2193 392.075 105.827 420.948 104.808C433.678 104.408 434.606 98.669 440.275 91.8978C449.474 80.9234 452.356 74.6516 466.883 67.5158C483.703 59.2547 506.706 55.6192 525.411 49.3823C535.629 45.9744 546.237 41.4435 557.27 39.2565C579.362 34.876 600.253 42.5415 622.662 44.8322" stroke="#AFDFFF" stroke-width="0.484118" stroke-miterlimit="10"/>
<path d="M-117.37 153.122C-117.37 153.122 -110.494 148.732 -89.4413 143.308C-76.5098 140.006 -66.1367 132.306 -54.624 128.158C-48.2172 125.847 -41.0468 125.803 -33.6765 126.408C-15.6478 127.902 1.90255 129.367 18.8054 124.696C22.8032 123.668 26.6631 122.38 30.3455 120.844C41.7059 115.761 53.0199 110.331 65.0717 108.005C78.5918 105.389 94.8076 109.481 108.949 112.803C130.378 117.822 151.177 127.701 171.501 135.853C181.984 140.056 196.354 147.747 207.221 145.364C218.561 142.844 232.046 144.057 239.404 134.351C240.916 132.35 242.08 129.556 243.871 126.829C259.956 102.326 295.561 89.6615 332.079 91.5738C332.961 91.6227 333.83 91.6701 334.683 91.7447C362.824 94.0314 390.746 105.402 419.439 103.883C432.343 103.202 432.94 97.1588 438.835 90.4053C448.321 79.4756 452.667 73.0505 467.17 66.0093C483.841 57.9253 505.771 53.9443 524.142 47.3158C534.345 43.6134 544.947 39.2378 556.046 37.1369C578.218 32.9319 599.329 40.4584 621.662 43.7836" stroke="#AFDFFF" stroke-width="0.484118" stroke-miterlimit="10"/>
<path d="M-118.354 150.672C-118.354 150.672 -111.302 146.401 -91.1857 140.229C-78.8423 136.446 -69.4557 128.411 -57.0006 125.168C-50.4505 123.449 -43.5449 123.705 -36.2491 124.506C-18.53 126.46 -1.12449 128.385 15.596 123.857C19.56 122.854 23.3635 121.547 26.9522 119.954C38.0373 114.632 49.1356 108.474 60.925 105.491C73.7745 102.238 89.6568 106.153 103.067 109.435C123.124 114.375 143.315 122.687 162.963 130.142C173.606 134.179 188.196 141.624 198.632 139.237C209.847 136.702 224.934 139.749 233.709 130.489C235.457 128.634 237.131 126.028 239.401 123.535C259.097 101.549 295.941 88.0898 332.138 90.0313C332.995 90.0771 333.878 90.1164 334.654 90.2012C361.215 93.1732 390.221 104.91 418.174 103.008C428.162 102.323 430.815 97.9349 435.834 92.3331C446.391 80.5195 451.196 72.1995 467.46 64.4462C484.072 56.5402 504.722 52.1303 522.734 45.1167C533.038 41.1143 543.641 36.934 554.812 34.9686C577.075 30.96 598.52 38.342 620.671 42.7471" stroke="#AFDFFF" stroke-width="0.484118" stroke-miterlimit="10"/>
<path d="M-119.338 148.133C-119.338 148.133 -111.609 144.022 -92.9268 136.72C-82.0786 132.511 -71.9145 124.756 -59.4 122.378C-52.7811 121.136 -46.0422 121.616 -38.8198 122.603C-21.358 125.003 -4.00092 127.429 12.5809 122.895C16.5594 121.907 20.3459 120.554 23.8637 118.865C35.0394 113.009 45.6007 105.741 57.6755 102.393C70.1438 98.9377 85.0506 102.324 98.3517 105.671C117.164 110.41 136.377 118.008 155.055 124.692C165.857 128.563 179.818 135.443 190.568 133.29C202.733 130.87 217.838 135.129 228.422 126.733C230.543 125.04 232.588 122.724 235.434 120.389C259.118 100.966 295.255 86.3284 331.999 88.2585C332.831 88.3013 333.702 88.339 334.515 88.4284C360.767 91.5384 389.181 104.597 417.038 102.138C427.151 101.254 429.481 96.6018 434.623 90.9272C445.404 79.0433 451.502 70.6272 467.759 62.8243C484.016 55.0213 504.105 49.8018 521.333 42.7803C531.366 38.6964 542.764 34.1446 553.613 32.7351C575.673 29.8722 596.772 35.9342 619.736 41.6772" stroke="#AFDFFF" stroke-width="0.484118" stroke-miterlimit="10"/>
<path d="M-120.335 145.496C-120.335 145.496 -112.826 141.221 -94.7024 132.875C-84.7028 128.241 -74.1228 121.443 -61.8221 119.781C-55.2192 118.879 -48.5377 119.517 -41.3239 120.679C-24.0636 123.483 -6.64593 126.454 9.8453 121.83C13.8498 120.801 17.6314 119.363 21.0949 117.553C32.4782 111.136 43.182 102.803 55.4801 98.6633C67.7782 94.5236 81.6677 97.62 95.0516 101.328C112.574 106.145 130.541 113.454 148.067 119.491C159.023 123.244 172.208 129.522 183.285 127.604C196.449 125.306 211.446 130.556 223.723 123.156C226.187 121.662 228.675 119.565 232.102 117.456C259.297 100.754 294.261 84.3932 331.662 86.2471C332.469 86.2868 333.287 86.3377 334.064 86.4129C361.944 88.9604 387.042 104.571 415.953 101.265C426.24 100.099 428.204 95.2173 433.471 89.4603C444.425 77.5098 451.755 68.9706 467.933 61.0897C483.899 53.2807 502.99 47.1983 519.844 40.3264C529.892 36.2344 541.423 31.7281 552.361 30.4269C574.521 27.781 596.086 33.656 618.768 40.5741" stroke="#AFDFFF" stroke-width="0.484118" stroke-miterlimit="10"/>
<path d="M-121.372 142.755C-121.372 142.755 -114.741 137.252 -96.5331 128.633C-86.8303 124.041 -76.2482 118.268 -64.3005 117.109C-57.6668 116.473 -51.0435 117.173 -43.9359 118.478C-26.795 121.639 -9.24647 125.2 7.21468 120.407C11.3285 119.299 15.1851 117.74 18.6724 115.775C30.3771 108.802 39.9865 99.1458 54.5819 95.1982C68.2058 91.5223 80.3774 92.8976 93.2415 96.3959C109.086 100.725 125.759 108.979 142.33 114.529C153.295 118.205 165.758 123.957 177.026 122.237C191.152 120.056 205.919 126.157 219.688 119.826C222.509 118.531 225.489 116.767 229.563 114.757C258.322 100.518 294.014 82.4606 331.046 84.1039C331.816 84.1391 332.609 84.1869 333.375 84.2509C361.317 86.8157 385.802 104.429 414.864 100.508C425.258 99.0913 426.928 93.9202 432.322 88.0519C443.371 76.0544 451.911 67.37 467.934 59.4021C483.51 51.6723 501.529 44.5033 518.251 37.8788C528.469 33.8466 539.998 29.3595 551.006 28.2131C573.236 25.8197 595.428 31.4491 617.709 39.5766" stroke="#AFDFFF" stroke-width="0.484118" stroke-miterlimit="10"/>
<path d="M-122.293 139.911C-122.293 139.911 -115.997 132.68 -98.2857 124.596C-88.7781 120.253 -78.3315 115.175 -66.6009 114.341C-59.8418 113.948 -52.9696 114.495 -46.3042 115.955C-29.1836 119.387 -11.3941 123.573 5.06669 118.575C9.32037 117.389 13.2703 115.689 16.777 113.534C28.5308 105.846 38.5117 96.2642 54.1345 92.3149C67.5674 88.9571 79.8386 89.5155 92.6288 92.3708C107.739 95.7525 123.067 104.116 138.147 109.62C148.441 113.391 160.947 118.581 171.996 117.099C186.975 115.1 201.545 121.878 216.435 116.659C219.587 115.561 223.344 113.863 227.81 111.978C257.286 99.5525 293.943 80.3352 330.106 81.5214C330.85 81.5535 331.619 81.5887 332.347 81.6578C360.396 84.1771 384.576 104.299 413.855 99.6334C424.311 98.0199 425.867 92.5326 431.362 86.5692C442.479 74.5313 452.016 65.6757 467.866 57.5696C482.997 49.8538 500.117 41.6293 516.664 35.2956C527.041 31.312 538.589 26.876 549.676 25.8075C571.967 23.6459 594.912 29.2305 616.7 38.4879" stroke="#AFDFFF" stroke-width="0.484118" stroke-miterlimit="10"/>
<path d="M-123.338 136.936C-123.338 136.936 -118.326 128.173 -100.174 120.737C-89.8539 116.493 -80.656 111.985 -69.0375 111.343C-62.2783 110.953 -55.4072 111.496 -48.7396 112.947C-31.6026 116.556 -13.4436 121.353 3.04172 116.153C7.49826 114.896 11.5878 113.031 15.1265 110.641C26.3418 102.585 37.9956 93.3239 53.9656 89.8558C66.4557 86.972 79.9326 86.8011 92.9835 89.3609C106.774 92.2307 121.7 99.3063 135.757 104.784C147.452 109.339 158.94 113.83 168.408 112.311C183.489 109.895 199.79 116.612 214.275 113.675C217.668 112.996 221.883 111.08 226.674 109.333C256.447 98.4262 293.805 78.1432 328.889 78.8176C329.597 78.8355 330.341 78.8677 331.044 78.9241C359.272 81.3286 383.415 104.255 413.015 98.8288C423.392 96.9324 424.911 91.1189 430.478 85.0862C441.626 73.0032 452.075 63.9467 467.716 55.6882C482.471 47.9268 498.733 38.8369 515.084 32.6549C525.572 28.6946 537.272 24.3649 548.38 23.4356C570.69 21.5395 594.522 27.0273 615.727 37.4232" stroke="#AFDFFF" stroke-width="0.484118" stroke-miterlimit="10"/>
<path d="M-124.358 133.856C-124.358 133.856 -119.622 124.124 -102.014 117.002C-92.0625 112.967 -82.9977 108.823 -71.314 108.062C-64.5687 107.573 -57.6867 108.048 -51.004 109.463C-33.8467 113.113 -15.0953 118.46 1.38143 113.122C5.91144 111.703 10.0414 109.672 13.5896 107.118C25.004 98.6768 37.6368 90.5397 53.8798 87.6413C66.8443 85.3189 81.4715 84.5452 94.0626 87.1616C107.668 89.9893 121.652 95.2237 134.84 100.332C145.735 104.585 155.762 109.201 166.53 107.84C182.156 105.842 198.008 113.128 212.824 110.699C216.378 110.157 220.912 108.329 225.993 106.695C255.892 97.0518 293.301 75.9266 327.26 75.8397C327.945 75.8354 328.667 75.8453 329.359 75.8905C358.044 77.8728 382.047 104.235 412.152 98.0022C422.442 95.8711 424.032 89.6953 429.643 83.6096C440.795 71.4881 451.906 62.2097 467.405 53.7585C481.857 45.8821 497.202 36.0953 513.416 30.0038C524.044 26.041 535.787 21.8727 547.008 21.0547C569.35 19.4161 594.153 24.8466 614.7 36.3816" stroke="#AFDFFF" stroke-width="0.484118" stroke-miterlimit="10"/>
<path d="M-125.377 130.66C-125.377 130.66 -120.965 120.263 -103.951 113.323C-94.33 109.404 -85.3761 105.442 -73.5823 104.401C-66.8546 103.691 -59.9306 104.001 -53.1876 105.315C-36.1401 108.825 -16.7595 114.629 -0.403048 109.238C4.07132 107.845 8.20787 105.926 11.8688 103.544C23.8971 95.3723 37.204 87.844 53.8043 85.4476C67.4606 83.4002 81.6607 83.412 95.6491 85.4824C108.455 87.4812 122.349 91.895 135.068 96.4778C145.479 100.233 154.458 104.916 165.981 103.599C181.491 101.821 197.377 109.559 212 107.673C215.672 107.203 220.479 105.526 225.788 104.007C244.051 98.7896 262.027 92.3861 279.874 86.2107C293.785 81.4285 309.605 72.7336 325.556 72.5405C326.255 72.526 326.956 72.5397 327.657 72.5818C356.69 74.4114 380.9 103.969 411.323 96.9945C421.396 94.671 423.278 88.0725 428.865 81.9741C439.302 70.2697 452.155 60.0289 466.954 51.6264C481.146 43.6011 495.576 33.2054 511.782 27.1715C522.409 23.2184 534.376 19.1943 545.656 18.52C568.067 17.1435 593.863 22.6462 613.7 35.2165" stroke="#AFDFFF" stroke-width="0.484118" stroke-miterlimit="10"/>
<path d="M-126.392 127.347C-126.392 127.347 -122.338 116.555 -105.835 109.641C-96.4855 105.766 -87.6828 101.795 -75.7839 100.309C-68.9596 99.4624 -62.1044 99.1952 -55.2854 100.475C-38.4968 103.612 -19.0658 109.939 -2.59452 105.166C1.93457 103.955 6.15479 102.203 9.92099 99.9705C22.5585 92.107 36.9752 84.7335 53.5588 83.2031C67.9924 81.7301 82.7758 82.0141 97.3851 84.045C110.579 86.1245 123.555 89.2082 136.122 93.2504C146.147 96.4224 154.413 101.019 166.297 99.6572C181.125 97.9617 197.604 106.036 211.719 104.683C215.466 104.32 220.502 102.748 226 101.341C244.732 96.4048 263.013 90.6169 280.752 84.0055C293.897 79.1594 308.484 69.5534 323.826 69.2666C324.52 69.2445 325.218 69.2513 325.916 69.287C355.323 70.9671 379.93 103.714 410.467 96.012C420.239 93.564 422.589 86.4471 428.093 80.4068C438.691 68.6114 451.577 58.2046 466.337 49.5219C480.318 41.2467 493.827 30.3877 510.14 24.4156C520.839 20.5004 532.951 16.6404 544.319 16.0744C566.798 14.9695 593.612 20.5475 612.714 34.1595" stroke="#AFDFFF" stroke-width="0.484118" stroke-miterlimit="10"/>
<path d="M-127.396 124.025C-127.396 124.025 -123.728 112.962 -107.718 105.939C-98.7389 101.98 -89.9175 97.8557 -77.8789 95.7424C-70.9863 94.5434 -64.1487 93.7961 -57.5093 95.0926C-40.9222 98.3226 -21.6497 105.118 -4.97062 101.034C-0.359368 100.016 3.97407 98.4379 7.87491 96.3561C21.8105 88.4558 36.148 82.877 53.1178 80.7792C67.5123 79.0017 84.1145 79.9218 99.0728 82.5729C112.116 84.7188 125.049 87.3848 137.818 90.5601C147.65 93.1331 155.272 97.5046 167.387 96.0151C181.356 94.2931 198.468 102.581 211.872 101.648C215.708 101.394 220.859 99.9145 226.496 98.6114C245.517 94.213 263.908 88.523 281.462 81.6048C294.189 76.5516 306.947 66.3425 322.104 65.9063C322.811 65.8787 323.522 65.8807 324.234 65.9121C354.045 67.2903 379.104 103.311 409.623 94.9239C419.135 92.3079 421.89 84.7915 427.356 78.7467C438.059 66.8603 450.925 56.2831 465.59 47.3144C479.376 38.7715 491.882 27.6147 508.442 21.5946C519.237 17.7108 531.483 14.0036 542.935 13.5843C565.535 12.738 593.346 18.457 611.685 33.0198" stroke="#AFDFFF" stroke-width="0.484118" stroke-miterlimit="10"/>
<path d="M-128.411 120.8C-128.411 120.8 -125.132 109.495 -109.649 102.115C-100.956 98.0038 -92.127 93.6074 -79.9436 90.7217C-72.971 89.074 -66.4677 88.3641 -60.0442 89.6635C-43.6176 92.9617 -24.5524 100.21 -7.6589 96.8639C-2.96169 96.0535 1.4898 94.6562 5.52679 92.725C20.0848 85.2321 34.9793 79.9748 52.2607 78.1295C67.3967 76.5106 84.6956 77.7496 100.304 80.7921C113.283 83.3484 126.651 85.6206 139.73 88.2964C149.382 90.2622 156.657 94.3574 168.885 92.6671C182.03 90.835 199.629 99.192 212.369 98.6077C216.286 98.4118 221.518 97.0984 227.313 95.8535C246.002 91.9265 265.235 86.4563 282.032 79.1094C294.397 73.6903 305.084 63.102 320.374 62.5066C321.075 62.4846 321.786 62.4737 322.48 62.4997C352.567 63.6969 378.853 102.764 408.714 93.7407C417.929 90.9617 421.091 83.1242 426.598 77.0551C437.403 65.1103 450.186 54.3596 464.647 45.0542C478.277 36.2289 489.95 24.7269 506.807 18.7721C517.686 14.9278 530.065 11.3734 541.602 11.0913C564.372 10.5192 593.14 16.3938 610.716 31.9171" stroke="#AFDFFF" stroke-width="0.484118" stroke-miterlimit="10"/>
<path d="M-129.428 117.593C-126.687 109.533 -120.316 102.656 -111.425 98.1617C-103.006 93.803 -93.7559 88.4531 -81.9557 85.2769C-75.1666 83.4703 -68.8612 82.8241 -62.6264 84.1102C-46.2365 87.5015 -27.4622 95.0555 -10.4421 92.5444C-5.64218 91.9567 -1.05636 90.7379 3.12244 88.9394C18.3245 81.8858 33.7648 76.8315 51.2357 75.0971C67.8034 73.6634 84.7832 74.8101 101.196 78.4712C114.656 81.4471 128.192 84.2176 141.969 86.364C151.544 87.8229 158.672 91.5589 170.933 89.5995C183.387 87.6148 200.965 95.7254 213.401 95.5528C217.211 95.5097 222.676 94.2636 228.347 93.1012C247.858 89.089 269.432 83.8553 286.233 74.6068C296.865 68.7424 304.203 59.8239 318.646 59.1057C319.341 59.0677 320.041 59.0585 320.742 59.0781C351.173 60.0538 379.42 102.169 407.686 92.3955C416.306 89.4073 420.093 81.4314 425.814 75.2714C436.752 63.3252 449.383 52.4023 463.491 42.6885C476.892 33.4453 487.935 21.808 505.064 15.906C516.051 12.1138 527.987 9.17843 540.199 8.55909C563.298 7.36394 594.209 15.3331 609.69 30.7671" stroke="#AFDFFF" stroke-width="0.484118" stroke-miterlimit="10"/>
<path d="M-130.464 114.444C-127.839 106.256 -121.8 99.1202 -113.251 94.1063C-104.19 88.7432 -94.772 83.0529 -84.0682 79.8211C-77.6821 77.8874 -71.3998 77.3261 -65.2728 78.5602C-48.5884 81.9288 -30.8509 89.8735 -13.5085 88.1527C-8.57739 87.7834 -3.82546 86.7342 0.526971 85.0537C16.1945 78.4469 32.0246 73.4206 49.7398 71.6575C66.8313 70.0269 84.4119 71.3099 101.276 75.4186C115.265 78.9466 129.317 82.7944 143.994 84.5237C153.729 85.7095 160.852 88.9669 173.072 86.7196C184.994 84.5239 202.681 92.4625 214.652 92.3601C218.461 92.3265 223.899 91.3015 229.586 90.219C248.787 86.5593 270.203 81.5892 285.988 71.7292C296.173 65.3618 302.239 56.4832 316.928 55.6194C317.623 55.5751 318.323 55.5595 319.026 55.5726C349.63 56.3744 379.069 101.102 406.541 90.8616C414.978 87.7146 419.135 79.7156 424.949 73.4204C436.059 61.5167 448.516 50.4322 462.185 40.2865C475.278 30.4594 486.118 18.8169 503.371 13.047C514.464 9.3262 526.486 6.50875 538.795 6.02805C562.188 5.13199 593.877 13.3716 608.638 29.6152" stroke="#AFDFFF" stroke-width="0.484118" stroke-miterlimit="10"/>
<path d="M-131.491 111.304C-129.101 102.865 -123.351 95.3721 -115.029 89.8512C-106.277 84.0018 -97.1749 77.7852 -86.3384 74.2966C-80.11 72.3046 -73.9777 71.7251 -67.9994 72.9312C-51.3412 76.3064 -34.1379 84.5762 -16.7334 83.5945C-11.6864 83.4528 -6.77716 82.5823 -2.2554 81.0273C13.839 74.8725 30.024 69.7432 47.8674 67.7615C64.5806 65.8958 83.9249 66.8963 100.503 71.4517C115.228 75.4985 129.951 81.0179 145.707 82.7421C155.894 83.8562 163.088 86.6346 175.219 84.0741C186.765 81.6374 204.443 89.3408 216.069 89.2549C219.877 89.231 225.274 88.3375 230.94 87.3207C249.838 83.9655 270.461 79.1524 285.332 68.7811C295.035 61.9942 300.317 53.1958 315.176 52.1868C315.866 52.1441 316.58 52.114 317.277 52.1208C348.161 52.6055 376.511 99.3956 405.109 89.0774C415.483 85.3275 420.914 74.6842 427.746 67.3134C437.629 56.6661 449.231 47.0965 460.734 37.8269C473.1 27.8235 484.374 15.8437 501.701 10.1902C512.9 6.54075 525.035 3.84422 537.44 3.51179C561.141 2.88749 593.543 11.4187 607.623 28.467" stroke="#AFDFFF" stroke-width="0.484118" stroke-miterlimit="10"/>
<path d="M-132.53 108.183C-130.285 99.4594 -124.828 91.5732 -116.801 85.4511C-108.547 79.1119 -99.4796 72.4522 -88.6709 68.7748C-82.6116 66.7135 -76.5429 66.1359 -70.7385 67.3112C-54.1529 70.658 -37.4724 79.264 -20.1624 78.9536C-15.0229 79.0147 -9.97995 78.3042 -5.31102 76.8611C11.1864 71.1455 27.7033 65.6859 45.5501 63.3633C63.397 61.0407 81.9353 61.787 98.5939 66.3034C113.67 70.3832 129.818 78.6709 146.819 80.8002C157.678 82.1229 165.117 84.4532 177.161 81.57C188.498 78.8641 206.056 86.2993 217.509 86.1825C221.317 86.1586 226.504 85.22 232.278 84.353C251.315 81.5219 270.549 76.2469 284.284 65.7275C293.532 58.6217 298.625 49.9173 313.434 48.7951C314.129 48.7375 314.831 48.7123 315.536 48.7194C347.316 49.0304 374.204 97.3103 403.628 87.2878C414.211 83.6999 419.938 72.8098 426.822 65.3283C436.65 54.6061 448.158 44.8786 459.061 35.3214C470.873 24.9677 482.536 12.8207 500.031 7.35336C511.335 3.7753 524.087 0.802794 536.083 1.01555C559.687 1.40349 592.475 8.52854 606.61 27.3099" stroke="#AFDFFF" stroke-width="0.484118" stroke-miterlimit="10"/>
<path d="M-133.556 105.054C-131.755 95.3736 -125.81 88.002 -118.527 80.8909C-111.244 73.7799 -101.784 67.1193 -91.0179 63.2709C-85.0903 61.1448 -79.0579 60.5531 -73.3635 61.6954C-56.8869 64.9997 -40.5297 74.0735 -23.4965 74.2658C-18.429 74.3076 -12.8284 74.0339 -8.27726 72.5888C8.39159 67.2355 25.0089 61.6808 42.9919 58.4482C61.3003 55.1478 79.7299 54.808 96.3269 59.7266C112.029 64.3899 129.061 75.4187 147.299 78.5279C159.053 80.5253 166.932 82.363 178.92 79.2096C193.555 75.3545 204.116 84.9513 219.098 83.2453C222.827 82.8217 228.027 82.1968 233.729 81.3991C252.874 78.7274 269.824 73.4571 282.937 62.6279C291.783 55.2877 297.246 46.5602 311.879 45.3286C312.57 45.2633 313.268 45.2311 313.97 45.2322C346.641 45.3103 372.09 94.9951 402.322 85.3148C413.254 81.7695 419.108 70.7778 426.035 63.1551C435.741 52.4962 446.886 42.6269 457.387 32.8353C468.842 22.0773 480.806 9.95718 498.456 4.56732C509.875 1.08136 522.751 -1.75907 534.81 -1.44107C558.728 -0.819805 592.239 6.62724 605.684 26.1733" stroke="#AFDFFF" stroke-width="0.484118" stroke-miterlimit="10"/>
<path d="M-134.581 101.916C-133.048 91.8314 -127.297 83.7631 -120.236 76.186C-113.499 68.9695 -104.101 61.7844 -93.3527 57.768C-88.1013 55.632 -81.9312 55.041 -75.9151 56.0978C-59.5076 59.3449 -43.6662 68.6973 -26.8274 69.5487C-21.5672 69.9233 -16.3321 69.4623 -11.4446 68.194C5.65619 63.1469 22.6819 57.1543 40.593 52.7424C59.2184 48.1932 77.683 46.9407 94.2336 52.1365C110.466 57.2351 127.793 71.2553 146.77 75.6931C159.703 78.7316 168.154 80.2487 180.048 76.8206C194.753 72.6034 205.453 82.1001 220.445 80.3076C224.138 79.8698 229.279 79.2085 234.92 78.3935C253.64 75.67 268.846 70.558 281.146 59.6395C289.677 52.066 295.492 43.2642 310.01 41.9309C310.694 41.8557 311.385 41.8128 312.08 41.8026C345.57 41.7171 369.669 92.5932 400.668 83.2795C411.845 79.9103 417.884 68.6485 424.824 60.9202C434.389 50.2733 445.092 40.282 455.285 30.209C466.612 19.0452 478.723 6.9722 496.613 1.68967C508.162 -1.71226 521.172 -4.40948 533.294 -3.98623C557.515 -3.14277 591.695 4.63941 604.481 24.9147" stroke="#AFDFFF" stroke-width="0.484118" stroke-miterlimit="10"/>
<path d="M-135.617 98.7556C-134.33 88.1832 -128.83 79.4698 -121.923 71.3863C-115.566 63.9673 -106.381 56.4442 -95.6299 52.3013C-90.4538 50.1187 -84.328 49.4824 -78.3418 50.5056C-61.9773 53.689 -46.6245 63.3038 -29.8777 64.8072C-24.6003 65.346 -19.3078 64.9921 -14.3687 63.7702C3.44628 58.8979 20.996 51.9352 38.7512 46.3046C57.073 40.4991 74.6723 38.7511 92.3213 43.7783C111.023 49.1191 125.922 65.165 145.178 72.0949C156.26 76.0686 169.974 77.5831 180.639 74.4636C195.635 70.038 206.67 79.3902 221.723 77.5173C225.38 77.0557 230.436 76.3645 235.979 75.5182C254.354 72.7136 267.783 67.6192 279.484 56.6179C287.735 48.8445 293.836 39.9897 308.313 38.5734C309.005 38.4987 309.704 38.4569 310.408 38.4482C344.607 38.1662 367.518 90.1462 399.183 81.2061C420.842 75.0659 438.868 42.44 453.354 27.6229C464.552 16.1703 476.856 4.07199 494.996 -1.07285C506.674 -4.39075 519.805 -6.93666 531.992 -6.41777C556.543 -5.37792 591.327 2.76062 603.468 23.7475" stroke="#AFDFFF" stroke-width="0.484118" stroke-miterlimit="10"/>
<path d="M-136.638 95.5783C-135.534 85.1193 -131.025 75.2126 -123.529 66.7721C-116.732 58.9678 -108.58 51.1726 -97.7869 46.8982C-92.6397 44.6962 -86.5321 44.0367 -80.5542 45.0373C-64.1928 48.1422 -49.2773 58.0158 -32.6954 60.143C-27.4432 60.8392 -22.1319 60.5633 -17.202 59.3381C1.54634 54.404 19.5895 45.4726 37.2341 39.292C53.4609 33.6118 72.0327 28.461 90.6097 34.9278C111.11 42.0581 125.102 59.1933 143.04 67.1623C154.674 72.325 167.405 75.9826 180.507 71.9018C195.754 67.1849 207.534 76.7741 222.792 74.7799C226.413 74.3041 231.371 73.5815 236.806 72.6926C254.822 69.7078 266.71 64.5623 277.847 53.6094C285.884 45.7221 292.175 36.7637 306.549 35.2568C307.237 35.1831 307.933 35.1376 308.632 35.1204C343.487 34.655 365.268 87.5897 397.556 79.0474C419.544 73.2301 437.051 39.9656 451.317 24.985C462.422 13.3553 474.9 1.18071 493.303 -3.83453C505.108 -7.04919 518.373 -9.44228 530.6 -8.84042C555.509 -7.61073 590.827 0.826986 602.364 22.5107" stroke="#AFDFFF" stroke-width="0.484118" stroke-miterlimit="10"/>
<path d="M-137.653 92.3632C-136.811 81.4984 -132.58 71.1191 -125.318 62.1068C-118.871 54.0454 -110.863 45.8813 -99.9794 41.4816C-94.8283 39.2529 -88.7037 38.571 -82.7011 39.5579C-66.3233 42.5282 -51.7861 52.6972 -35.3677 55.4384C-30.1602 56.315 -24.8335 56.1298 -19.9196 54.9012C-0.10916 49.7842 17.878 39.022 35.8525 31.799C51.5669 25.4321 70.1742 19.2615 88.9011 25.7466C110.11 33.09 123.599 51.0319 140.837 61.2079C152.257 67.9149 165.066 73.6401 179.495 69.0772C195.185 64.1606 207.855 74.2484 223.519 72.05C227.122 71.5135 231.95 70.8141 237.283 69.825C254.895 66.7227 265.511 61.2954 276.198 50.5999C284.17 42.6265 290.445 33.5882 304.828 32.0044C305.516 31.9241 306.212 31.8753 306.913 31.8585C342.35 31.0932 363.072 85.1182 395.924 76.8397C418.469 71.139 435.126 37.3516 449.317 22.3619C460.379 10.6684 473.028 -1.66095 491.666 -6.52079C503.599 -9.64182 516.997 -11.8821 529.278 -11.1957C554.559 -9.79389 590.36 -1.05348 601.294 21.3079" stroke="#AFDFFF" stroke-width="0.484118" stroke-miterlimit="10"/>
<path d="M-138.669 89.1376C-138.044 77.9061 -134.077 67.1018 -127.074 57.5621C-120.976 49.146 -113.053 40.7375 -102.004 36.2311C-96.8377 33.9379 -90.6735 33.1893 -84.6011 34.1177C-68.1538 37.0381 -53.922 47.4234 -37.6774 50.758C-32.5126 51.8426 -27.1487 51.7751 -22.2202 50.5632C-1.52844 45.2903 16.6593 32.1531 34.7825 24.0215C50.0111 17.1662 68.5144 10.1831 87.369 16.557C109.173 23.9143 122.546 42.7005 138.738 54.4853C149.373 62.2281 162.144 70.5529 177.536 65.8928C193.903 60.9319 207.591 71.8265 224.029 69.4102C227.608 68.8708 232.329 68.1096 237.531 67.1533C254.414 63.894 264.349 58.0227 274.59 47.6533C282.53 39.6274 288.726 30.5111 303.156 28.855C303.844 28.7703 304.541 28.7184 305.242 28.6994C341.25 27.7209 360.904 82.3961 394.204 74.5037C417.185 69.0708 433.105 34.6766 447.259 19.6727C458.311 7.95842 471.131 -4.52565 490.007 -9.25894C502.104 -12.3765 514.934 -13.8257 527.94 -13.5437C554.076 -12.7107 590.488 -1.90608 600.179 20.0405" stroke="#AFDFFF" stroke-width="0.484118" stroke-miterlimit="10"/>
<path d="M-139.679 85.883C-139.285 74.2712 -135.582 63.0328 -128.835 52.9677C-123.059 44.1806 -115.142 35.5081 -103.939 30.8838C-98.6848 28.5905 -92.4465 27.84 -86.2941 28.7609C-69.5294 31.5736 -55.6131 42.1546 -39.5625 46.041C-34.4046 47.4062 -28.9105 47.3869 -23.9956 45.9864C-2.64276 39.5553 14.9427 25.1157 33.8793 16.1371C48.9431 8.96912 66.9664 1.44964 85.8901 7.56853C108.057 14.7555 121.657 33.7644 136.671 47.0932C146.066 55.4456 159.473 66.6669 175.26 62.0939C192.047 57.2328 206.977 69.3809 224.031 66.7959C227.61 66.2564 232.217 65.3936 237.262 64.3695C266.576 58.3813 273.212 28.9915 301.416 25.6578C302.105 25.5747 302.802 25.5196 303.503 25.4926C340.181 24.4299 358.723 79.3793 392.514 72.1417C415.484 67.2147 431.389 32.009 445.302 17.0051C456.325 5.11173 469.366 -7.3161 488.418 -11.8232C500.652 -14.8204 513.583 -16.1635 526.667 -15.7962C553.251 -14.7819 589.877 -3.75619 599.111 18.8176" stroke="#AFDFFF" stroke-width="0.484118" stroke-miterlimit="10"/>
<path d="M-140.677 82.6209C-140.653 70.3437 -136.483 59.1176 -130.606 48.4507C-125.573 39.3097 -117.17 30.3941 -105.716 25.6834C-100.348 23.4193 -94.0645 22.617 -87.8099 23.3972C-70.5199 25.5423 -56.768 36.3276 -40.9091 40.7467C-35.7588 42.297 -30.1653 42.3128 -25.2528 40.7908C-3.70084 33.6621 13.8595 17.9709 33.1225 8.29075C47.8087 0.891461 65.4313 -6.77437 84.4062 -0.971121C106.895 5.86489 120.675 25.0615 134.627 39.1973C143.307 47.9993 156.555 61.981 173.044 57.7958C190.189 53.4271 205.676 67.0379 223.638 64.1927C227.204 63.6517 231.714 62.7478 236.628 61.6589C265.162 55.3027 271.919 25.9665 299.799 22.5836C300.488 22.5005 301.185 22.4454 301.886 22.4185C339.097 21.2451 356.692 76.2742 390.806 69.71C413.634 65.3217 429.695 29.3547 443.367 14.3507C454.375 2.27015 467.646 -10.0615 486.968 -14.399C499.355 -17.2506 512.396 -18.4634 525.564 -17.9885C552.684 -16.7919 589.453 -5.59255 598.16 17.5608" stroke="#AFDFFF" stroke-width="0.484118" stroke-miterlimit="10"/>
<path d="M-141.697 79.3364C-141.901 66.7485 -138.005 55.06 -132.318 43.9797C-127.606 34.5558 -119.144 25.3645 -107.434 20.5289C-101.931 18.2406 -95.5842 17.2886 -89.1681 17.7891C-71.4627 19.1265 -57.5761 30.055 -41.8733 34.9232C-39.3341 35.7616 -36.6351 36.2041 -33.9378 36.2242C-31.2404 36.2444 -28.6002 35.8419 -26.1752 35.0407C-4.46713 27.4628 12.8585 10.6799 32.3081 0.612778C46.7775 -6.88118 63.8703 -14.1531 82.8424 -8.84766C105.702 -2.45417 119.377 16.2517 132.601 30.9523C140.866 40.1426 153.729 56.555 170.775 53.0033C188.522 49.3128 203.351 64.6868 222.638 61.574C226.217 61.0345 230.619 60.0785 235.337 58.9364C263.161 52.162 270.475 22.9328 298.037 19.5599C298.732 19.4788 299.438 19.4087 300.113 19.3836C337.716 18.1118 354.592 73.1117 388.892 67.2043C411.509 63.3071 427.932 26.6528 441.294 11.6987C452.293 -0.617068 465.832 -12.7599 485.359 -16.9067C497.897 -19.6084 511.048 -20.6846 524.299 -20.0933C552.025 -18.6668 588.769 -7.36327 597.007 16.3084" stroke="#AFDFFF" stroke-width="0.484118" stroke-miterlimit="10"/>
<path d="M-142.707 76.0628C-143.071 63.416 -140.166 51.0018 -134.163 39.5508C-129.104 30.0815 -121.902 20.7172 -109.154 15.491C-103.493 13.1068 -97.0521 11.9148 -90.4326 12.0264C-72.347 12.5323 -58.1144 23.3273 -42.5498 28.7054C-40.0186 29.6221 -37.2951 30.1128 -34.5682 30.1435C-31.8413 30.1742 -29.1761 29.7441 -26.7576 28.8831C-4.9894 21.02 11.9538 3.41991 31.4913 -6.74378C45.7764 -14.1822 62.1398 -20.5676 81.1161 -15.8176C104.313 -10.0072 117.828 7.50874 130.58 22.5517C138.685 32.1127 151.116 50.4135 168.57 47.7796C187.295 44.9104 200.092 62.3877 221.095 58.9279C224.693 58.3323 228.965 57.4091 233.579 56.2836C261.558 49.4891 268.701 19.9953 296.354 16.6042C297.049 16.523 297.754 16.4626 298.429 16.4375C336.27 15.1946 352.709 69.9268 386.983 64.6502C409.29 61.2127 426.12 23.9252 439.285 9.02515C450.3 -3.42517 464.066 -15.4526 483.834 -19.3848C496.523 -21.9314 509.783 -22.8678 523.117 -22.159C551.318 -20.577 588.126 -9.27549 595.948 14.999" stroke="#AFDFFF" stroke-width="0.484118" stroke-miterlimit="10"/>
<path d="M-143.704 72.8007C-144.803 50.584 -136.892 21.6616 -110.876 10.4728C-77.3487 -3.9757 -53.545 31.5215 -27.1436 22.4768C6.91135 10.7749 32.3023 -32.0343 79.1552 -21.6842C102.334 -16.5588 115.137 -1.51942 127.818 13.2615C136.706 23.5907 148.56 44.0159 166.374 42.1769C177.702 41.0013 182.228 47.3659 191.451 51.0839C206.28 57.0845 215.713 58.0384 231.617 53.7624C258.703 46.4885 267.31 16.8414 294.665 13.7163C333.739 9.32673 349.896 66.8923 385.009 62.0106C403.627 59.4014 413.762 34.1833 423.486 22.1316C437.638 4.64034 454.936 -17.4326 482.351 -21.7793C517.929 -27.4531 583.676 -24.0678 594.823 13.721" stroke="#AFDFFF" stroke-width="0.484118" stroke-miterlimit="10"/>
</g>
</g>
<defs>
<filter id="filter0_d_260_2103" x="-17" y="-17" width="428" height="266" filterUnits="userSpaceOnUse" color-interpolation-filters="sRGB">
<feFlood flood-opacity="0" result="BackgroundImageFix"/>
<feColorMatrix in="SourceAlpha" type="matrix" values="0 0 0 0 0 0 0 0 0 0 0 0 0 0 0 0 0 0 127 0" result="hardAlpha"/>
<feMorphology radius="5" operator="dilate" in="SourceAlpha" result="effect1_dropShadow_260_2103"/>
<feOffset dx="2" dy="2"/>
<feGaussianBlur stdDeviation="7"/>
<feComposite in2="hardAlpha" operator="out"/>
<feColorMatrix type="matrix" values="0 0 0 0 0 0 0 0 0 0 0 0 0 0 0 0 0 0 0.05 0"/>
<feBlend mode="normal" in2="BackgroundImageFix" result="effect1_dropShadow_260_2103"/>
<feBlend mode="normal" in="SourceGraphic" in2="effect1_dropShadow_260_2103" result="shape"/>
</filter>
<clipPath id="clip0_260_2103">
<rect width="390" height="228" rx="12" fill="white"/>
</clipPath>
<clipPath id="clip1_260_2103">
<rect width="786.427" height="343.037" fill="white" transform="translate(-123.811 -103) rotate(6.94502)"/>
</clipPath>
</defs>
</svg>
