<svg width="108" height="80" viewBox="0 0 108 80" fill="none" xmlns="http://www.w3.org/2000/svg">
<g clip-path="url(#clip0_270_2347)">
<g filter="url(#filter0_d_270_2347)">
<rect width="108" height="80" rx="13" fill="white"/>
<rect x="0.5" y="0.5" width="107" height="79" rx="12.5" stroke="#E9EAEB"/>
</g>
<g opacity="0.25" clip-path="url(#clip1_270_2347)">
<path d="M10.7632 156.96C22.1962 166.017 37.595 169.69 52.3994 172.001C82.9086 176.758 85.3269 144.144 107.747 144.071C127.27 143.998 139.937 139.89 150.561 127.31C168.552 106.037 196.587 119.533 213.628 134.7C240.011 158.178 267.72 189.783 312.293 182.181C346.028 176.434 366.328 163.923 381.669 139.884C388.138 129.748 394.737 118.356 398.037 107.146C401.337 95.936 397.854 79.9089 412.139 73.9078C440.567 61.7849 483.613 85.4439 514.418 80.8013C536.969 77.3553 546.051 69.3528 538.037 50.2192C526.96 23.9259 568.984 18.8868 592.593 16.1201C613.105 13.7074 644.956 23.8833 662.317 12.924" stroke="#AFDFFF" stroke-width="0.342435" stroke-miterlimit="10"/>
<path d="M9.82794 153.354C21.1779 162.082 36.2947 165.592 50.7981 167.712C67.7295 170.187 79.3348 158.733 87.5328 149.178C93.1887 142.59 98.9886 136.656 105.546 136.896C125.698 137.63 136.533 133.23 148.21 121.372C151.126 118.205 154.833 115.539 159.131 113.516C178.947 104.981 197.769 117.647 210.827 128.415C225.183 140.279 239.077 155.94 255.748 166.159C273.587 177.062 290.981 181.065 312.74 178.709C326.011 177.264 341.177 173.572 351.123 167.206C363.255 159.411 372.372 148.832 380.261 137.588C381.847 135.313 383.283 132.795 384.687 130.266C390.236 120.241 394.179 111.097 396.316 100.167C398.363 89.6989 395.716 77.5496 407.59 70.9538C408.048 70.6929 408.536 70.4645 409.049 70.2714C439.065 58.6947 481.311 82.9614 512.321 78.7396C535.645 75.5597 542.519 67.2366 534.707 48.1017C528.967 34.0791 539.948 26.5573 553.784 21.9465C565.114 18.1658 579.242 16.3 592.307 14.8896C612.967 12.6496 644.087 22.4011 661.382 11.8811" stroke="#AFDFFF" stroke-width="0.342435" stroke-miterlimit="10"/>
<path d="M8.89091 149.662C20.4522 157.848 34.9306 161.091 49.1729 162.783C66.3044 164.809 77.4533 151.777 85.4853 142.116C91.1198 135.336 96.9001 129.564 103.395 129.77C122.764 130.409 133.604 126.706 146.027 115.885C149.093 113.09 152.918 110.858 157.259 109.331C177.36 102.68 193.972 111.911 208.012 122.601C223.366 134.268 238.16 149.609 254.633 160.251C272.349 171.707 290.803 177.387 313.137 175.265C325.9 174.042 340.58 170.308 350.144 163.86C361.872 155.823 371.585 146.181 378.855 135.361C380.421 133.066 381.914 130.633 383.344 128.166C389.36 117.606 392.101 108.788 393.6 97.1262C394.968 86.4465 392.348 74.0769 404.589 67.5C405.058 67.2447 405.553 67.0175 406.07 66.8202C436.518 55.5542 479.133 80.7347 510.243 76.8002C534.096 73.7708 538.586 65.0971 531.441 46.078C526.016 31.5862 539.155 24.8004 553.236 20.5635C564.915 17.0403 578.923 15.1513 592.038 13.7039C612.645 11.4318 642.86 20.8149 660.423 10.8522" stroke="#AFDFFF" stroke-width="0.342435" stroke-miterlimit="10"/>
<path d="M7.96245 145.902C18.9989 153.164 33.6997 156.692 47.5198 157.352C65.31 158.194 75.3982 144.689 83.4636 134.937C89.1033 128.115 94.8805 122.643 101.31 122.833C118.719 123.319 131.968 120.4 144.026 110.919C147.373 108.491 151.377 106.659 155.786 105.54C175.574 99.8046 190.999 106.939 205.475 117.364C221.342 128.758 236.717 143.369 253.219 154.144C271.441 166.04 290.654 173.473 313.348 171.696C326.511 170.588 338.794 166.665 348.848 160.357C360.48 152.756 370.162 143.538 377.45 133.126C379.035 130.859 380.537 128.444 382.016 125.94C388.622 114.764 389.86 106.253 390.697 93.8742C391.426 83.0221 389.07 70.504 401.725 64.0205C402.202 63.7654 402.704 63.5391 403.228 63.3434C434.15 52.5049 477.125 78.4948 508.204 74.806C532.317 71.9458 534.498 62.7587 528.272 44.0063C523.371 29.1569 538.641 23.1467 552.933 19.202C564.835 15.9556 578.718 13.9911 591.839 12.4929C612.252 10.1627 641.968 19.3216 659.5 9.80234" stroke="#AFDFFF" stroke-width="0.342435" stroke-miterlimit="10"/>
<path d="M7.01217 142.122C18.0799 148.76 32.6329 151.574 45.8531 151.559C63.4359 151.533 73.2231 137.561 81.459 127.787C87.1183 121.079 92.9551 116.035 99.3205 116.2C116.133 116.717 129.194 114.334 142.226 106.684C146.016 104.637 150.215 103.058 154.684 102C174.078 97.0166 189.135 102.394 203.494 112.59C219.089 123.65 235.143 137.364 251.46 148.004C270.247 160.219 291.46 169.959 313.202 168.014C325.816 166.763 337.583 162.961 347.345 156.983C359.029 149.858 368.78 141.039 376.112 130.968C377.716 128.729 379.218 126.314 380.755 123.792C386.866 113.836 387.96 106.142 388.015 94.9499C388.082 82.9163 384.157 67.8589 399.04 60.7177C399.531 60.4679 400.044 60.2431 400.575 60.0447C431.984 49.5235 475.25 76.2455 506.147 72.7668C530.275 70.0548 530.366 60.3119 525.173 41.8918C520.934 26.8392 538.453 21.4642 552.704 17.8501C564.843 14.7786 578.59 12.8234 591.73 11.2672C611.938 8.87762 641.133 17.8098 658.634 8.72542" stroke="#AFDFFF" stroke-width="0.342435" stroke-miterlimit="10"/>
<path d="M6.07492 138.344C17.1922 144.3 31.573 146.232 44.1681 145.564C61.3823 144.616 70.9495 130.523 79.4988 120.838C85.1932 114.393 91.0521 109.903 97.4224 110.12C113.647 110.685 127.026 109.365 140.795 102.914C144.88 101.126 149.25 99.7269 153.817 98.7457C172.779 94.2862 187.582 98.1624 201.89 108.042C217.184 118.635 233.145 131.555 249.318 141.911C268.624 154.266 290.716 165.602 312.453 164.069C323.496 163.29 335.434 159.48 345.734 153.785C357.596 147.169 367.428 138.652 374.626 128.756C376.249 126.546 377.747 124.07 379.352 121.634C391.286 103.537 370.796 68.8544 396.338 57.5585C396.854 57.309 397.393 57.0873 397.951 56.8949C429.919 46.5537 472.072 74.155 503.701 70.6364C528.402 67.8996 526.067 57.8784 522.048 39.825C518.766 24.8115 538.365 19.9824 552.615 16.6605C565.37 13.8432 578.398 11.6751 591.618 10.1695C611.633 7.70489 640.262 16.4218 657.722 7.77105" stroke="#AFDFFF" stroke-width="0.342435" stroke-miterlimit="10"/>
<path d="M5.14273 134.609C16.3519 139.811 30.4957 140.751 42.4919 139.4C59.2175 137.506 68.5705 123.61 77.586 114.137C83.3301 108.111 89.2627 104.301 95.6257 104.577C111.366 105.264 125.777 104.929 139.732 99.4301C144.056 97.8581 148.573 96.5922 153.232 95.6471C171.952 91.4248 186.524 94.3609 200.741 103.696C215.56 113.415 231.05 126.07 246.914 136.028C264.813 147.265 289.18 162.052 311.109 159.855C322.996 158.766 334.27 155.67 344.153 150.78C356.153 144.577 366.095 136.331 373.288 126.615C374.93 124.424 376.419 121.836 378.095 119.46C391.005 101.249 364.83 66.2357 393.953 54.5502C394.497 54.3232 395.059 54.1217 395.637 53.9468C428.287 44.0672 467.452 69.5757 501.317 68.54C528.183 67.7699 521.405 52.3564 519.189 37.7738C516.92 22.7978 538.493 18.4757 552.669 15.3858C565.437 12.7053 578.42 10.5544 591.565 8.94202C611.38 6.38409 639.42 14.8916 656.838 6.66594" stroke="#AFDFFF" stroke-width="0.342435" stroke-miterlimit="10"/>
<path d="M4.20613 130.925C15.9321 135.648 29.456 134.792 40.8244 133.27C56.4352 131.163 66.0517 117.033 75.7263 107.933C81.5355 102.473 87.5615 99.4569 93.9462 99.8303C109.752 100.715 124.324 101.165 138.849 96.3201C143.351 94.9216 147.976 93.7415 152.699 92.7862C170.971 88.7502 185.673 90.5238 199.814 99.48C214.173 108.566 229.111 120.888 244.389 130.421C262.369 141.634 286.666 156.722 309.069 155.408C320.468 154.741 332.064 152.722 342.425 147.816C354.562 141.992 364.634 133.997 371.864 124.446C373.539 122.267 375.084 119.772 376.772 117.302C389.59 98.6421 359.874 63.2317 391.702 51.7467C392.275 51.5413 392.87 51.3385 393.461 51.1697C426.606 41.9009 464.898 67.0451 498.762 66.5768C525.698 66.2368 517.44 49.7485 516.426 35.8628C515.36 21.1107 538.568 17.2286 552.813 14.3019C565.258 11.7494 578.521 9.64053 591.493 7.89203C611.139 5.25329 638.543 13.5629 655.944 5.75662" stroke="#AFDFFF" stroke-width="0.342435" stroke-miterlimit="10"/>
<path d="M3.2798 127.32C15.1163 131.136 28.3198 129.33 39.1441 127.225C54.3079 124.29 63.2976 110.805 73.8832 102.306C79.795 97.5647 85.8215 95.555 92.241 96.0101C108.106 97.1427 123.242 97.8338 138.097 93.4847C142.734 92.1283 147.485 90.9839 152.325 90.0571C170.641 86.5855 184.288 86.2781 199.234 95.3238C213.18 103.766 227.601 115.827 242.292 125.04C260.537 136.474 284.274 151.106 306.836 151.059C318.401 151.04 330.067 149.648 340.75 144.937C353.035 139.436 363.25 131.643 370.536 122.211C372.384 119.917 374.059 117.537 375.554 115.081C386.408 96.5687 356.309 59.8043 389.775 49.1037C390.38 48.9107 391.007 48.7204 391.63 48.5641C425.105 39.9891 462.678 64.6071 496.277 64.5626C522.963 64.5361 513.674 46.9674 513.854 33.8293C514.043 19.6085 538.591 16.0187 553.047 13.2036C565.499 10.7724 578.593 8.57427 591.448 6.78558C610.917 4.03926 637.661 12.1653 655.044 4.77833" stroke="#AFDFFF" stroke-width="0.342435" stroke-miterlimit="10"/>
<path d="M2.34919 123.852C14.6594 126.35 26.6266 124.135 37.4691 121.421C52.1646 117.741 60.3269 104.99 72.0916 97.4606C74.5496 95.7611 77.4602 94.4894 80.6467 93.7228C83.8332 92.9561 87.2291 92.7106 90.6282 93.0009C106.642 94.1947 122.275 95.0323 137.431 90.9609C142.055 89.7264 147.061 88.5643 151.924 87.5655C169.821 83.9567 183.977 82.8684 198.77 91.3279C212.359 99.1159 226.385 111.034 240.464 119.94C259.918 132.279 282.217 145.041 304.471 146.969C316.531 148.085 328.523 146.441 338.954 142.241C351.41 137.023 361.796 129.397 369.178 120.05C371.173 117.789 372.784 115.327 373.974 112.721C381.434 93.52 353.164 56.4279 388.102 46.6807C388.739 46.5002 389.374 46.3368 390.018 46.1916C423.937 38.7459 460.208 62.302 493.728 62.6264C520.166 62.8965 510.363 44.5858 511.537 31.8268C512.805 18.0212 538.992 14.7429 553.373 12.0822C565.843 9.78214 578.677 7.5179 591.398 5.63548C610.757 2.78117 636.771 10.7495 654.161 3.76757" stroke="#AFDFFF" stroke-width="0.342435" stroke-miterlimit="10"/>
<path d="M1.42744 120.497C13.7362 121.997 25.2939 119.104 35.8175 115.887C49.8425 111.652 57.3313 99.4731 70.281 93.5071C75.8476 90.9744 82.4417 89.9666 89.0716 90.6352C105.299 91.8206 121.392 92.6454 136.789 88.7066C141.499 87.4998 146.541 86.3163 151.459 85.238C169.003 81.3972 183.625 79.5141 198.398 87.4119C211.712 94.5214 225.353 106.29 238.904 115.036C258.142 127.4 279.943 140.119 302.072 143.073C313.508 144.578 325.721 144.018 337.161 139.606C349.798 134.638 360.37 127.154 367.867 117.869C369.811 115.559 371.179 112.969 371.907 110.224C376.525 90.677 349.813 52.9146 386.601 44.683C387.257 44.5307 387.933 44.398 388.608 44.2738C422.913 38.0621 457.651 60.0725 491.187 60.8202C517.425 61.4359 507.053 42.1097 509.485 29.9511C512.153 16.5828 539.109 13.6992 553.766 11.0635C566.16 8.84016 578.792 6.49109 591.34 4.55329C610.773 1.55313 635.388 9.16183 653.279 2.843" stroke="#AFDFFF" stroke-width="0.342435" stroke-miterlimit="10"/>
<path d="M0.511041 117.281C12.7481 117.808 24.0844 114.346 34.1765 110.724C47.0361 106.141 55.1406 94.6905 68.5013 90.4003C74.5897 88.4325 80.8711 88.2773 87.5581 88.7392C104.014 89.8836 120.528 90.5533 136.119 86.5949C140.92 85.3734 145.97 84.1221 150.925 82.9195C165.789 79.3283 183.424 74.8362 198.031 83.445C211.714 91.4767 224.523 101.535 237.598 110.147C256.543 122.63 277.677 135.311 299.691 139.119C311.354 141.142 323.508 141.16 335.261 136.846C348.028 132.105 359.44 124.808 366.405 115.463C368.063 112.984 369.04 110.239 369.278 107.393C371.736 87.6681 347.02 49.4951 385.355 42.8883C386.051 42.7753 386.759 42.6551 387.464 42.5519C421.832 37.4832 455.305 57.9375 488.665 58.939C514.515 59.7138 503.821 39.3592 507.625 27.9613C511.873 15.2154 538.926 12.6276 554.195 9.92879C566.482 7.75268 578.888 5.33304 591.255 3.33005C610.568 0.203598 634.461 7.68132 652.401 1.78988" stroke="#AFDFFF" stroke-width="0.342435" stroke-miterlimit="10"/>
<path d="M-0.393222 114.229C11.6427 113.838 22.6538 109.923 32.5596 105.995C44.4736 101.279 53.3761 91.1732 66.7579 87.9951C73.033 86.5145 79.2734 86.879 86.0548 87.3008C102.703 88.3395 119.643 88.8118 135.384 84.6308C140.225 83.3541 145.288 82.0011 150.249 80.6614C165.062 76.6599 182.652 71.7065 197.561 79.4919C211.227 86.6528 223.794 96.7678 236.465 105.304C255.061 117.891 275.587 130.61 297.335 135.22C309.11 137.712 321.29 138.43 333.366 134.13C346.062 129.604 358.876 122.546 364.412 112.899C365.677 110.687 366.124 107.568 366.227 104.519C367.013 84.1172 344.31 46.8518 384.37 41.5046C385.086 41.4111 385.826 41.3034 386.563 41.2212C420.857 37.2186 453.129 56.0558 486.165 57.233C511.618 58.1487 500.81 36.5244 505.961 26.0991C511.887 14.1684 538.454 11.8136 554.642 8.91714C566.818 6.73608 579.003 4.28959 591.125 2.17944C610.271 -1.13086 633.515 6.2592 651.512 0.81343" stroke="#AFDFFF" stroke-width="0.342435" stroke-miterlimit="10"/>
<path d="M-1.29301 111.35C10.4842 110.144 21.309 105.923 30.9631 101.766C41.9008 97.0774 51.9126 88.4226 65.0221 86.2865C71.3768 85.2543 77.6627 85.7963 84.5174 86.1668C101.448 87.0852 118.748 87.1798 134.532 82.7374C139.396 81.3603 144.452 79.8859 149.399 78.3812C164.183 73.8774 181.502 68.4006 196.887 75.4956C210.65 81.8513 223.076 91.9404 235.449 100.44C253.838 113.071 273.597 125.937 295.034 131.266C306.822 134.199 319.106 135.626 331.436 131.348C343.767 127.07 357.843 120.579 361.803 110.103C362.652 107.291 362.977 104.374 362.769 101.439C362.232 79.9561 341.903 44.5969 383.632 40.3303C384.379 40.2578 385.139 40.1698 385.896 40.1072C419.989 37.0177 451.162 54.2245 483.714 55.5232C508.788 56.5217 498.112 33.9933 504.654 24.2621C512.26 12.9575 538.272 10.8448 555.104 7.80308C567.054 5.63755 579.038 3.09776 590.937 0.986188C610.008 -2.44504 632.511 4.88052 650.611 -0.131157" stroke="#AFDFFF" stroke-width="0.342435" stroke-miterlimit="10"/>
<path d="M-2.18386 108.652C9.23 106.756 19.6027 102.3 29.3872 98.0816C40.012 93.4839 50.4902 86.417 63.2984 85.0097C69.735 84.3143 76.034 84.8408 82.947 85.1926C100.109 85.9585 117.768 85.6753 133.525 80.8082C138.383 79.3013 143.435 77.6717 148.338 75.981C163.026 70.8891 179.873 64.9678 195.858 71.4479C209.918 77.1171 222.258 86.9894 234.441 95.492C252.622 108.183 271.687 121.231 292.764 127.222C304.481 130.55 316.951 132.749 329.516 128.473C341.797 124.327 356.109 118.467 358.641 107.137C359.156 104.211 359.26 101.231 358.952 98.2471C357.381 75.5203 340.085 42.6206 383.146 39.2645L385.46 39.0905C418.875 36.9764 449.404 52.5908 481.366 53.9554C506.146 54.9783 495.671 31.9066 503.724 22.6261C513.104 11.8128 538.271 9.93264 555.592 6.72696C567.296 4.5658 579.068 1.93136 590.731 -0.260594C609.74 -3.82835 631.535 3.42825 649.76 -1.12969" stroke="#AFDFFF" stroke-width="0.342435" stroke-miterlimit="10"/>
<path d="M-3.06395 106.145C7.92288 103.716 18.028 99.2531 27.848 95.2025C38.4428 90.8505 48.9748 84.9943 61.635 84.0679C68.135 83.5867 74.4051 84.0752 81.3755 84.3222C98.7586 84.9258 116.734 84.2511 132.366 78.8442C137.21 77.1806 142.228 75.3663 147.066 73.4784C161.592 67.7905 177.608 61.4411 194.428 67.3089C208.983 72.402 221.334 81.9058 233.407 90.395C251.39 103.053 269.869 116.417 290.593 123.01C302.21 126.705 314.924 129.561 327.583 125.426C340.243 121.291 353.361 115.776 354.928 103.925C355.19 100.957 355.14 97.9619 354.777 94.9695C352.471 70.9402 338.908 40.9037 382.787 38.4472C383.575 38.4056 384.365 38.347 385.151 38.3223C417.799 36.9922 447.86 51.1217 479.069 52.429C503.545 53.4665 493.288 30.0772 503.014 21.1038C514.248 10.7743 538.316 9.00975 556.027 5.63647C567.475 3.46139 578.995 0.693027 590.447 -1.51595C609.429 -5.22469 630.526 1.98125 648.903 -2.08503" stroke="#AFDFFF" stroke-width="0.342435" stroke-miterlimit="10"/>
<path d="M-3.94551 103.741C6.62668 100.952 16.5376 96.706 26.3328 92.8588C36.9008 88.7272 47.5472 83.9515 59.8751 83.1824C66.3858 82.7971 72.6414 83.129 79.6332 83.2926C97.2174 83.7143 115.492 82.689 130.946 76.641C135.746 74.7829 140.721 72.7741 145.462 70.668C161.346 63.6574 174.872 59.8432 192.117 63.3286C206.631 66.275 220.104 76.6723 232.104 85.1098C249.863 97.5946 268.039 111.429 288.409 118.632C299.927 122.676 312.878 125.974 325.637 122.212C337.981 118.555 349.98 112.043 350.781 100.693C350.877 97.6859 350.726 94.6653 350.328 91.6491C347.68 66.2965 338.505 39.3406 382.67 37.7532C383.456 37.7285 384.266 37.6896 385.062 37.6747C416.781 36.9969 446.524 49.789 476.89 51.0365C501.204 52.0285 490.943 28.3979 502.592 19.7017C515.708 9.89399 538.468 8.12494 556.461 4.55369C567.622 2.34372 578.896 -0.514856 590.042 -2.77837C609.017 -6.61692 629.46 0.543719 648.021 -3.0184" stroke="#AFDFFF" stroke-width="0.342435" stroke-miterlimit="10"/>
<path d="M-4.82126 101.39C5.38177 98.4181 15.0475 94.3487 24.8366 90.8275C35.5499 86.9717 45.9767 83.081 58.1644 82.269C64.7083 81.9116 71.2957 81.8354 77.8966 82.0406C95.6437 82.3187 114.097 80.9282 129.327 74.2421C134.054 72.1516 139.101 69.9194 143.549 67.6485C157.852 60.4023 172.607 57.7872 188.707 60.0235C204.102 62.1655 218.286 71.2216 230.496 79.59C248.165 91.7112 265.509 105.117 286.18 113.897C297.194 118.585 311.659 122.402 323.625 118.63C335.592 114.858 345.724 107.878 346.121 97.1837C346.214 94.6748 345.863 91.4065 345.552 88.1775C342.942 61.6772 338.753 37.8658 382.58 37.0287C383.387 37.0152 384.206 36.9945 385 36.9966C415.737 36.8529 445.204 48.5104 474.69 49.6421C498.947 50.5497 488.433 26.7936 502.24 18.283C517.221 9.04648 538.479 7.21487 556.708 3.35419C567.587 1.07541 578.594 -1.88452 589.451 -4.16599C608.431 -8.13301 628.285 -1.00961 647.049 -4.03098" stroke="#AFDFFF" stroke-width="0.342435" stroke-miterlimit="10"/>
<path d="M-5.69986 99.2268C4.14985 96.126 13.6965 92.3001 23.3451 89.1059C33.9719 85.5922 44.634 82.3408 56.4439 81.2334C62.9359 80.6055 69.5016 80.3134 76.0983 80.359C93.9772 80.4725 112.59 78.7832 127.51 71.423C132.188 69.1027 137 66.9622 141.191 64.9612C154.944 58.3705 168.861 55.9372 184.526 57.3378C200.19 58.7384 215.511 66.6342 228.186 74.3108C246.358 85.3236 263.62 99.6832 283.973 108.957C294.483 113.747 309.872 118.881 321.022 114.743C331.559 110.866 340.959 103.84 341.234 93.6808C341.31 91.2215 340.969 87.963 340.72 84.776C338.634 57.3761 339.809 36.618 382.75 36.447C383.556 36.4419 384.397 36.424 385.189 36.443C414.086 37.1761 444.158 47.359 472.729 48.3793C493.44 49.113 491.575 24.3032 502.186 16.9772C515.214 7.97594 538.459 6.17986 556.999 2.15066C567.704 -0.166544 578.27 -3.27474 588.881 -5.56031C607.954 -9.64507 627.219 -2.55044 646.202 -4.97752" stroke="#AFDFFF" stroke-width="0.342435" stroke-miterlimit="10"/>
<path d="M-6.56003 97.1095C2.93705 93.9657 12.1572 90.3408 21.8537 87.4879C32.5836 84.3222 43.3004 81.4474 54.6781 79.8487C61.0913 78.8025 67.6493 78.211 74.2736 78.0812C92.3495 78.0467 110.4 75.7383 125.369 68.4357C129.78 66.2893 134.384 64.5708 138.357 62.8012C150.599 57.2307 164.757 53.7343 179.594 55.0428C196 56.5079 210.989 62.5397 224.185 69.5144C243.245 79.5773 261.87 94.8684 281.546 103.544C291.829 108.091 306.381 114.31 316.888 110.309C326.084 106.793 335.617 99.8606 336.006 90.0594C336.108 87.6635 335.83 84.4385 335.717 81.3197C334.649 53.3728 341.407 35.4366 382.95 35.8178C383.766 35.8226 384.594 35.8202 385.396 35.849C413.334 36.9213 443.08 46.385 470.808 47.1649C490.745 47.7356 490.901 22.7677 502.21 15.673C515.978 7.02844 538.607 5.14871 557.101 0.85585C567.457 -1.53821 577.769 -4.76338 588.071 -7.07806C607.111 -11.356 626.075 -4.16913 645.295 -5.98228" stroke="#AFDFFF" stroke-width="0.342435" stroke-miterlimit="10"/>
<path d="M-7.42798 95.0512C-7.42798 95.0512 0.439232 91.425 20.3797 85.9064C30.9333 82.9944 42.0403 80.3134 52.9724 78.0583C59.4424 76.7218 65.6451 75.0088 72.4341 75.0014C90.1522 74.9664 107.603 72.5334 122.913 66.012C127.172 64.1912 131.494 62.6791 135.178 61.0807C146.984 55.9646 160.173 52.3501 174.365 53.1672C190.599 54.1125 205.567 59.0322 219.099 65.2736C238.792 74.3643 258.041 88.7509 277.643 97.7617C287.31 102.216 301.851 109.174 311.445 105.414C319.959 102.082 329.875 95.9529 330.535 86.4083C330.705 84.0895 330.564 80.9328 330.61 77.8936C331.106 49.862 343.427 34.3666 383.196 35.1768C384.009 35.1985 384.837 35.1961 385.626 35.2406C412.645 36.6051 442.018 45.5503 468.975 46.0557C479.685 46.2679 481.903 42.0998 486.101 36.0999C492.668 26.7158 490.996 20.9815 502.308 14.4118C516.592 6.12255 538.781 3.99151 557.044 -0.424112C567.092 -2.85576 577.176 -6.32369 587.118 -8.62199C605.966 -12.9749 624.942 -5.7952 644.365 -6.88694" stroke="#AFDFFF" stroke-width="0.342435" stroke-miterlimit="10"/>
<path d="M-8.29008 93.0453C-8.29008 93.0453 -0.879489 89.3119 18.8858 84.3137C29.6281 81.5968 40.6311 78.8515 51.2404 75.7571C57.7104 73.8702 63.9964 71.29 70.6122 71.2357C87.4818 71.0973 104.902 69.925 120.177 64.1477C124.258 62.5976 128.36 61.2394 131.892 59.7859C143.192 55.0555 155.406 51.1846 168.957 51.5794C184.792 52.0375 199.577 56.0662 213.18 61.5337C233.244 69.6029 252.966 82.5849 272.278 91.956C281.475 96.4222 295.127 103.874 305.03 100.246C315.874 96.2343 321.939 92.0703 325.045 82.8237C325.716 80.8067 325.378 77.5228 325.647 74.5795C328.184 46.9515 345.79 33.4244 383.595 34.5632C384.409 34.5849 385.246 34.6008 386.022 34.6524C412.183 36.2736 441.094 44.8786 467.381 45.096C478.206 45.1932 480.071 40.81 484.451 34.8668C491.46 25.3473 490.685 19.7738 502.616 13.2624C517.232 5.28017 538.943 2.85006 556.949 -1.75168C566.726 -4.25078 576.428 -7.98027 586.23 -10.2269C605.223 -14.4848 623.918 -7.48533 643.516 -7.80748" stroke="#AFDFFF" stroke-width="0.342435" stroke-miterlimit="10"/>
<path d="M-9.15184 91.0309C-9.15184 91.0309 -2.13692 87.2406 17.4397 82.598C28.5075 80.0794 39.2135 76.8107 49.4389 72.8283C55.8943 70.2343 61.994 67.898 68.6205 67.9397C85.4391 68.0359 101.813 67.9316 117.275 62.633C121.196 61.2957 125.204 60.0637 128.446 58.6953C139.926 53.8664 150.916 50.6807 163.505 50.0638C177.64 49.3342 193.288 53.4337 206.715 58.1485C226.827 65.1743 246.55 76.9608 265.723 86.0999C274.674 90.3728 288.157 98.0274 297.831 94.7159C306.584 91.7137 317.081 88.2531 319.352 79.0682C319.894 76.915 320.081 73.9962 320.617 71.1628C325.629 44.4297 348.012 32.3533 383.879 33.7032C384.692 33.7334 385.505 33.7551 386.281 33.8151C411.676 35.6614 440.019 44.1542 465.754 44.0462C476.708 43.9957 478.23 39.3988 482.81 33.4713C490.222 23.8462 490.381 18.4122 502.834 11.9299C517.656 4.18783 538.896 1.4939 556.525 -3.31719C566.045 -5.91632 575.431 -9.89083 585.191 -11.9791C604.402 -16.0986 622.876 -9.21212 642.543 -8.812" stroke="#AFDFFF" stroke-width="0.342435" stroke-miterlimit="10"/>
<path d="M-10.0143 89.0166C-10.0143 89.0166 -3.38406 85.1709 15.9012 80.7164C27.4893 78.0337 37.5145 74.0425 47.5707 69.2465C53.1077 66.4664 59.7102 65.1085 66.5083 65.3517C82.9248 65.8118 99.0096 66.24 114.283 61.4861C117.959 60.4285 121.548 59.2177 125.036 57.8587C135.943 53.2352 146.366 49.5591 158.299 48.544C171.657 47.4015 187.128 51.0321 200.148 55.0437C220.024 61.1634 239.496 71.698 258.451 80.4235C267.314 84.505 280.511 92.1162 290.188 89.1491C299.228 86.3625 310.285 84.5526 313.722 75.4324C314.498 73.3766 314.913 70.606 315.753 67.9386C323.797 42.4779 349.738 31.308 384.162 32.8434C384.963 32.8807 385.775 32.9109 386.54 32.9696C411.283 35.0288 438.917 43.6504 464.272 43.1693C475.357 42.9627 476.55 38.1279 481.319 32.2062C489.107 22.5322 490.407 17.0911 503.118 10.7003C518.045 3.18622 538.916 0.223612 555.935 -4.91113C565.131 -7.68747 574.47 -11.7365 584.197 -13.7427C603.561 -17.7404 621.943 -10.9253 641.691 -9.72393" stroke="#AFDFFF" stroke-width="0.342435" stroke-miterlimit="10"/>
<path d="M-10.8704 86.9591C-10.8704 86.9591 -4.56176 83.0914 14.404 78.598C26.0905 75.8413 35.8229 70.2145 45.6192 65.8084C51.3559 63.2386 57.7637 62.7806 64.3058 63.1474C80.433 64.0539 96.2056 64.9344 111.275 60.5685C114.881 59.6052 118.384 58.4515 121.761 57.115C132.018 52.6876 142.359 48.58 153.454 46.9209C165.988 45.0072 180.97 48.8018 193.758 52.1487C213.494 57.3052 232.255 67.0651 250.76 74.8928C259.874 78.7554 272.904 85.8991 282.328 83.5377C291.752 81.1763 303.293 80.8102 308.202 71.8176C309.265 69.8828 309.941 67.2729 311.135 64.7176C322.217 41.0376 351.336 30.1257 384.428 31.7655C385.218 31.8015 386.006 31.8459 386.771 31.9046C411.903 33.7963 437.502 43.1505 462.964 42.2523C474.19 41.8995 475.007 36.8383 480.007 30.8672C488.119 21.1897 490.66 15.659 503.471 9.36642C518.303 2.08157 538.588 -1.12438 555.082 -6.62423C564.093 -9.62949 573.448 -13.625 583.177 -15.5535C602.658 -19.4164 621.081 -12.6567 640.841 -10.6367" stroke="#AFDFFF" stroke-width="0.342435" stroke-miterlimit="10"/>
<path d="M-11.7426 84.8571C-11.7426 84.8571 -5.67948 80.9853 12.8854 76.2022C24.2888 73.2906 33.4361 66.5002 43.5885 62.8427C49.2382 60.8043 55.5612 60.766 62.0606 61.2996C77.9589 62.6169 93.4354 63.9086 108.341 59.7893C111.866 58.8833 115.27 57.7473 118.517 56.3928C128.535 51.9104 138.512 47.122 149.14 45.0706C161.062 42.7641 175.362 46.3725 187.832 49.3021C206.729 53.7284 225.07 62.4394 242.993 69.6286C252.237 73.335 264.909 80.1168 274.492 78.0156C284.492 75.7931 296.383 76.8632 302.872 68.3039C304.205 66.5396 305.232 64.0757 306.811 61.6704C320.995 40.0627 352.393 28.8952 384.596 30.5815C385.373 30.6246 386.14 30.6664 386.892 30.7322C411.708 32.7486 436.33 42.7752 461.633 41.4362C473.012 40.8354 473.538 35.5065 478.737 29.5511C487.101 19.9129 490.934 14.247 503.723 8.03789C518.425 0.909122 537.763 -2.60142 553.963 -8.44665C562.961 -11.7116 572.31 -15.5701 582.097 -17.4228C601.649 -21.1309 620.266 -14.4937 639.96 -11.5615" stroke="#AFDFFF" stroke-width="0.342435" stroke-miterlimit="10"/>
<path d="M-12.6106 82.6966C-12.6106 82.6966 -6.39256 78.9297 11.3468 73.4869C22.2317 70.1509 30.5091 63.0653 41.4924 60.2057C47.2685 58.6902 53.3581 58.9159 59.7918 59.6222C75.4171 61.3449 90.7658 63.0425 105.51 59.0498C109.006 58.1655 112.36 57.0126 115.525 55.6077C125.3 50.9151 135.087 45.4843 145.483 42.8542C156.814 39.9854 170.82 43.4375 182.645 46.3316C200.332 50.688 218.137 58.0176 235.464 64.5923C244.849 68.1525 257.715 74.7171 266.917 72.6126C276.807 70.3767 290.112 73.0639 297.85 64.8977C299.391 63.2619 300.868 60.9646 302.869 58.7656C320.238 39.378 352.728 27.5091 384.648 29.2212C385.403 29.2616 386.182 29.2962 386.866 29.371C410.288 31.9918 435.867 42.3413 460.517 40.6648C469.325 40.0604 471.664 36.1908 476.09 31.251C485.4 20.8334 489.637 13.4965 503.979 6.65935C518.628 -0.312406 536.838 -4.20119 552.722 -10.386C561.807 -13.9154 571.158 -17.6018 581.009 -19.3349C600.641 -22.8698 619.552 -16.3602 639.085 -12.4756" stroke="#AFDFFF" stroke-width="0.342435" stroke-miterlimit="10"/>
<path d="M-13.4781 80.4576C-13.4781 80.4576 -6.66224 76.8323 9.81192 70.3925C19.3782 66.6808 28.3412 59.8422 39.377 57.7459C45.2137 56.6506 51.1563 57.0735 57.5252 57.9439C72.9236 60.0604 88.2297 62.2001 102.852 58.2011C106.36 57.3299 109.699 56.1375 112.802 54.648C122.657 49.4834 131.97 43.0745 142.618 40.1225C153.613 37.0751 166.758 40.0611 178.488 43.0123C195.077 47.1921 212.02 53.892 228.49 59.786C238.016 63.1999 250.327 69.2669 259.807 67.3682C270.534 65.2343 283.854 68.9899 293.188 61.5858C295.058 60.0933 296.862 58.0508 299.371 55.9912C320.256 38.8639 352.123 25.9559 384.526 27.6578C385.259 27.6956 386.027 27.7289 386.744 27.8076C409.894 30.5502 434.95 42.066 459.515 39.8974C468.434 39.1173 470.488 35.0152 475.023 30.0112C484.53 19.5316 489.907 12.11 504.243 5.22911C518.579 -1.65176 536.294 -6.2545 551.486 -12.4463C560.334 -16.0476 570.385 -20.0616 579.952 -21.3045C599.405 -23.8291 618.011 -18.4834 638.261 -13.4191" stroke="#AFDFFF" stroke-width="0.342435" stroke-miterlimit="10"/>
<path d="M-14.3571 78.1314C-14.3571 78.1314 -7.73616 74.362 8.2462 67.0021C17.0641 62.9154 26.394 56.9214 37.2411 55.4559C43.0637 54.6599 48.9557 55.2228 55.3171 56.2471C70.5378 58.7204 85.8973 61.3397 100.44 57.2622C103.971 56.3545 107.306 55.0867 110.36 53.4904C120.398 47.8321 129.837 40.4838 140.682 36.8332C151.527 33.1826 163.775 35.9132 175.577 39.1829C191.029 43.4305 206.873 49.8762 222.328 55.1993C231.99 58.5093 243.617 64.0456 253.384 62.354C264.993 60.3275 278.218 64.9575 289.044 58.4318C291.217 57.1139 293.411 55.2651 296.433 53.4055C320.414 38.6767 351.247 24.2493 384.228 25.8841C384.939 25.9192 385.661 25.9641 386.346 26.0303C410.932 28.2769 433.064 42.0427 458.559 39.1272C467.63 38.0991 469.362 33.7944 474.007 28.7177C483.666 18.1793 490.13 10.6492 504.396 3.6996C518.476 -3.18671 535.311 -8.55037 550.173 -14.6102C559.034 -18.2187 569.202 -22.1924 578.848 -23.3399C598.389 -25.6731 617.406 -20.4923 637.408 -14.3918" stroke="#AFDFFF" stroke-width="0.342435" stroke-miterlimit="10"/>
<path d="M-15.2717 75.7146C-15.2717 75.7146 -9.42462 70.8618 6.63175 63.2615C15.188 59.2118 24.5196 54.1211 35.0555 53.0993C40.9053 52.5389 46.746 53.1557 53.0137 54.3063C68.129 57.0936 83.6039 60.2344 98.1199 56.0075C101.748 55.0308 105.149 53.6558 108.224 51.9226C118.545 45.7741 127.019 37.2588 139.89 33.7777C151.904 30.5361 162.637 31.749 173.981 34.8339C187.953 38.6517 202.656 45.9303 217.269 50.824C226.938 54.0662 237.929 59.1379 247.865 57.6216C260.322 55.6985 273.344 61.0778 285.486 55.4952C287.974 54.3532 290.601 52.7982 294.194 51.0253C319.555 38.4686 351.029 22.5452 383.685 23.9944C384.364 24.0254 385.063 24.0676 385.738 24.124C410.379 26.3857 431.971 41.9179 457.599 38.4596C466.764 37.2107 468.237 32.6507 472.994 27.4759C482.737 16.8961 490.267 9.23786 504.398 2.21149C518.133 -4.60491 534.022 -10.9267 548.769 -16.7684C557.779 -20.3242 567.946 -24.281 577.653 -25.2919C597.256 -27.4025 616.826 -22.4384 636.473 -15.2713" stroke="#AFDFFF" stroke-width="0.342435" stroke-miterlimit="10"/>
<path d="M-16.0841 73.207C-16.0841 73.207 -10.5322 66.8301 5.08657 59.7013C13.4706 55.8714 22.6828 51.3941 33.0272 50.6586C38.9877 50.3118 45.0478 50.7937 50.9256 52.0819C66.023 55.1079 81.7104 58.7993 96.226 54.3917C99.9771 53.3462 103.46 51.8469 106.553 49.9469C116.918 43.1672 125.719 34.7176 139.496 31.2349C151.341 28.274 162.162 28.7663 173.441 31.2842C186.766 34.2663 200.282 41.6413 213.58 46.4952C222.659 49.8202 233.687 54.3976 243.43 53.09C256.639 51.3273 269.487 57.3048 282.617 52.7027C285.397 51.7339 288.711 50.2366 292.648 48.5745C318.641 37.6173 350.967 20.6709 382.856 21.7169C383.512 21.7452 384.191 21.7763 384.832 21.8372C409.567 24.0588 430.889 41.8031 456.709 37.6886C465.929 36.2658 467.301 31.4269 472.147 26.1682C481.95 15.5527 490.36 7.74362 504.338 0.595411C517.68 -6.20864 532.777 -13.4613 547.369 -19.0466C556.52 -22.5595 566.703 -26.4712 576.48 -27.4134C596.137 -29.3197 616.371 -24.395 635.584 -16.2315" stroke="#AFDFFF" stroke-width="0.342435" stroke-miterlimit="10"/>
<path d="M-17.0051 70.5833C-17.0051 70.5833 -12.5859 62.8557 3.42168 56.2989C12.522 52.5563 20.633 48.5813 30.8786 48.0144C36.8391 47.6708 42.8982 48.1498 48.7779 49.4292C63.8899 52.6118 79.9031 56.8418 94.4404 52.2562C98.3703 51.1477 101.977 49.5029 105.097 47.3957C114.987 40.2915 125.264 32.1249 139.347 29.0666C150.361 26.5236 162.245 26.3729 173.754 28.6302C185.915 31.1609 199.078 37.4004 211.473 42.2304C221.786 46.2477 231.916 50.2083 240.265 48.8685C253.564 46.7383 267.94 52.661 280.713 50.0711C283.705 49.4722 287.422 47.7832 291.647 46.2421C317.902 36.6243 350.845 18.7381 381.783 19.3327C382.407 19.3486 383.064 19.3769 383.684 19.4267C408.576 21.5471 429.866 41.7646 455.969 36.9793C465.119 35.307 466.459 30.1804 471.367 24.8606C481.198 14.2055 490.413 6.21909 504.205 -1.06346C517.217 -7.90778 531.557 -15.9235 545.976 -21.3751C555.225 -24.8674 565.542 -28.6854 575.338 -29.5049C595.011 -31.1769 616.027 -26.3376 634.727 -17.1701" stroke="#AFDFFF" stroke-width="0.342435" stroke-miterlimit="10"/>
<path d="M-17.905 67.8679C-17.905 67.8679 -13.7283 59.285 1.79818 53.0051C10.5742 49.4465 18.5677 45.7927 28.8708 45.121C34.819 44.6905 40.8878 45.1091 46.7808 46.3565C61.9107 49.5757 78.4463 54.2907 92.976 49.5838C96.9707 48.3324 100.613 46.5414 103.742 44.2893C113.807 36.8453 124.947 29.6697 139.271 27.1138C150.703 25.0659 163.602 24.3836 174.705 26.6908C186.703 29.1844 199.035 33.8002 210.664 38.3047C220.272 42.0554 229.114 46.1257 238.609 44.9256C252.389 43.1635 266.368 49.5885 279.433 47.447C282.567 46.9685 286.565 45.3569 291.046 43.9158C317.411 35.4123 350.4 16.7834 380.346 16.7068C380.951 16.703 381.587 16.7117 382.197 16.7516C407.493 18.4997 428.66 41.747 455.207 36.2504C464.281 34.3711 465.683 28.9251 470.631 23.5585C480.465 12.8694 490.263 4.68745 503.931 -2.76511C516.675 -9.71079 530.207 -18.3411 544.505 -23.7128C553.877 -27.2073 564.232 -30.8831 574.128 -31.6044C593.829 -33.0493 615.701 -28.2606 633.82 -18.0887" stroke="#AFDFFF" stroke-width="0.342435" stroke-miterlimit="10"/>
<path d="M-18.8034 65.0493C-18.8034 65.0493 -14.9132 55.8811 0.0905815 49.7611C8.57455 46.3046 16.4703 42.8109 26.8705 41.893C32.8032 41.2666 38.9091 41.5402 44.8552 42.6989C59.8883 45.7945 76.9787 50.9126 91.4024 46.1583C95.348 44.9301 98.9957 43.2376 102.224 41.1373C112.831 33.9312 124.565 27.2925 139.204 25.1793C151.247 23.3739 163.769 23.3843 176.104 25.21C187.397 26.9726 199.649 30.8648 210.865 34.9061C220.046 38.2177 227.963 42.3475 238.125 41.1855C251.803 39.6175 265.811 46.4417 278.707 44.7784C281.944 44.3642 286.184 42.8851 290.865 41.5458C306.97 36.9447 322.822 31.2979 338.56 25.8522C350.827 21.6352 364.778 13.9677 378.844 13.7974C379.46 13.7846 380.078 13.7967 380.696 13.8338C406.299 15.4472 427.648 41.5123 454.476 35.3617C463.359 33.3128 465.018 27.494 469.945 22.1163C479.149 11.7949 490.483 2.76427 503.533 -4.64537C516.048 -11.7223 528.772 -20.8896 543.064 -26.2104C552.435 -29.6965 562.988 -33.245 572.935 -33.8396C592.698 -35.0534 615.445 -30.201 632.938 -19.1162" stroke="#AFDFFF" stroke-width="0.342435" stroke-miterlimit="10"/>
<path d="M-19.6989 62.1272C-19.6989 62.1272 -16.1242 52.6108 -1.57045 46.5134C6.67385 43.0966 14.4364 39.5952 24.9291 38.2844C30.947 37.538 36.9922 37.3024 43.0054 38.4305C57.8102 41.1973 74.945 46.7766 89.47 42.568C93.4639 41.4997 97.1854 39.9546 100.507 37.986C111.651 31.0518 124.364 24.5495 138.988 23.2C151.716 21.9011 164.752 22.1515 177.635 23.9425C189.27 25.7762 200.713 28.4955 211.795 32.06C220.635 34.8572 227.925 38.9104 238.404 37.7097C251.48 36.2147 266.012 43.3348 278.458 42.1415C281.763 41.8215 286.204 40.4357 291.052 39.1942C307.571 34.8417 323.692 29.7377 339.334 23.9076C350.926 19.6341 363.789 11.1633 377.318 10.9103C377.93 10.8909 378.546 10.8969 379.161 10.9284C405.093 12.4099 426.793 41.2873 453.721 34.4953C462.338 32.3366 464.411 26.0606 469.265 20.7341C478.61 10.3325 489.974 1.15549 502.989 -6.50118C515.318 -13.7985 527.231 -23.3743 541.616 -28.6407C551.05 -32.0932 561.731 -35.4972 571.756 -35.9963C591.579 -36.9706 615.225 -32.0518 632.069 -20.0482" stroke="#AFDFFF" stroke-width="0.342435" stroke-miterlimit="10"/>
<path d="M-20.5842 59.1981C-20.5842 59.1981 -17.3494 49.4426 -3.23127 43.2491C4.68657 39.7581 12.4656 36.1211 23.0816 34.2576C29.1598 33.2003 35.1894 32.5413 41.0442 33.6846C55.6713 36.5329 72.6664 42.5253 87.3745 38.9238C91.4409 38.0261 95.2623 36.6346 98.7021 34.7988C110.991 27.832 123.634 22.9125 138.599 21.0625C151.292 19.4951 165.933 20.3065 179.123 22.6443C190.625 24.5366 202.03 26.8876 213.291 29.6877C221.961 31.9566 228.682 35.8116 239.365 34.4981C251.683 32.9795 266.774 40.2881 278.594 39.4658C281.976 39.2413 286.518 37.9367 291.489 36.7876C308.263 32.9089 324.48 27.8913 339.96 21.7906C351.183 17.3345 362.434 8.33177 375.8 7.94715C376.423 7.92283 377.05 7.92454 377.678 7.95228C403.966 9.1676 426.064 40.9319 452.976 33.5358C461.365 31.2289 463.794 24.6007 468.615 19.2702C478.053 8.78846 489.398 -0.538881 502.33 -8.44783C514.487 -15.9812 525.515 -25.8196 540.118 -31.1283C549.638 -34.5532 560.437 -37.8223 570.535 -38.1921C590.465 -38.9384 614.99 -33.8952 631.162 -21.0532" stroke="#AFDFFF" stroke-width="0.342435" stroke-miterlimit="10"/>
<path d="M-21.4795 56.3543C-21.4795 56.3543 -18.5876 46.3849 -4.93444 39.8767C2.73132 36.2518 10.5172 32.3749 21.2609 29.8301C27.4096 28.3772 33.1445 27.7511 38.8089 28.897C53.2944 31.8055 70.1067 38.1971 85.004 35.2466C89.1461 34.5319 93.0716 33.2997 96.6315 31.5967C109.469 24.9892 122.604 20.3532 137.843 18.7259C151.19 17.2983 166.445 18.391 180.209 21.0739C191.654 23.3282 203.443 25.3319 214.976 27.6915C223.487 29.425 229.903 33.0363 240.686 31.5457C252.278 29.9301 267.797 37.2995 279.032 36.7843C282.486 36.6116 287.1 35.4534 292.21 34.3556C308.691 30.8926 325.65 26.0688 340.463 19.5901C351.367 14.8113 360.791 5.47423 374.274 4.94913C374.892 4.92972 375.519 4.92013 376.131 4.9431C402.663 5.9988 425.843 40.4494 452.175 32.4924C460.301 30.0418 463.089 23.1305 467.946 17.7785C477.474 7.2452 488.746 -2.23513 501.499 -10.441C513.518 -18.2234 523.812 -28.3663 538.676 -33.6173C548.271 -37.0074 559.187 -40.1417 569.36 -40.3906C589.439 -40.895 614.808 -35.7146 630.307 -22.0257" stroke="#AFDFFF" stroke-width="0.342435" stroke-miterlimit="10"/>
<path d="M-22.3759 53.5263C-19.9589 46.4186 -14.3404 40.3544 -6.50004 36.391C0.923967 32.5474 9.0807 27.8297 19.4866 25.0288C25.4734 23.4357 31.0337 22.8658 36.5317 24C50.9849 26.9905 67.5407 33.6519 82.5496 31.4375C86.7823 30.9192 90.8262 29.8445 94.5112 28.2585C107.917 22.0384 121.533 17.5814 136.939 16.0519C151.549 14.7876 166.522 15.7988 180.995 19.0273C192.865 21.6515 204.802 24.0947 216.951 25.9874C225.394 27.2739 231.68 30.5684 242.492 28.8406C253.474 27.0905 268.975 34.2426 279.942 34.0904C283.301 34.0524 288.121 32.9536 293.121 31.9285C310.327 28.3904 329.352 23.7752 344.168 15.6196C353.543 10.4482 360.014 2.58346 372.75 1.95014C373.363 1.91668 373.98 1.90857 374.598 1.92582C401.433 2.78623 426.343 39.9248 451.269 31.3062C458.87 28.6711 462.209 21.6377 467.255 16.2056C476.9 5.67109 488.038 -3.9611 500.479 -12.527C512.297 -20.678 522.035 -30.9402 537.14 -36.1448C546.829 -39.4888 557.354 -42.0773 568.123 -42.6235C588.492 -43.6774 615.75 -36.6499 629.402 -23.0397" stroke="#AFDFFF" stroke-width="0.342435" stroke-miterlimit="10"/>
<path d="M-23.2899 50.7488C-20.9751 43.5289 -15.649 37.2361 -8.1107 32.8147C-0.120296 28.0853 8.18482 23.0674 17.6237 20.2176C23.2552 18.5124 28.7952 18.0174 34.1982 19.1056C48.911 22.0762 64.5525 29.0821 79.8456 27.5646C84.194 27.239 88.3844 26.3137 92.2225 24.8318C106.039 19.0058 119.998 14.5734 135.62 13.0186C150.692 11.5807 166.195 12.7121 181.066 16.3353C193.402 19.4464 205.794 22.8395 218.737 24.3645C227.321 25.4101 233.602 28.2826 244.378 26.3009C254.891 24.3646 270.489 31.3651 281.045 31.2748C284.404 31.2452 289.199 30.3414 294.214 29.3868C311.147 26.1595 330.032 21.7767 343.951 13.0818C352.933 7.46684 358.282 -0.362562 371.235 -1.12429C371.848 -1.16333 372.466 -1.17711 373.085 -1.16556C400.073 -0.458549 426.033 38.9841 450.259 29.9535C457.699 27.1783 461.365 20.1245 466.492 14.5732C476.289 4.07612 487.274 -5.69856 499.328 -14.6453C510.873 -23.3112 520.433 -33.5779 535.646 -38.666C545.429 -41.9471 556.031 -44.4317 566.885 -44.8556C587.513 -45.6457 615.458 -38.3798 628.475 -24.0556" stroke="#AFDFFF" stroke-width="0.342435" stroke-miterlimit="10"/>
<path d="M-24.1947 47.9805C-22.087 40.5385 -17.017 33.9311 -9.67846 29.0625C-1.96012 23.9044 6.06604 18.4224 15.622 15.346C21.1144 13.5894 26.5221 13.0784 31.7939 14.142C46.4836 17.1183 61.6541 24.4109 77.002 23.5452C81.4525 23.4203 85.7817 22.6527 89.7691 21.2814C103.962 15.8539 118.234 11.3306 133.969 9.58314C148.707 7.93788 165.766 8.82019 180.385 12.8373C193.369 16.4059 206.353 21.2731 220.247 22.7935C229.23 23.776 235.574 26.226 246.272 23.9681C256.453 21.8194 272.042 28.6125 282.295 28.5368C285.653 28.5157 290.412 27.7278 295.408 26.8311C312.073 23.8724 330.259 19.628 343.373 10.4823C351.93 4.49734 356.588 -3.26139 369.691 -4.15109C370.299 -4.18879 370.929 -4.21533 371.543 -4.20931C398.777 -3.78192 423.778 37.4791 448.997 28.3802C458.144 25.0734 462.933 15.6878 468.959 9.188C477.673 -0.201102 487.905 -8.6399 498.048 -16.8142C508.953 -25.6355 518.895 -36.1997 534.174 -41.1851C544.05 -44.4033 554.751 -46.7812 565.69 -47.0744C586.591 -47.6249 615.164 -40.1017 627.58 -25.068" stroke="#AFDFFF" stroke-width="0.342435" stroke-miterlimit="10"/>
<path d="M-25.1121 45.2283C-23.1324 37.5353 -18.3203 30.581 -11.2413 25.1823C-3.96235 19.5921 4.03314 13.7194 13.5647 10.4766C18.9079 8.65883 24.2595 8.14953 29.378 9.18589C44.0037 12.1372 58.7131 19.7263 73.9777 19.4525C78.5098 19.5064 82.9569 18.8799 87.0741 17.6073C101.622 12.5671 116.187 7.75269 131.925 5.70452C147.663 3.65634 164.011 4.31445 178.701 8.29721C191.995 11.8949 206.236 19.2032 221.227 21.0809C230.803 22.2474 237.363 24.3023 247.983 21.7598C257.981 19.3736 273.465 25.9302 283.564 25.8272C286.922 25.8061 291.496 24.9785 296.588 24.2139C313.376 21.7173 330.336 17.0657 342.448 7.78936C350.603 1.52323 355.095 -6.15258 368.154 -7.14223C368.767 -7.19296 369.386 -7.21523 370.007 -7.20892C398.032 -6.93471 421.743 35.6401 447.69 26.8019C457.022 23.638 462.072 14.0347 468.143 7.43729C476.81 -2.01785 486.958 -10.5959 496.573 -19.0237C506.989 -28.1539 517.274 -38.8656 532.701 -43.6869C542.669 -46.8421 553.914 -49.4634 564.493 -49.2758C585.307 -48.9337 614.222 -42.6506 626.686 -26.0885" stroke="#AFDFFF" stroke-width="0.342435" stroke-miterlimit="10"/>
<path d="M-26.0164 42.4692C-24.4285 33.9322 -19.1859 27.4317 -12.7634 21.161C-6.34099 14.8902 2.00126 9.01668 11.4952 5.62303C16.7224 3.74817 22.042 3.22636 27.0634 4.23369C41.593 7.14753 56.0173 15.1491 71.0378 15.3187C75.5065 15.3556 80.4452 15.1142 84.4586 13.8398C99.1577 9.11914 113.811 4.22086 129.669 1.37019C145.814 -1.54015 162.066 -1.83986 176.702 2.49754C190.549 6.60981 205.568 16.3354 221.651 19.0771C232.016 20.8385 238.964 22.459 249.535 19.6783C262.441 16.2787 271.754 24.7415 284.965 23.2372C288.254 22.8636 292.839 22.3125 297.868 21.6091C314.75 19.2531 329.698 14.6056 341.261 5.05604C349.061 -1.41677 353.879 -9.11298 366.783 -10.199C367.392 -10.2566 368.008 -10.285 368.627 -10.284C397.437 -10.2152 419.879 33.5984 446.539 25.0621C456.179 21.9357 461.341 12.2429 467.449 5.52096C476.008 -3.87846 485.836 -12.5815 495.096 -21.216C505.198 -30.7028 515.748 -41.3907 531.312 -46.1437C541.383 -49.2177 552.736 -51.7225 563.371 -51.4421C584.462 -50.8942 614.013 -44.3272 625.87 -27.0908" stroke="#AFDFFF" stroke-width="0.342435" stroke-miterlimit="10"/>
<path d="M-26.9202 39.7013C-25.5686 30.8087 -20.4972 23.6939 -14.2707 17.0122C-8.32897 10.6484 -0.0421969 4.31229 9.43626 0.770532C14.0672 -1.11308 19.5082 -1.63423 24.8133 -0.702298C39.282 2.16111 53.2514 10.4084 68.1004 11.1592C72.7391 11.4895 77.3556 11.0829 81.6655 9.96449C96.7456 5.51381 111.759 0.229349 127.554 -3.66121C143.978 -7.67288 160.261 -8.77735 174.856 -4.1955C189.171 0.300584 204.45 12.664 221.184 16.5775C232.589 19.2569 240.041 20.5948 250.53 17.5718C263.497 13.8528 272.933 22.2274 286.154 20.6467C289.41 20.2606 293.943 19.6774 298.918 18.9588C315.426 16.5571 328.835 12.0492 339.681 2.42086C347.205 -4.25771 352.333 -12.0194 365.135 -13.1951C365.738 -13.2615 366.347 -13.2993 366.96 -13.3082C396.493 -13.3837 417.744 31.4805 445.08 23.2674C454.936 20.2963 460.261 10.3653 466.381 3.55021C474.816 -5.83855 484.254 -14.6492 493.243 -23.5319C503.232 -33.3765 513.911 -44.0229 529.687 -48.6812C539.871 -51.6811 551.344 -54.0596 562.034 -53.6864C583.393 -52.9426 613.534 -46.08 624.809 -28.2006" stroke="#AFDFFF" stroke-width="0.342435" stroke-miterlimit="10"/>
<path d="M-27.8345 36.9148C-26.6989 27.5917 -21.8489 19.908 -15.7581 12.7796C-10.1525 6.23734 -2.05309 -0.396842 7.42777 -4.05012C11.9922 -5.97485 17.3942 -6.53594 22.673 -5.63363C37.1037 -2.82645 50.6424 5.65217 65.4102 6.97796C70.064 7.45309 74.7311 7.14103 79.0865 6.06349C94.7964 1.76695 110.272 -4.37298 125.929 -9.33825C142.086 -14.4577 157.606 -15.9992 173.169 -11.566C189.661 -6.85631 202.799 7.29346 219.78 13.4045C229.552 16.9086 241.646 18.2442 251.05 15.4933C264.274 11.5907 274.006 19.8377 287.28 18.1861C290.505 17.7791 294.963 17.1696 299.852 16.4232C316.055 13.9501 327.897 9.45764 338.215 -0.243598C345.492 -7.09846 350.871 -14.9069 363.638 -16.1558C364.248 -16.2217 364.865 -16.2586 365.485 -16.2662C395.643 -16.515 415.847 29.3227 443.77 21.439C462.87 16.0244 478.765 -12.7462 491.54 -25.8124C501.414 -35.9117 512.264 -46.5803 528.261 -51.1172C538.559 -54.0431 550.138 -56.2881 560.885 -55.8306C582.536 -54.9136 613.209 -47.7367 623.915 -29.2299" stroke="#AFDFFF" stroke-width="0.342435" stroke-miterlimit="10"/>
<path d="M-28.734 34.1128C-27.7602 24.8896 -23.7847 16.1536 -17.1742 8.7105C-11.1805 1.82841 -3.99125 -5.04568 5.5261 -8.81493C10.0651 -10.7567 15.4509 -11.3384 20.7224 -10.456C35.1504 -7.71797 48.3034 0.988919 62.9259 2.86471C67.5575 3.47867 72.2411 3.23536 76.5885 2.15498C93.1214 -2.19613 109.032 -10.0721 124.592 -15.5223C138.901 -20.5314 155.279 -25.0735 171.66 -19.3708C189.738 -13.0832 202.077 2.02723 217.895 9.0546C228.154 13.6072 239.381 16.8326 250.935 13.234C264.38 9.07451 274.768 17.5306 288.223 15.772C291.416 15.3525 295.788 14.7152 300.581 13.9314C316.468 11.2993 326.951 6.76177 336.772 -2.89682C343.859 -9.85213 349.407 -17.7519 362.082 -19.0808C362.69 -19.1457 363.303 -19.1859 363.92 -19.201C394.656 -19.6115 413.863 27.0681 442.336 19.5352C461.726 14.4054 477.164 -14.9284 489.744 -28.1387C499.537 -38.3942 510.54 -49.1302 526.769 -53.5528C537.179 -56.3875 548.876 -58.4979 559.659 -57.9671C581.624 -56.8827 612.768 -49.4421 622.942 -30.3207" stroke="#AFDFFF" stroke-width="0.342435" stroke-miterlimit="10"/>
<path d="M-29.629 31.2775C-28.8865 21.6966 -25.1553 12.5439 -18.7521 4.5965C-13.0663 -2.51233 -6.0052 -9.71166 3.59273 -13.5915C8.13515 -15.5568 13.536 -16.1581 18.8293 -15.2879C33.2718 -12.6685 46.0911 -3.70124 60.5694 -1.28393C65.1616 -0.510867 69.8588 -0.674214 74.192 -1.75767C91.6615 -6.26994 107.523 -15.7604 123.374 -22.1299C137.231 -27.7445 153.64 -33.1859 170.154 -27.4672C188.857 -20.9915 200.752 -5.1697 215.952 3.8038C226.023 9.7183 237.318 14.7669 250.043 10.7432C263.879 6.40762 275.051 15.3034 288.864 13.3647C292.041 12.8916 296.299 12.2749 301.001 11.4027C316.532 8.66696 325.894 3.88098 335.318 -5.55069C342.348 -12.5819 347.881 -20.5522 360.565 -21.9488C361.172 -22.0196 361.786 -22.0626 362.404 -22.0775C393.653 -22.7523 411.927 24.8887 440.896 17.5884C460.777 12.5613 475.466 -17.2335 487.98 -30.4519C497.735 -40.7636 508.889 -51.636 525.325 -55.9216C535.848 -58.6738 547.663 -60.6493 558.492 -60.0441C580.786 -58.8079 612.356 -51.1003 621.998 -31.3813" stroke="#AFDFFF" stroke-width="0.342435" stroke-miterlimit="10"/>
<path d="M-30.525 28.4332C-29.9743 18.5288 -26.4758 9.00132 -20.3005 0.588916C-14.9233 -6.83274 -7.93651 -14.2476 1.80707 -18.2215C6.36287 -20.2437 11.7987 -20.9038 17.1535 -20.0851C31.6572 -17.5099 44.2073 -8.35177 58.5324 -5.41124C63.0868 -4.45473 67.8169 -4.51432 72.163 -5.58297C90.4097 -10.2328 106.448 -21.8177 122.43 -28.9883C135.859 -35.0335 152.176 -41.1914 168.802 -35.5708C188.03 -29.0829 199.823 -12.5166 214.101 -2.12436C223.479 4.70351 234.741 12.0446 248.315 7.93512C262.748 3.5605 274.818 13.1677 289.314 11.037C292.469 10.5612 296.633 9.89 301.22 9.04674C316.108 6.17252 324.869 0.995097 333.9 -8.14898C340.902 -15.2266 346.365 -23.2656 359.091 -24.726C359.697 -24.8006 360.312 -24.8464 360.93 -24.8632C392.683 -25.7261 410.015 22.4883 439.379 15.5286C459.645 10.7376 473.684 -19.5923 486.165 -32.8232C495.911 -43.1533 507.216 -54.1621 523.862 -58.3361C534.529 -61.0853 545.843 -62.3632 557.312 -62.1145C580.36 -61.38 612.469 -51.8521 621.015 -32.4988" stroke="#AFDFFF" stroke-width="0.342435" stroke-miterlimit="10"/>
<path d="M-31.416 25.5631C-31.0684 15.3234 -27.8032 5.41305 -21.8528 -3.46274C-16.76 -11.2115 -9.77842 -18.8592 0.100827 -22.937C4.73421 -24.9593 10.2354 -25.6211 15.6607 -24.809C30.4445 -22.3287 42.7163 -12.9981 56.8702 -9.57089C61.4186 -8.36708 66.2635 -8.38406 70.5976 -9.61902C89.4272 -15.2902 104.935 -28.0235 121.634 -35.9412C134.917 -42.2621 150.811 -48.893 167.498 -43.4972C187.046 -37.1595 199.039 -20.3969 212.279 -8.64306C220.563 -1.27759 232.386 8.61767 246.308 4.58503C261.111 0.298421 274.277 11.011 289.316 8.73147C292.471 8.25573 296.534 7.49481 300.983 6.59172C326.833 1.31117 332.685 -24.6057 357.556 -27.5455C358.164 -27.6188 358.778 -27.6674 359.397 -27.6911C391.74 -28.6283 408.092 19.8279 437.889 13.4456C458.145 9.10072 472.17 -21.9447 484.439 -35.1757C494.16 -45.6637 505.66 -56.6229 522.461 -60.5974C533.249 -63.2405 544.652 -64.4249 556.19 -64.101C579.633 -63.2066 611.93 -53.4837 620.073 -33.5774" stroke="#AFDFFF" stroke-width="0.342435" stroke-miterlimit="10"/>
<path d="M-32.296 22.6863C-32.2744 11.8599 -28.5971 1.96038 -23.4143 -7.44606C-18.9768 -15.5069 -11.5666 -23.369 -1.46556 -27.523C3.26778 -29.5196 8.80881 -30.2271 14.3244 -29.5391C29.5712 -27.6474 41.6981 -18.1366 55.683 -14.2397C60.2247 -12.8726 65.1572 -12.8587 69.4892 -14.2008C88.4944 -20.4872 103.98 -34.3241 120.966 -42.8604C133.917 -49.3854 149.457 -56.1453 166.19 -51.0278C186.021 -44.9996 198.173 -28.0714 210.477 -15.606C218.131 -7.84417 229.814 4.48543 244.354 0.794717C259.473 -3.05772 273.13 8.94471 288.969 6.43575C292.114 5.95866 296.091 5.16157 300.424 4.20134C325.586 -1.40378 331.545 -27.2734 356.13 -30.2565C356.738 -30.3298 357.352 -30.3784 357.971 -30.4021C390.785 -31.4369 406.3 17.0896 436.383 11.3011C456.514 7.4313 470.677 -24.2855 482.734 -37.5166C492.441 -48.1696 504.143 -59.044 521.183 -62.869C532.106 -65.3837 543.605 -66.4531 555.218 -66.0343C579.133 -64.9791 611.557 -55.1032 619.235 -34.6858" stroke="#AFDFFF" stroke-width="0.342435" stroke-miterlimit="10"/>
<path d="M-33.1957 19.7902C-33.3756 8.6898 -29.9394 -1.61751 -24.9246 -11.3885C-20.7699 -19.6988 -13.3077 -27.804 -2.98076 -32.0681C1.87167 -34.0861 7.46834 -34.9256 13.1263 -34.4842C28.7395 -33.3049 40.9851 -23.6677 54.8324 -19.3748C57.0715 -18.6355 59.4516 -18.2453 61.8302 -18.2275C64.2088 -18.2097 66.537 -18.5647 68.6755 -19.2712C87.8184 -25.9536 103.097 -40.7533 120.248 -49.6308C133.008 -56.2393 148.081 -62.6519 164.811 -57.9734C184.969 -52.3354 197.028 -35.8399 208.689 -22.8764C215.978 -14.7721 227.321 -0.299129 242.352 -3.43114C258.002 -6.68561 271.079 6.87172 288.087 4.12675C291.243 3.651 295.125 2.80793 299.285 1.8008C323.821 -4.17303 330.271 -29.9483 354.576 -32.9226C355.189 -32.9942 355.811 -33.056 356.407 -33.0781C389.567 -34.1997 404.448 14.3011 434.695 9.09174C454.639 5.65503 469.122 -26.6679 480.905 -39.8549C490.604 -50.7154 502.543 -61.4233 519.763 -65.0801C530.82 -67.4625 542.416 -68.4116 554.102 -67.8901C578.551 -66.6322 610.953 -56.6644 618.218 -35.7899" stroke="#AFDFFF" stroke-width="0.342435" stroke-miterlimit="10"/>
<path d="M-34.0859 16.9035C-34.4067 5.75124 -31.8451 -5.19604 -26.5518 -15.2939C-22.0902 -23.6442 -15.7389 -31.902 -4.49776 -36.5106C0.494237 -38.6131 6.17418 -39.6642 12.0114 -39.5658C27.96 -39.1197 40.5107 -29.6003 54.2361 -24.8577C56.4682 -24.0494 58.8698 -23.6166 61.2745 -23.5896C63.6792 -23.5625 66.0294 -23.9418 68.1622 -24.701C87.3581 -31.635 102.299 -47.1553 119.528 -56.118C132.125 -62.6774 146.555 -68.3082 163.289 -64.1195C183.745 -58.9958 195.663 -43.5496 206.907 -30.2843C214.055 -21.853 225.017 -5.71486 240.408 -8.03751C256.92 -10.5676 268.205 4.84438 286.727 1.79348C289.9 1.26823 293.667 0.45411 297.735 -0.538338C322.408 -6.52996 328.707 -32.5386 353.093 -35.5289C353.705 -35.6005 354.327 -35.6538 354.922 -35.6759C388.292 -36.772 402.788 11.4926 433.012 6.83955C452.683 3.80825 467.525 -29.0731 479.134 -42.2124C488.847 -53.1915 500.987 -63.7977 518.419 -67.2652C529.608 -69.5109 541.301 -70.3367 553.059 -69.7116C577.928 -68.3166 610.386 -58.3505 617.284 -36.9445" stroke="#AFDFFF" stroke-width="0.342435" stroke-miterlimit="10"/>
<path d="M-34.9658 14.0267C-35.9343 -5.56473 -28.9582 -31.0695 -6.01662 -40.9361C23.5488 -53.6773 44.5396 -22.3747 67.8213 -30.3506C97.8521 -40.6697 120.243 -78.4203 161.559 -69.2932C181.999 -64.7735 193.289 -51.5113 204.472 -38.477C212.309 -29.3683 222.763 -11.3567 238.471 -12.9784C248.461 -14.0151 252.452 -8.4026 260.585 -5.12393C273.662 0.167558 281.98 1.00879 296.004 -2.76196C319.89 -9.17632 327.48 -35.3201 351.602 -38.0759C386.059 -41.9468 400.307 8.8164 431.271 4.51154C447.689 2.21067 456.626 -20.0274 465.201 -30.655C477.681 -46.0794 492.935 -65.544 517.11 -69.3771C548.484 -74.3804 606.462 -71.3951 616.292 -38.0717" stroke="#AFDFFF" stroke-width="0.342435" stroke-miterlimit="10"/>
</g>
<circle cx="102" cy="70" r="19" fill="#F2FFF0"/>
<circle cx="13" cy="5" r="19" fill="#F2FFF0"/>
</g>
<defs>
<filter id="filter0_d_270_2347" x="-10.4" y="-10.4" width="132.8" height="104.8" filterUnits="userSpaceOnUse" color-interpolation-filters="sRGB">
<feFlood flood-opacity="0" result="BackgroundImageFix"/>
<feColorMatrix in="SourceAlpha" type="matrix" values="0 0 0 0 0 0 0 0 0 0 0 0 0 0 0 0 0 0 127 0" result="hardAlpha"/>
<feMorphology radius="2" operator="erode" in="SourceAlpha" result="effect1_dropShadow_270_2347"/>
<feOffset dx="2" dy="2"/>
<feGaussianBlur stdDeviation="7.2"/>
<feComposite in2="hardAlpha" operator="out"/>
<feColorMatrix type="matrix" values="0 0 0 0 0 0 0 0 0 0 0 0 0 0 0 0 0 0 0.05 0"/>
<feBlend mode="normal" in2="BackgroundImageFix" result="effect1_dropShadow_270_2347"/>
<feBlend mode="normal" in="SourceGraphic" in2="effect1_dropShadow_270_2347" result="shape"/>
</filter>
<clipPath id="clip0_270_2347">
<rect width="108" height="80" rx="13" fill="white"/>
</clipPath>
<clipPath id="clip1_270_2347">
<rect width="693.497" height="302.501" fill="white" transform="translate(-17.4226 -141) rotate(6.94502)"/>
</clipPath>
</defs>
</svg>
