<svg width="372" height="128" viewBox="0 0 372 128" fill="none" xmlns="http://www.w3.org/2000/svg">
<g filter="url(#filter0_d_207_929)">
<g clip-path="url(#clip0_207_929)">
<rect x="5" y="3" width="358" height="114" rx="16" fill="white"/>
<g opacity="0.25" clip-path="url(#clip1_207_929)">
<path d="M37.4682 193.21C50.7909 203.764 68.735 208.044 85.9864 210.737C121.538 216.281 124.357 178.276 150.482 178.19C173.232 178.105 187.993 173.318 200.374 158.659C221.337 133.87 254.007 149.596 273.864 167.27C304.609 194.629 336.898 231.458 388.838 222.6C428.149 215.902 451.804 201.324 469.681 173.312C477.219 161.501 484.909 148.225 488.754 135.162C492.6 122.099 488.542 103.423 505.188 96.4299C538.314 82.3032 588.476 109.873 624.372 104.463C650.65 100.447 661.234 91.122 651.896 68.8258C638.987 38.1865 687.957 32.3144 715.469 29.0904C739.372 26.279 776.487 38.1369 796.717 25.366" stroke="#AFDFFF" stroke-width="0.399036" stroke-miterlimit="10"/>
<path d="M36.3779 189.008C49.6039 199.179 67.2194 203.269 84.12 205.739C103.85 208.623 117.374 195.276 126.927 184.141C133.517 176.465 140.276 169.55 147.917 169.83C171.4 170.685 184.027 165.558 197.634 151.74C201.032 148.049 205.351 144.942 210.36 142.585C233.451 132.639 255.383 147.398 270.6 159.946C287.33 173.771 303.52 192.021 322.946 203.929C343.734 216.635 364.003 221.299 389.358 218.554C404.823 216.87 422.496 212.567 434.086 205.149C448.223 196.066 458.847 183.739 468.04 170.636C469.888 167.984 471.562 165.051 473.198 162.103C479.664 150.422 484.259 139.766 486.748 127.029C489.133 114.831 486.049 100.674 499.887 92.9877C500.42 92.6836 500.988 92.4175 501.587 92.1924C536.564 78.7022 585.793 106.98 621.929 102.06C649.107 98.3548 657.117 88.656 648.014 66.3583C641.325 50.0179 654.121 41.2528 670.244 35.8799C683.447 31.4743 699.91 29.3001 715.136 27.6566C739.21 25.0464 775.473 36.4096 795.628 24.1508" stroke="#AFDFFF" stroke-width="0.399036" stroke-miterlimit="10"/>
<path d="M35.286 184.705C48.7584 194.244 65.6298 198.024 82.2263 199.995C102.189 202.357 115.181 187.171 124.541 175.912C131.107 168.012 137.842 161.285 145.41 161.525C167.981 162.27 180.613 157.955 195.089 145.346C198.662 142.088 203.119 139.487 208.178 137.709C231.601 129.958 250.959 140.715 267.32 153.172C285.211 166.768 302.451 184.644 321.647 197.045C342.292 210.395 363.795 217.013 389.82 214.541C404.694 213.115 421.8 208.764 432.944 201.251C446.611 191.884 457.93 180.649 466.402 168.041C468.226 165.366 469.966 162.531 471.632 159.657C478.643 147.351 481.837 137.075 483.583 123.486C485.177 111.041 482.125 96.627 496.389 88.963C496.936 88.6655 497.513 88.4008 498.115 88.1709C533.596 75.0427 583.255 104.385 619.506 99.8004C647.302 96.2703 652.534 86.1629 644.209 64.0002C637.887 47.113 653.198 39.2055 669.606 34.2683C683.216 30.1629 699.539 27.9615 714.822 26.275C738.835 23.6272 774.044 34.5613 794.51 22.9518" stroke="#AFDFFF" stroke-width="0.399036" stroke-miterlimit="10"/>
<path d="M34.2041 180.324C47.0648 188.786 64.1955 192.898 80.2999 193.667C101.031 194.648 112.786 178.911 122.185 167.547C128.757 159.597 135.489 153.221 142.981 153.442C163.267 154.008 178.707 150.607 192.758 139.559C196.658 136.73 201.323 134.595 206.462 133.29C229.521 126.607 247.495 134.921 264.363 147.069C282.853 160.346 300.77 177.373 319.999 189.929C341.233 203.791 363.621 212.452 390.067 210.381C405.405 209.091 419.719 204.519 431.435 197.168C444.99 188.311 456.271 177.569 464.765 165.436C466.611 162.794 468.361 159.98 470.085 157.063C477.783 144.039 479.226 134.121 480.201 119.697C481.051 107.051 478.306 92.4636 493.052 84.9083C493.607 84.6111 494.193 84.3474 494.803 84.1193C530.836 71.4893 580.914 101.775 617.131 97.4766C645.229 94.1437 647.771 83.438 640.516 61.586C634.805 44.2821 652.599 37.2785 669.253 32.6819C683.123 28.8988 699.3 26.6096 714.59 24.8638C738.377 22.1484 773.005 32.8212 793.434 21.7285" stroke="#AFDFFF" stroke-width="0.399036" stroke-miterlimit="10"/>
<path d="M33.0972 175.92C45.9944 183.655 62.9529 186.933 78.3582 186.916C98.8473 186.886 110.252 170.604 119.849 159.214C126.444 151.398 133.246 145.521 140.663 145.713C160.254 146.315 175.474 143.538 190.66 134.623C195.077 132.238 199.97 130.398 205.178 129.165C227.778 123.358 245.324 129.625 262.055 141.506C280.228 154.394 298.936 170.374 317.95 182.774C339.842 197.007 364.562 208.357 389.897 206.091C404.597 204.633 418.309 200.203 429.684 193.237C443.299 184.934 454.662 174.657 463.206 162.921C465.075 160.312 466.825 157.498 468.616 154.559C475.737 142.958 477.012 133.992 477.076 120.95C477.155 106.927 472.581 89.3812 489.923 81.0596C490.496 80.7685 491.093 80.5066 491.713 80.2753C528.313 68.0151 578.73 99.154 614.735 95.1003C642.851 91.94 642.956 80.5867 636.905 59.1219C631.966 41.5813 652.38 35.3179 668.987 31.1064C683.132 27.5272 699.151 25.2488 714.463 23.4354C738.011 20.6509 772.032 31.0594 792.426 20.4735" stroke="#AFDFFF" stroke-width="0.399036" stroke-miterlimit="10"/>
<path d="M32.0045 171.516C44.9594 178.457 61.7172 180.709 76.3941 179.931C96.4537 178.826 107.602 162.403 117.565 151.118C124.2 143.607 131.028 138.375 138.451 138.627C157.357 139.287 172.948 137.748 188.993 130.23C193.752 128.147 198.845 126.517 204.167 125.373C226.263 120.177 243.513 124.694 260.186 136.206C278.008 148.55 296.607 163.606 315.453 175.674C337.951 190.071 363.695 203.28 389.024 201.494C401.892 200.586 415.803 196.146 427.806 189.51C441.628 181.801 453.086 171.875 461.474 160.344C463.364 157.768 465.11 154.884 466.981 152.044C480.887 130.956 457.01 90.5413 486.775 77.3783C487.376 77.0875 488.004 76.8292 488.654 76.6049C525.906 64.5544 575.026 96.718 611.883 92.6178C640.667 89.4286 637.946 77.751 633.263 56.7135C629.439 39.2185 652.278 33.5912 668.882 29.7202C683.746 26.4372 698.927 23.9107 714.332 22.1563C737.656 19.2843 771.017 29.4421 791.362 19.3614" stroke="#AFDFFF" stroke-width="0.399036" stroke-miterlimit="10"/>
<path d="M30.9186 167.165C43.9805 173.226 60.4622 174.322 74.4412 172.747C93.9313 170.54 104.83 154.348 115.336 143.309C122.03 136.286 128.943 131.846 136.358 132.168C154.699 132.969 171.492 132.579 187.754 126.171C192.792 124.339 198.056 122.864 203.486 121.762C225.3 116.842 242.281 120.264 258.848 131.142C276.116 142.467 294.167 157.214 312.652 168.818C333.51 181.913 361.905 199.143 387.459 196.583C401.31 195.314 414.448 191.706 425.964 186.008C439.948 178.78 451.533 169.171 459.914 157.849C461.828 155.296 463.564 152.28 465.517 149.511C480.56 128.29 450.058 87.4896 483.996 73.8727C484.629 73.6081 485.284 73.3733 485.958 73.1695C524.005 61.6569 569.643 91.3816 609.105 90.1748C640.412 89.2774 632.514 71.3162 629.931 54.3233C627.288 36.8718 652.426 31.8353 668.946 28.2347C683.824 25.1111 698.953 22.6048 714.271 20.7259C737.361 17.7451 770.035 27.6588 790.333 18.0736" stroke="#AFDFFF" stroke-width="0.399036" stroke-miterlimit="10"/>
<path d="M29.8267 162.872C43.4909 168.375 59.2501 167.378 72.4976 165.604C90.6888 163.149 101.895 146.683 113.169 136.079C119.938 129.717 126.96 126.202 134.4 126.637C152.818 127.668 169.799 128.193 186.724 122.547C191.971 120.917 197.361 119.542 202.864 118.429C224.156 113.726 241.289 115.792 257.766 126.229C274.499 136.817 291.906 151.175 309.709 162.285C330.662 175.351 358.975 192.932 385.081 191.402C398.363 190.624 411.877 188.271 423.949 182.555C438.093 175.768 449.83 166.451 458.255 155.321C460.207 152.783 462.007 149.875 463.974 146.997C478.911 125.253 444.283 83.9893 481.371 70.6059C482.039 70.3665 482.733 70.1302 483.421 69.9334C522.046 59.1326 566.667 88.4329 606.127 87.8873C637.516 87.491 627.894 68.2774 626.711 52.0965C625.469 34.906 652.513 30.3822 669.113 26.9718C683.615 23.9974 699.07 21.5399 714.187 19.5024C737.08 16.4275 769.013 26.1107 789.29 17.0141" stroke="#AFDFFF" stroke-width="0.399036" stroke-miterlimit="10"/>
<path d="M28.7476 158.671C42.5406 163.118 57.9265 161.013 70.5399 158.56C88.2102 155.139 98.6858 139.426 111.021 129.523C117.91 123.997 124.933 121.655 132.413 122.186C150.9 123.505 168.538 124.311 185.849 119.243C191.252 117.662 196.788 116.329 202.429 115.249C223.772 111.203 239.675 110.845 257.091 121.386C273.342 131.224 290.147 145.278 307.266 156.013C328.526 169.338 356.187 186.389 382.478 186.334C395.955 186.312 409.549 184.69 421.998 179.2C436.314 172.79 448.217 163.709 456.708 152.718C458.862 150.044 460.814 147.27 462.555 144.409C475.204 122.837 440.129 79.9954 479.126 67.5261C479.831 67.3012 480.562 67.0795 481.288 66.8973C520.296 56.905 564.08 85.5921 603.233 85.5402C634.329 85.5093 623.505 65.0367 623.715 49.727C623.935 33.1557 652.541 28.9724 669.386 25.6921C683.896 22.859 699.155 20.2976 714.134 18.2132C736.821 15.013 767.986 24.4822 788.242 15.8742" stroke="#AFDFFF" stroke-width="0.399036" stroke-miterlimit="10"/>
<path d="M27.6635 154.63C42.0085 157.54 55.9537 154.959 68.5884 151.797C85.7129 147.508 95.2243 132.65 108.934 123.876C111.798 121.895 115.19 120.414 118.903 119.52C122.616 118.627 126.573 118.341 130.534 118.679C149.195 120.07 167.411 121.046 185.074 116.302C190.461 114.863 196.295 113.509 201.962 112.345C222.816 108.14 239.312 106.872 256.551 116.729C272.386 125.805 288.73 139.693 305.137 150.071C327.806 164.449 353.791 179.321 379.723 181.568C393.777 182.868 407.751 180.952 419.905 176.058C434.421 169.977 446.524 161.091 455.126 150.199C457.45 147.564 459.327 144.696 460.714 141.659C469.408 119.284 436.465 76.0608 477.177 64.7025C477.919 64.4922 478.659 64.3017 479.41 64.1325C518.935 55.4561 561.202 82.9059 600.263 83.2839C631.07 83.5986 619.647 62.2613 621.015 47.3934C622.493 31.3059 653.009 27.4857 669.767 24.3852C684.298 21.705 699.253 19.0665 714.076 16.8729C736.635 13.5468 766.949 22.8322 787.213 14.6962" stroke="#AFDFFF" stroke-width="0.399036" stroke-miterlimit="10"/>
<path d="M26.5889 150.72C40.9322 152.468 54.4003 149.097 66.6634 145.348C83.0065 140.413 91.7331 126.221 106.823 119.269C113.31 116.318 120.994 115.143 128.72 115.922C147.63 117.304 166.382 118.265 184.325 113.675C189.813 112.269 195.689 110.89 201.419 109.633C221.864 105.157 238.902 102.963 256.116 112.166C271.631 120.451 287.527 134.164 303.318 144.357C325.736 158.764 351.14 173.586 376.927 177.028C390.253 178.781 404.485 178.129 417.816 172.988C432.542 167.199 444.861 158.478 453.598 147.658C455.862 144.966 457.457 141.948 458.306 138.75C463.687 115.971 432.559 71.967 475.428 62.3748C476.192 62.1973 476.98 62.0426 477.766 61.8979C517.742 54.6595 558.221 80.308 597.301 81.1793C627.876 81.8968 615.79 59.3761 618.623 45.2079C621.733 29.6299 653.144 26.2696 670.224 23.1983C684.666 20.6075 699.386 17.8701 714.009 15.612C736.653 12.1159 765.337 20.9823 786.185 13.619" stroke="#AFDFFF" stroke-width="0.399036" stroke-miterlimit="10"/>
<path d="M25.521 146.972C39.7808 147.586 52.9908 143.553 64.751 139.332C79.7362 133.991 89.1804 120.648 104.749 115.649C111.844 113.355 119.164 113.175 126.956 113.713C146.132 115.046 165.376 115.827 183.543 111.214C189.138 109.791 195.023 108.333 200.797 106.931C218.118 102.747 238.667 97.5119 255.689 107.544C271.633 116.903 286.56 128.624 301.796 138.659C323.872 153.205 348.5 167.982 374.152 172.42C387.744 174.777 401.906 174.798 415.602 169.771C430.479 164.246 443.778 155.743 451.894 144.854C453.826 141.965 454.964 138.767 455.241 135.45C458.106 112.465 429.304 67.9822 473.976 60.2834C474.787 60.1516 475.612 60.0116 476.434 59.8912C516.482 53.9847 555.488 77.8199 594.362 78.987C624.485 79.8899 612.023 56.1709 616.456 42.889C621.406 28.0364 652.931 25.0208 670.724 21.8759C685.042 19.3401 699.498 16.5205 713.909 14.1865C736.415 10.5432 764.257 19.257 785.162 12.3917" stroke="#AFDFFF" stroke-width="0.399036" stroke-miterlimit="10"/>
<path d="M24.4677 143.416C38.493 142.96 51.3242 138.399 62.8673 133.821C76.7506 128.325 87.1246 116.549 102.718 112.846C110.031 111.12 117.302 111.545 125.205 112.037C144.604 113.247 164.345 113.797 182.687 108.925C188.329 107.438 194.229 105.861 200.009 104.3C217.271 99.6369 237.768 93.8647 255.142 102.937C271.066 111.281 285.711 123.068 300.476 133.016C322.146 147.683 346.065 162.504 371.408 167.876C385.128 170.78 399.322 171.617 413.394 166.606C428.188 161.332 443.121 153.107 449.572 141.866C451.046 139.289 451.567 135.654 451.687 132.1C452.602 108.327 426.147 64.9018 472.829 58.6707C473.663 58.5618 474.526 58.4363 475.384 58.3405C515.346 53.6764 552.953 75.6272 591.45 76.9989C621.11 78.0659 608.515 52.8674 614.517 40.7188C621.423 26.8161 652.381 24.0722 671.245 20.6969C685.433 18.1553 699.633 15.3045 713.758 12.8455C736.069 8.98806 763.155 17.5996 784.127 11.2537" stroke="#AFDFFF" stroke-width="0.399036" stroke-miterlimit="10"/>
<path d="M23.4188 140.061C37.1427 138.655 49.7568 133.737 61.0065 128.893C73.7522 123.429 85.4188 113.344 100.695 110.855C108.1 109.652 115.425 110.284 123.413 110.715C143.142 111.786 163.302 111.896 181.694 106.719C187.363 105.114 193.254 103.396 199.019 101.643C216.247 96.3946 236.428 90.0125 254.356 98.2803C270.394 105.686 284.874 117.443 299.292 127.348C320.721 142.066 343.746 157.059 368.726 163.269C382.462 166.686 396.777 168.35 411.145 163.365C425.513 158.379 441.916 150.815 446.531 138.608C447.52 135.331 447.899 131.932 447.656 128.512C447.031 103.478 423.342 62.2743 471.968 57.3025C472.838 57.2181 473.724 57.1155 474.606 57.0425C514.334 53.4424 550.66 73.4932 588.593 75.0067C617.811 76.1702 605.371 49.918 612.994 38.5784C621.858 25.4052 652.169 22.9433 671.783 19.3988C685.708 16.8754 699.673 13.9158 713.539 11.4552C735.762 7.45681 761.984 15.9932 783.077 10.1532" stroke="#AFDFFF" stroke-width="0.399036" stroke-miterlimit="10"/>
<path d="M22.3809 136.917C35.6814 134.708 47.7686 129.515 59.1704 124.6C71.5513 119.242 83.7614 111.007 98.6867 109.367C106.187 108.557 113.527 109.17 121.583 109.58C141.582 110.473 162.16 110.143 180.521 104.471C186.182 102.715 192.069 100.816 197.782 98.8459C214.898 92.9124 234.53 86.0124 253.158 93.5635C269.541 100.17 283.921 111.674 298.117 121.582C319.303 136.371 341.52 151.576 366.081 158.557C379.735 162.435 394.266 164.997 408.907 160.015C423.218 155.183 439.896 148.354 442.846 135.152C443.446 131.743 443.568 128.269 443.209 124.792C441.379 98.309 421.224 59.9714 471.402 56.0606L474.098 55.8578C513.037 53.3943 548.611 71.5895 585.857 73.1797C614.733 74.3717 602.526 47.4864 611.91 36.6719C622.841 24.0713 652.167 21.8804 672.352 18.1448C685.99 15.6265 699.708 12.5566 713.298 10.0023C735.45 5.84485 760.848 14.3009 782.084 8.98957" stroke="#AFDFFF" stroke-width="0.399036" stroke-miterlimit="10"/>
<path d="M21.3555 133.996C34.1584 131.165 45.9338 125.965 57.3769 121.244C69.7229 116.173 81.9958 109.349 96.7485 108.269C104.323 107.709 111.629 108.278 119.752 108.566C140.008 109.269 160.954 108.483 179.171 102.182C184.815 100.244 190.663 98.1295 196.3 95.9295C213.227 89.3015 231.89 81.9026 251.491 88.7403C268.452 94.6752 282.844 105.75 296.912 115.642C317.868 130.393 339.402 145.966 363.552 153.648C377.088 157.953 391.903 161.282 406.655 156.463C421.408 151.645 436.694 145.218 438.52 131.408C438.826 127.95 438.767 124.46 438.345 120.973C435.657 92.9718 419.852 57.9705 470.984 55.108C471.902 55.0595 472.823 54.9912 473.738 54.9624C511.783 53.4125 546.813 69.8776 583.181 71.4008C611.703 72.6099 599.75 45.3545 611.084 34.8979C624.174 22.8611 652.22 20.8049 672.859 16.874C686.199 14.3394 699.623 11.1135 712.968 8.53935C735.088 4.2176 759.672 12.6146 781.086 7.87621" stroke="#AFDFFF" stroke-width="0.399036" stroke-miterlimit="10"/>
<path d="M20.3279 131.195C32.6475 127.944 44.1966 122.997 55.6109 118.514C67.9256 113.699 80.3318 108.134 94.6974 107.238C102.284 106.789 109.574 107.176 117.721 107.366C138.212 107.858 159.508 106.663 177.515 99.6151C183.109 97.4499 188.906 95.1091 194.431 92.6549C212.94 84.4855 228.702 80.0409 248.797 84.1024C265.711 87.5358 281.41 99.6516 295.394 109.484C316.088 124.032 337.269 140.153 361.006 148.547C374.427 153.259 389.519 157.102 404.387 152.719C418.772 148.457 432.754 140.869 433.687 127.642C433.799 124.139 433.623 120.619 433.16 117.104C430.073 87.5608 419.382 56.1493 470.847 54.2996C471.763 54.2708 472.707 54.2254 473.634 54.2081C510.596 53.4183 545.255 68.3247 580.641 69.7785C608.974 70.9345 597.016 43.3979 610.591 33.2644C625.875 21.8355 652.398 19.774 673.364 15.6125C686.37 13.0372 699.508 9.70616 712.495 7.06851C734.607 2.59548 758.429 10.9397 780.058 6.78881" stroke="#AFDFFF" stroke-width="0.399036" stroke-miterlimit="10"/>
<path d="M19.3073 128.454C31.1967 124.991 42.4601 120.249 53.8673 116.146C66.3513 111.653 78.5016 107.119 92.7038 106.173C100.329 105.757 108.006 105.668 115.698 105.907C136.378 106.231 157.882 104.611 175.628 96.8194C181.138 94.3834 187.019 91.7821 192.202 89.1359C208.868 80.692 226.063 77.6446 244.824 80.2506C262.764 82.7466 279.292 93.2996 293.52 103.051C314.11 117.176 334.321 132.798 358.408 143.029C371.243 148.491 388.098 152.94 402.043 148.545C415.988 144.149 427.794 136.015 428.257 123.553C428.366 120.629 427.956 116.821 427.594 113.058C424.553 82.1776 419.671 54.4304 470.743 53.455C471.683 53.4392 472.637 53.4151 473.562 53.4175C509.38 53.2501 543.718 66.8344 578.077 68.1532C606.344 69.2109 594.091 41.5281 610.181 31.6107C627.638 20.8475 652.41 18.7132 673.652 14.2144C686.33 11.5589 699.156 8.10974 711.807 5.45117C733.924 0.82843 757.06 9.12927 778.926 5.6085" stroke="#AFDFFF" stroke-width="0.399036" stroke-miterlimit="10"/>
<path d="M18.2838 125.934C29.7615 122.321 40.8861 117.862 52.1295 114.14C64.513 110.046 76.9373 106.257 90.6993 104.966C98.2644 104.235 105.915 103.894 113.602 103.948C134.437 104.08 156.126 102.111 173.512 93.5344C178.963 90.8306 184.571 88.3364 189.455 86.0046C205.481 78.3246 221.698 75.489 239.952 77.1211C258.206 78.7533 276.059 87.9541 290.828 96.8996C312.005 109.733 332.12 126.466 355.837 137.273C368.084 142.854 386.016 148.837 399.01 144.015C411.288 139.497 422.242 131.31 422.563 119.471C422.651 116.605 422.254 112.808 421.964 109.095C419.533 77.1657 420.902 52.9765 470.941 52.7773C471.88 52.7714 472.86 52.7505 473.783 52.7726C507.456 53.6269 542.498 65.493 575.792 66.6819C599.927 67.5369 597.753 38.6263 610.118 30.0893C625.3 19.6003 652.387 17.5073 673.991 12.8121C686.465 10.1119 698.778 6.48994 711.144 3.8266C733.369 -0.933341 755.818 7.33396 777.938 4.50571" stroke="#AFDFFF" stroke-width="0.399036" stroke-miterlimit="10"/>
<path d="M17.2812 123.467C28.3481 119.803 39.0923 115.579 50.3915 112.255C62.8949 108.566 75.3831 105.216 88.6415 103.353C96.1146 102.134 103.757 101.444 111.476 101.293C132.54 101.253 153.574 98.5631 171.017 90.0534C176.157 87.5523 181.522 85.5497 186.152 83.4876C200.417 76.9963 216.916 72.9221 234.205 74.4468C253.323 76.1541 270.789 83.1829 286.166 91.3104C308.377 103.037 330.08 120.855 353.009 130.965C364.991 136.263 381.948 143.511 394.192 138.848C404.908 134.751 416.017 126.673 416.47 115.251C416.589 112.459 416.265 108.701 416.134 105.067C414.888 72.5008 422.764 51.5998 471.174 52.0441C472.124 52.0497 473.089 52.0469 474.023 52.0805C506.58 53.33 541.242 64.3579 573.554 65.2668C596.786 65.9318 596.968 36.837 610.147 28.5695C626.19 18.4961 652.559 16.3057 674.11 11.3033C686.178 8.51351 698.195 4.75525 710.199 2.05798C732.387 -2.92706 754.484 5.44773 776.882 3.33488" stroke="#AFDFFF" stroke-width="0.399036" stroke-miterlimit="10"/>
<path d="M16.2703 121.068C16.2703 121.068 25.4379 116.843 48.6744 110.412C60.9724 107.019 73.9152 103.894 86.6543 101.266C94.1937 99.7092 101.422 97.713 109.333 97.7044C129.98 97.6635 150.315 94.8284 168.156 87.229C173.118 85.1073 178.155 83.3453 182.447 81.4827C196.205 75.521 211.574 71.3091 228.112 72.2611C247.03 73.3628 264.471 79.0956 280.239 86.3686C303.188 96.9619 325.618 113.727 348.461 124.227C359.726 129.418 376.67 137.526 387.85 133.144C397.771 129.261 409.326 122.119 410.095 110.997C410.294 108.295 410.129 104.616 410.183 101.075C410.761 68.4096 425.118 50.353 471.46 51.2971C472.409 51.3224 473.373 51.3196 474.292 51.3714C505.778 52.9615 540.006 63.3853 571.418 63.9741C583.898 64.2214 586.483 59.3644 591.375 52.3728C599.027 41.4376 597.078 34.7554 610.26 27.0998C626.905 17.4405 652.763 14.9572 674.044 9.81172C685.753 6.97815 697.504 2.937 709.089 0.25881C731.053 -4.81365 753.164 3.55284 775.799 2.28065" stroke="#AFDFFF" stroke-width="0.399036" stroke-miterlimit="10"/>
<path d="M15.2656 118.731C15.2656 118.731 23.9011 114.38 46.9334 108.556C59.4513 105.39 72.273 102.191 84.636 98.5849C92.1754 96.3861 99.5004 93.3794 107.21 93.3161C126.868 93.1548 147.168 91.7887 164.968 85.0565C169.723 83.2502 174.502 81.6675 178.618 79.9737C191.787 74.4615 206.019 69.9508 221.809 70.4108C240.262 70.9446 257.491 75.6392 273.343 82.0104C296.723 91.4134 319.705 106.541 342.209 117.461C352.926 122.666 368.835 131.349 380.374 127.122C393.011 122.447 400.079 117.594 403.698 106.82C404.479 104.469 404.085 100.642 404.399 97.2126C407.356 65.0179 427.872 49.255 471.926 50.5819C472.874 50.6072 473.849 50.6258 474.754 50.6859C505.239 52.5751 538.929 62.6025 569.561 62.8558C582.175 62.969 584.348 57.8613 589.453 50.9358C597.619 39.8428 596.716 33.3481 610.62 25.7603C627.651 16.4588 652.951 13.627 673.934 8.26461C685.326 5.35243 696.632 1.0065 708.054 -1.61145C730.186 -6.57312 751.972 1.58324 774.809 1.20785" stroke="#AFDFFF" stroke-width="0.399036" stroke-miterlimit="10"/>
<path d="M14.2609 116.383C14.2609 116.383 22.4353 111.967 45.2477 106.557C58.1449 103.622 70.6205 99.8129 82.536 95.1722C90.0585 92.1494 97.1664 89.427 104.888 89.4755C124.487 89.5876 143.567 89.4661 161.585 83.2917C166.154 81.7333 170.824 80.2977 174.602 78.7031C187.98 73.076 200.786 69.3638 215.456 68.6449C231.927 67.7947 250.163 72.5719 265.809 78.066C289.245 86.2531 312.228 99.9877 334.569 110.637C345.001 115.617 360.712 124.536 371.985 120.678C382.184 117.179 394.417 113.146 397.063 102.443C397.694 99.9344 397.913 96.5332 398.537 93.2314C404.377 62.0795 430.46 48.007 472.256 49.5801C473.203 49.6152 474.151 49.6405 475.055 49.7105C504.648 51.8619 537.676 61.7586 567.663 61.6327C580.428 61.5739 582.202 56.2171 587.539 49.3098C596.177 38.0938 596.362 31.7617 610.873 24.2079C628.144 15.1861 652.896 12.0469 673.438 6.44057C684.532 3.41184 695.469 -1.21962 706.842 -3.65304C729.229 -8.45347 750.757 -0.428729 773.674 0.037528" stroke="#AFDFFF" stroke-width="0.399036" stroke-miterlimit="10"/>
<path d="M13.2562 114.036C13.2562 114.036 20.9823 109.555 43.4553 104.364C56.9587 101.238 68.6411 96.5868 80.3595 90.9981C86.8117 87.7585 94.5055 86.1761 102.427 86.4595C121.557 86.9957 140.301 87.4947 158.099 81.955C162.382 80.7225 166.565 79.3116 170.629 77.728C183.339 72.3403 195.485 68.0565 209.39 66.8737C224.955 65.5423 242.984 69.773 258.156 74.4477C281.318 81.5789 304.009 93.8548 326.096 104.023C336.424 108.779 351.803 117.648 363.079 114.19C373.613 110.943 386.497 108.834 390.502 98.2064C391.407 95.8108 391.891 92.5823 392.869 89.474C402.243 59.805 432.472 46.7887 472.586 48.5779C473.519 48.6214 474.466 48.6566 475.357 48.725C504.19 51.1246 536.392 61.1712 565.937 60.6106C578.854 60.3699 580.244 54.7358 585.802 47.8354C594.877 36.5623 596.392 30.2219 611.204 22.7748C628.599 14.0187 652.919 10.5664 672.752 4.58293C683.467 1.34768 694.35 -3.37061 705.685 -5.70839C728.249 -10.3668 749.67 -2.4253 772.682 -1.02538" stroke="#AFDFFF" stroke-width="0.399036" stroke-miterlimit="10"/>
<path d="M12.2587 111.639C12.2587 111.639 19.6101 107.132 41.7107 101.896C55.3289 98.6832 66.67 92.1264 78.0854 86.9919C84.7704 83.9975 92.2373 83.4637 99.8607 83.8912C118.654 84.9475 137.033 85.9735 154.594 80.886C158.796 79.7635 162.877 78.419 166.812 76.8616C178.765 71.7024 190.816 66.9159 203.744 64.9826C218.35 62.7526 235.808 67.1744 250.71 71.0744C273.708 77.0832 295.571 88.4564 317.135 97.578C327.754 102.079 342.938 110.403 353.92 107.652C364.902 104.9 378.35 104.473 384.07 93.9945C385.309 91.7399 386.097 88.6986 387.489 85.7209C400.402 58.1268 434.334 45.4113 472.896 47.3221C473.816 47.364 474.735 47.4158 475.626 47.4843C504.913 49.6886 534.743 60.5889 564.413 59.5423C577.494 59.1312 578.447 53.2334 584.273 46.2754C593.726 34.9983 596.687 28.5533 611.615 21.2207C628.9 12.7317 652.538 8.99585 671.758 2.58694C682.258 -0.915067 693.159 -5.57097 704.496 -7.81829C727.198 -12.3197 748.665 -4.44262 771.692 -2.08878" stroke="#AFDFFF" stroke-width="0.399036" stroke-miterlimit="10"/>
<path d="M11.2422 109.189C11.2422 109.189 18.3075 104.677 39.941 99.1038C53.2293 95.7109 63.8886 87.7981 75.719 83.5361C82.3025 81.1607 89.6707 81.116 97.2444 81.7379C115.771 83.2729 133.805 84.7781 151.174 79.978C155.282 78.9222 159.249 77.5984 163.033 76.0201C174.707 70.7968 186.333 65.2168 198.717 62.8264C212.61 60.1387 229.274 64.3434 243.805 67.7573C265.825 72.9153 287.198 83.0661 308.083 91.4436C318.856 95.7627 333.622 103.665 344.788 101.217C356.441 98.627 370.298 99.8739 377.859 89.8999C379.413 87.844 380.61 84.9728 382.45 82.17C398.978 56.9908 435.566 43.9773 473.092 45.9424C473.998 45.9926 474.891 46.0413 475.768 46.118C504.685 48.4677 533.377 60.1516 562.862 58.5913C576.122 57.8912 576.735 51.6814 582.793 44.7417C592.54 33.5104 597.006 26.908 611.909 19.6725C629.041 11.3654 651.576 7.27464 670.454 0.463249C680.939 -3.34131 691.833 -7.83762 703.238 -9.99655C726.022 -14.3175 747.716 -6.58333 770.665 -3.16646" stroke="#AFDFFF" stroke-width="0.399036" stroke-miterlimit="10"/>
<path d="M10.2309 106.671C10.2309 106.671 17.4767 102.282 38.1483 95.9396C50.8323 92.0521 60.4779 83.7953 73.2767 80.4631C80.0075 78.6971 87.1036 78.9601 94.6007 79.7831C112.809 81.7905 130.694 83.7687 147.876 79.1161C151.95 78.0856 155.858 76.7422 159.546 75.1051C170.937 69.6369 182.341 63.3083 194.456 60.2436C207.66 56.9006 223.98 60.9232 237.761 64.2957C258.371 69.3721 279.119 77.9133 299.31 85.5747C310.246 89.7234 325.238 97.373 335.962 94.9207C347.487 92.3152 362.991 95.4466 372.008 85.9306C373.804 84.0244 375.524 81.3474 377.856 78.7849C398.096 56.1927 435.956 42.362 473.152 44.3571C474.033 44.4042 474.94 44.4445 475.737 44.5316C503.031 47.5857 532.837 59.6458 561.562 57.6922C571.825 56.9879 574.551 52.4788 579.709 46.7224C590.557 34.5829 595.495 26.0333 612.208 18.066C629.278 9.9419 650.498 5.41033 669.007 -1.79679C679.594 -5.90957 690.491 -10.2052 701.97 -12.2248C724.847 -16.3441 746.884 -8.75842 769.646 -4.23175" stroke="#AFDFFF" stroke-width="0.399036" stroke-miterlimit="10"/>
<path d="M9.22006 104.062C9.22006 104.062 17.1626 99.8379 36.3597 92.3337C47.5072 88.0085 57.9518 80.0395 70.8116 77.5968C77.6131 76.3204 84.5379 76.8131 91.9596 77.8274C109.903 80.2938 127.739 82.7871 144.779 78.1272C148.867 77.112 152.758 75.7225 156.373 73.9867C167.857 67.9685 178.709 60.5003 191.117 57.0603C203.93 53.5092 219.248 56.9888 232.916 60.4278C252.248 65.2984 271.99 73.1058 291.183 79.9741C302.284 83.9522 316.63 91.022 327.677 88.8094C340.177 86.3229 355.698 90.6993 366.575 82.0713C368.755 80.3322 370.856 77.9521 373.781 75.552C398.118 55.5937 435.252 40.5521 473.01 42.5354C473.865 42.5794 474.759 42.6182 475.595 42.71C502.572 45.9058 531.77 59.3251 560.395 56.7981C570.787 55.889 573.181 51.1089 578.465 45.2777C589.544 33.066 595.81 24.4176 612.515 16.3994C629.221 8.38121 649.865 3.01768 667.567 -4.19753C677.878 -8.39411 689.59 -13.0716 700.738 -14.52C723.407 -17.4619 745.088 -11.2326 768.686 -5.33117" stroke="#AFDFFF" stroke-width="0.399036" stroke-miterlimit="10"/>
<path d="M8.19558 101.352C8.19558 101.352 15.9109 96.9592 34.535 88.3829C44.8105 83.6207 55.6825 76.6359 68.3225 74.9281C75.1076 74.0006 81.9734 74.6565 89.3862 75.8501C107.123 78.7323 125.021 81.7845 141.967 77.033C146.082 75.9753 149.968 74.4979 153.527 72.6378C165.225 66.0442 176.224 57.4813 188.861 53.2273C201.499 48.9733 215.771 52.1552 229.525 55.9654C247.53 60.9151 265.993 68.4261 284.003 74.6291C295.261 78.4863 308.81 84.9377 320.192 82.9664C333.72 80.605 349.13 86.0003 361.746 78.3959C364.278 76.8602 366.834 74.7059 370.356 72.5389C398.301 55.3756 434.231 38.5634 472.663 40.4685C473.492 40.5093 474.333 40.5616 475.131 40.6388C503.781 43.2567 529.571 59.2979 559.28 55.9005C569.851 54.7025 571.869 49.6862 577.281 43.7703C588.537 31.4901 596.07 22.7153 612.694 14.617C629.101 6.59249 648.719 0.342268 666.037 -6.71921C676.362 -10.9241 688.212 -15.5547 699.451 -16.8918C722.223 -19.6107 744.383 -13.5736 767.691 -6.46468" stroke="#AFDFFF" stroke-width="0.399036" stroke-miterlimit="10"/>
<path d="M7.12961 98.5354C7.12961 98.5354 13.9432 92.8804 32.6535 84.0239C42.624 79.3048 53.4981 73.3727 65.7754 72.182C72.5922 71.5289 79.3983 72.2477 86.702 73.5884C104.316 76.8365 122.348 80.4965 139.264 75.5709C143.491 74.4327 147.454 72.8305 151.038 70.8108C163.065 63.646 172.94 53.7232 187.938 49.6666C201.938 45.8893 214.445 47.3026 227.664 50.8974C243.946 55.3464 261.079 63.828 278.107 69.5306C289.375 73.3087 302.181 79.2187 313.76 77.4518C328.276 75.2108 343.45 81.4793 357.6 74.9739C360.499 73.6431 363.56 71.831 367.747 69.7652C397.3 55.133 433.976 36.5776 472.03 38.2663C472.821 38.3024 473.636 38.3516 474.423 38.4174C503.136 41.0529 528.297 59.1524 558.161 55.1225C568.841 53.6672 570.557 48.3535 576.1 42.3233C587.454 29.9947 596.229 21.0707 612.695 12.8829C628.701 4.93982 647.217 -2.4269 664.4 -9.23422C674.9 -13.3777 686.747 -17.9886 698.059 -19.1666C720.902 -21.626 743.707 -15.8413 766.602 -7.48963" stroke="#AFDFFF" stroke-width="0.399036" stroke-miterlimit="10"/>
<path d="M6.18295 95.6133C6.18295 95.6133 12.6525 88.1825 30.8529 79.8753C40.6228 75.4123 51.3576 70.195 63.4119 69.3379C70.3575 68.9338 77.4193 69.4954 84.2686 70.9965C101.862 74.5227 120.142 78.8242 137.057 73.688C141.428 72.4697 145.487 70.7227 149.09 68.5086C161.168 60.6082 171.425 50.762 187.478 46.7037C201.282 43.2533 213.892 43.8271 227.035 46.7612C242.562 50.2362 258.313 58.8301 273.809 64.4864C284.387 68.3609 297.238 73.695 308.592 72.1713C323.985 70.1172 338.956 77.0827 354.257 71.7199C357.496 70.5909 361.357 68.8462 365.946 66.9094C396.235 54.1411 433.904 34.3935 471.064 35.6125C471.829 35.6455 472.619 35.6816 473.367 35.7526C502.19 38.3414 527.037 59.0187 557.124 54.2242C567.868 52.5661 569.467 46.9275 575.114 40.7996C586.537 28.4294 596.338 19.3295 612.625 10.9998C628.173 3.07111 645.766 -5.38033 662.77 -11.8888C673.433 -15.9823 685.299 -20.5407 696.692 -21.6386C719.598 -23.8599 743.177 -18.1212 765.566 -8.6084" stroke="#AFDFFF" stroke-width="0.399036" stroke-miterlimit="10"/>
<path d="M5.10945 92.5559C5.10945 92.5559 10.2591 83.5511 28.9126 75.9104C39.5171 71.5492 48.9688 66.9172 60.9078 66.2566C67.8536 65.8563 74.9142 66.4143 81.7658 67.9053C99.3756 71.6139 118.036 76.543 134.976 71.1995C139.555 69.9078 143.758 67.9911 147.394 65.5357C158.919 57.2572 170.894 47.7407 187.305 44.1769C200.139 41.2136 213.988 41.0379 227.399 43.6684C241.57 46.6174 256.908 53.8882 271.352 59.5165C283.37 64.1978 295.175 68.8131 304.904 67.2519C320.401 64.7695 337.153 71.6712 352.038 68.6532C355.524 67.9553 359.855 65.9872 364.779 64.1914C395.373 52.9838 433.762 32.1412 469.813 32.8341C470.541 32.8526 471.306 32.8856 472.028 32.9436C501.035 35.4145 525.844 58.9737 556.261 53.3975C566.924 51.4488 568.485 45.4748 574.205 39.2758C585.661 26.8594 596.398 17.5529 612.47 9.06664C627.633 1.09102 644.344 -8.24966 661.146 -14.6023C671.923 -18.6718 683.946 -23.1209 695.361 -24.0759C718.286 -26.0243 742.776 -20.3851 764.566 -9.70233" stroke="#AFDFFF" stroke-width="0.399036" stroke-miterlimit="10"/>
<path d="M4.06123 89.3917C4.06123 89.3917 8.92832 79.3902 27.0212 72.0722C37.2478 67.9255 46.5626 63.6677 58.5687 62.885C65.5001 62.3833 72.572 62.8712 79.4391 64.3247C97.0697 68.076 116.339 73.5704 133.27 68.0855C137.925 66.6272 142.169 64.5401 145.815 61.9159C157.544 53.2414 170.526 44.8798 187.217 41.9014C200.539 39.515 215.57 38.7198 228.508 41.4084C242.489 44.3142 256.859 49.693 270.411 54.942C281.607 59.3127 291.91 64.0558 302.975 62.6573C319.032 60.604 335.321 68.0909 350.546 65.5954C354.198 65.0379 358.857 63.1599 364.079 61.4806C394.802 51.5716 433.244 29.8635 468.14 29.7742C468.844 29.7698 469.586 29.7799 470.297 29.8264C499.773 31.8634 524.439 58.9533 555.374 52.5481C565.948 50.3582 567.581 44.0121 573.347 37.7584C584.808 25.3026 596.225 15.7682 612.151 7.08376C627.003 -1.00997 642.771 -11.0668 659.432 -17.3264C670.353 -21.3985 682.42 -25.6818 693.951 -26.5224C716.909 -28.2062 742.397 -22.6258 763.51 -10.7726" stroke="#AFDFFF" stroke-width="0.399036" stroke-miterlimit="10"/>
<path d="M3.01455 86.1071C3.01455 86.1071 7.54773 75.4234 25.0315 68.2918C34.9178 64.2641 44.1187 60.1929 56.2379 59.1233C63.1512 58.3933 70.2663 58.7121 77.1953 60.0624C94.7132 63.6696 114.628 69.6337 131.436 64.0936C136.034 62.6624 140.285 60.6901 144.047 58.2427C156.407 49.8455 170.081 42.1095 187.139 39.6469C201.172 37.5431 215.764 37.5552 230.139 39.6827C243.298 41.7367 257.575 46.2723 270.645 50.9815C281.343 54.8405 290.57 59.6529 302.411 58.2988C318.349 56.4716 334.673 64.4238 349.7 62.4855C353.473 62.0029 358.413 60.2794 363.868 58.7187C382.635 53.3571 401.107 46.7769 419.446 40.4311C433.741 35.517 449.998 26.5822 466.389 26.3838C467.107 26.3688 467.827 26.383 468.547 26.4261C498.382 28.3063 523.26 58.6796 554.522 51.5124C564.873 49.1249 566.807 42.3443 572.548 36.0776C583.273 24.0502 596.481 13.5269 611.688 4.89256C626.272 -3.3541 641.099 -14.0366 657.753 -20.237C668.673 -24.2992 680.97 -28.4343 692.561 -29.1272C715.591 -30.5417 742.098 -24.8872 762.483 -11.9701" stroke="#AFDFFF" stroke-width="0.399036" stroke-miterlimit="10"/>
<path d="M1.97057 82.7022C1.97057 82.7022 6.13615 71.6129 23.0955 64.5077C32.7025 60.526 41.7481 56.446 53.9752 54.9184C60.9878 54.0487 68.0321 53.7741 75.0393 55.0887C92.2911 58.3128 112.258 64.8143 129.184 59.9101C133.838 58.6652 138.175 56.8648 142.045 54.5708C155.031 46.4904 169.845 38.9134 186.887 37.3408C201.718 35.8271 216.91 36.119 231.922 38.2059C245.48 40.3427 258.814 43.5115 271.728 47.6653C282.029 50.9248 290.524 55.648 302.735 54.2488C317.973 52.5066 334.906 60.8036 349.41 59.4131C353.261 59.0402 358.436 57.4254 364.085 55.9786C383.335 50.9067 402.12 44.9591 420.348 38.1654C433.856 33.1855 448.846 23.3145 464.611 23.0197C465.324 22.997 466.041 23.0041 466.758 23.0408C496.976 24.7671 522.263 58.4177 553.643 50.503C563.684 47.9875 566.099 40.6742 571.755 34.4673C582.645 22.3464 595.887 11.6525 611.053 2.73026C625.42 -5.77328 639.303 -16.9318 656.066 -23.0687C667.059 -27.0919 679.505 -31.0585 691.187 -31.6401C714.287 -32.7754 741.841 -27.0436 761.469 -13.0559" stroke="#AFDFFF" stroke-width="0.399036" stroke-miterlimit="10"/>
<path d="M0.939015 79.289C0.939015 79.289 4.70852 67.9209 21.1602 60.7037C30.3868 56.6356 39.4516 52.3976 51.8224 50.226C58.9052 48.9939 65.9314 48.226 72.754 49.5583C89.7988 52.8773 109.603 59.8602 126.742 55.6635C131.481 54.6174 135.934 52.9958 139.942 50.8567C154.262 42.7383 168.995 37.0056 186.433 34.8499C201.225 33.0234 218.285 33.9689 233.656 36.6932C247.059 38.8982 260.349 41.6378 273.471 44.9007C283.574 47.5447 291.406 52.0368 303.855 50.5062C318.21 48.7367 335.794 57.2533 349.568 56.295C353.509 56.0334 358.803 54.5132 364.595 53.1741C384.141 48.6544 403.039 42.8074 421.078 35.6983C434.156 30.5057 447.266 20.0149 462.841 19.5667C463.568 19.5383 464.298 19.5403 465.03 19.5727C495.663 20.9889 521.414 58.0034 552.775 49.3849C562.55 46.6967 565.38 38.9729 570.998 32.7613C581.996 20.5471 595.217 9.678 610.286 0.461778C624.452 -8.31683 637.303 -19.7814 654.32 -25.9676C665.414 -29.9585 677.997 -33.7681 689.765 -34.1989C712.988 -35.0685 741.567 -29.1918 760.412 -14.2272" stroke="#AFDFFF" stroke-width="0.399036" stroke-miterlimit="10"/>
<path d="M-0.104132 75.9749C-0.104132 75.9749 3.26568 64.3577 19.1756 56.7738C28.1085 52.5497 37.1813 48.0319 49.7008 45.0666C56.8659 43.3735 63.5486 42.644 70.1493 43.9792C87.0291 47.3684 106.62 54.8165 123.98 51.3783C128.807 50.5455 133.381 49.1097 137.529 47.1252C152.489 39.4255 167.795 34.0232 185.553 32.127C201.106 30.4634 218.883 31.7366 234.921 34.863C248.258 37.4899 261.996 39.8248 275.435 42.5744C285.353 44.5944 292.829 48.8026 305.394 47.0657C318.903 45.1831 336.987 53.7706 350.078 53.1702C354.104 52.9689 359.481 51.6193 365.435 50.34C384.64 46.3047 404.403 40.6835 421.664 33.1339C434.37 27.5653 445.352 16.6849 461.064 16.073C461.783 16.0504 462.515 16.0392 463.228 16.066C494.145 17.2962 521.156 57.4412 551.841 48.1689C561.311 45.3133 564.559 37.2595 570.219 31.023C581.322 18.7486 594.457 7.70124 609.318 -1.86095C623.324 -10.9297 635.319 -22.7491 652.64 -28.8681C663.82 -32.8185 676.541 -36.471 688.395 -36.7609C711.793 -37.3487 741.356 -31.312 759.416 -15.3605" stroke="#AFDFFF" stroke-width="0.399036" stroke-miterlimit="10"/>
<path d="M-1.1488 72.6798C1.66769 64.3972 8.21487 57.3306 17.3512 52.7121C26.0023 48.2332 35.5073 42.7357 47.6332 39.4718C54.6096 37.6154 61.0889 36.9513 67.4957 38.273C84.3379 41.7578 103.63 49.5203 121.12 46.9399C126.052 46.3359 130.765 45.0835 135.059 43.2354C150.68 35.9872 166.546 30.7935 184.499 29.0112C201.524 27.5379 218.972 28.7163 235.838 32.4783C249.67 35.5364 263.579 38.3833 277.736 40.5889C287.575 42.0881 294.9 45.9271 307.499 43.9137C320.297 41.8743 338.36 50.2086 351.139 50.0313C355.054 49.987 360.67 48.7065 366.497 47.512C386.546 43.3891 408.716 38.0111 425.981 28.5074C436.905 22.4812 444.446 13.3165 459.288 12.5785C460.002 12.5395 460.721 12.5301 461.441 12.5502C492.712 13.5528 521.739 56.83 550.785 46.7868C559.642 43.7162 563.533 35.5203 569.413 29.1902C580.653 16.9145 593.632 5.6902 608.129 -4.29162C621.9 -13.7898 633.248 -25.7483 650.849 -31.8131C662.14 -35.7099 674.405 -38.7263 686.954 -39.3627C710.69 -40.5908 742.453 -32.4018 758.362 -16.5419" stroke="#AFDFFF" stroke-width="0.399036" stroke-miterlimit="10"/>
<path d="M-2.2138 69.443C0.483614 61.0298 6.69011 53.6968 15.4744 48.5446C24.7855 43.0335 34.4634 37.1862 45.4625 33.8653C52.0247 31.8782 58.4804 31.3015 64.7765 32.5696C81.9212 36.0311 100.148 44.195 117.969 42.4267C123.036 42.0473 127.919 40.9691 132.392 39.2422C148.492 32.4532 164.758 27.2882 182.962 25.4764C200.525 23.8008 218.591 25.1193 235.92 29.3413C250.296 32.9667 264.735 36.9206 279.817 38.6977C289.82 39.9161 297.14 43.2634 309.697 40.9542C321.948 38.6978 340.124 46.8554 352.425 46.7502C356.339 46.7158 361.927 45.6625 367.77 44.5501C387.502 40.7894 409.509 35.6821 425.729 25.5501C436.195 19.007 442.428 9.88348 457.522 8.99585C458.237 8.95035 458.957 8.9343 459.678 8.94776C491.127 9.77163 521.378 55.7338 549.609 45.2105C558.277 41.9765 562.55 33.7568 568.524 27.288C579.94 15.0558 592.741 3.66549 606.788 -6.7601C620.241 -16.8583 631.381 -28.822 649.109 -34.7512C660.508 -38.5746 672.863 -41.4698 685.511 -41.9638C709.549 -42.8846 742.113 -34.4176 757.281 -17.7258" stroke="#AFDFFF" stroke-width="0.399036" stroke-miterlimit="10"/>
<path d="M-3.26833 66.2172C-0.81231 57.5451 5.0958 49.8455 13.6473 44.1722C22.6414 38.1615 31.9942 31.7734 43.1297 28.1885C49.5299 26.1416 55.8314 25.546 61.9746 26.7855C79.0924 30.2538 96.7704 38.7518 114.655 37.743C119.841 37.5974 124.886 36.7029 129.533 35.105C146.071 28.7803 162.703 23.5094 181.038 21.4731C198.213 19.5559 218.091 20.584 235.126 25.2651C250.257 29.4236 265.386 35.0953 281.577 36.867C292.045 38.0119 299.438 40.8669 311.904 38.2358C323.768 35.7319 341.934 43.6478 353.881 43.5596C357.794 43.535 363.34 42.6169 369.162 41.572C388.581 38.1242 409.774 33.1783 425.054 22.5209C435.026 15.5467 440.454 6.5055 455.722 5.46874C456.432 5.42481 457.165 5.39388 457.881 5.4009C489.617 5.89893 518.75 53.98 548.137 43.3771C558.797 39.5237 564.377 28.5868 571.399 21.0127C581.554 10.0716 593.476 0.23797 605.296 -9.28746C618.003 -19.5668 629.589 -31.8771 647.394 -37.6867C658.901 -41.4368 671.371 -44.2077 684.118 -44.5493C708.474 -45.1908 741.77 -36.4242 756.238 -18.9056" stroke="#AFDFFF" stroke-width="0.399036" stroke-miterlimit="10"/>
<path d="M-4.33693 63.01C-2.02998 54.0455 3.57745 45.9417 11.8266 39.6507C20.3086 33.1365 29.6257 26.2931 40.7327 22.5142C46.9591 20.396 53.1952 19.8025 59.1599 21.0102C76.2031 24.4494 93.3438 33.2928 111.131 32.9738C116.413 33.0366 121.595 32.3065 126.393 30.8236C143.345 24.9503 160.318 19.3401 178.657 16.9534C196.996 14.5667 216.046 15.3336 233.164 19.9746C248.656 24.167 265.25 32.6833 282.72 34.8714C293.878 36.2306 301.523 38.6252 313.899 35.6624C325.549 32.8818 343.592 40.5222 355.361 40.4022C359.273 40.3776 364.603 39.4132 370.537 38.5222C390.099 35.613 409.864 30.1925 423.977 19.3828C433.481 12.081 438.714 3.13642 453.932 1.9832C454.647 1.92408 455.368 1.89813 456.092 1.90548C488.749 2.22502 516.378 51.837 546.615 41.538C557.489 37.8511 563.374 26.6605 570.448 18.9726C580.548 7.95458 592.373 -2.04129 603.577 -11.8622C615.715 -22.5015 627.7 -34.9838 645.677 -40.6019C657.293 -44.2787 670.397 -47.3332 682.724 -47.1146C706.979 -46.716 740.673 -39.3943 755.197 -20.0947" stroke="#AFDFFF" stroke-width="0.399036" stroke-miterlimit="10"/>
<path d="M-5.39099 59.7949C-3.54068 49.8468 2.56855 42.2719 10.0526 34.9646C17.5366 27.6573 27.2577 20.813 38.3209 16.8584C44.4121 14.6736 50.6109 14.0656 56.4624 15.2394C73.3936 18.6349 90.2021 27.9591 107.705 28.1567C112.913 28.1996 118.668 27.9184 123.344 26.4334C140.473 20.9324 157.549 15.2245 176.028 11.9026C194.842 8.51121 213.78 8.16197 230.835 13.2163C246.97 18.0083 264.472 29.3414 283.213 32.5363C295.291 34.5889 303.388 36.4772 315.707 33.2368C330.745 29.2754 341.598 39.137 356.993 37.384C360.825 36.9487 366.168 36.3065 372.028 35.4868C391.701 32.7413 409.119 27.3257 422.594 16.1977C431.683 8.65499 437.298 -0.313334 452.334 -1.57891C453.044 -1.64601 453.762 -1.67908 454.483 -1.67795C488.055 -1.59772 514.206 49.4579 545.273 39.5105C556.507 35.8674 562.522 24.5724 569.64 16.7395C579.614 5.7864 591.066 -4.35516 601.856 -14.4169C613.628 -25.4717 625.922 -37.9263 644.059 -43.4649C655.794 -47.047 669.024 -49.9658 681.416 -49.639C705.994 -49.0006 740.429 -41.3481 754.246 -21.2628" stroke="#AFDFFF" stroke-width="0.399036" stroke-miterlimit="10"/>
<path d="M-6.44417 56.5694C-4.86917 46.207 1.04056 37.9162 8.2962 30.13C15.22 22.7144 24.8765 15.331 35.9217 11.2038C41.318 9.00885 47.6584 8.40157 53.8404 9.48754C70.7006 12.8242 86.9791 22.4347 104.282 23.3096C109.688 23.6945 115.067 23.2208 120.09 21.9174C137.662 16.7311 155.158 10.5732 173.563 6.03955C192.702 1.36479 211.677 0.0777621 228.684 5.41694C245.364 10.6562 263.17 25.0632 282.669 29.6235C295.959 32.7458 304.644 34.3048 316.866 30.7821C331.976 26.4485 342.972 36.2072 358.378 34.3653C362.173 33.9154 367.455 33.2358 373.252 32.3984C392.488 29.5998 408.114 24.3467 420.753 13.1269C429.52 5.34445 435.495 -3.70015 450.414 -5.07025C451.116 -5.14757 451.826 -5.19158 452.541 -5.20204C486.955 -5.28994 511.718 46.9899 543.573 37.4192C555.059 33.9571 561.264 22.3846 568.395 14.4429C578.224 3.50232 589.222 -6.76469 599.697 -17.1156C611.337 -28.5874 623.781 -40.9935 642.165 -46.4218C654.033 -49.9176 667.402 -52.6892 679.859 -52.2543C704.747 -51.3876 739.87 -43.3907 753.009 -22.5559" stroke="#AFDFFF" stroke-width="0.399036" stroke-miterlimit="10"/>
<path d="M-7.50925 53.3224C-6.18588 42.4582 -0.534218 33.5045 6.56328 25.1979C13.0954 17.5742 22.5336 9.84347 33.5816 5.58634C38.9005 3.34348 45.1953 2.68964 51.3466 3.74109C68.1627 7.01227 83.9391 16.8923 101.148 18.4373C106.571 18.9909 112.01 18.6273 117.085 17.3716C135.391 12.3649 153.425 5.21011 171.67 -0.575869C190.498 -6.5415 208.583 -8.33777 226.719 -3.17181C245.936 2.31631 261.246 18.8049 281.034 25.9261C292.421 30.0093 306.514 31.5656 317.473 28.3601C332.883 23.8124 344.222 33.4226 359.69 31.498C363.449 31.0237 368.644 30.3134 374.34 29.4437C393.222 26.5618 407.021 21.3268 419.045 10.022C427.524 2.03414 433.793 -7.06494 448.67 -8.52032C449.381 -8.59712 450.099 -8.64008 450.823 -8.64898C485.965 -8.93883 509.509 44.4754 542.046 35.2886C564.304 28.979 582.826 -4.54707 597.713 -19.773C609.219 -31.5416 621.863 -43.9737 640.503 -49.2605C652.503 -52.6699 665.997 -55.2861 678.52 -54.7529C703.749 -53.6843 739.492 -45.3213 751.968 -23.7554" stroke="#AFDFFF" stroke-width="0.399036" stroke-miterlimit="10"/>
<path d="M-8.55788 50.0573C-7.42315 39.3097 -2.79053 29.1296 4.91262 20.4563C11.897 12.4366 20.2746 4.42631 31.3651 0.0340337C36.6543 -2.22873 42.9303 -2.90649 49.0731 -1.87829C65.886 1.31231 81.213 11.4584 98.2525 13.6442C103.65 14.3596 109.107 14.0761 114.173 12.8172C133.439 7.74686 151.98 -1.43097 170.111 -7.78205C186.786 -13.619 205.87 -18.9119 224.96 -12.2666C246.025 -4.9397 260.404 12.6683 278.836 20.8572C290.792 26.1623 303.873 29.9208 317.337 25.7275C333.005 20.8804 345.11 30.7342 360.789 28.6849C364.51 28.1961 369.605 27.4535 375.189 26.5401C393.703 23.473 405.919 18.1854 417.363 6.93035C425.622 -1.1746 432.086 -10.3802 446.857 -11.9286C447.564 -12.0044 448.279 -12.0511 448.998 -12.0687C484.814 -12.5471 507.196 41.8482 540.375 33.0702C562.97 27.0924 580.96 -7.08988 595.619 -22.4838C607.031 -34.4344 619.853 -46.9449 638.764 -52.0985C650.894 -55.4019 664.525 -57.861 677.09 -57.2425C702.686 -55.9789 738.978 -47.3084 750.833 -25.0264" stroke="#AFDFFF" stroke-width="0.399036" stroke-miterlimit="10"/>
<path d="M-9.60073 46.7532C-8.73554 35.5887 -4.38756 24.923 3.07393 15.662C9.69954 7.37818 17.9278 -1.01113 29.1122 -5.53229C34.4054 -7.82245 40.6989 -8.52315 46.8672 -7.50907C63.6969 -4.45673 78.6351 5.99275 95.5065 8.80962C100.858 9.71046 106.331 9.52012 111.381 8.25757C131.738 2.99947 150.221 -8.05967 168.692 -15.482C184.84 -22.0246 203.96 -28.3655 223.204 -21.7014C244.999 -14.1554 258.86 4.28157 276.573 14.7383C288.309 21.6304 301.47 27.5135 316.298 22.8247C332.421 17.7725 345.44 28.1386 361.536 25.8795C365.239 25.3283 370.2 24.6096 375.68 23.5932C393.778 20.4053 404.687 14.8282 415.669 3.83761C423.86 -4.35574 430.308 -13.6435 445.089 -15.2709C445.796 -15.3535 446.511 -15.4035 447.231 -15.4209C483.645 -16.2073 504.94 39.3083 538.698 30.8014C561.865 24.9434 578.982 -9.77621 593.564 -25.1795C604.931 -37.1956 617.929 -49.8651 637.081 -54.8591C649.344 -58.0662 663.112 -60.3683 675.731 -59.663C701.71 -58.2225 738.498 -49.2409 749.734 -26.2626" stroke="#AFDFFF" stroke-width="0.399036" stroke-miterlimit="10"/>
<path d="M-10.6444 43.4388C-10.0027 31.8974 -5.92588 20.795 1.2701 10.9921C7.53613 2.34376 15.6777 -6.29667 27.0318 -10.9275C32.3407 -13.2839 38.6749 -14.0532 44.9148 -13.0991C61.8159 -10.0982 76.4404 0.573647 93.1333 4.00022C98.4405 5.11483 103.952 5.0454 109.017 3.80011C130.28 -1.61829 148.969 -15.118 167.592 -23.4739C183.241 -30.5183 202.255 -37.6941 221.63 -31.1444C244.035 -23.5841 257.777 -4.27956 274.416 7.83039C285.344 15.7868 298.468 24.3414 314.285 19.5526C331.104 14.4549 345.169 25.65 362.061 23.1672C365.738 22.6128 370.59 21.8306 375.935 20.848C393.284 17.4987 403.493 11.4655 414.017 0.809956C422.176 -7.43747 428.542 -16.8053 443.371 -18.5071C444.078 -18.5941 444.794 -18.6474 445.514 -18.6669C482.516 -19.6724 502.712 36.5113 536.93 28.4012C560.546 22.8183 576.905 -12.5249 591.45 -27.9427C602.807 -39.9802 615.98 -52.8087 635.377 -57.6726C647.807 -60.8762 660.991 -62.3654 674.356 -62.0756C701.214 -61.2196 738.63 -50.1169 748.588 -27.5647" stroke="#AFDFFF" stroke-width="0.399036" stroke-miterlimit="10"/>
<path d="M-11.6832 40.0944C-11.278 28.1622 -7.47312 16.6138 -0.539163 6.2709C5.39539 -2.75865 13.5309 -11.6704 25.0431 -16.4223C30.4424 -18.7788 36.8528 -19.5501 43.1749 -18.6037C60.4023 -15.7134 74.7025 -4.84052 91.196 -0.846873C96.4962 0.555921 102.142 0.536128 107.192 -0.902956C129.134 -7.51154 147.205 -22.3495 166.664 -31.5759C182.143 -38.9416 200.664 -46.6686 220.11 -40.3809C242.888 -32.9956 256.863 -13.4623 272.292 0.234314C281.946 8.81723 295.723 20.3481 311.946 15.6489C329.195 10.6537 344.537 23.137 362.063 20.4807C365.74 19.9263 370.474 19.0396 375.658 17.9873C405.781 11.8339 412.6 -18.3668 441.582 -21.7925C442.291 -21.8779 443.006 -21.9345 443.727 -21.9622C481.417 -23.0543 500.471 33.4113 535.193 25.974C558.798 20.911 575.141 -15.266 589.438 -30.684C600.766 -42.9054 614.167 -55.6762 633.744 -60.3076C646.316 -63.3875 659.603 -64.7677 673.049 -64.3903C700.366 -63.348 738.002 -52.018 747.491 -28.8215" stroke="#AFDFFF" stroke-width="0.399036" stroke-miterlimit="10"/>
<path d="M-12.7086 36.7422C-12.6835 24.1263 -8.39838 12.5905 -2.35884 1.62928C2.81206 -7.76391 11.4472 -16.9256 23.2178 -21.7662C28.7335 -24.0928 35.1904 -24.9172 41.6176 -24.1155C59.3846 -21.9112 73.5159 -10.8283 89.8124 -6.28734C95.1048 -4.69422 100.853 -4.67802 105.901 -6.24201C128.047 -13.5674 146.092 -29.6915 165.887 -39.6387C180.978 -47.2422 199.087 -55.1195 218.585 -49.1562C241.694 -42.1315 255.854 -22.4053 270.192 -7.87942C279.111 1.16536 292.725 15.5329 309.669 11.2322C327.287 6.74297 343.202 20.7293 361.658 17.8056C365.323 17.2497 369.958 16.3208 375.007 15.2019C404.328 8.67029 411.271 -21.4753 439.921 -24.9515C440.629 -25.0369 441.345 -25.0935 442.066 -25.1212C480.303 -26.327 498.383 30.2204 533.439 23.4752C556.897 18.9657 573.401 -17.9936 587.451 -33.4116C598.762 -45.8255 612.399 -58.4973 632.255 -62.9545C644.983 -65.8848 658.384 -67.1311 671.915 -66.643C699.783 -65.4134 737.567 -53.9051 746.514 -30.113" stroke="#AFDFFF" stroke-width="0.399036" stroke-miterlimit="10"/>
<path d="M-13.7567 33.3673C-13.9663 20.4321 -9.96213 8.42105 -4.11845 -2.96495C0.722983 -12.6489 9.41867 -22.0938 21.4525 -27.0627C27.107 -29.4142 33.6287 -30.3925 40.2219 -29.8782C58.4158 -28.5039 72.6855 -17.2739 88.8216 -12.2713C91.4308 -11.4098 94.2043 -10.9551 96.9761 -10.9344C99.7478 -10.9136 102.461 -11.3273 104.953 -12.1506C127.26 -19.9376 145.063 -37.1835 165.05 -47.5284C179.918 -55.2291 197.483 -62.7017 216.978 -57.2499C240.469 -50.68 254.521 -31.458 268.11 -16.3518C276.603 -6.90789 289.821 9.95736 307.337 6.30765C325.574 2.51526 340.812 18.3135 360.631 15.1148C364.308 14.5604 368.833 13.578 373.68 12.4044C402.272 5.44314 409.788 -24.5925 438.11 -28.0585C438.824 -28.1419 439.55 -28.2139 440.243 -28.2396C478.884 -29.5466 496.225 26.9709 531.472 20.9005C554.713 16.8957 571.589 -20.7699 585.32 -36.1366C596.622 -48.7922 610.535 -61.2701 630.601 -65.5312C643.485 -68.3075 656.998 -69.4134 670.615 -68.8058C699.106 -67.3399 736.864 -55.7245 745.329 -31.3997" stroke="#AFDFFF" stroke-width="0.399036" stroke-miterlimit="10"/>
<path d="M-14.7943 30.0034C-15.1682 17.0077 -12.1832 4.25094 -6.0149 -7.516C-0.815935 -17.2466 6.58523 -26.8692 19.6844 -32.2396C25.5015 -34.6896 32.1203 -35.9145 38.9224 -35.7998C57.5071 -35.28 72.1324 -24.1871 88.1264 -18.6606C90.7274 -17.7186 93.526 -17.2144 96.3282 -17.1829C99.1304 -17.1513 101.869 -17.5933 104.354 -18.478C126.723 -26.5581 144.134 -44.6438 164.21 -55.0879C178.89 -62.7315 195.705 -69.2931 215.204 -64.412C239.041 -58.4414 252.93 -40.4421 266.033 -24.9841C274.362 -15.1593 287.136 3.64636 305.071 0.939799C324.312 -2.00854 337.463 15.9509 359.046 12.3958C362.743 11.7837 367.133 10.835 371.874 9.67851C400.625 2.69654 407.965 -27.6111 436.381 -31.0957C437.095 -31.1791 437.819 -31.2412 438.513 -31.267C477.398 -32.5442 494.291 23.6981 529.51 18.2759C552.433 14.7435 569.728 -23.5728 583.256 -38.8839C594.575 -51.6777 608.721 -64.037 629.034 -68.0777C642.072 -70.6945 655.698 -71.6568 669.401 -70.9284C698.38 -69.3028 736.203 -57.6895 744.241 -32.7452" stroke="#AFDFFF" stroke-width="0.399036" stroke-miterlimit="10"/>
<path d="M-15.8192 26.6511C-16.9477 3.82139 -8.8186 -25.899 17.915 -37.3966C52.3673 -52.2437 76.8277 -15.7671 103.958 -25.0614C138.952 -37.0861 165.044 -81.0764 213.189 -70.4408C237.008 -65.174 250.164 -49.7197 263.195 -34.531C272.327 -23.9167 284.509 -2.92795 302.814 -4.81771C314.455 -6.02577 319.105 0.514448 328.583 4.33505C343.822 10.5012 353.515 11.4815 369.857 7.08743C397.691 -0.387156 406.536 -30.8523 434.645 -34.0636C474.797 -38.5742 491.4 20.5796 527.482 15.5632C546.613 12.882 557.028 -13.0319 567.02 -25.416C581.564 -43.3899 599.339 -66.0719 627.509 -70.5386C664.069 -76.3689 731.63 -72.8901 743.085 -34.0587" stroke="#AFDFFF" stroke-width="0.399036" stroke-miterlimit="10"/>
</g>
<circle cx="340.5" cy="0.5" r="43.5" fill="#EAF8FE"/>
<circle cx="69.5" cy="120.5" r="43.5" fill="#EAF8FE"/>
</g>
</g>
<defs>
<filter id="filter0_d_207_929" x="0.1" y="0.1" width="371.8" height="127.8" filterUnits="userSpaceOnUse" color-interpolation-filters="sRGB">
<feFlood flood-opacity="0" result="BackgroundImageFix"/>
<feColorMatrix in="SourceAlpha" type="matrix" values="0 0 0 0 0 0 0 0 0 0 0 0 0 0 0 0 0 0 127 0" result="hardAlpha"/>
<feMorphology radius="5" operator="erode" in="SourceAlpha" result="effect1_dropShadow_207_929"/>
<feOffset dx="2" dy="4"/>
<feGaussianBlur stdDeviation="5.95"/>
<feComposite in2="hardAlpha" operator="out"/>
<feColorMatrix type="matrix" values="0 0 0 0 0 0 0 0 0 0 0 0 0 0 0 0 0 0 0.08 0"/>
<feBlend mode="normal" in2="BackgroundImageFix" result="effect1_dropShadow_207_929"/>
<feBlend mode="normal" in="SourceGraphic" in2="effect1_dropShadow_207_929" result="shape"/>
</filter>
<clipPath id="clip0_207_929">
<rect x="5" y="3" width="358" height="114" rx="16" fill="white"/>
</clipPath>
<clipPath id="clip1_207_929">
<rect width="808.126" height="352.501" fill="white" transform="translate(4.62329 -154) rotate(6.94502)"/>
</clipPath>
</defs>
</svg>
