<svg width="390" height="80" viewBox="0 0 390 80" fill="none" xmlns="http://www.w3.org/2000/svg">
<g clip-path="url(#clip0_137_2859)">
<rect width="390" height="81" rx="8" fill="white"/>
<g opacity="0.25" clip-path="url(#clip1_137_2859)">
<path d="M33.1322 120.505C43.8187 128.97 58.212 132.404 72.0498 134.564C100.567 139.01 102.827 108.526 123.783 108.457C142.031 108.389 153.872 104.549 163.802 92.7906C180.618 72.9066 206.823 85.5212 222.751 99.6978C247.412 121.643 273.311 151.185 314.974 144.079C346.506 138.707 365.48 127.013 379.82 104.544C385.866 95.07 392.034 84.421 395.119 73.9431C398.203 63.4652 394.948 48.4847 408.3 42.8753C434.872 31.5441 475.108 53.6582 503.901 49.3188C524.979 46.0977 533.468 38.6178 525.978 20.7335C515.623 -3.84293 554.904 -8.55306 576.971 -11.1391C596.145 -13.3942 625.916 -3.88273 642.142 -14.1265" stroke="#9AD1F6" stroke-width="0.399036" stroke-miterlimit="10"/>
<path d="M32.2577 117.134C42.8666 125.293 56.9963 128.573 70.5527 130.554C86.3786 132.868 97.2261 122.162 104.889 113.231C110.175 107.073 115.597 101.527 121.726 101.751C140.562 102.437 150.69 98.3246 161.604 87.2407C164.33 84.2805 167.795 81.7882 171.812 79.8978C190.334 71.9194 207.927 83.7582 220.133 93.8234C233.552 104.913 246.538 119.551 262.12 129.103C278.795 139.294 295.053 143.036 315.391 140.834C327.795 139.483 341.972 136.032 351.268 130.081C362.608 122.796 371.129 112.908 378.504 102.398C379.986 100.271 381.328 97.9179 382.64 95.5533C387.827 86.1837 391.513 77.6362 393.51 67.4198C395.423 57.6354 392.949 46.2794 404.048 40.1143C404.476 39.8704 404.932 39.6569 405.412 39.4764C433.468 28.6556 472.955 51.3379 501.941 47.3917C523.741 44.4194 530.166 36.6397 522.864 18.7543C517.499 5.64729 527.763 -1.38337 540.696 -5.69313C551.286 -9.22692 564.492 -10.9709 576.704 -12.2892C596.015 -14.3829 625.102 -5.26819 641.269 -15.1013" stroke="#9AD1F6" stroke-width="0.399036" stroke-miterlimit="10"/>
<path d="M31.3821 113.683C42.1885 121.334 55.7215 124.366 69.0338 125.947C85.0467 127.841 95.4677 115.66 102.975 106.63C108.242 100.293 113.645 94.897 119.715 95.0898C137.82 95.6871 147.952 92.2262 159.564 82.1116C162.43 79.4988 166.005 77.4126 170.062 75.9859C188.851 69.7685 204.378 78.3972 217.502 88.3893C231.853 99.2946 245.681 113.634 261.079 123.581C277.638 134.289 294.887 139.598 315.762 137.614C327.692 136.471 341.413 132.981 350.353 126.954C361.315 119.441 370.394 110.429 377.189 100.316C378.653 98.1705 380.048 95.8964 381.385 93.591C387.009 83.7199 389.57 75.4777 390.971 64.5776C392.25 54.5953 389.801 43.0334 401.243 36.8859C401.682 36.6473 402.144 36.4349 402.627 36.2505C431.087 25.7201 470.92 49.2564 499.998 45.5788C522.294 42.7473 526.49 34.6399 519.813 16.8627C514.741 3.31708 527.023 -3.02567 540.184 -6.98593C551.101 -10.279 564.194 -12.0447 576.452 -13.3976C595.714 -15.5214 623.956 -6.75092 640.372 -16.0631" stroke="#9AD1F6" stroke-width="0.399036" stroke-miterlimit="10"/>
<path d="M30.5142 110.169C40.83 116.956 54.5709 120.254 67.4886 120.871C84.1172 121.658 93.5467 109.035 101.085 99.9198C106.357 93.5433 111.757 88.4285 117.767 88.6058C134.038 89.0604 146.423 86.332 157.694 77.4703C160.822 75.2006 164.564 73.4885 168.686 72.4418C187.182 67.0812 201.599 73.7497 215.13 83.4938C229.961 94.1442 244.332 107.802 259.757 117.873C276.789 128.992 294.747 135.939 315.959 134.278C328.263 133.243 339.744 129.576 349.142 123.68C360.014 116.575 369.064 107.959 375.876 98.2265C377.357 96.1076 378.761 93.8506 380.144 91.5106C386.319 81.0634 387.476 73.1084 388.258 61.5381C388.94 51.3946 386.738 39.6939 398.566 33.6337C399.012 33.3952 399.481 33.1837 399.971 33.0008C428.873 22.87 469.043 47.1628 498.093 43.715C520.631 41.0415 522.67 32.4543 516.85 14.9263C512.269 1.04647 526.542 -4.57127 539.9 -8.25834C551.026 -11.2928 564.002 -13.1291 576.267 -14.5294C595.347 -16.7075 623.122 -8.14655 639.509 -17.0443" stroke="#9AD1F6" stroke-width="0.399036" stroke-miterlimit="10"/>
<path d="M29.6263 106.636C39.9713 112.84 53.5741 115.47 65.9311 115.456C82.3658 115.432 91.514 102.372 99.2121 93.236C104.502 86.9662 109.958 82.2522 115.907 82.4062C131.622 82.8893 143.83 80.662 156.011 73.5112C159.554 71.5978 163.479 70.1223 167.656 69.1329C185.784 64.4752 199.858 69.5019 213.278 79.0317C227.855 89.3696 242.861 102.188 258.113 112.134C275.673 123.55 295.501 132.655 315.823 130.837C327.614 129.667 338.613 126.114 347.737 120.526C358.658 113.866 367.773 105.623 374.626 96.2093C376.125 94.1167 377.529 91.8597 378.966 89.5022C384.677 80.1965 385.7 73.0049 385.751 62.5435C385.815 51.2956 382.146 37.2214 396.056 30.5465C396.515 30.313 396.995 30.1029 397.492 29.9174C426.849 20.0832 467.291 45.0604 496.17 41.8089C518.723 39.2739 518.808 30.1672 513.954 12.9498C509.992 -1.11993 526.367 -6.14398 539.687 -9.52208C551.033 -12.393 563.883 -14.2206 576.164 -15.6751C595.053 -17.9087 622.342 -9.55977 638.7 -18.051" stroke="#9AD1F6" stroke-width="0.399036" stroke-miterlimit="10"/>
<path d="M28.7499 103.104C39.1413 108.671 52.5831 110.477 64.3558 109.853C80.446 108.967 89.3885 95.7937 97.3796 86.7416C102.702 80.717 108.179 76.52 114.133 76.7227C129.298 77.2515 141.804 76.0172 154.674 69.9874C158.491 68.316 162.576 67.0085 166.845 66.0914C184.569 61.9231 198.406 65.5461 211.779 74.7807C226.074 84.6823 240.993 96.7583 256.11 106.438C274.156 117.987 294.806 128.582 315.123 127.15C325.445 126.421 336.603 122.86 346.231 117.537C357.318 111.353 366.508 103.392 373.237 94.1424C374.753 92.0761 376.153 89.7623 377.654 87.485C388.808 70.5694 369.656 38.1519 393.531 27.5935C394.013 27.3604 394.517 27.1531 395.039 26.9732C424.919 17.3073 464.32 43.1064 493.883 39.8175C516.972 37.2594 514.789 27.8925 511.032 11.0179C507.965 -3.01524 526.285 -7.52905 539.603 -10.634C551.526 -13.2674 563.703 -15.294 576.06 -16.7012C594.768 -19.0049 621.528 -10.8571 637.847 -18.943" stroke="#9AD1F6" stroke-width="0.399036" stroke-miterlimit="10"/>
<path d="M27.8787 99.6133C38.356 104.475 51.5762 105.354 62.7892 104.091C78.4226 102.321 87.1649 89.3325 95.5918 80.4782C100.961 74.8451 106.506 71.2837 112.454 71.5418C127.166 72.1843 140.636 71.8714 153.68 66.7311C157.721 65.2617 161.944 64.0786 166.299 63.1951C183.797 59.2485 197.417 61.993 210.706 70.7188C224.557 79.8026 239.036 91.632 253.863 100.939C270.594 111.443 293.37 125.264 313.867 123.21C324.978 122.193 335.516 119.298 344.754 114.728C355.97 108.93 365.263 101.222 371.985 92.1412C373.521 90.0931 374.913 87.6739 376.48 85.4528C388.546 68.4313 364.08 35.7041 391.302 24.7817C391.81 24.5695 392.336 24.3812 392.876 24.2177C423.394 14.9832 460.001 38.8261 491.655 37.858C516.767 37.1382 510.431 22.7311 508.36 9.10073C506.239 -4.89745 526.404 -8.93733 539.654 -11.8255C551.589 -14.331 563.724 -16.3414 576.011 -17.8485C594.532 -20.2394 620.74 -12.2874 637.022 -19.976" stroke="#9AD1F6" stroke-width="0.399036" stroke-miterlimit="10"/>
<path d="M27.0029 96.1698C37.9633 100.584 50.6041 99.7843 61.2302 98.3612C75.8217 96.3921 84.8102 83.1844 93.8532 74.6784C99.2831 69.5754 104.916 66.7562 110.883 67.1052C125.657 67.932 139.278 68.3531 152.854 63.8242C157.062 62.5171 161.386 61.414 165.8 60.521C182.879 56.7486 196.621 58.4064 209.838 66.7778C223.26 75.2706 237.222 86.7879 251.503 95.6988C268.309 106.18 291.02 120.282 311.96 119.054C322.614 118.43 333.454 116.543 343.137 111.958C354.483 106.514 363.897 99.0409 370.655 90.1135C372.22 88.0772 373.664 85.7447 375.242 83.4365C387.223 65.9946 359.447 32.8964 389.197 22.1613C389.732 21.9692 390.289 21.7797 390.841 21.6219C421.823 12.9583 457.614 36.4607 489.266 36.0231C514.444 35.7052 506.726 20.2936 505.777 7.31448C504.781 -6.4744 526.473 -10.103 539.789 -12.8385C551.421 -15.2244 563.817 -17.1956 575.943 -18.8299C594.306 -21.2964 619.92 -13.5293 636.185 -20.8259" stroke="#9AD1F6" stroke-width="0.399036" stroke-miterlimit="10"/>
<path d="M26.1371 92.8003C37.2007 96.3669 49.5421 94.6784 59.6596 92.7111C73.8333 89.9675 82.2361 77.3637 92.1304 69.4197C97.6563 64.9876 103.289 63.1091 109.29 63.5345C124.119 64.5931 138.266 65.2391 152.151 61.1741C156.486 59.9062 160.926 58.8365 165.451 57.9703C182.57 54.7253 195.327 54.438 209.296 62.8931C222.331 70.784 235.812 82.0576 249.543 90.6685C266.596 101.356 288.783 115.033 309.872 114.989C320.682 114.971 331.586 113.671 341.572 109.267C353.055 104.125 362.603 96.841 369.414 88.0248C371.141 85.8805 372.707 83.6556 374.103 81.3604C384.249 64.0567 356.115 29.6928 387.396 19.6909C387.961 19.5105 388.547 19.3327 389.13 19.1865C420.419 11.1715 455.539 34.182 486.944 34.1404C511.888 34.1156 503.205 17.6941 503.373 5.41384C503.55 -7.87841 526.495 -11.2339 540.007 -13.8651C551.646 -16.1376 563.886 -18.1922 575.901 -19.8641C594.098 -22.4311 619.096 -14.8356 635.345 -21.7402" stroke="#9AD1F6" stroke-width="0.399036" stroke-miterlimit="10"/>
<path d="M25.2676 89.5588C36.774 91.893 47.9598 89.8226 58.0944 87.2865C71.8303 83.8464 79.4596 71.9282 90.4561 64.8904C92.7537 63.3018 95.4742 62.1131 98.4527 61.3966C101.431 60.68 104.605 60.4505 107.782 60.7219C122.751 61.8377 137.362 62.6206 151.53 58.815C155.851 57.6611 160.531 56.5749 165.076 55.6413C181.804 52.2682 195.036 51.251 208.863 59.158C221.565 66.4376 234.675 77.5776 247.835 85.9018C266.019 97.4348 286.861 109.364 307.662 111.166C318.935 112.21 330.144 110.673 339.893 106.747C351.536 101.869 361.245 94.7413 368.144 86.0049C370.009 83.8914 371.515 81.5905 372.627 79.1544C379.6 61.207 353.176 26.5369 385.832 17.4261C386.428 17.2574 387.021 17.1046 387.623 16.9689C419.328 10.0094 453.23 32.0275 484.562 32.3307C509.273 32.5831 500.111 15.468 501.208 3.54208C502.393 -9.36202 526.871 -12.4263 540.313 -14.9133C551.968 -17.0631 563.964 -19.1795 575.855 -20.9391C593.949 -23.607 618.265 -16.159 634.519 -22.685" stroke="#9AD1F6" stroke-width="0.399036" stroke-miterlimit="10"/>
<path d="M24.4059 86.423C35.911 87.8244 46.7141 85.1205 56.5505 82.1139C69.6597 78.1553 76.6595 66.7715 88.7637 61.1951C93.9668 58.8277 100.13 57.8857 106.327 58.5107C121.495 59.6187 136.537 60.3897 150.929 56.708C155.332 55.58 160.045 54.4738 164.641 53.466C181.04 49.8759 194.707 48.1158 208.515 55.4979C220.96 62.1431 233.71 73.1429 246.376 81.3185C264.358 92.8752 284.735 104.764 305.42 107.525C316.109 108.931 327.524 108.408 338.218 104.284C350.03 99.6405 359.911 92.6451 366.919 83.9665C368.736 81.807 370.015 79.3867 370.695 76.8209C375.012 58.5498 350.043 23.2531 384.429 15.559C385.043 15.4166 385.674 15.2926 386.305 15.1765C418.371 9.37041 450.84 29.9436 482.186 30.6425C506.712 31.218 497.017 13.1537 499.29 1.78902C501.784 -10.7064 526.979 -13.4018 540.68 -15.8653C552.264 -17.9435 564.071 -20.1392 575.8 -21.9505C593.964 -24.7547 616.972 -17.6428 633.694 -23.5491" stroke="#9AD1F6" stroke-width="0.399036" stroke-miterlimit="10"/>
<path d="M23.549 83.4162C34.9871 83.9091 45.5831 80.6734 55.0162 77.2881C67.0362 73.0038 74.6116 62.3012 87.0998 58.291C92.7907 56.4517 98.6619 56.3067 104.912 56.7384C120.294 57.8081 135.73 58.4341 150.302 54.7341C154.79 53.5924 159.51 52.4228 164.142 51.2987C178.035 47.9421 194.518 43.7432 208.172 51.7899C220.961 59.2972 232.934 68.6989 245.156 76.748C262.863 88.4159 282.617 100.269 303.194 103.829C314.096 105.719 325.456 105.736 336.442 101.704C348.375 97.2725 359.042 90.4517 365.552 81.7176C367.102 79.4001 368.015 76.8348 368.237 74.1738C370.535 55.7373 347.432 20.0568 383.264 13.8814C383.915 13.7757 384.577 13.6634 385.236 13.5669C417.36 8.82915 448.647 27.9479 479.829 28.884C503.991 29.6083 493.995 10.5827 497.551 -0.0709773C501.521 -11.9846 526.808 -14.4035 541.081 -16.926C552.565 -18.9601 564.161 -21.2217 575.72 -23.0939C593.772 -26.0162 616.105 -19.0268 632.873 -24.5335" stroke="#9AD1F6" stroke-width="0.399036" stroke-miterlimit="10"/>
<path d="M22.704 80.5641C33.954 80.1979 44.2461 76.5393 53.5051 72.8675C64.6412 68.4595 72.9624 59.0134 85.4704 56.0428C91.3358 54.6589 97.1687 54.9996 103.507 55.3939C119.068 56.3648 134.903 56.8062 149.615 52.8982C154.141 51.7048 158.873 50.4402 163.51 49.188C177.355 45.4478 193.797 40.8178 207.733 48.0948C220.506 54.7881 232.253 64.2427 244.096 72.2216C261.478 83.9866 280.664 95.8748 300.992 100.184C311.998 102.513 323.383 103.185 334.67 99.165C346.537 94.9345 358.515 88.3377 363.69 79.3204C364.872 77.2535 365.29 74.3378 365.386 71.4874C366.12 52.4181 344.9 17.586 382.344 12.5879C383.013 12.5006 383.705 12.3999 384.394 12.323C416.448 8.58184 446.613 26.1891 477.493 27.2894C501.284 28.1452 491.181 7.93293 495.995 -1.8117C501.535 -12.9633 526.367 -15.1643 541.498 -17.8717C552.879 -19.9104 564.268 -22.1971 575.599 -24.1695C593.495 -27.2636 615.221 -20.3561 632.043 -25.4463" stroke="#9AD1F6" stroke-width="0.399036" stroke-miterlimit="10"/>
<path d="M21.863 77.8723C32.8712 76.7451 42.9892 72.8 52.0129 68.9145C62.2365 64.5321 71.5946 56.4424 83.848 54.4457C89.7878 53.4809 95.6632 53.9876 102.07 54.3339C117.896 55.1923 134.066 55.2807 148.819 51.1284C153.366 49.8412 158.091 48.4631 162.715 47.0567C176.535 42.8469 192.722 37.7277 207.103 44.3595C219.968 50.3001 231.582 59.7305 243.147 67.6755C260.336 79.4813 278.804 91.5072 298.842 96.4886C309.86 99.2296 321.341 100.564 332.867 96.5651C344.392 92.5663 357.549 86.499 361.25 76.7073C362.044 74.0784 362.348 71.3521 362.153 68.6088C361.651 48.5287 342.65 15.4783 381.654 11.4903C382.352 11.4226 383.063 11.3403 383.77 11.2817C415.637 8.39401 444.775 24.4772 475.202 25.6912C498.638 26.6245 488.66 5.56703 494.774 -3.52873C501.884 -14.0952 526.197 -16.07 541.93 -18.9131C553.1 -20.9372 564.302 -23.3112 575.423 -25.2848C593.249 -28.492 614.282 -21.6448 631.201 -26.3292" stroke="#9AD1F6" stroke-width="0.399036" stroke-miterlimit="10"/>
<path d="M21.0306 75.3508C31.6992 73.5791 41.3946 69.4137 50.5403 65.4708C60.4713 61.1733 70.2653 54.5678 82.2372 53.2524C88.2535 52.6024 94.1412 53.0945 100.603 53.4233C116.644 54.1392 133.15 53.8745 147.878 49.3252C152.419 47.9167 157.141 46.3935 161.724 44.8131C175.453 40.0538 191.2 34.5191 206.142 40.5761C219.283 45.8751 230.818 55.1028 242.205 63.0502C259.199 74.9126 277.019 87.1089 296.72 92.7085C307.672 95.8193 319.327 97.8742 331.072 93.878C342.551 90.0022 355.929 84.5247 358.295 73.9352C358.776 71.2003 358.874 68.4144 358.586 65.6254C357.118 44.3825 340.951 13.6311 381.2 10.4941L383.363 10.3314C414.596 8.35542 443.132 22.9502 473.007 24.2257C496.169 25.1819 486.378 3.61657 493.905 -5.05795C502.672 -15.1652 526.196 -16.9226 542.387 -19.9189C553.326 -21.939 564.33 -24.4014 575.231 -26.4502C592.999 -29.785 613.371 -23.0022 630.405 -27.2626" stroke="#9AD1F6" stroke-width="0.399036" stroke-miterlimit="10"/>
<path d="M20.2077 73.0079C30.4772 70.7374 39.9225 66.5656 49.1013 62.7795C59.0043 58.7117 68.8486 53.2379 80.6821 52.372C86.7577 51.9222 92.6184 52.3788 99.1337 52.6096C115.382 53.1738 132.183 52.5432 146.795 47.4893C151.322 45.9344 156.013 44.2386 160.535 42.4739C174.112 37.1574 189.082 31.2226 204.804 36.7073C218.409 41.4678 229.954 50.351 241.238 58.286C258.047 70.1178 275.32 82.6091 294.691 88.7715C305.549 92.2246 317.432 94.8942 329.265 91.0294C341.098 87.1646 353.36 82.0094 354.824 70.9321C355.07 68.158 355.023 65.3587 354.684 62.5617C352.528 40.1014 339.85 12.0261 380.865 9.73008C381.601 9.69115 382.339 9.63638 383.074 9.61329C413.591 8.37006 441.689 21.577 470.86 22.7989C493.738 23.7687 484.15 1.90659 493.242 -6.48091C503.742 -16.1359 526.238 -17.7853 542.793 -20.9383C553.493 -22.9713 564.261 -25.5589 574.966 -27.6237C592.708 -31.0903 612.427 -24.3548 629.604 -28.1556" stroke="#9AD1F6" stroke-width="0.399036" stroke-miterlimit="10"/>
<path d="M19.3835 70.761C29.2654 68.1539 38.5291 64.1851 47.6848 60.5891C57.5627 56.7273 67.514 52.2634 79.0369 51.5446C85.1225 51.1844 90.9696 51.4947 97.5049 51.6476C113.941 52.0417 131.023 51.0834 145.467 45.4303C149.954 43.6935 154.604 41.8159 159.035 39.8473C173.882 33.2945 186.525 29.7293 202.644 32.9871C216.211 35.7412 228.804 45.4595 240.02 53.3461C256.62 65.0157 273.609 77.9468 292.649 84.6799C303.415 88.4595 315.52 91.542 327.446 88.0262C338.984 84.6078 350.199 78.5211 350.948 67.9115C351.038 65.1011 350.897 62.2777 350.525 59.4584C348.049 35.7613 339.474 10.5654 380.755 9.0817C381.49 9.05861 382.247 9.0222 382.99 9.00829C412.639 8.37477 440.439 20.3316 468.823 21.4977C491.549 22.4249 481.958 0.337195 492.847 -7.79113C505.106 -16.9585 526.38 -18.612 543.198 -21.9501C553.631 -24.0158 564.168 -26.6877 574.586 -28.8034C592.323 -32.3913 611.43 -25.6982 628.78 -29.0277" stroke="#9AD1F6" stroke-width="0.399036" stroke-miterlimit="10"/>
<path d="M18.5648 68.563C28.1016 65.7852 37.1362 61.9815 46.2861 58.6903C56.2999 55.0862 66.0458 51.4496 77.4378 50.6906C83.5544 50.3565 89.7117 50.2853 95.8816 50.4771C112.47 50.737 129.719 49.4373 143.953 43.1878C148.373 41.2338 153.09 39.1473 157.247 37.0247C170.616 30.2517 184.408 27.8073 199.456 29.8976C213.846 31.8997 227.104 40.3645 238.517 48.1865C255.032 59.5162 271.244 72.0472 290.565 80.2535C300.86 84.6351 314.38 88.2034 325.565 84.6778C336.751 81.1521 346.221 74.6278 346.592 64.6314C346.679 62.2864 346.351 59.2315 346.06 56.2133C343.621 31.4433 339.705 9.18671 380.671 8.40425C381.425 8.3916 382.191 8.37228 382.932 8.37422C411.663 8.2399 439.206 19.1362 466.767 20.194C489.44 21.0424 479.612 -1.16251 492.518 -9.11748C506.52 -17.7509 526.391 -19.4629 543.429 -23.0715C553.598 -25.2015 563.886 -27.9681 574.034 -30.1006C591.775 -33.8086 610.333 -27.1504 627.872 -29.9744" stroke="#9AD1F6" stroke-width="0.399036" stroke-miterlimit="10"/>
<path d="M17.7438 66.5413C26.9504 63.6429 35.8737 60.0668 44.8922 57.0812C54.8252 53.7969 64.7911 50.7578 75.8299 49.7227C81.898 49.1358 88.035 48.8628 94.2009 48.9054C110.912 49.0115 128.31 47.4325 142.256 40.5529C146.628 38.3841 151.126 36.3834 155.044 34.513C167.898 28.3527 180.907 26.0782 195.549 27.3874C210.19 28.6965 224.511 36.0767 236.358 43.2521C253.344 53.5459 269.479 66.9679 288.503 75.6366C298.326 80.1134 312.71 84.9125 323.132 81.0447C332.981 77.4206 341.767 70.8531 342.025 61.3574C342.096 59.0586 341.777 56.013 341.544 53.034C339.594 27.4231 340.693 8.02046 380.83 7.86067C381.583 7.85594 382.369 7.83912 383.109 7.8569C410.12 8.54216 438.228 18.0602 464.934 19.0138C484.292 19.6997 482.549 -3.49017 492.467 -10.3379C504.645 -18.7514 526.372 -20.4302 543.701 -24.1963C553.707 -26.3622 563.583 -29.2674 573.502 -31.4038C591.329 -35.2218 609.336 -28.5904 627.079 -30.859" stroke="#9AD1F6" stroke-width="0.399036" stroke-miterlimit="10"/>
<path d="M16.9401 64.5622C25.817 61.6236 34.4352 58.2355 43.4985 55.5689C53.5278 52.6099 63.5449 49.9228 74.1797 48.4284C80.1741 47.4505 86.3039 46.8976 92.4956 46.7763C109.391 46.7441 126.264 44.5865 140.255 37.7606C144.377 35.7544 148.681 34.1481 152.395 32.4941C163.837 27.2873 177.071 24.0192 190.939 25.2422C206.274 26.6117 220.284 32.2496 232.619 38.7689C250.434 48.1748 267.843 62.4674 286.234 70.5767C295.845 74.8267 309.447 80.64 319.268 76.9C327.864 73.6136 336.775 67.1337 337.138 57.9725C337.233 55.7329 336.973 52.7185 336.869 49.8034C335.869 23.6813 342.187 6.91617 381.017 7.27254C381.78 7.27698 382.554 7.27476 383.303 7.30172C409.417 8.30397 437.221 17.1497 463.139 17.8788C481.774 18.4121 481.92 -4.92546 492.49 -11.557C505.359 -19.637 526.51 -21.394 543.797 -25.4066C553.477 -27.6443 563.116 -30.6589 572.745 -32.8224C590.542 -36.8211 608.267 -30.1034 626.233 -31.7982" stroke="#9AD1F6" stroke-width="0.399036" stroke-miterlimit="10"/>
<path d="M16.1289 62.6383C16.1289 62.6383 23.4825 59.2489 42.121 54.0906C51.9854 51.3688 62.3672 48.8628 72.5855 46.7549C78.633 45.5057 84.4307 43.9046 90.7764 43.8977C107.338 43.8649 123.649 41.5908 137.959 35.4952C141.94 33.7933 145.98 32.3799 149.423 30.8859C160.458 26.1039 172.786 22.7254 186.052 23.4891C201.226 24.3727 215.216 28.9712 227.864 34.805C246.272 43.3021 264.264 56.7494 282.586 65.1718C291.622 69.3356 305.213 75.8391 314.181 72.3247C322.139 69.2099 331.408 63.4811 332.024 54.5597C332.184 52.3923 332.052 49.4418 332.095 46.6009C332.558 20.3997 344.075 5.91606 381.247 6.67337C382.007 6.69366 382.781 6.69143 383.518 6.73298C408.774 8.00845 436.229 16.3695 461.425 16.8419C471.436 17.0402 473.509 13.1444 477.433 7.53623C483.571 -1.23512 482.008 -6.59506 492.581 -12.7358C505.933 -20.4838 526.673 -22.4757 543.744 -26.603C553.135 -28.8758 562.561 -32.1173 571.854 -34.2656C589.472 -38.3343 607.208 -31.6233 625.363 -32.6438" stroke="#9AD1F6" stroke-width="0.399036" stroke-miterlimit="10"/>
<path d="M15.3233 60.7633C15.3233 60.7633 22.25 57.2736 40.7247 52.6018C50.7656 50.0623 61.0501 47.4962 70.9667 44.6039C77.0142 42.8402 82.8898 40.4285 89.0736 40.3778C104.842 40.2484 121.125 39.1526 135.403 33.7525C139.217 32.3037 143.051 31.0341 146.352 29.6755C156.915 25.254 168.331 21.6359 180.997 22.0049C195.798 22.433 209.618 26.1987 222.333 31.3092C241.086 38.8515 259.521 50.9859 277.572 59.7451C286.168 63.9196 298.929 70.8848 308.185 67.494C318.321 63.744 323.99 59.8519 326.893 51.2091C327.52 49.3238 327.204 46.2543 327.456 43.5032C329.828 17.6792 346.284 5.03535 381.621 6.09972C382.381 6.12001 383.163 6.13489 383.889 6.1831C408.342 7.69847 435.365 15.7417 459.936 15.9448C470.053 16.0357 471.796 11.9387 475.891 6.38355C482.442 -2.51441 481.718 -7.72394 492.87 -13.8102C506.531 -21.2712 526.825 -23.5427 543.655 -27.8439C552.793 -30.1799 561.862 -33.6658 571.024 -35.7657C588.777 -39.7456 606.251 -33.2032 624.57 -33.5043" stroke="#9AD1F6" stroke-width="0.399036" stroke-miterlimit="10"/>
<path d="M14.5172 58.8805C14.5172 58.8805 21.0741 55.3377 39.3724 50.9982C49.7176 48.6441 59.7245 45.5889 69.2822 41.8664C75.3162 39.4418 81.0176 37.2581 87.2114 37.297C102.932 37.387 118.236 37.2895 132.689 32.3369C136.354 31.0869 140.1 29.9353 143.131 28.6563C153.861 24.1426 164.133 21.165 175.9 20.5884C189.112 19.9064 203.739 23.7383 216.289 28.1452C235.088 34.7123 253.523 45.7291 271.444 54.2715C279.811 58.2654 292.413 65.4202 301.455 62.3249C309.637 59.5187 319.449 56.2841 321.571 47.6989C322.078 45.6863 322.253 42.9582 322.753 40.3097C327.438 15.3221 348.36 4.03425 381.885 5.29603C382.645 5.32425 383.405 5.34453 384.13 5.40067C407.867 7.12634 434.36 15.0647 458.414 14.9637C468.653 14.9165 470.075 10.6197 474.356 5.07925C481.285 -3.91739 481.433 -8.99651 493.073 -15.0555C506.927 -22.2921 526.78 -24.8101 543.258 -29.3071C552.157 -31.7365 560.929 -35.4515 570.052 -37.4034C588.009 -41.2539 605.277 -34.8171 623.659 -34.4431" stroke="#9AD1F6" stroke-width="0.399036" stroke-miterlimit="10"/>
<path d="M13.7114 56.9976C13.7114 56.9976 19.9087 53.403 37.9348 49.2394C48.7662 46.7318 58.1369 43.0012 67.5364 38.5184C72.7119 35.9198 78.8833 34.6506 85.2374 34.8779C100.582 35.3079 115.617 35.7082 129.893 31.2647C133.329 30.2761 136.684 29.1444 139.943 27.8742C150.139 23.5526 159.881 20.1165 171.035 19.1677C183.52 18.0997 197.981 21.4933 210.151 25.243C228.729 30.9631 246.93 40.8098 264.647 48.9656C272.932 52.7806 285.267 59.8948 294.312 57.1215C302.762 54.5168 313.096 52.8251 316.309 44.3004C317.034 42.3788 317.423 39.7891 318.207 37.2959C325.726 13.4977 349.973 3.05706 382.15 4.49224C382.898 4.52712 383.658 4.55533 384.373 4.61021C407.5 6.53498 433.33 14.5936 457.029 14.1439C467.39 13.9508 468.505 9.43164 472.963 3.89666C480.242 -5.14572 481.458 -10.2315 493.338 -16.205C507.291 -23.2285 526.799 -25.9976 542.707 -30.7971C551.302 -33.3922 560.031 -37.1768 569.124 -39.052C587.223 -42.7887 604.405 -36.4186 622.864 -35.2957" stroke="#9AD1F6" stroke-width="0.399036" stroke-miterlimit="10"/>
<path d="M12.911 55.0746C12.911 55.0746 18.8077 51.4595 36.5351 47.2595C47.4585 44.6827 56.5555 39.4234 65.7121 35.3049C71.0742 32.903 77.0636 32.4748 83.1785 32.8177C98.2528 33.665 112.995 34.488 127.081 30.4072C130.451 29.5068 133.726 28.4284 136.882 27.1792C146.469 23.0408 156.136 19.2015 166.506 17.6508C178.221 15.862 192.225 19.4088 204.178 22.5371C222.625 27.3569 240.162 36.4796 257.459 43.7962C265.977 47.4066 278.156 54.0838 286.965 51.8766C295.774 49.6694 306.561 49.3272 311.149 40.9218C312.143 39.1133 312.775 36.6738 313.891 34.2854C324.249 12.1515 351.467 1.95218 382.398 3.48489C383.136 3.51851 383.873 3.56006 384.588 3.61494C408.08 5.38306 432.007 14.1265 455.806 13.287C466.299 12.9572 467.063 8.22646 471.736 2.64527C479.319 -6.40034 481.694 -11.57 493.668 -17.4517C507.532 -24.2608 526.493 -27.2575 541.91 -32.3982C550.332 -35.2072 559.076 -38.9418 568.17 -40.7445C586.379 -44.3551 603.599 -38.0368 622.069 -36.1487" stroke="#9AD1F6" stroke-width="0.399036" stroke-miterlimit="10"/>
<path d="M12.0956 53.1098C12.0956 53.1098 17.7628 49.4909 35.1155 45.0201C45.7744 42.2986 54.3244 35.9516 63.8138 32.5329C69.0946 30.6275 75.0048 30.5917 81.0798 31.0905C95.9401 32.3218 110.406 33.5292 124.338 29.6789C127.633 28.832 130.815 27.7701 133.85 26.5041C143.214 22.3144 152.54 17.8386 162.473 15.9212C173.617 13.7653 186.983 17.138 198.639 19.8763C216.302 24.0137 233.446 32.1559 250.198 38.8757C258.839 42.3401 270.683 48.679 279.64 46.715C288.987 44.6377 300.102 45.6378 306.167 37.6374C307.413 35.9883 308.373 33.6853 309.849 31.4371C323.107 11.2403 352.455 0.80195 382.555 2.37814C383.282 2.41844 383.998 2.45747 384.702 2.51902C407.897 4.40379 430.912 13.7757 454.562 12.5241C465.198 11.9626 465.69 6.98155 470.549 1.41502C478.367 -7.59381 481.95 -12.8898 493.904 -18.6935C507.646 -25.3568 525.721 -28.6381 540.864 -34.1017C549.274 -37.1534 558.012 -40.76 567.161 -42.4917C585.436 -45.9577 602.837 -39.7539 621.245 -37.0131" stroke="#9AD1F6" stroke-width="0.399036" stroke-miterlimit="10"/>
<path d="M11.2847 51.0902C11.2847 51.0902 17.0968 47.5693 33.6779 42.482C43.852 39.3638 51.5889 32.7408 61.8551 30.068C67.254 28.6514 72.946 28.8623 78.9596 29.5225C93.5646 31.1327 107.911 32.7195 121.693 28.9875C124.96 28.1609 128.095 27.0834 131.053 25.7702C140.19 21.384 149.338 16.3077 159.056 13.8494C169.647 11.1679 182.738 14.3946 193.792 17.0998C210.323 21.1717 226.966 28.0227 243.161 34.1681C251.933 37.4958 263.959 43.6318 272.561 41.6647C281.805 39.5748 294.241 42.0866 301.474 34.4535C302.914 32.9246 304.294 30.7773 306.165 28.7218C322.4 10.6002 352.768 -0.493746 382.604 1.10654C383.31 1.14432 384.038 1.17669 384.678 1.24656C406.571 3.69627 430.479 13.37 453.52 11.803C461.752 11.238 463.938 7.62113 468.076 3.0038C476.777 -6.73358 480.738 -13.5914 494.143 -19.9821C507.836 -26.4986 524.857 -30.1335 539.704 -35.9145C548.196 -39.2135 556.936 -42.6591 566.144 -44.279C584.494 -47.5832 602.17 -41.4986 620.428 -37.8676" stroke="#9AD1F6" stroke-width="0.399036" stroke-miterlimit="10"/>
<path d="M10.4736 48.9975C10.4736 48.9975 16.8445 45.609 32.243 39.5897C41.1846 36.1203 49.5624 29.7282 59.8776 27.7688C65.3332 26.7451 70.8877 27.1403 76.8408 27.9539C91.2337 29.9322 105.54 31.9321 119.208 28.1943C122.487 27.38 125.608 26.2654 128.508 24.8731C137.719 20.0458 146.425 14.0554 156.377 11.2961C166.654 8.4477 178.941 11.2388 189.905 13.9973C205.411 17.9041 221.248 24.1665 236.642 29.6757C245.546 32.8667 257.054 38.5376 265.915 36.7628C275.941 34.7683 288.392 38.2787 297.116 31.358C298.864 29.963 300.55 28.0538 302.896 26.1287C322.417 10.1197 352.203 -1.9455 382.49 -0.354644C383.175 -0.31937 383.893 -0.288255 384.563 -0.214625C406.202 2.34883 429.622 13.1127 452.583 11.0858C460.919 10.3566 462.839 6.52236 467.078 1.84502C475.964 -7.95025 480.99 -14.8873 494.39 -21.3189C507.79 -27.7505 524.349 -32.0527 538.548 -37.8402C546.819 -41.2063 556.213 -44.9582 565.156 -46.12C583.338 -48.4798 600.729 -43.4831 619.658 -38.7495" stroke="#9AD1F6" stroke-width="0.399036" stroke-miterlimit="10"/>
<path d="M9.65192 46.8231C9.65192 46.8231 15.8406 43.2998 30.7794 36.4205C39.0215 32.6007 47.7422 26.998 57.881 25.6282C63.3235 24.8842 68.8307 25.4103 74.7767 26.3678C89.0036 28.6796 103.36 31.1278 116.953 27.3166C120.254 26.4682 123.371 25.2831 126.226 23.7911C135.608 18.5022 144.431 11.6337 154.568 8.2215C164.705 4.8093 176.153 7.36158 187.185 10.4178C201.628 14.388 216.437 20.4128 230.883 25.3884C239.914 28.4823 250.781 33.6571 259.911 32.0759C270.762 30.1817 283.123 34.5094 293.242 28.4098C295.274 27.178 297.324 25.4499 300.149 23.7117C322.564 9.94467 351.384 -3.54072 382.211 -2.01263C382.876 -1.97987 383.551 -1.93793 384.191 -1.87598C407.172 0.223864 427.859 13.0908 451.689 10.3658C460.168 9.40477 461.787 5.38113 466.128 0.635865C475.157 -9.2144 481.199 -16.2528 494.533 -22.7486C507.694 -29.1853 523.43 -34.1987 537.321 -39.8629C545.603 -43.2357 555.108 -46.9501 564.123 -48.0226C582.389 -50.2034 600.164 -45.361 618.86 -39.6587" stroke="#9AD1F6" stroke-width="0.399036" stroke-miterlimit="10"/>
<path d="M8.79709 44.5642C8.79709 44.5642 14.2624 40.0282 29.2704 32.9242C37.268 29.1389 45.9903 24.3806 55.8382 23.4255C61.3061 22.9017 66.7654 23.4783 72.6238 24.5537C86.7522 27.159 101.217 30.0948 114.785 26.1438C118.176 25.2309 121.354 23.9457 124.229 22.3257C133.877 16.5787 141.797 8.61938 153.827 5.36549C165.057 2.33564 175.089 3.46927 185.693 6.35273C198.753 9.92133 212.495 16.7246 226.154 21.2988C235.192 24.3293 245.465 29.0698 254.752 27.6525C266.396 25.855 278.567 30.8831 289.917 25.665C292.242 24.5976 294.698 23.144 298.056 21.487C321.761 9.75017 351.18 -5.13352 381.704 -3.779C382.338 -3.75 382.992 -3.71057 383.623 -3.6578C406.655 -1.54376 426.837 12.9742 450.791 9.74175C459.358 8.5744 460.735 4.31217 465.181 -0.524798C474.288 -10.4138 481.327 -17.572 494.534 -24.1396C507.373 -30.5109 522.225 -36.4199 536.008 -41.8802C544.431 -45.2038 553.933 -48.9022 563.006 -49.8471C581.33 -51.8199 599.622 -47.1799 617.986 -40.4808" stroke="#9AD1F6" stroke-width="0.399036" stroke-miterlimit="10"/>
<path d="M8.03779 42.2203C8.03779 42.2203 13.2272 36.2599 27.8261 29.5964C35.6627 26.0166 44.2734 21.8317 53.9424 21.1442C59.5136 20.8201 65.178 21.2705 70.672 22.4746C84.7837 25.303 99.4468 28.7534 113.015 24.6335C116.521 23.6563 119.776 22.255 122.667 20.479C132.355 14.1419 140.582 6.24408 153.459 2.98882C164.531 0.221193 174.646 0.681434 185.188 3.03489C197.643 5.82228 210.277 12.7157 222.706 17.2527C231.192 20.3605 241.5 24.6391 250.607 23.4169C262.953 21.7693 274.963 27.3565 287.235 23.0548C289.834 22.1493 292.931 20.7498 296.611 19.1962C320.907 8.95451 351.122 -6.88545 380.929 -5.90772C381.543 -5.88123 382.177 -5.85223 382.776 -5.79531C405.896 -3.71876 425.826 12.8669 449.96 9.02114C458.578 7.69118 459.861 3.1683 464.39 -1.74703C473.553 -11.6694 481.414 -18.9686 494.479 -25.6501C506.95 -32.0098 521.061 -38.7889 534.7 -44.0095C543.253 -47.293 552.772 -50.9494 561.91 -51.8301C580.284 -53.6118 599.197 -49.0087 617.155 -41.3782" stroke="#9AD1F6" stroke-width="0.399036" stroke-miterlimit="10"/>
<path d="M7.17656 39.7679C7.17656 39.7679 11.3072 32.5449 26.2696 26.4162C34.7757 22.9179 42.3571 19.2025 51.9337 18.6727C57.505 18.3515 63.1685 18.7992 68.6643 19.9951C82.7895 22.9699 97.7571 26.9236 111.345 22.6374C115.019 21.6013 118.389 20.064 121.306 18.0944C130.55 11.454 140.156 3.82062 153.319 0.962013C163.614 -1.41492 174.723 -1.5558 185.48 0.554151C196.847 2.91958 209.15 8.75166 220.736 13.2663C230.376 17.0213 239.845 20.7232 247.649 19.471C260.079 17.4798 273.516 23.0158 285.455 20.595C288.252 20.0352 291.726 18.4566 295.675 17.0161C320.216 8.02622 351.008 -8.69209 379.926 -8.13625C380.509 -8.12144 381.123 -8.09495 381.702 -8.04846C404.969 -6.06651 424.869 12.8309 449.267 8.35805C457.82 6.79498 459.073 2.00314 463.661 -2.96929C472.849 -12.9287 481.462 -20.3936 494.354 -27.2007C506.517 -33.5981 519.92 -41.0905 533.398 -46.186C542.043 -49.4503 551.686 -53.019 560.842 -53.7851C579.231 -55.3479 598.875 -50.8246 616.353 -42.2557" stroke="#9AD1F6" stroke-width="0.399036" stroke-miterlimit="10"/>
<path d="M6.33569 37.2299C6.33569 37.2299 10.2397 29.2075 24.7524 23.3375C32.9553 20.0114 40.427 16.5961 50.0573 15.9683C55.6171 15.5659 61.2897 15.9572 66.7979 17.1231C80.9398 20.1321 96.3958 24.5393 109.977 20.1397C113.711 18.97 117.115 17.2959 120.039 15.1909C129.448 8.23294 139.86 1.52591 153.249 -0.863102C163.935 -2.77733 175.991 -3.41511 186.37 -1.25852C197.584 1.07224 209.11 5.38667 219.98 9.59704C228.961 13.1029 237.226 16.9074 246.101 15.7856C258.981 14.1386 272.047 20.144 284.259 18.1424C287.188 17.6952 290.925 16.1888 295.114 14.8418C319.758 6.89356 350.592 -10.519 378.583 -10.5906C379.148 -10.5942 379.743 -10.586 380.313 -10.5487C403.957 -8.91481 423.742 12.8146 448.556 7.67688C457.038 5.92031 458.348 0.829937 462.973 -4.18626C472.165 -14.1774 481.323 -21.8252 494.098 -28.7911C506.011 -35.2833 518.659 -43.3501 532.023 -48.371C540.783 -51.6374 550.462 -55.0731 559.712 -55.7473C578.127 -57.0979 598.571 -52.6218 615.506 -43.1141" stroke="#9AD1F6" stroke-width="0.399036" stroke-miterlimit="10"/>
<path d="M5.49633 34.5952C5.49633 34.5952 9.1325 26.0256 23.1566 20.3052C31.0866 17.0744 38.4669 13.8089 48.1879 12.9509C53.7333 12.3654 59.4404 12.6211 64.9983 13.7042C79.0498 16.5977 95.0243 21.3815 108.506 16.9377C112.194 15.7897 115.604 14.2077 118.621 12.2446C128.536 5.50899 139.504 -0.696207 153.187 -2.67148C164.443 -4.35902 176.147 -4.34928 187.678 -2.64276C198.233 -0.995232 209.685 2.64283 220.169 6.42024C228.75 9.51562 236.151 13.3757 245.649 12.2896C258.433 10.824 271.527 17.2026 283.58 15.6479C286.607 15.2608 290.569 13.8782 294.945 12.6264C309.998 8.32574 324.815 3.04761 339.525 -2.04251C350.991 -5.98419 364.031 -13.151 377.179 -13.3102C377.755 -13.3222 378.333 -13.3108 378.91 -13.2762C402.841 -11.7681 422.797 12.595 447.873 6.84608C456.176 4.931 457.727 -0.507874 462.332 -5.53451C470.935 -15.1819 481.529 -23.6229 493.727 -30.5487C505.424 -37.1636 517.318 -45.7323 530.676 -50.7057C539.436 -53.9641 549.299 -57.2809 558.597 -57.8367C577.069 -58.9713 598.332 -54.4357 614.683 -44.0746" stroke="#9AD1F6" stroke-width="0.399036" stroke-miterlimit="10"/>
<path d="M4.6589 31.864C4.6589 31.864 8.0002 22.9691 21.6036 17.2698C29.3096 14.0761 36.5653 10.8034 46.3729 9.57807C51.9979 8.88042 57.6483 8.66021 63.2689 9.71469C77.107 12.3008 93.123 17.5158 106.7 13.582C110.433 12.5834 113.911 11.1393 117.016 9.2992C127.432 2.81775 139.315 -3.25994 152.984 -4.52136C164.881 -5.73547 177.066 -5.50139 189.108 -3.82739C199.983 -2.11341 210.679 0.428364 221.037 3.76016C229.3 6.37466 236.114 10.1632 245.909 9.04095C258.131 7.6435 271.714 14.2987 283.348 13.1834C286.437 12.8843 290.587 11.589 295.119 10.4285C310.56 6.36019 325.628 1.58949 340.249 -3.85993C351.084 -7.85439 363.107 -15.7722 375.753 -16.0086C376.325 -16.0268 376.9 -16.0211 377.475 -15.9917C401.714 -14.6069 421.997 12.3849 447.167 6.03638C455.221 4.01863 457.159 -1.8475 461.695 -6.82621C470.431 -16.5486 481.052 -25.1265 493.218 -32.2832C504.742 -39.1041 515.877 -48.0546 529.323 -52.9771C538.141 -56.2042 548.124 -59.3859 557.495 -59.8524C576.023 -60.7631 598.125 -56.1655 613.869 -44.9457" stroke="#9AD1F6" stroke-width="0.399036" stroke-miterlimit="10"/>
<path d="M3.8312 29.1262C3.8312 29.1262 6.8548 20.0076 20.0511 14.2185C27.4519 10.9554 34.723 7.55598 44.6458 5.81411C50.3271 4.82585 55.963 4.20992 61.4356 5.27852C75.1075 7.94084 90.9929 13.542 104.741 10.1757C108.542 9.33658 112.113 8.03587 115.329 6.31999C126.815 -0.19192 138.633 -4.79021 152.62 -6.51936C164.485 -7.98449 178.169 -7.22607 190.499 -5.04084C201.25 -3.27215 211.91 -1.07467 222.435 1.54263C230.539 3.66337 236.821 7.26663 246.807 6.03891C258.321 4.61952 272.426 11.4509 283.474 10.6822C286.635 10.4724 290.881 9.25302 295.528 8.1789C311.206 4.55349 326.364 -0.136492 340.834 -5.83884C351.324 -10.004 361.84 -18.4189 374.333 -18.7784C374.916 -18.8011 375.502 -18.7995 376.088 -18.7736C400.661 -17.6376 421.315 12.0526 446.471 5.13948C454.312 2.98322 456.582 -3.21221 461.088 -8.19468C469.91 -17.992 480.514 -26.7103 492.602 -34.1028C503.965 -41.1444 514.273 -50.3403 527.922 -55.3024C536.821 -58.5037 546.914 -61.5594 556.353 -61.905C574.982 -62.6025 597.905 -57.8887 613.021 -45.8852" stroke="#9AD1F6" stroke-width="0.399036" stroke-miterlimit="10"/>
<path d="M2.99478 26.4679C2.99478 26.4679 5.69778 17.1495 18.4595 11.0663C25.6247 7.67805 32.9023 4.05425 42.9444 1.67571C48.6917 0.317611 54.0521 -0.267546 59.3466 0.803489C72.8863 3.52205 88.6008 9.4963 102.525 6.73845C106.397 6.07049 110.066 4.91876 113.394 3.32694C125.393 -2.84912 137.67 -7.18248 151.914 -8.70346C164.39 -10.0379 178.649 -9.01654 191.514 -6.5088C202.212 -4.40171 213.231 -2.52885 224.011 -0.323329C231.967 1.29699 237.963 4.67248 248.042 3.27925C258.877 1.76913 273.383 8.65737 283.884 8.17581C287.113 8.01435 291.426 6.93177 296.202 5.90566C311.607 2.66883 327.459 -1.84003 341.304 -7.89575C351.496 -12.3625 360.305 -21.0899 372.908 -21.5807C373.485 -21.5988 374.071 -21.6078 374.644 -21.5863C399.443 -20.5996 421.109 11.6016 445.722 4.16418C453.318 1.87356 455.924 -4.58652 460.463 -9.58899C469.369 -19.4345 479.905 -28.2959 491.825 -35.9659C503.06 -43.2401 512.681 -52.7207 526.575 -57.6289C535.543 -60.7976 545.746 -63.7273 555.255 -63.9599C574.023 -64.4314 597.736 -59.5893 612.223 -46.7942" stroke="#9AD1F6" stroke-width="0.399036" stroke-miterlimit="10"/>
<path d="M2.15648 23.8248C4.41565 17.1811 9.66728 11.5129 16.9957 7.80832C23.935 4.21567 31.5591 -0.193998 41.2856 -2.812C46.8815 -4.30108 52.0787 -4.83377 57.2178 -3.77363C70.7272 -0.978357 86.202 5.24808 100.231 3.17828C104.187 2.69383 107.967 1.68924 111.411 0.206791C123.942 -5.60715 136.669 -9.77312 151.069 -11.2027C164.725 -12.3845 178.721 -11.4393 192.249 -8.42165C203.343 -5.96875 214.501 -3.68512 225.856 -1.91596C233.748 -0.713476 239.624 2.36592 249.73 0.750872C259.995 -0.884963 274.484 5.8002 284.734 5.65797C287.874 5.62241 292.379 4.59535 297.053 3.63717C313.135 0.330112 330.918 -3.98373 344.767 -11.6069C353.529 -16.4406 359.578 -23.7918 371.483 -24.3837C372.056 -24.415 372.632 -24.4226 373.21 -24.4065C398.293 -23.6022 421.576 11.1114 444.874 3.05551C451.979 0.592511 455.1 -5.98163 459.816 -11.0591C468.832 -20.9057 479.243 -29.909 490.871 -37.9156C501.918 -45.5344 511.02 -55.1265 525.138 -59.9912C534.195 -63.1169 544.033 -65.5364 554.098 -66.0469C573.138 -67.032 598.616 -60.4634 611.376 -47.7419" stroke="#9AD1F6" stroke-width="0.399036" stroke-miterlimit="10"/>
<path d="M1.30235 21.2286C3.46601 14.4801 8.44437 8.59823 15.4904 4.46552C22.9591 0.0449478 30.7219 -4.64529 39.5445 -7.30907C44.8083 -8.90294 49.9865 -9.36557 55.0367 -8.34842C68.7889 -5.57182 83.4091 0.976623 97.7036 -0.441765C101.768 -0.746133 105.685 -1.61095 109.272 -2.99614C122.186 -8.44175 135.234 -12.5847 149.836 -14.038C163.924 -15.382 178.415 -14.3245 192.315 -10.9379C203.846 -8.02988 215.428 -4.85837 227.526 -3.43295C235.549 -2.45558 241.421 0.229365 251.493 -1.62295C261.32 -3.43282 275.899 3.1106 285.766 3.02619C288.905 2.99855 293.388 2.15371 298.075 1.26141C313.902 -1.75511 331.554 -5.85176 344.565 -13.9789C352.96 -19.2272 357.959 -26.5454 370.067 -27.2574C370.64 -27.2939 371.217 -27.3068 371.796 -27.296C397.022 -26.6351 421.287 10.2321 443.931 1.79111C450.885 -0.802877 454.311 -7.39609 459.104 -12.5849C468.261 -22.3966 478.529 -31.533 489.796 -39.8956C500.587 -47.9956 509.523 -57.592 523.743 -62.3479C532.886 -65.4147 542.796 -67.737 552.942 -68.1333C572.223 -68.8718 598.343 -62.0803 610.51 -48.6915" stroke="#9AD1F6" stroke-width="0.399036" stroke-miterlimit="10"/>
<path d="M0.456604 18.6411C2.42663 11.685 7.16565 5.50896 14.025 0.958317C21.2394 -3.86306 28.7415 -8.98705 37.6735 -11.8626C42.8072 -13.5045 47.8618 -13.9822 52.7894 -12.988C66.52 -10.206 80.6999 -3.38958 95.0456 -4.19875C99.2056 -4.31552 103.252 -5.03303 106.979 -6.31475C120.245 -11.3879 133.586 -15.6158 148.293 -17.2492C162.069 -18.787 178.014 -17.9623 191.678 -14.2075C203.815 -10.8719 215.95 -6.32251 228.937 -4.90136C237.334 -3.98306 243.264 -1.69298 253.263 -3.80342C262.779 -5.81189 277.351 0.537636 286.934 0.466876C290.072 0.447161 294.521 -0.289277 299.191 -1.12738C314.768 -3.89296 331.767 -7.86017 344.024 -16.4087C352.022 -22.0029 356.376 -29.255 368.623 -30.0866C369.192 -30.1219 369.78 -30.1467 370.355 -30.141C395.811 -29.7415 419.179 8.82536 442.751 0.32051C451.301 -2.77035 455.778 -11.5431 461.41 -17.6185C469.555 -26.3945 479.119 -34.2823 488.6 -41.9229C498.792 -50.1682 508.085 -60.0426 522.367 -64.7025C531.597 -67.7106 541.6 -69.9332 551.824 -70.2072C571.361 -70.7218 598.068 -63.6899 609.673 -49.6378" stroke="#9AD1F6" stroke-width="0.399036" stroke-miterlimit="10"/>
<path d="M-0.400748 16.0686C1.44971 8.87789 5.94756 2.37765 12.5644 -2.66851C19.368 -7.89366 26.8414 -13.3829 35.7506 -16.414C40.7449 -18.1131 45.7471 -18.5891 50.5314 -17.6204C64.2021 -14.8618 77.9511 -7.76826 92.219 -8.02414C96.4552 -7.97375 100.612 -8.55942 104.46 -9.74891C118.058 -14.46 131.672 -18.9601 146.383 -20.8745C161.093 -22.7889 176.373 -22.1738 190.104 -18.4511C202.531 -15.0883 215.841 -8.25718 229.854 -6.50208C238.804 -5.41179 244.936 -3.49108 254.863 -5.86758C264.208 -8.09794 278.68 -1.96944 288.121 -2.06569C291.259 -2.0854 295.534 -2.85902 300.294 -3.57366C315.985 -5.90722 331.839 -10.2551 343.16 -18.9258C350.782 -24.7828 354.98 -31.9574 367.187 -32.8824C367.76 -32.9298 368.338 -32.9506 368.919 -32.9447C395.114 -32.6884 417.276 7.10645 441.53 -1.15464C450.252 -4.11201 454.973 -13.0882 460.647 -19.2549C468.748 -28.0926 478.233 -36.1105 487.221 -43.9881C496.957 -52.5222 506.57 -62.5344 520.99 -67.0409C530.307 -69.9901 540.818 -72.4402 550.706 -72.2648C570.161 -71.9451 597.188 -66.0722 608.838 -50.5916" stroke="#9AD1F6" stroke-width="0.399036" stroke-miterlimit="10"/>
<path d="M-1.24602 13.4896C0.238153 5.51006 5.1385 -0.565991 11.1416 -6.42732C17.1447 -12.2886 24.9422 -17.7786 33.8163 -20.9507C38.7021 -22.7031 43.6744 -23.1909 48.3679 -22.2493C61.9488 -19.5257 75.4313 -12.0466 89.471 -11.8881C93.6479 -11.8536 98.2642 -12.0792 102.015 -13.2704C115.755 -17.6829 129.452 -22.2613 144.274 -24.9258C159.365 -27.6462 174.556 -27.9263 188.236 -23.8721C201.179 -20.0284 215.217 -10.9378 230.25 -8.37508C239.938 -6.72871 246.432 -5.214 256.313 -7.81319C268.376 -10.9908 277.081 -3.08053 289.43 -4.48669C292.504 -4.83584 296.79 -5.35092 301.49 -6.00846C317.27 -8.21064 331.242 -12.5546 342.05 -21.4807C349.341 -27.5308 353.844 -34.7245 365.905 -35.7397C366.475 -35.7935 367.051 -35.82 367.629 -35.8191C394.558 -35.7548 415.534 5.19806 440.454 -2.78092C449.464 -5.70316 454.289 -14.7631 459.999 -21.0461C467.999 -29.8318 477.185 -37.9666 485.84 -46.0373C495.283 -54.9046 505.144 -64.8947 519.692 -69.3373C529.105 -72.2106 539.717 -74.5518 549.657 -74.2897C569.371 -73.7777 596.993 -67.6394 608.075 -51.5285" stroke="#9AD1F6" stroke-width="0.399036" stroke-miterlimit="10"/>
<path d="M-2.09062 10.9023C-0.827273 2.59038 3.91305 -4.05991 9.73296 -10.3053C15.2867 -16.2536 23.0324 -22.176 31.892 -25.4865C36.2205 -27.2471 41.3062 -27.7342 46.265 -26.8631C59.7889 -24.1867 72.8462 -16.4779 86.7257 -15.7762C91.0615 -15.4674 95.3765 -15.8474 99.405 -16.8928C113.5 -21.0529 127.534 -25.9923 142.297 -29.6288C157.649 -33.3786 172.869 -34.4109 186.511 -30.1282C199.89 -25.9257 214.172 -14.3695 229.814 -10.7116C240.474 -8.20716 247.44 -6.95664 257.244 -9.78227C269.364 -13.2584 278.184 -5.43066 290.541 -6.90813C293.585 -7.26896 297.822 -7.81409 302.472 -8.48582C317.902 -10.7307 330.436 -14.9442 340.574 -23.9439C347.606 -30.1864 352.399 -37.4413 364.365 -38.5402C364.928 -38.6023 365.498 -38.6376 366.071 -38.646C393.675 -38.7165 413.539 3.21833 439.09 -4.45853C448.303 -7.23559 453.28 -16.5181 459.001 -22.8883C466.885 -31.664 475.707 -39.8994 484.108 -48.2021C493.445 -57.4038 503.427 -67.3551 518.173 -71.7092C527.692 -74.5133 538.416 -76.7365 548.408 -76.3876C568.372 -75.6924 596.545 -69.2779 607.084 -52.5659" stroke="#9AD1F6" stroke-width="0.399036" stroke-miterlimit="10"/>
<path d="M-2.9451 8.29776C-1.88359 -0.416622 2.64973 -7.59863 8.34279 -14.2615C13.5824 -20.3766 21.1529 -26.5776 30.0148 -29.9924C34.2812 -31.7914 39.3304 -32.3159 44.2645 -31.4725C57.753 -28.8486 70.4077 -20.9236 84.2112 -19.6844C88.5612 -19.2402 92.9235 -19.5319 96.9945 -20.5391C111.679 -24.5551 126.144 -30.2941 140.779 -34.9352C155.881 -39.7204 170.387 -41.1612 184.934 -37.0175C200.349 -32.6153 212.63 -19.3895 228.502 -13.6774C237.635 -10.4021 248.94 -9.15379 257.73 -11.725C270.091 -15.3728 279.186 -7.66427 291.594 -9.20802C294.609 -9.58846 298.776 -10.1582 303.345 -10.8558C318.49 -13.1675 329.559 -17.3666 339.203 -26.4344C346.005 -32.8417 351.033 -40.1402 362.966 -41.3076C363.536 -41.3692 364.113 -41.4037 364.693 -41.4108C392.881 -41.6433 411.766 1.20138 437.866 -6.16755C455.719 -11.2286 470.576 -38.1206 482.517 -50.3336C491.746 -59.7735 501.888 -69.7456 516.84 -73.9862C526.465 -76.721 537.289 -78.8195 547.334 -78.3918C567.571 -77.5347 596.241 -70.8265 606.249 -53.528" stroke="#9AD1F6" stroke-width="0.399036" stroke-miterlimit="10"/>
<path d="M-3.78621 5.67876C-2.87601 -2.94214 0.839915 -11.1078 7.01878 -18.0649C12.6211 -24.4976 19.3409 -30.9228 28.2369 -34.446C32.4795 -36.261 37.5136 -36.8046 42.4409 -35.9799C55.9268 -33.4206 68.221 -25.2823 81.8887 -23.529C86.2179 -22.9551 90.5957 -23.1825 94.6592 -24.1923C110.113 -28.2594 124.985 -35.6211 139.528 -40.7154C152.903 -45.3974 168.211 -49.6429 183.523 -44.3126C200.42 -38.4355 211.954 -24.3118 226.739 -17.7432C236.329 -13.4879 246.822 -10.4731 257.622 -13.8367C270.189 -17.7246 279.899 -9.8207 292.475 -11.4645C295.46 -11.8566 299.546 -12.4522 304.026 -13.1849C318.876 -15.6451 328.674 -19.8864 337.854 -28.9143C344.479 -35.4154 349.664 -42.7994 361.512 -44.0415C362.079 -44.1022 362.653 -44.1397 363.229 -44.1539C391.958 -44.5375 409.912 -0.905937 436.525 -7.94695C454.649 -12.7419 469.079 -40.1602 480.837 -52.508C489.991 -62.0939 500.276 -72.1288 515.445 -76.2626C525.175 -78.9123 536.108 -80.8849 546.187 -80.3888C566.718 -79.3752 595.829 -72.4204 605.338 -54.5475" stroke="#9AD1F6" stroke-width="0.399036" stroke-miterlimit="10"/>
<path d="M-4.62268 3.02857C-3.92869 -5.92674 -0.44108 -14.4819 5.54395 -21.9103C10.8585 -28.555 17.4586 -35.2842 26.4298 -38.9108C30.6756 -40.7478 35.7238 -41.3098 40.6715 -40.4964C54.171 -38.048 66.1532 -29.6663 79.6862 -27.4068C83.9785 -26.6842 88.369 -26.8369 92.4193 -27.8496C108.748 -32.0673 123.574 -40.938 138.39 -46.8917C151.342 -52.1396 166.679 -57.2257 182.115 -51.8804C199.597 -45.8275 210.715 -31.0389 224.923 -22.6513C234.337 -17.123 244.894 -12.404 256.788 -16.165C269.72 -20.2175 280.164 -11.9026 293.074 -13.7147C296.044 -14.1568 300.024 -14.7333 304.419 -15.5486C318.936 -18.1057 327.686 -22.5791 336.495 -31.395C343.066 -37.967 348.238 -45.4169 360.094 -46.7223C360.661 -46.7886 361.235 -46.8287 361.812 -46.8426C391.021 -47.4734 408.102 -2.94311 435.18 -9.76671C453.762 -14.4656 467.492 -42.3149 479.189 -54.6702C488.307 -64.3086 498.733 -74.4711 514.095 -78.4769C523.931 -81.0494 534.975 -82.8959 545.097 -82.3302C565.935 -81.1747 595.444 -73.9704 604.456 -55.539" stroke="#9AD1F6" stroke-width="0.399036" stroke-miterlimit="10"/>
<path d="M-5.45983 0.370027C-4.94507 -8.88762 -1.67497 -17.793 4.09709 -25.6562C9.12321 -32.5932 15.6538 -39.5239 24.7611 -43.2384C29.0195 -45.1285 34.1003 -45.7456 39.1055 -44.9803C52.6622 -42.5732 64.3928 -34.0131 77.7825 -31.2645C82.0396 -30.3705 86.4608 -30.4262 90.5231 -31.4251C107.578 -35.7713 122.57 -46.5997 137.508 -53.3022C150.06 -58.9526 165.311 -64.7085 180.852 -59.4548C198.824 -53.3905 209.847 -37.9059 223.193 -28.1923C231.959 -21.8102 242.486 -14.9485 255.173 -18.7896C268.664 -22.8786 279.946 -13.8987 293.495 -15.8903C296.445 -16.335 300.336 -16.9624 304.624 -17.7506C318.54 -20.4371 326.728 -25.2765 335.17 -33.8235C341.715 -40.439 346.821 -47.9531 358.716 -49.3181C359.283 -49.3879 359.857 -49.4307 360.435 -49.4464C390.115 -50.2529 406.315 -5.1867 433.762 -11.692C452.704 -16.1702 465.826 -44.5197 477.493 -56.8867C486.603 -66.5422 497.17 -76.8322 512.728 -80.7337C522.699 -83.3033 533.274 -84.4979 543.994 -84.2654C565.537 -83.5788 595.55 -74.673 603.538 -56.5835" stroke="#9AD1F6" stroke-width="0.399036" stroke-miterlimit="10"/>
<path d="M-6.29311 -2.31257C-5.96816 -11.8836 -2.91614 -21.1469 2.64573 -29.4431C7.40597 -36.6859 13.9317 -43.8343 23.1659 -47.6458C27.4967 -49.5361 32.6387 -50.1547 37.7098 -49.3956C51.5282 -47.0772 62.9987 -38.3558 76.2285 -35.1524C80.4799 -34.0272 85.0084 -34.0431 89.0596 -35.1974C106.66 -40.4983 121.155 -52.4002 136.763 -59.8009C149.179 -65.7091 164.035 -71.907 179.633 -66.8635C197.904 -60.9396 209.114 -45.2715 221.49 -34.2852C229.233 -27.4007 240.284 -18.1515 253.297 -21.9208C267.133 -25.9276 279.439 -15.9145 293.496 -18.0451C296.446 -18.4898 300.243 -19.2011 304.402 -20.0452C328.564 -24.9809 334.034 -49.2056 357.281 -51.9534C357.849 -52.0219 358.423 -52.0673 359.001 -52.0895C389.233 -52.9655 404.517 -7.67324 432.369 -13.6388C451.302 -17.7 464.412 -46.7184 475.879 -59.0854C484.965 -68.8886 495.715 -79.1322 511.418 -82.8472C521.502 -85.3177 532.16 -86.4247 542.945 -86.122C564.857 -85.286 595.046 -76.198 602.657 -57.5915" stroke="#9AD1F6" stroke-width="0.399036" stroke-miterlimit="10"/>
<path d="M-7.11597 -5.00151C-7.09582 -15.1211 -3.65863 -24.3741 1.18582 -33.1664C5.33351 -40.7009 12.2599 -48.0496 21.7014 -51.9324C26.1257 -53.7986 31.3049 -54.4599 36.4603 -53.8168C50.7116 -52.0487 62.0466 -43.1589 75.1184 -39.5165C79.3635 -38.2386 83.974 -38.2256 88.0232 -39.4801C105.787 -45.356 120.262 -58.2895 136.139 -66.2684C148.244 -72.3673 162.77 -78.6859 178.41 -73.9025C196.946 -68.2679 208.304 -52.445 219.805 -40.7935C226.959 -33.5385 237.879 -22.014 251.47 -25.4637C265.602 -29.0646 278.367 -17.8459 293.172 -20.191C296.111 -20.6369 299.829 -21.382 303.879 -22.2795C327.398 -27.5186 332.968 -51.6991 355.948 -54.4874C356.516 -54.5559 357.09 -54.6014 357.668 -54.6236C388.34 -55.5907 402.842 -10.2328 430.961 -15.6433C449.777 -19.2605 463.016 -48.9063 474.285 -61.2735C483.358 -71.2309 494.297 -81.3953 510.223 -84.9705C520.433 -87.321 531.182 -88.3206 542.036 -87.9291C564.389 -86.9428 594.696 -77.7117 601.873 -58.6275" stroke="#9AD1F6" stroke-width="0.399036" stroke-miterlimit="10"/>
<path d="M-7.95645 -7.70859C-8.12462 -18.0842 -4.91277 -27.7185 -0.225422 -36.8515C3.658 -44.6192 10.633 -52.1951 20.2856 -56.1809C24.8212 -58.067 30.0524 -58.8517 35.3409 -58.4392C49.9346 -57.3368 61.3807 -48.329 74.3238 -44.3163C76.4167 -43.6253 78.6414 -43.2606 80.8647 -43.2439C83.088 -43.2273 85.2642 -43.5591 87.263 -44.2195C105.156 -50.4656 119.437 -64.299 135.468 -72.5968C147.395 -78.7737 161.483 -84.7677 177.121 -80.3946C195.963 -75.1248 207.235 -59.7064 218.135 -47.5893C224.947 -40.0142 235.55 -26.4862 249.6 -29.4137C264.228 -32.4557 276.451 -19.7836 292.348 -22.3493C295.298 -22.794 298.927 -23.582 302.815 -24.5234C325.749 -30.1072 331.778 -54.1995 354.496 -56.9796C355.069 -57.0465 355.651 -57.1042 356.207 -57.1249C387.202 -58.1732 401.111 -12.8393 429.384 -17.7085C448.025 -20.9208 461.563 -51.1333 472.576 -63.4592C481.642 -73.6105 492.802 -83.6193 508.897 -87.0373C519.231 -89.2642 530.071 -90.1512 540.993 -89.6639C563.846 -88.4881 594.133 -79.1711 600.923 -59.6597" stroke="#9AD1F6" stroke-width="0.399036" stroke-miterlimit="10"/>
<path d="M-8.78888 -10.4069C-9.0888 -20.831 -6.69443 -31.0635 -1.74672 -40.502C2.42348 -48.3071 8.36012 -56.0257 18.8673 -60.3334C23.5333 -62.2986 28.8424 -63.2811 34.2985 -63.1891C49.2056 -62.7722 60.9369 -53.8743 73.7661 -49.4414C75.8524 -48.6858 78.0972 -48.2813 80.3449 -48.256C82.5926 -48.2307 84.7894 -48.5852 86.7829 -49.2949C104.725 -55.7761 118.691 -70.283 134.795 -78.6605C146.569 -84.7916 160.057 -90.0548 175.698 -86.1396C194.818 -81.3504 205.958 -66.9128 216.469 -54.5136C223.15 -46.6329 233.396 -31.5485 247.782 -33.7194C263.216 -36.0844 273.764 -21.6787 291.076 -24.5304C294.042 -25.0213 297.563 -25.7823 301.366 -26.7099C324.428 -32.3103 330.316 -56.6207 353.109 -59.4158C353.682 -59.4827 354.262 -59.5326 354.819 -59.5532C386.009 -60.5777 399.559 -15.4645 427.81 -19.8138C446.196 -22.6472 460.069 -53.3815 470.92 -65.6629C479.999 -75.9251 491.346 -85.8388 507.64 -89.0799C518.098 -91.1789 529.028 -91.9508 540.019 -91.3665C563.264 -90.0626 593.602 -80.7473 600.05 -60.7389" stroke="#9AD1F6" stroke-width="0.399036" stroke-miterlimit="10"/>
<path d="M-9.61089 -13.0958C-10.5161 -31.4079 -3.99555 -55.2474 17.4481 -64.4698C45.083 -76.379 64.7033 -47.1203 86.4647 -54.5754C114.535 -64.2208 135.463 -99.5064 174.082 -90.9753C193.187 -86.7507 203.74 -74.3544 214.193 -62.1712C221.518 -53.6573 231.289 -36.8217 245.972 -38.3375C255.309 -39.3066 259.04 -34.0605 266.642 -30.9959C278.865 -26.0499 286.64 -25.2636 299.749 -28.7882C322.074 -34.7837 329.169 -59.2204 351.716 -61.7963C383.923 -65.4144 397.241 -17.9658 426.183 -21.9896C441.529 -24.1402 449.883 -44.9263 457.898 -54.8599C469.563 -69.2772 483.821 -87.4709 506.417 -91.0537C535.742 -95.7303 589.935 -92.9399 599.123 -61.7924" stroke="#9AD1F6" stroke-width="0.399036" stroke-miterlimit="10"/>
</g>
</g>
<defs>
<clipPath id="clip0_137_2859">
<rect width="390" height="80" rx="12" fill="white"/>
</clipPath>
<clipPath id="clip1_137_2859">
<rect width="648.215" height="282.749" fill="white" transform="translate(6.78662 -158) rotate(6.94502)"/>
</clipPath>
</defs>
</svg>
