<svg width="432" height="122" viewBox="0 0 432 122" fill="none" xmlns="http://www.w3.org/2000/svg">
<g filter="url(#filter0_d_137_2859)">
<g clip-path="url(#clip0_137_2859)">
<rect x="19" y="15" width="390" height="81" rx="8" fill="white"/>
<g opacity="0.25" clip-path="url(#clip1_137_2859)">
<path d="M52.1322 135.505C62.8187 143.97 77.212 147.404 91.0498 149.564C119.567 154.01 121.827 123.526 142.783 123.457C161.031 123.389 172.872 119.549 182.802 107.791C199.618 87.9066 225.823 100.521 241.751 114.698C266.412 136.643 292.311 166.185 333.974 159.079C365.506 153.707 384.48 142.013 398.82 119.544C404.866 110.07 411.034 99.421 414.119 88.9431C417.203 78.4652 413.948 63.4847 427.3 57.8753C453.872 46.5441 494.108 68.6582 522.901 64.3188C543.979 61.0977 552.468 53.6178 544.978 35.7335C534.623 11.1571 573.904 6.44694 595.971 3.86091C615.145 1.60575 644.916 11.1173 661.142 0.873479" stroke="#AFDFFF" stroke-width="0.399036" stroke-miterlimit="10"/>
<path d="M51.2577 132.134C61.8666 140.293 75.9963 143.573 89.5527 145.554C105.379 147.868 116.226 137.162 123.889 128.231C129.175 122.073 134.597 116.527 140.726 116.751C159.562 117.437 169.69 113.325 180.604 102.241C183.33 99.2805 186.795 96.7882 190.812 94.8978C209.334 86.9194 226.927 98.7582 239.133 108.823C252.552 119.913 265.538 134.551 281.12 144.103C297.795 154.294 314.053 158.036 334.391 155.834C346.795 154.483 360.972 151.032 370.268 145.081C381.608 137.796 390.129 127.908 397.504 117.398C398.986 115.271 400.328 112.918 401.64 110.553C406.827 101.184 410.513 92.6362 412.51 82.4198C414.423 72.6354 411.949 61.2794 423.048 55.1143C423.476 54.8704 423.932 54.6569 424.412 54.4764C452.468 43.6556 491.955 66.3379 520.941 62.3917C542.741 59.4194 549.166 51.6397 541.864 33.7543C536.499 20.6473 546.763 13.6166 559.696 9.30687C570.286 5.77308 583.492 4.02906 595.704 2.71083C615.015 0.617082 644.102 9.73181 660.269 -0.101283" stroke="#AFDFFF" stroke-width="0.399036" stroke-miterlimit="10"/>
<path d="M50.3821 128.683C61.1885 136.334 74.7215 139.366 88.0338 140.947C104.047 142.841 114.468 130.66 121.975 121.63C127.242 115.293 132.645 109.897 138.715 110.09C156.82 110.687 166.952 107.226 178.564 97.1116C181.43 94.4988 185.005 92.4126 189.062 90.9859C207.851 84.7685 223.378 93.3972 236.502 103.389C250.853 114.295 264.681 128.634 280.079 138.581C296.638 149.289 313.887 154.598 334.762 152.614C346.692 151.471 360.413 147.981 369.353 141.954C380.315 134.441 389.394 125.429 396.189 115.316C397.653 113.17 399.048 110.896 400.385 108.591C406.009 98.7199 408.57 90.4777 409.971 79.5776C411.25 69.5953 408.801 58.0334 420.243 51.8859C420.682 51.6473 421.144 51.4349 421.627 51.2505C450.087 40.7201 489.92 64.2564 518.998 60.5788C541.294 57.7473 545.49 49.6399 538.813 31.8627C533.741 18.3171 546.023 11.9743 559.184 8.01407C570.101 4.721 583.194 2.95525 595.452 1.60243C614.714 -0.521351 642.956 8.24908 659.372 -1.06312" stroke="#AFDFFF" stroke-width="0.399036" stroke-miterlimit="10"/>
<path d="M49.5142 125.169C59.83 131.956 73.5709 135.254 86.4886 135.871C103.117 136.658 112.547 124.035 120.085 114.92C125.357 108.543 130.757 103.429 136.767 103.606C153.038 104.06 165.423 101.332 176.694 92.4703C179.822 90.2006 183.564 88.4885 187.686 87.4418C206.182 82.0812 220.599 88.7497 234.13 98.4938C248.961 109.144 263.332 122.802 278.757 132.873C295.789 143.992 313.747 150.939 334.959 149.278C347.263 148.243 358.744 144.576 368.142 138.68C379.014 131.575 388.064 122.959 394.876 113.227C396.357 111.108 397.761 108.851 399.144 106.511C405.319 96.0634 406.476 88.1084 407.258 76.5381C407.94 66.3946 405.738 54.6939 417.566 48.6337C418.012 48.3952 418.481 48.1837 418.971 48.0008C447.873 37.87 488.043 62.1628 517.093 58.715C539.631 56.0415 541.67 47.4543 535.85 29.9263C531.269 16.0465 545.542 10.4287 558.9 6.74166C570.026 3.70719 583.002 1.87093 595.267 0.470577C614.347 -1.70748 642.122 6.85345 658.509 -2.04429" stroke="#AFDFFF" stroke-width="0.399036" stroke-miterlimit="10"/>
<path d="M48.6263 121.636C58.9713 127.84 72.5741 130.47 84.9311 130.456C101.366 130.432 110.514 117.372 118.212 108.236C123.502 101.966 128.958 97.2522 134.907 97.4062C150.622 97.8893 162.83 95.662 175.011 88.5112C178.554 86.5978 182.479 85.1223 186.656 84.1329C204.784 79.4752 218.858 84.5019 232.278 94.0317C246.855 104.37 261.861 117.188 277.113 127.134C294.673 138.55 314.501 147.655 334.823 145.837C346.614 144.667 357.613 141.114 366.737 135.526C377.658 128.866 386.773 120.623 393.626 111.209C395.125 109.117 396.529 106.86 397.966 104.502C403.677 95.1965 404.7 88.0049 404.751 77.5435C404.815 66.2956 401.146 52.2214 415.056 45.5465C415.515 45.313 415.995 45.1029 416.492 44.9174C445.849 35.0832 486.291 60.0604 515.17 56.8089C537.723 54.2739 537.808 45.1672 532.954 27.9498C528.992 13.8801 545.367 8.85602 558.687 5.47792C570.033 2.60698 582.883 0.779434 595.164 -0.675124C614.053 -2.9087 641.342 5.44023 657.7 -3.05096" stroke="#AFDFFF" stroke-width="0.399036" stroke-miterlimit="10"/>
<path d="M47.7499 118.104C58.1413 123.671 71.5831 125.477 83.3558 124.853C99.446 123.967 108.389 110.794 116.38 101.742C121.702 95.717 127.179 91.52 133.133 91.7227C148.298 92.2515 160.804 91.0172 173.674 84.9874C177.491 83.316 181.576 82.0085 185.845 81.0914C203.569 76.9231 217.406 80.5461 230.779 89.7807C245.074 99.6823 259.993 111.758 275.11 121.438C293.156 132.987 313.806 143.582 334.123 142.15C344.445 141.421 355.603 137.86 365.231 132.537C376.318 126.353 385.508 118.392 392.237 109.142C393.753 107.076 395.153 104.762 396.654 102.485C407.808 85.5694 388.656 53.1519 412.531 42.5935C413.013 42.3604 413.517 42.1531 414.039 41.9732C443.919 32.3073 483.32 58.1064 512.883 54.8175C535.972 52.2594 533.789 42.8925 530.032 26.0179C526.965 11.9848 545.285 7.47095 558.603 4.36597C570.526 1.73258 582.703 -0.293953 595.06 -1.70119C613.768 -4.00489 640.528 4.14287 656.847 -3.94304" stroke="#AFDFFF" stroke-width="0.399036" stroke-miterlimit="10"/>
<path d="M46.8787 114.613C57.356 119.475 70.5762 120.354 81.7892 119.091C97.4226 117.321 106.165 104.333 114.592 95.4782C119.961 89.8451 125.506 86.2837 131.454 86.5418C146.166 87.1843 159.636 86.8714 172.68 81.7311C176.721 80.2617 180.944 79.0786 185.299 78.1951C202.797 74.2485 216.417 76.993 229.706 85.7188C243.557 94.8026 258.036 106.632 272.863 115.939C289.594 126.443 312.37 140.264 332.867 138.21C343.978 137.193 354.516 134.298 363.754 129.728C374.97 123.93 384.263 116.222 390.985 107.141C392.521 105.093 393.913 102.674 395.48 100.453C407.546 83.4313 383.08 50.7041 410.302 39.7817C410.81 39.5695 411.336 39.3812 411.876 39.2177C442.394 29.9832 479.001 53.8261 510.655 52.858C535.767 52.1382 529.431 37.7311 527.36 24.1007C525.239 10.1025 545.404 6.06267 558.654 3.17449C570.589 0.669042 582.724 -1.34136 595.011 -2.8485C613.532 -5.23941 639.74 2.71258 656.022 -4.97597" stroke="#AFDFFF" stroke-width="0.399036" stroke-miterlimit="10"/>
<path d="M46.0029 111.17C56.9633 115.584 69.6041 114.784 80.2302 113.361C94.8217 111.392 103.81 98.1844 112.853 89.6784C118.283 84.5754 123.916 81.7562 129.883 82.1052C144.657 82.932 158.278 83.3531 171.854 78.8242C176.062 77.5171 180.386 76.414 184.8 75.521C201.879 71.7486 215.621 73.4064 228.838 81.7778C242.26 90.2706 256.222 101.788 270.503 110.699C287.309 121.18 310.02 135.282 330.96 134.054C341.614 133.43 352.454 131.543 362.137 126.958C373.483 121.514 382.897 114.041 389.655 105.114C391.22 103.077 392.664 100.745 394.242 98.4365C406.223 80.9946 378.447 47.8964 408.197 37.1613C408.732 36.9692 409.289 36.7797 409.841 36.6219C440.823 27.9583 476.614 51.4607 508.266 51.0231C533.444 50.7052 525.726 35.2936 524.777 22.3145C523.781 8.5256 545.473 4.897 558.789 2.16146C570.421 -0.224441 582.817 -2.19559 594.943 -3.82992C613.306 -6.29636 638.92 1.4707 655.185 -5.8259" stroke="#AFDFFF" stroke-width="0.399036" stroke-miterlimit="10"/>
<path d="M45.1371 107.8C56.2007 111.367 68.5421 109.678 78.6596 107.711C92.8333 104.967 101.236 92.3637 111.13 84.4197C116.656 79.9876 122.289 78.1091 128.29 78.5345C143.119 79.5931 157.266 80.2391 171.151 76.1741C175.486 74.9062 179.926 73.8365 184.451 72.9703C201.57 69.7253 214.327 69.438 228.296 77.8931C241.331 85.784 254.812 97.0576 268.543 105.669C285.596 116.356 307.783 130.033 328.872 129.989C339.682 129.971 350.586 128.671 360.572 124.267C372.055 119.125 381.603 111.841 388.414 103.025C390.141 100.881 391.707 98.6556 393.103 96.3604C403.249 79.0567 375.115 44.6928 406.396 34.6909C406.961 34.5105 407.547 34.3327 408.13 34.1865C439.419 26.1715 474.539 49.182 505.944 49.1404C530.888 49.1156 522.205 32.6941 522.373 20.4138C522.55 7.12159 545.495 3.76615 559.007 1.13491C570.646 -1.13756 582.886 -3.19216 594.901 -4.86406C613.098 -7.43105 638.096 0.164407 654.345 -6.74024" stroke="#AFDFFF" stroke-width="0.399036" stroke-miterlimit="10"/>
<path d="M44.2676 104.559C55.774 106.893 66.9598 104.823 77.0944 102.286C90.8303 98.8464 98.4596 86.9282 109.456 79.8904C111.754 78.3018 114.474 77.1131 117.453 76.3966C120.431 75.68 123.605 75.4505 126.782 75.7219C141.751 76.8377 156.362 77.6206 170.53 73.815C174.851 72.6611 179.531 71.5749 184.076 70.6413C200.804 67.2682 214.036 66.251 227.863 74.158C240.565 81.4376 253.675 92.5776 266.835 100.902C285.019 112.435 305.861 124.364 326.662 126.166C337.935 127.21 349.144 125.673 358.893 121.747C370.536 116.869 380.245 109.741 387.144 101.005C389.009 98.8914 390.515 96.5905 391.627 94.1544C398.6 76.207 372.176 41.5369 404.832 32.4261C405.428 32.2574 406.021 32.1046 406.623 31.9689C438.328 25.0094 472.23 47.0275 503.562 47.3307C528.273 47.5831 519.111 30.468 520.208 18.5421C521.393 5.63798 545.871 2.57372 559.313 0.0867367C570.968 -2.06314 582.964 -4.17954 594.855 -5.93905C612.949 -8.60699 637.265 -1.15896 653.519 -7.68499" stroke="#AFDFFF" stroke-width="0.399036" stroke-miterlimit="10"/>
<path d="M43.4059 101.423C54.911 102.824 65.7141 100.121 75.5505 97.1139C88.6597 93.1553 95.6595 81.7715 107.764 76.1951C112.967 73.8277 119.13 72.8857 125.327 73.5107C140.495 74.6187 155.537 75.3897 169.929 71.708C174.332 70.58 179.045 69.4738 183.641 68.466C200.04 64.8759 213.707 63.1158 227.515 70.4979C239.96 77.1431 252.71 88.1429 265.376 96.3185C283.358 107.875 303.735 119.764 324.42 122.525C335.109 123.931 346.524 123.408 357.218 119.284C369.03 114.641 378.911 107.645 385.919 98.9665C387.736 96.807 389.015 94.3867 389.695 91.8209C394.012 73.5498 369.043 38.2531 403.429 30.559C404.043 30.4166 404.674 30.2926 405.305 30.1765C437.371 24.3704 469.84 44.9436 501.186 45.6425C525.712 46.218 516.017 28.1537 518.29 16.789C520.784 4.29361 545.979 1.59821 559.68 -0.865327C571.264 -2.94351 583.071 -5.1392 594.8 -6.95047C612.964 -9.75474 635.972 -2.64285 652.694 -8.54909" stroke="#AFDFFF" stroke-width="0.399036" stroke-miterlimit="10"/>
<path d="M42.549 98.4162C53.9871 98.9091 64.5831 95.6734 74.0162 92.2881C86.0362 88.0038 93.6116 77.3012 106.1 73.291C111.791 71.4517 117.662 71.3067 123.912 71.7384C139.294 72.8081 154.73 73.4341 169.302 69.7341C173.79 68.5924 178.51 67.4228 183.142 66.2987C197.035 62.9421 213.518 58.7432 227.172 66.7899C239.961 74.2972 251.934 83.6989 264.156 91.748C281.863 103.416 301.617 115.269 322.194 118.829C333.096 120.719 344.456 120.736 355.442 116.704C367.375 112.272 378.042 105.452 384.552 96.7176C386.102 94.4001 387.015 91.8348 387.237 89.1738C389.535 70.7373 366.432 35.0568 402.264 28.8814C402.915 28.7757 403.577 28.6634 404.236 28.5669C436.36 23.8292 467.647 42.9479 498.829 43.884C522.991 44.6083 512.995 25.5827 516.551 14.929C520.521 3.01541 545.808 0.596499 560.081 -1.92605C571.565 -3.96007 583.161 -6.22171 594.72 -8.09392C612.772 -11.0162 635.105 -4.02677 651.873 -9.53353" stroke="#AFDFFF" stroke-width="0.399036" stroke-miterlimit="10"/>
<path d="M41.704 95.5641C52.954 95.1979 63.2461 91.5393 72.5051 87.8675C83.6412 83.4595 91.9624 74.0134 104.47 71.0428C110.336 69.6589 116.169 69.9996 122.507 70.3939C138.068 71.3648 153.903 71.8062 168.615 67.8982C173.141 66.7048 177.873 65.4402 182.51 64.188C196.355 60.4478 212.797 55.8178 226.733 63.0948C239.506 69.7881 251.253 79.2427 263.096 87.2216C280.478 98.9866 299.664 110.875 319.992 115.184C330.998 117.513 342.383 118.185 353.67 114.165C365.537 109.935 377.515 103.338 382.69 94.3204C383.872 92.2535 384.29 89.3378 384.386 86.4874C385.12 67.4181 363.9 32.586 401.344 27.5879C402.013 27.5006 402.705 27.3999 403.394 27.323C435.448 23.5818 465.613 41.1891 496.493 42.2894C520.284 43.1452 510.181 22.9329 514.995 13.1883C520.535 2.03665 545.367 -0.164342 560.498 -2.87171C571.879 -4.91036 583.268 -7.1971 594.599 -9.16947C612.495 -12.2636 634.221 -5.3561 651.043 -10.4463" stroke="#AFDFFF" stroke-width="0.399036" stroke-miterlimit="10"/>
<path d="M40.863 92.8723C51.8712 91.7451 61.9892 87.8 71.0129 83.9145C81.2365 79.5321 90.5946 71.4424 102.848 69.4457C108.788 68.4809 114.663 68.9876 121.07 69.3339C136.896 70.1923 153.066 70.2807 167.819 66.1284C172.366 64.8412 177.091 63.4631 181.715 62.0567C195.535 57.8469 211.722 52.7277 226.103 59.3595C238.968 65.3001 250.582 74.7305 262.147 82.6755C279.336 94.4813 297.804 106.507 317.842 111.489C328.86 114.23 340.341 115.564 351.867 111.565C363.392 107.566 376.549 101.499 380.25 91.7073C381.044 89.0784 381.348 86.3521 381.153 83.6088C380.651 63.5287 361.65 30.4783 400.654 26.4903C401.352 26.4226 402.063 26.3403 402.77 26.2817C434.637 23.394 463.775 39.4772 494.202 40.6912C517.638 41.6245 507.66 20.567 513.774 11.4713C520.884 0.904787 545.197 -1.06998 560.93 -3.91306C572.1 -5.93719 583.302 -8.31115 594.423 -10.2848C612.249 -13.492 633.282 -6.6448 650.201 -11.3292" stroke="#AFDFFF" stroke-width="0.399036" stroke-miterlimit="10"/>
<path d="M40.0306 90.3508C50.6992 88.5791 60.3946 84.4137 69.5403 80.4708C79.4713 76.1733 89.2653 69.5678 101.237 68.2524C107.254 67.6024 113.141 68.0945 119.603 68.4233C135.644 69.1392 152.15 68.8745 166.878 64.3252C171.419 62.9167 176.141 61.3935 180.724 59.8131C194.453 55.0538 210.2 49.5191 225.142 55.5761C238.283 60.8751 249.818 70.1028 261.205 78.0502C278.199 89.9126 296.019 102.109 315.72 107.708C326.672 110.819 338.327 112.874 350.072 108.878C361.551 105.002 374.929 99.5247 377.295 88.9352C377.776 86.2003 377.874 83.4144 377.586 80.6254C376.118 59.3825 359.951 28.6311 400.2 25.4941L402.363 25.3314C433.596 23.3554 462.132 37.9502 492.007 39.2257C515.169 40.1819 505.378 18.6166 512.905 9.94205C521.672 -0.165166 545.196 -1.92256 561.387 -4.91892C572.326 -6.93897 583.33 -9.40139 594.231 -11.4502C611.999 -14.785 632.371 -8.00224 649.405 -12.2626" stroke="#AFDFFF" stroke-width="0.399036" stroke-miterlimit="10"/>
<path d="M39.2077 88.0079C49.4772 85.7374 58.9225 81.5656 68.1013 77.7795C78.0043 73.7117 87.8486 68.2379 99.6821 67.372C105.758 66.9222 111.618 67.3788 118.134 67.6096C134.382 68.1738 151.183 67.5432 165.795 62.4893C170.322 60.9344 175.013 59.2386 179.535 57.4739C193.112 52.1574 208.082 46.2226 223.804 51.7073C237.409 56.4678 248.954 65.351 260.238 73.286C277.047 85.1178 294.32 97.6091 313.691 103.772C324.549 107.225 336.432 109.894 348.265 106.029C360.098 102.165 372.36 97.0094 373.824 85.9321C374.07 83.158 374.023 80.3587 373.684 77.5617C371.528 55.1014 358.85 27.0261 399.865 24.7301C400.601 24.6912 401.339 24.6364 402.074 24.6133C432.591 23.3701 460.689 36.577 489.86 37.7989C512.738 38.7687 503.15 16.9066 512.242 8.51909C522.742 -1.13591 545.238 -2.78526 561.793 -5.93828C572.493 -7.97134 583.261 -10.5589 593.966 -12.6237C611.708 -16.0903 631.427 -9.35483 648.604 -13.1556" stroke="#AFDFFF" stroke-width="0.399036" stroke-miterlimit="10"/>
<path d="M38.3835 85.761C48.2654 83.1539 57.5291 79.1851 66.6848 75.5891C76.5627 71.7273 86.514 67.2634 98.0369 66.5446C104.122 66.1844 109.97 66.4947 116.505 66.6476C132.941 67.0417 150.023 66.0834 164.467 60.4303C168.954 58.6935 173.604 56.8159 178.035 54.8473C192.882 48.2945 205.525 44.7293 221.644 47.9871C235.211 50.7412 247.804 60.4595 259.02 68.3461C275.62 80.0157 292.609 92.9468 311.649 99.6799C322.415 103.459 334.52 106.542 346.446 103.026C357.984 99.6078 369.199 93.5211 369.948 82.9115C370.038 80.1011 369.897 77.2777 369.525 74.4584C367.049 50.7613 358.474 25.5654 399.755 24.0817C400.49 24.0586 401.247 24.0222 401.99 24.0083C431.639 23.3748 459.439 35.3316 487.823 36.4977C510.549 37.4249 500.958 15.3372 511.847 7.20887C524.106 -1.95847 545.38 -3.61202 562.198 -6.95008C572.631 -9.01575 583.168 -11.6877 593.586 -13.8034C611.323 -17.3913 630.43 -10.6982 647.78 -14.0277" stroke="#AFDFFF" stroke-width="0.399036" stroke-miterlimit="10"/>
<path d="M37.5648 83.563C47.1016 80.7852 56.1362 76.9815 65.2861 73.6903C75.2999 70.0862 85.0458 66.4496 96.4378 65.6906C102.554 65.3565 108.712 65.2853 114.882 65.4771C131.47 65.737 148.719 64.4373 162.953 58.1878C167.373 56.2338 172.09 54.1473 176.247 52.0247C189.616 45.2517 203.408 42.8073 218.456 44.8976C232.846 46.8997 246.104 55.3645 257.517 63.1865C274.032 74.5162 290.244 87.0472 309.565 95.2535C319.86 99.6351 333.38 103.203 344.565 99.6778C355.751 96.1521 365.221 89.6278 365.592 79.6314C365.679 77.2864 365.351 74.2315 365.06 71.2133C362.621 46.4433 358.705 24.1867 399.671 23.4043C400.425 23.3916 401.191 23.3723 401.932 23.3742C430.663 23.2399 458.206 34.1362 485.767 35.194C508.44 36.0424 498.612 13.8375 511.518 5.88252C525.52 -2.75088 545.391 -4.46289 562.429 -8.07149C572.598 -10.2015 582.886 -12.9681 593.034 -15.1006C610.775 -18.8086 629.333 -12.1504 646.872 -14.9744" stroke="#AFDFFF" stroke-width="0.399036" stroke-miterlimit="10"/>
<path d="M36.7438 81.5413C45.9504 78.6429 54.8737 75.0668 63.8922 72.0812C73.8252 68.7969 83.7911 65.7578 94.8299 64.7227C100.898 64.1358 107.035 63.8628 113.201 63.9054C129.912 64.0115 147.31 62.4325 161.256 55.5529C165.628 53.3841 170.126 51.3834 174.044 49.513C186.898 43.3527 199.907 41.0782 214.549 42.3874C229.19 43.6965 243.511 51.0767 255.358 58.2521C272.344 68.5459 288.479 81.9679 307.503 90.6366C317.326 95.1134 331.71 99.9125 342.132 96.0447C351.981 92.4206 360.767 85.8531 361.025 76.3574C361.096 74.0586 360.777 71.013 360.544 68.034C358.594 42.4231 359.693 23.0205 399.83 22.8607C400.583 22.8559 401.369 22.8391 402.109 22.8569C429.12 23.5422 457.228 33.0602 483.934 34.0138C503.292 34.6997 501.549 11.5098 511.467 4.66211C523.645 -3.75138 545.372 -5.43019 562.701 -9.1963C572.707 -11.3622 582.583 -14.2674 592.502 -16.4038C610.329 -20.2218 628.336 -13.5904 646.079 -15.859" stroke="#AFDFFF" stroke-width="0.399036" stroke-miterlimit="10"/>
<path d="M35.9401 79.5622C44.817 76.6236 53.4352 73.2355 62.4985 70.5689C72.5278 67.6099 82.5449 64.9228 93.1797 63.4284C99.1741 62.4505 105.304 61.8976 111.496 61.7763C128.391 61.7441 145.264 59.5865 159.255 52.7606C163.377 50.7544 167.681 49.1481 171.395 47.4941C182.837 42.2873 196.071 39.0192 209.939 40.2422C225.274 41.6117 239.284 47.2496 251.619 53.7689C269.434 63.1748 286.843 77.4674 305.234 85.5767C314.845 89.8267 328.447 95.64 338.268 91.9C346.864 88.6136 355.775 82.1337 356.138 72.9725C356.233 70.7329 355.973 67.7185 355.869 64.8034C354.869 38.6813 361.187 21.9162 400.017 22.2725C400.78 22.277 401.554 22.2748 402.303 22.3017C428.417 23.304 456.221 32.1497 482.139 32.8788C500.774 33.4121 500.92 10.0745 511.49 3.44304C524.359 -4.63703 545.51 -6.39402 562.797 -10.4066C572.477 -12.6443 582.116 -15.6589 591.745 -17.8224C609.542 -21.8211 627.267 -15.1034 645.233 -16.7982" stroke="#AFDFFF" stroke-width="0.399036" stroke-miterlimit="10"/>
<path d="M35.1289 77.6383C35.1289 77.6383 42.4825 74.2489 61.121 69.0906C70.9854 66.3688 81.3672 63.8628 91.5855 61.7549C97.633 60.5057 103.431 58.9046 109.776 58.8977C126.338 58.8649 142.649 56.5908 156.959 50.4952C160.94 48.7933 164.98 47.3799 168.423 45.8859C179.458 41.1039 191.786 37.7254 205.052 38.4891C220.226 39.3727 234.216 43.9712 246.864 49.805C265.272 58.3021 283.264 71.7494 301.586 80.1718C310.622 84.3356 324.213 90.8391 333.181 87.3247C341.139 84.2099 350.408 78.4811 351.024 69.5597C351.184 67.3923 351.052 64.4418 351.095 61.6009C351.558 35.3997 363.075 20.9161 400.247 21.6734C401.007 21.6937 401.781 21.6914 402.518 21.733C427.774 23.0085 455.229 31.3695 480.425 31.8419C490.436 32.0402 492.509 28.1444 496.433 22.5362C502.571 13.7649 501.008 8.40494 511.581 2.26422C524.933 -5.48376 545.673 -7.47566 562.744 -11.603C572.135 -13.8758 581.561 -17.1173 590.854 -19.2656C608.472 -23.3343 626.208 -16.6233 644.363 -17.6438" stroke="#AFDFFF" stroke-width="0.399036" stroke-miterlimit="10"/>
<path d="M34.3233 75.7633C34.3233 75.7633 41.25 72.2736 59.7247 67.6018C69.7656 65.0623 80.0501 62.4962 89.9667 59.6039C96.0142 57.8402 101.89 55.4285 108.074 55.3778C123.842 55.2484 140.125 54.1526 154.403 48.7525C158.217 47.3037 162.051 46.0341 165.352 44.6755C175.915 40.254 187.331 36.6359 199.997 37.0049C214.798 37.433 228.618 41.1987 241.333 46.3092C260.086 53.8515 278.521 65.9859 296.572 74.7451C305.168 78.9196 317.929 85.8848 327.185 82.494C337.321 78.744 342.99 74.8519 345.893 66.2091C346.52 64.3238 346.204 61.2543 346.456 58.5032C348.828 32.6792 365.284 20.0353 400.621 21.0997C401.381 21.12 402.163 21.1349 402.889 21.1831C427.342 22.6985 454.365 30.7417 478.936 30.9448C489.053 31.0357 490.796 26.9387 494.891 21.3835C501.442 12.4856 500.718 7.27606 511.87 1.18976C525.531 -6.27123 545.825 -8.54267 562.655 -12.8439C571.793 -15.1799 580.862 -18.6658 590.024 -20.7657C607.777 -24.7456 625.251 -18.2032 643.57 -18.5043" stroke="#AFDFFF" stroke-width="0.399036" stroke-miterlimit="10"/>
<path d="M33.5172 73.8805C33.5172 73.8805 40.0741 70.3377 58.3724 65.9982C68.7176 63.6441 78.7245 60.5889 88.2822 56.8664C94.3162 54.4418 100.018 52.2581 106.211 52.297C121.932 52.387 137.236 52.2895 151.689 47.3369C155.354 46.0869 159.1 44.9353 162.131 43.6563C172.861 39.1426 183.133 36.165 194.9 35.5884C208.112 34.9064 222.739 38.7383 235.289 43.1452C254.088 49.7123 272.523 60.7291 290.444 69.2715C298.811 73.2654 311.413 80.4202 320.455 77.3249C328.637 74.5187 338.449 71.2841 340.571 62.6989C341.078 60.6863 341.253 57.9582 341.753 55.3097C346.438 30.3221 367.36 19.0343 400.885 20.296C401.645 20.3242 402.405 20.3445 403.13 20.4007C426.867 22.1263 453.36 30.0647 477.414 29.9637C487.653 29.9165 489.075 25.6197 493.356 20.0793C500.285 11.0826 500.433 6.00349 512.073 -0.0555285C525.927 -7.29212 545.78 -9.81015 562.258 -14.3071C571.157 -16.7365 579.929 -20.4515 589.052 -22.4034C607.009 -26.2539 624.277 -19.8171 642.659 -19.4431" stroke="#AFDFFF" stroke-width="0.399036" stroke-miterlimit="10"/>
<path d="M32.7114 71.9976C32.7114 71.9976 38.9087 68.403 56.9348 64.2394C67.7662 61.7318 77.1369 58.0012 86.5364 53.5184C91.7119 50.9198 97.8833 49.6506 104.237 49.8779C119.582 50.3079 134.617 50.7082 148.893 46.2647C152.329 45.2761 155.684 44.1444 158.943 42.8742C169.139 38.5526 178.881 35.1165 190.035 34.1677C202.52 33.0997 216.981 36.4933 229.151 40.243C247.729 45.9631 265.93 55.8098 283.647 63.9656C291.932 67.7806 304.267 74.8948 313.312 72.1215C321.762 69.5168 332.096 67.8251 335.309 59.3004C336.034 57.3788 336.423 54.7891 337.207 52.2959C344.726 28.4977 368.973 18.0571 401.15 19.4922C401.898 19.5271 402.658 19.5553 403.373 19.6102C426.5 21.535 452.33 29.5936 476.029 29.1439C486.39 28.9508 487.505 24.4316 491.963 18.8967C499.242 9.85428 500.458 4.76846 512.338 -1.20499C526.291 -8.22848 545.799 -10.9976 561.707 -15.7971C570.302 -18.3922 579.031 -22.1768 588.124 -24.052C606.223 -27.7887 623.405 -21.4186 641.864 -20.2957" stroke="#AFDFFF" stroke-width="0.399036" stroke-miterlimit="10"/>
<path d="M31.911 70.0746C31.911 70.0746 37.8077 66.4595 55.5351 62.2595C66.4585 59.6827 75.5555 54.4234 84.7121 50.3049C90.0742 47.903 96.0636 47.4748 102.179 47.8177C117.253 48.665 131.995 49.488 146.081 45.4072C149.451 44.5068 152.726 43.4284 155.882 42.1792C165.469 38.0408 175.136 34.2015 185.506 32.6508C197.221 30.862 211.225 34.4088 223.178 37.5371C241.625 42.3569 259.162 51.4796 276.459 58.7962C284.977 62.4066 297.156 69.0838 305.965 66.8766C314.774 64.6694 325.561 64.3272 330.149 55.9218C331.143 54.1133 331.775 51.6738 332.891 49.2854C343.249 27.1515 370.467 16.9522 401.398 18.4849C402.136 18.5185 402.873 18.5601 403.588 18.6149C427.08 20.3831 451.007 29.1265 474.806 28.287C485.299 27.9572 486.063 23.2265 490.736 17.6453C498.319 8.59966 500.694 3.43003 512.668 -2.45165C526.532 -9.26084 545.493 -12.2575 560.91 -17.3982C569.332 -20.2072 578.076 -23.9418 587.17 -25.7445C605.379 -29.3551 622.599 -23.0368 641.069 -21.1487" stroke="#AFDFFF" stroke-width="0.399036" stroke-miterlimit="10"/>
<path d="M31.0956 68.1098C31.0956 68.1098 36.7628 64.4909 54.1155 60.0201C64.7744 57.2986 73.3244 50.9516 82.8138 47.5329C88.0946 45.6275 94.0048 45.5917 100.08 46.0905C114.94 47.3218 129.406 48.5292 143.338 44.6789C146.633 43.832 149.815 42.7701 152.85 41.5041C162.214 37.3144 171.54 32.8386 181.473 30.9212C192.617 28.7653 205.983 32.138 217.639 34.8763C235.302 39.0137 252.446 47.1559 269.198 53.8757C277.839 57.3401 289.683 63.679 298.64 61.715C307.987 59.6377 319.102 60.6378 325.167 52.6374C326.413 50.9883 327.373 48.6853 328.849 46.4371C342.107 26.2403 371.455 15.8019 401.555 17.3781C402.282 17.4184 402.998 17.4575 403.702 17.519C426.897 19.4038 449.912 28.7757 473.562 27.5241C484.198 26.9626 484.69 21.9815 489.549 16.415C497.367 7.40619 500.95 2.11024 512.904 -3.69348C526.646 -10.3568 544.721 -13.6381 559.864 -19.1017C568.274 -22.1534 577.012 -25.76 586.161 -27.4917C604.436 -30.9577 621.837 -24.7539 640.245 -22.0131" stroke="#AFDFFF" stroke-width="0.399036" stroke-miterlimit="10"/>
<path d="M30.2847 66.0902C30.2847 66.0902 36.0968 62.5693 52.6779 57.482C62.852 54.3638 70.5889 47.7408 80.8551 45.068C86.254 43.6514 91.946 43.8623 97.9596 44.5225C112.565 46.1327 126.911 47.7195 140.693 43.9875C143.96 43.1609 147.095 42.0834 150.053 40.7702C159.19 36.384 168.338 31.3077 178.056 28.8494C188.647 26.1679 201.738 29.3946 212.792 32.0998C229.323 36.1717 245.966 43.0227 262.161 49.1681C270.933 52.4958 282.959 58.6318 291.561 56.6647C300.805 54.5748 313.241 57.0866 320.474 49.4535C321.914 47.9246 323.294 45.7773 325.165 43.7218C341.4 25.6002 371.768 14.5063 401.604 16.1065C402.31 16.1443 403.038 16.1767 403.678 16.2466C425.571 18.6963 449.479 28.37 472.52 26.803C480.752 26.238 482.938 22.6211 487.076 18.0038C495.777 8.26642 499.738 1.40861 513.143 -4.9821C526.836 -11.4986 543.857 -15.1335 558.704 -20.9145C567.196 -24.2135 575.936 -27.6591 585.144 -29.279C603.494 -32.5832 621.17 -26.4986 639.428 -22.8676" stroke="#AFDFFF" stroke-width="0.399036" stroke-miterlimit="10"/>
<path d="M29.4736 63.9975C29.4736 63.9975 35.8445 60.609 51.243 54.5897C60.1846 51.1203 68.5624 44.7282 78.8776 42.7688C84.3332 41.7451 89.8877 42.1403 95.8408 42.9539C110.234 44.9322 124.54 46.9321 138.208 43.1943C141.487 42.38 144.608 41.2654 147.508 39.8731C156.719 35.0458 165.425 29.0554 175.377 26.2961C185.654 23.4477 197.941 26.2388 208.905 28.9973C224.411 32.9041 240.248 39.1665 255.642 44.6757C264.546 47.8667 276.054 53.5376 284.915 51.7628C294.941 49.7683 307.392 53.2787 316.116 46.358C317.864 44.963 319.55 43.0538 321.896 41.1287C341.417 25.1197 371.203 13.0545 401.49 14.6454C402.175 14.6806 402.893 14.7117 403.563 14.7854C425.202 17.3488 448.622 28.1127 471.583 26.0858C479.919 25.3566 481.839 21.5224 486.078 16.845C494.964 7.04975 499.99 0.112686 513.39 -6.31889C526.79 -12.7505 543.349 -17.0527 557.548 -22.8402C565.819 -26.2063 575.213 -29.9582 584.156 -31.12C602.338 -33.4798 619.729 -28.4831 638.658 -23.7495" stroke="#AFDFFF" stroke-width="0.399036" stroke-miterlimit="10"/>
<path d="M28.6519 61.8231C28.6519 61.8231 34.8406 58.2998 49.7794 51.4205C58.0215 47.6007 66.7422 41.998 76.881 40.6282C82.3235 39.8842 87.8307 40.4103 93.7767 41.3678C108.004 43.6796 122.36 46.1278 135.953 42.3166C139.254 41.4682 142.371 40.2831 145.226 38.7911C154.608 33.5022 163.431 26.6337 173.568 23.2215C183.705 19.8093 195.153 22.3616 206.185 25.4178C220.628 29.388 235.437 35.4128 249.883 40.3884C258.914 43.4823 269.781 48.6571 278.911 47.0759C289.762 45.1817 302.123 49.5094 312.242 43.4098C314.274 42.178 316.324 40.4499 319.149 38.7117C341.564 24.9447 370.384 11.4593 401.211 12.9874C401.876 13.0201 402.551 13.0621 403.191 13.124C426.172 15.2239 446.859 28.0908 470.689 25.3658C479.168 24.4048 480.787 20.3811 485.128 15.6359C494.157 5.7856 500.199 -1.25283 513.533 -7.74864C526.694 -14.1853 542.43 -19.1987 556.321 -24.8629C564.603 -28.2357 574.108 -31.9501 583.123 -33.0226C601.389 -35.2034 619.164 -30.361 637.86 -24.6587" stroke="#AFDFFF" stroke-width="0.399036" stroke-miterlimit="10"/>
<path d="M27.7971 59.5642C27.7971 59.5642 33.2624 55.0282 48.2704 47.9242C56.268 44.1389 64.9903 39.3806 74.8382 38.4255C80.3061 37.9017 85.7654 38.4783 91.6238 39.5537C105.752 42.159 120.217 45.0948 133.785 41.1438C137.176 40.2309 140.354 38.9457 143.229 37.3257C152.877 31.5787 160.797 23.6194 172.827 20.3655C184.057 17.3356 194.089 18.4693 204.693 21.3527C217.753 24.9213 231.495 31.7246 245.154 36.2988C254.192 39.3293 264.465 44.0698 273.752 42.6525C285.396 40.855 297.567 45.8831 308.917 40.665C311.242 39.5976 313.698 38.144 317.056 36.487C340.761 24.7502 370.18 9.86648 400.704 11.221C401.338 11.25 401.992 11.2894 402.623 11.3422C425.655 13.4562 445.837 27.9742 469.791 24.7418C478.358 23.5744 479.735 19.3122 484.181 14.4752C493.288 4.58619 500.327 -2.57197 513.534 -9.13955C526.373 -15.5109 541.225 -21.4199 555.008 -26.8802C563.431 -30.2038 572.933 -33.9022 582.006 -34.8471C600.33 -36.8199 618.622 -32.1799 636.986 -25.4808" stroke="#AFDFFF" stroke-width="0.399036" stroke-miterlimit="10"/>
<path d="M27.0378 57.2203C27.0378 57.2203 32.2272 51.2599 46.8261 44.5964C54.6627 41.0166 63.2734 36.8317 72.9424 36.1442C78.5136 35.8201 84.178 36.2705 89.672 37.4746C103.784 40.303 118.447 43.7534 132.015 39.6335C135.521 38.6563 138.776 37.255 141.667 35.479C151.355 29.1419 159.582 21.2441 172.459 17.9888C183.531 15.2212 193.646 15.6814 204.188 18.0349C216.643 20.8223 229.277 27.7157 241.706 32.2527C250.192 35.3605 260.5 39.6391 269.607 38.4169C281.953 36.7693 293.963 42.3565 306.235 38.0548C308.834 37.1493 311.931 35.7498 315.611 34.1962C339.907 23.9545 370.122 8.11455 399.929 9.09228C400.543 9.11877 401.177 9.14777 401.776 9.20469C424.896 11.2812 444.826 27.8669 468.96 24.0211C477.578 22.6912 478.861 18.1683 483.39 13.253C492.553 3.33062 500.414 -3.9686 513.479 -10.6501C525.95 -17.0098 540.061 -23.7889 553.7 -29.0095C562.253 -32.293 571.772 -35.9494 580.91 -36.8301C599.284 -38.6118 618.197 -34.0087 636.155 -26.3782" stroke="#AFDFFF" stroke-width="0.399036" stroke-miterlimit="10"/>
<path d="M26.1766 54.7679C26.1766 54.7679 30.3072 47.5449 45.2696 41.4162C53.7757 37.9179 61.3571 34.2025 70.9337 33.6727C76.505 33.3515 82.1685 33.7992 87.6643 34.9951C101.789 37.9699 116.757 41.9236 130.345 37.6374C134.019 36.6013 137.389 35.064 140.306 33.0944C149.55 26.454 159.156 18.8206 172.319 15.962C182.614 13.5851 193.723 13.4442 204.48 15.5542C215.847 17.9196 228.15 23.7517 239.736 28.2663C249.376 32.0213 258.845 35.7232 266.649 34.471C279.079 32.4798 292.516 38.0158 304.455 35.595C307.252 35.0352 310.726 33.4566 314.675 32.0161C339.216 23.0262 370.008 6.30791 398.926 6.86375C399.509 6.87856 400.123 6.90505 400.702 6.95154C423.969 8.93349 443.869 27.8309 468.267 23.358C476.82 21.795 478.073 17.0031 482.661 12.0307C491.849 2.07126 500.462 -5.39364 513.354 -12.2007C525.517 -18.5981 538.92 -26.0905 552.398 -31.186C561.043 -34.4503 570.686 -38.019 579.842 -38.7851C598.231 -40.3479 617.875 -35.8246 635.353 -27.2557" stroke="#AFDFFF" stroke-width="0.399036" stroke-miterlimit="10"/>
<path d="M25.3357 52.2299C25.3357 52.2299 29.2397 44.2075 43.7524 38.3375C51.9553 35.0114 59.427 31.5961 69.0573 30.9683C74.6171 30.5659 80.2897 30.9572 85.7979 32.1231C99.9398 35.1321 115.396 39.5393 128.977 35.1397C132.711 33.97 136.115 32.2959 139.039 30.1909C148.448 23.2329 158.86 16.5259 172.249 14.1369C182.935 12.2227 194.991 11.5849 205.37 13.7415C216.584 16.0722 228.11 20.3867 238.98 24.597C247.961 28.1029 256.226 31.9074 265.101 30.7856C277.981 29.1386 291.047 35.144 303.259 33.1424C306.188 32.6952 309.925 31.1888 314.114 29.8418C338.758 21.8936 369.592 4.48099 397.583 4.40938C398.148 4.40583 398.743 4.41397 399.313 4.45129C422.957 6.08519 442.742 27.8146 467.556 22.6769C476.038 20.9203 477.348 15.8299 481.973 10.8137C491.165 0.822595 500.323 -6.82516 513.098 -13.7911C525.011 -20.2833 537.659 -28.3501 551.023 -33.371C559.783 -36.6374 569.462 -40.0731 578.712 -40.7473C597.127 -42.0979 617.571 -37.6218 634.506 -28.1141" stroke="#AFDFFF" stroke-width="0.399036" stroke-miterlimit="10"/>
<path d="M24.4963 49.5952C24.4963 49.5952 28.1325 41.0256 42.1566 35.3052C50.0866 32.0744 57.4669 28.8089 67.1879 27.9509C72.7333 27.3654 78.4404 27.6211 83.9983 28.7042C98.0498 31.5977 114.024 36.3815 127.506 31.9377C131.194 30.7897 134.604 29.2077 137.621 27.2446C147.536 20.509 158.504 14.3038 172.187 12.3285C183.443 10.641 195.147 10.6507 206.678 12.3572C217.233 14.0048 228.685 17.6428 239.169 21.4202C247.75 24.5156 255.151 28.3757 264.649 27.2896C277.433 25.824 290.527 32.2026 302.58 30.6479C305.607 30.2608 309.569 28.8782 313.945 27.6264C328.998 23.3257 343.815 18.0476 358.525 12.9575C369.991 9.01581 383.031 1.84897 396.179 1.68985C396.755 1.67785 397.333 1.68919 397.91 1.72383C421.841 3.23191 441.797 27.595 466.873 21.8461C475.176 19.931 476.727 14.4921 481.332 9.46549C489.935 -0.181928 500.529 -8.6229 512.727 -15.5487C524.424 -22.1636 536.318 -30.7323 549.676 -35.7057C558.436 -38.9641 568.299 -42.2809 577.597 -42.8367C596.069 -43.9713 617.332 -39.4357 633.683 -29.0746" stroke="#AFDFFF" stroke-width="0.399036" stroke-miterlimit="10"/>
<path d="M23.6589 46.864C23.6589 46.864 27.0002 37.9691 40.6036 32.2698C48.3096 29.0761 55.5653 25.8034 65.3729 24.5781C70.9979 23.8804 76.6483 23.6602 82.2689 24.7147C96.107 27.3008 112.123 32.5158 125.7 28.582C129.433 27.5834 132.911 26.1393 136.016 24.2992C146.432 17.8178 158.315 11.7401 171.984 10.4786C183.881 9.26453 196.066 9.49861 208.108 11.1726C218.983 12.8866 229.679 15.4284 240.037 18.7602C248.3 21.3747 255.114 25.1632 264.909 24.041C277.131 22.6435 290.714 29.2987 302.348 28.1834C305.437 27.8843 309.587 26.589 314.119 25.4285C329.56 21.3602 344.628 16.5895 359.249 11.1401C370.084 7.14561 382.107 -0.77215 394.753 -1.00859C395.325 -1.02678 395.9 -1.02114 396.475 -0.991708C420.714 0.393063 440.997 27.3849 466.167 21.0364C474.221 19.0186 476.159 13.1525 480.695 8.17379C489.431 -1.54865 500.052 -10.1265 512.218 -17.2832C523.742 -24.1041 534.877 -33.0546 548.323 -37.9771C557.141 -41.2042 567.124 -44.3859 576.495 -44.8524C595.023 -45.7631 617.125 -41.1655 632.869 -29.9457" stroke="#AFDFFF" stroke-width="0.399036" stroke-miterlimit="10"/>
<path d="M22.8312 44.1262C22.8312 44.1262 25.8548 35.0076 39.0511 29.2185C46.4519 25.9554 53.723 22.556 63.6458 20.8141C69.3271 19.8258 74.963 19.2099 80.4356 20.2785C94.1075 22.9408 109.993 28.542 123.741 25.1757C127.542 24.3366 131.113 23.0359 134.329 21.32C145.815 14.8081 157.633 10.2098 171.62 8.48064C183.485 7.01551 197.169 7.77393 209.499 9.95916C220.25 11.7279 230.91 13.9253 241.435 16.5426C249.539 18.6634 255.821 22.2666 265.807 21.0389C277.321 19.6195 291.426 26.4509 302.474 25.6822C305.635 25.4724 309.881 24.253 314.528 23.1789C330.206 19.5535 345.364 14.8635 359.834 9.16116C370.324 4.99604 380.84 -3.41888 393.333 -3.77839C393.916 -3.80112 394.502 -3.79952 395.088 -3.77359C419.661 -2.63763 440.315 27.0526 465.471 20.1395C473.312 17.9832 475.582 11.7878 480.088 6.80532C488.91 -2.99201 499.514 -11.7103 511.602 -19.1028C522.965 -26.1444 533.273 -35.3403 546.922 -40.3024C555.821 -43.5037 565.914 -46.5594 575.353 -46.905C593.982 -47.6025 616.905 -42.8887 632.021 -30.8852" stroke="#AFDFFF" stroke-width="0.399036" stroke-miterlimit="10"/>
<path d="M21.9948 41.4679C21.9948 41.4679 24.6978 32.1495 37.4595 26.0663C44.6247 22.6781 51.9023 19.0543 61.9444 16.6757C67.6917 15.3176 73.0521 14.7325 78.3466 15.8035C91.8863 18.5221 107.601 24.4963 121.525 21.7385C125.397 21.0705 129.066 19.9188 132.394 18.3269C144.393 12.1509 156.67 7.81752 170.914 6.29654C183.39 4.96214 197.649 5.98346 210.514 8.4912C221.212 10.5983 232.231 12.4712 243.011 14.6767C250.967 16.297 256.963 19.6725 267.042 18.2793C277.877 16.7691 292.383 23.6574 302.884 23.1758C306.113 23.0144 310.426 21.9318 315.202 20.9057C330.607 17.6688 346.459 13.16 360.304 7.10425C370.496 2.63755 379.305 -6.08988 391.908 -6.5807C392.485 -6.59884 393.071 -6.6078 393.644 -6.58633C418.443 -5.59957 440.109 26.6016 464.722 19.1642C472.318 16.8736 474.924 10.4135 479.463 5.41101C488.369 -4.43455 498.905 -13.2959 510.825 -20.9659C522.06 -28.2401 531.681 -37.7207 545.575 -42.6289C554.543 -45.7976 564.746 -48.7273 574.255 -48.9599C593.023 -49.4314 616.736 -44.5893 631.223 -31.7942" stroke="#AFDFFF" stroke-width="0.399036" stroke-miterlimit="10"/>
<path d="M21.1565 38.8248C23.4156 32.1811 28.6673 26.5129 35.9957 22.8083C42.935 19.2157 50.5591 14.806 60.2856 12.188C65.8815 10.6989 71.0787 10.1662 76.2178 11.2264C89.7272 14.0216 105.202 20.2481 119.231 18.1783C123.187 17.6938 126.967 16.6892 130.411 15.2068C142.942 9.39285 155.669 5.22688 170.069 3.79727C183.725 2.61551 197.721 3.56071 211.249 6.57835C222.343 9.03125 233.501 11.3149 244.856 13.084C252.748 14.2865 258.624 17.3659 268.73 15.7509C278.995 14.115 293.484 20.8002 303.734 20.658C306.874 20.6224 311.379 19.5954 316.053 18.6372C332.135 15.3301 349.918 11.0163 363.767 3.39314C372.529 -1.4406 378.578 -8.79177 390.483 -9.38374C391.056 -9.41501 391.632 -9.4226 392.21 -9.40647C417.293 -8.60224 440.576 26.1114 463.874 18.0555C470.979 15.5925 474.1 9.01837 478.816 3.9409C487.832 -5.90575 498.243 -14.909 509.871 -22.9156C520.918 -30.5344 530.02 -40.1265 544.138 -44.9912C553.195 -48.1169 563.033 -50.5364 573.098 -51.0469C592.138 -52.032 617.616 -45.4634 630.376 -32.7419" stroke="#AFDFFF" stroke-width="0.399036" stroke-miterlimit="10"/>
<path d="M20.3024 36.2286C22.466 29.4801 27.4444 23.5982 34.4904 19.4655C41.9591 15.0449 49.7219 10.3547 58.5445 7.69093C63.8083 6.09706 68.9865 5.63443 74.0367 6.65158C87.7889 9.42818 102.409 15.9766 116.704 14.5582C120.768 14.2539 124.685 13.3891 128.272 12.0039C141.186 6.55825 154.234 2.41532 168.836 0.962014C182.924 -0.382011 197.415 0.675543 211.315 4.06214C222.846 6.97012 234.428 10.1416 246.526 11.5671C254.549 12.5444 260.421 15.2294 270.493 13.377C280.32 11.5672 294.899 18.1106 304.766 18.0262C307.905 17.9985 312.388 17.1537 317.075 16.2614C332.902 13.2449 350.554 9.14824 363.565 1.0211C371.96 -4.22725 376.959 -11.5454 389.067 -12.2574C389.64 -12.2939 390.217 -12.3068 390.796 -12.296C416.022 -11.6351 440.287 25.2321 462.931 16.7911C469.885 14.1971 473.311 7.60391 478.104 2.41514C487.261 -7.39657 497.529 -16.533 508.796 -24.8956C519.587 -32.9956 528.523 -42.592 542.743 -47.3479C551.886 -50.4147 561.796 -52.737 571.942 -53.1333C591.223 -53.8718 617.343 -47.0803 629.51 -33.6915" stroke="#AFDFFF" stroke-width="0.399036" stroke-miterlimit="10"/>
<path d="M19.4566 33.6411C21.4266 26.685 26.1657 20.509 33.025 15.9583C40.2394 11.1369 47.7415 6.01295 56.6735 3.13739C61.8072 1.49553 66.8618 1.01783 71.7894 2.01201C85.52 4.79402 99.6999 11.6104 114.046 10.8013C118.206 10.6845 122.252 9.96697 125.979 8.68525C139.245 3.61212 152.586 -0.615768 167.293 -2.24917C181.069 -3.787 197.014 -2.9623 210.678 0.79249C222.815 4.12808 234.95 8.67749 247.937 10.0986C256.334 11.0169 262.264 13.307 272.263 11.1966C281.779 9.18811 296.351 15.5376 305.934 15.4669C309.072 15.4472 313.521 14.7107 318.191 13.8726C333.768 11.107 350.767 7.13983 363.024 -1.40873C371.022 -7.00289 375.376 -14.255 387.623 -15.0866C388.192 -15.1219 388.78 -15.1467 389.355 -15.141C414.811 -14.7415 438.179 23.8254 461.751 15.3205C470.301 12.2296 474.778 3.45687 480.41 -2.6185C488.555 -11.3945 498.119 -19.2823 507.6 -26.9229C517.792 -35.1682 527.085 -45.0426 541.367 -49.7025C550.597 -52.7106 560.6 -54.9332 570.824 -55.2072C590.361 -55.7218 617.068 -48.6899 628.673 -34.6378" stroke="#AFDFFF" stroke-width="0.399036" stroke-miterlimit="10"/>
<path d="M18.5993 31.0686C20.4497 23.8779 24.9476 17.3777 31.5644 12.3315C38.368 7.10634 45.8414 1.61707 54.7506 -1.41404C59.7449 -3.11307 64.7471 -3.58912 69.5314 -2.62043C83.2021 0.138206 96.9511 7.23174 111.219 6.97586C115.455 7.02625 119.612 6.44058 123.46 5.25109C137.058 0.540022 150.672 -3.96005 165.383 -5.87449C180.093 -7.78893 195.373 -7.17379 209.104 -3.45108C221.531 -0.0882804 234.841 6.74282 248.854 8.49792C257.804 9.58821 263.936 11.5089 273.863 9.13242C283.208 6.90206 297.68 13.0306 307.121 12.9343C310.259 12.9146 314.534 12.141 319.294 11.4263C334.985 9.09278 350.839 4.74488 362.16 -3.92577C369.782 -9.78276 373.98 -16.9574 386.187 -17.8824C386.76 -17.9298 387.338 -17.9506 387.919 -17.9447C414.114 -17.6884 436.276 22.1065 460.53 13.8454C469.252 10.888 473.973 1.91181 479.647 -4.25486C487.748 -13.0926 497.233 -21.1105 506.221 -28.9881C515.957 -37.5222 525.57 -47.5344 539.99 -52.0409C549.307 -54.9901 559.818 -57.4402 569.706 -57.2648C589.161 -56.9451 616.188 -51.0722 627.838 -35.5916" stroke="#AFDFFF" stroke-width="0.399036" stroke-miterlimit="10"/>
<path d="M17.754 28.4896C19.2382 20.5101 24.1385 14.434 30.1416 8.57268C36.1447 2.71135 43.9422 -2.77864 52.8163 -5.95069C57.7021 -7.70314 62.6744 -8.19088 67.3679 -7.24932C80.9488 -4.52574 94.4313 2.9534 108.471 3.11192C112.648 3.14637 117.264 2.92079 121.015 1.72959C134.755 -2.68287 148.452 -7.26131 163.274 -9.92585C178.365 -12.6462 193.556 -12.9263 207.236 -8.87211C220.179 -5.02835 234.217 4.06218 249.25 6.62492C258.938 8.27129 265.432 9.786 275.313 7.18681C287.376 4.00924 296.081 11.9195 308.43 10.5133C311.504 10.1642 315.79 9.64908 320.49 8.99154C336.27 6.78936 350.242 2.44536 361.05 -6.48067C368.341 -12.5308 372.844 -19.7245 384.905 -20.7397C385.475 -20.7935 386.051 -20.82 386.629 -20.8191C413.558 -20.7548 434.534 20.1981 459.454 12.2191C468.464 9.29684 473.289 0.236891 478.999 -6.0461C486.999 -14.8318 496.185 -22.9666 504.84 -31.0373C514.283 -39.9046 524.144 -49.8947 538.692 -54.3373C548.105 -57.2106 558.717 -59.5518 568.657 -59.2897C588.371 -58.7777 615.993 -52.6394 627.075 -36.5285" stroke="#AFDFFF" stroke-width="0.399036" stroke-miterlimit="10"/>
<path d="M16.9094 25.9023C18.1727 17.5904 22.913 10.9401 28.733 4.69467C34.2867 -1.25355 42.0324 -7.17597 50.892 -10.4865C55.2205 -12.2471 60.3062 -12.7342 65.265 -11.8631C78.7889 -9.18668 91.8462 -1.47794 105.726 -0.776163C110.061 -0.467383 114.376 -0.847405 118.405 -1.89283C132.5 -6.05289 146.534 -10.9923 161.297 -14.6288C176.649 -18.3786 191.869 -19.4109 205.511 -15.1282C218.89 -10.9257 233.172 0.630459 248.814 4.28839C259.474 6.79284 266.44 8.04336 276.244 5.21773C288.364 1.74162 297.184 9.56934 309.541 8.09187C312.585 7.73104 316.822 7.18591 321.472 6.51418C336.902 4.26934 349.436 0.0557549 359.574 -8.9439C366.606 -15.1864 371.399 -22.4413 383.365 -23.5402C383.928 -23.6023 384.498 -23.6376 385.071 -23.646C412.675 -23.7165 432.539 18.2183 458.09 10.5415C467.303 7.76441 472.28 -1.51815 478.001 -7.88829C485.885 -16.664 494.707 -24.8994 503.108 -33.2021C512.445 -42.4038 522.427 -52.3551 537.173 -56.7092C546.692 -59.5133 557.416 -61.7365 567.408 -61.3876C587.372 -60.6924 615.545 -54.2779 626.084 -37.5659" stroke="#AFDFFF" stroke-width="0.399036" stroke-miterlimit="10"/>
<path d="M16.0549 23.2978C17.1164 14.5834 21.6497 7.40137 27.3428 0.738509C32.5824 -5.37661 40.1529 -11.5776 49.0148 -14.9924C53.2812 -16.7914 58.3304 -17.3159 63.2645 -16.4725C76.753 -13.8486 89.4077 -5.92358 103.211 -4.68435C107.561 -4.24024 111.924 -4.53194 115.995 -5.53912C130.679 -9.55512 145.144 -15.2941 159.779 -19.9352C174.881 -24.7204 189.387 -26.1612 203.934 -22.0175C219.349 -17.6153 231.63 -4.38946 247.502 1.32257C256.635 4.59787 267.94 5.84621 276.73 3.27499C289.091 -0.37283 298.186 7.33573 310.594 5.79198C313.609 5.41154 317.776 4.84179 322.345 4.14418C337.49 1.83252 348.559 -2.36658 358.203 -11.4344C365.005 -17.8417 370.033 -25.1402 381.966 -26.3076C382.536 -26.3692 383.113 -26.4037 383.693 -26.4108C411.881 -26.6433 430.766 16.2014 456.866 8.83245C474.719 3.7714 489.576 -23.1206 501.517 -35.3336C510.746 -44.7735 520.888 -54.7456 535.84 -58.9862C545.465 -61.721 556.289 -63.8195 566.334 -63.3918C586.571 -62.5347 615.241 -55.8265 625.249 -38.528" stroke="#AFDFFF" stroke-width="0.399036" stroke-miterlimit="10"/>
<path d="M15.2138 20.6788C16.124 12.0579 19.8399 3.89223 26.0188 -3.06487C31.6211 -9.49759 38.3409 -15.9228 47.2369 -19.446C51.4795 -21.261 56.5136 -21.8046 61.4409 -20.9799C74.9268 -18.4206 87.221 -10.2823 100.889 -8.52896C105.218 -7.95509 109.596 -8.18251 113.659 -9.19235C129.113 -13.2594 143.985 -20.6211 158.528 -25.7154C171.903 -30.3974 187.211 -34.6429 202.523 -29.3126C219.42 -23.4355 230.954 -9.31176 245.739 -2.74324C255.329 1.51211 265.822 4.52688 276.622 1.16329C289.189 -2.72462 298.899 5.1793 311.475 3.53554C314.46 3.14341 318.546 2.54778 323.026 1.81511C337.876 -0.645099 347.674 -4.88636 356.854 -13.9143C363.479 -20.4154 368.664 -27.7994 380.512 -29.0415C381.079 -29.1022 381.653 -29.1397 382.229 -29.1539C410.958 -29.5375 428.912 14.0941 455.525 7.05305C473.649 2.25814 488.079 -25.1602 499.837 -37.508C508.991 -47.0939 519.276 -57.1288 534.445 -61.2626C544.175 -63.9123 555.108 -65.8849 565.187 -65.3888C585.718 -64.3752 614.829 -57.4204 624.338 -39.5475" stroke="#AFDFFF" stroke-width="0.399036" stroke-miterlimit="10"/>
<path d="M14.3773 18.0286C15.0713 9.07326 18.5589 0.518096 24.5439 -6.91034C29.8585 -13.555 36.4586 -20.2842 45.4298 -23.9108C49.6756 -25.7478 54.7238 -26.3098 59.6715 -25.4964C73.171 -23.048 85.1532 -14.6663 98.6862 -12.4068C102.979 -11.6842 107.369 -11.8369 111.419 -12.8496C127.748 -17.0673 142.574 -25.938 157.39 -31.8917C170.342 -37.1396 185.679 -42.2257 201.115 -36.8804C218.597 -30.8275 229.715 -16.0389 243.923 -7.65128C253.337 -2.12297 263.894 2.596 275.788 -1.16498C288.72 -5.21748 299.164 3.09743 312.074 1.28534C315.044 0.843165 319.024 0.266674 323.419 -0.548592C337.936 -3.10566 346.686 -7.57913 355.495 -16.395C362.066 -22.967 367.238 -30.4169 379.094 -31.7223C379.661 -31.7886 380.235 -31.8287 380.812 -31.8426C410.021 -32.4734 427.102 12.0569 454.18 5.23329C472.762 0.534446 486.492 -27.3149 498.189 -39.6702C507.307 -49.3086 517.733 -59.4711 533.095 -63.4769C542.931 -66.0494 553.975 -67.8959 564.097 -67.3302C584.935 -66.1747 614.444 -58.9704 623.456 -40.539" stroke="#AFDFFF" stroke-width="0.399036" stroke-miterlimit="10"/>
<path d="M13.5402 15.37C14.0549 6.11238 17.325 -2.79305 23.0971 -10.6562C28.1232 -17.5932 34.6538 -24.5239 43.7611 -28.2384C48.0195 -30.1285 53.1003 -30.7456 58.1055 -29.9803C71.6622 -27.5732 83.3928 -19.0131 96.7825 -16.2645C101.04 -15.3705 105.461 -15.4262 109.523 -16.4251C126.578 -20.7713 141.57 -31.5997 156.508 -38.3022C169.06 -43.9526 184.311 -49.7085 199.852 -44.4548C217.824 -38.3905 228.847 -22.9059 242.193 -13.1923C250.959 -6.81024 261.486 0.0515418 274.173 -3.78963C287.664 -7.87862 298.946 1.10125 312.495 -0.890329C315.445 -1.33501 319.336 -1.9624 323.624 -2.7506C337.54 -5.43715 345.728 -10.2765 354.17 -18.8235C360.715 -25.439 365.821 -32.9531 377.716 -34.3181C378.283 -34.3879 378.857 -34.4307 379.435 -34.4464C409.115 -35.2529 425.315 9.8133 452.762 3.30798C471.704 -1.17015 484.826 -29.5197 496.493 -41.8867C505.603 -51.5422 516.17 -61.8322 531.728 -65.7337C541.699 -68.3033 552.274 -69.4979 562.994 -69.2654C584.537 -68.5788 614.55 -59.673 622.538 -41.5835" stroke="#AFDFFF" stroke-width="0.399036" stroke-miterlimit="10"/>
<path d="M12.7069 12.6874C13.0318 3.1164 16.0839 -6.14688 21.6457 -14.4431C26.406 -21.6859 32.9317 -28.8343 42.1659 -32.6458C46.4967 -34.5361 51.6387 -35.1547 56.7098 -34.3956C70.5282 -32.0772 81.9987 -23.3558 95.2285 -20.1524C99.4799 -19.0272 104.008 -19.0431 108.06 -20.1974C125.66 -25.4983 140.155 -37.4002 155.763 -44.8009C168.179 -50.7091 183.035 -56.907 198.633 -51.8635C216.904 -45.9396 228.114 -30.2715 240.49 -19.2852C248.233 -12.4007 259.284 -3.1515 272.297 -6.92084C286.133 -10.9276 298.439 -0.914471 312.496 -3.04514C315.446 -3.48982 319.243 -4.20105 323.402 -5.04517C347.564 -9.98093 353.034 -34.2056 376.281 -36.9534C376.849 -37.0219 377.423 -37.0673 378.001 -37.0895C408.233 -37.9655 423.517 7.32676 451.369 1.36116C470.302 -2.7 483.412 -31.7184 494.879 -44.0854C503.965 -53.8886 514.715 -64.1322 530.418 -67.8472C540.502 -70.3177 551.16 -71.4247 561.945 -71.122C583.857 -70.286 614.046 -61.198 621.657 -42.5915" stroke="#AFDFFF" stroke-width="0.399036" stroke-miterlimit="10"/>
<path d="M11.884 9.99849C11.9042 -0.121062 15.3414 -9.37415 20.1858 -18.1664C24.3335 -25.7009 31.2599 -33.0496 40.7014 -36.9324C45.1257 -38.7986 50.3049 -39.4599 55.4603 -38.8168C69.7116 -37.0487 81.0466 -28.1589 94.1184 -24.5165C98.3635 -23.2386 102.974 -23.2256 107.023 -24.4801C124.787 -30.356 139.262 -43.2895 155.139 -51.2684C167.244 -57.3673 181.77 -63.6859 197.41 -58.9025C215.946 -53.2679 227.304 -37.445 238.805 -25.7935C245.959 -18.5385 256.879 -7.01398 270.47 -10.4637C284.602 -14.0646 297.367 -2.84586 312.172 -5.191C315.111 -5.63694 318.829 -6.38198 322.879 -7.27951C346.398 -12.5186 351.968 -36.6991 374.948 -39.4874C375.516 -39.5559 376.09 -39.6014 376.668 -39.6236C407.34 -40.5907 421.842 4.76719 449.961 -0.643323C468.777 -4.26045 482.016 -33.9063 493.285 -46.2735C502.358 -56.2309 513.297 -66.3953 529.223 -69.9705C539.433 -72.321 550.182 -73.3206 561.036 -72.9291C583.389 -71.9428 613.696 -62.7117 620.873 -43.6275" stroke="#AFDFFF" stroke-width="0.399036" stroke-miterlimit="10"/>
<path d="M11.0435 7.29141C10.8754 -3.08423 14.0872 -12.7185 18.7746 -21.8515C22.658 -29.6192 29.633 -37.1951 39.2856 -41.1809C43.8212 -43.067 49.0524 -43.8517 54.3409 -43.4392C68.9346 -42.3368 80.3807 -33.329 93.3238 -29.3163C95.4167 -28.6253 97.6414 -28.2606 99.8647 -28.2439C102.088 -28.2273 104.264 -28.5591 106.263 -29.2195C124.156 -35.4656 138.437 -49.299 154.468 -57.5968C166.395 -63.7737 180.483 -69.7677 196.121 -65.3946C214.963 -60.1248 226.235 -44.7064 237.135 -32.5893C243.947 -25.0142 254.55 -11.4862 268.6 -14.4137C283.228 -17.4557 295.451 -4.7836 311.348 -7.34934C314.298 -7.79402 317.927 -8.58204 321.815 -9.52341C344.749 -15.1072 350.778 -39.1995 373.496 -41.9796C374.069 -42.0465 374.651 -42.1042 375.207 -42.1249C406.202 -43.1732 420.111 2.1607 448.384 -2.70853C467.025 -5.92084 480.563 -36.1333 491.576 -48.4592C500.642 -58.6105 511.802 -68.6193 527.897 -72.0373C538.231 -74.2642 549.071 -75.1512 559.993 -74.6639C582.846 -73.4881 613.133 -64.1711 619.923 -44.6597" stroke="#AFDFFF" stroke-width="0.399036" stroke-miterlimit="10"/>
<path d="M10.2111 4.59307C9.9112 -5.83103 12.3056 -16.0635 17.2533 -25.502C21.4235 -33.3071 27.3601 -41.0257 37.8673 -45.3334C42.5333 -47.2986 47.8424 -48.2811 53.2985 -48.1891C68.2056 -47.7722 79.9369 -38.8743 92.7661 -34.4414C94.8524 -33.6858 97.0972 -33.2813 99.3449 -33.256C101.593 -33.2307 103.789 -33.5852 105.783 -34.2949C123.725 -40.7761 137.691 -55.283 153.795 -63.6605C165.569 -69.7916 179.057 -75.0548 194.698 -71.1396C213.818 -66.3504 224.958 -51.9128 235.469 -39.5136C242.15 -31.6329 252.396 -16.5485 266.782 -18.7194C282.216 -21.0844 292.764 -6.67868 310.076 -9.53037C313.042 -10.0213 316.563 -10.7823 320.366 -11.7099C343.428 -17.3103 349.316 -41.6207 372.109 -44.4158C372.682 -44.4827 373.262 -44.5326 373.819 -44.5532C405.009 -45.5777 418.559 -0.464522 446.81 -4.81379C465.196 -7.64716 479.069 -38.3815 489.92 -50.6629C498.999 -60.9251 510.346 -70.8388 526.64 -74.0799C537.098 -76.1789 548.028 -76.9508 559.019 -76.3665C582.264 -75.0626 612.602 -65.7473 619.05 -45.7389" stroke="#AFDFFF" stroke-width="0.399036" stroke-miterlimit="10"/>
<path d="M9.38911 1.90424C8.48389 -16.4079 15.0045 -40.2474 36.4481 -49.4698C64.083 -61.379 83.7033 -32.1203 105.465 -39.5754C133.535 -49.2208 154.463 -84.5064 193.082 -75.9753C212.187 -71.7507 222.74 -59.3544 233.193 -47.1712C240.518 -38.6573 250.289 -21.8217 264.972 -23.3375C274.309 -24.3066 278.04 -19.0605 285.642 -15.9959C297.865 -11.0499 305.64 -10.2636 318.749 -13.7882C341.074 -19.7837 348.169 -44.2204 370.716 -46.7963C402.923 -50.4144 416.241 -2.96582 445.183 -6.9896C460.529 -9.14023 468.883 -29.9263 476.898 -39.8599C488.563 -54.2772 502.821 -72.4709 525.417 -76.0537C554.742 -80.7303 608.935 -77.9399 618.123 -46.7924" stroke="#AFDFFF" stroke-width="0.399036" stroke-miterlimit="10"/>
</g>
<circle cx="396.5" cy="28.5" r="43.5" fill="#EAF8FE"/>
<circle cx="27.5" cy="98.5" r="43.5" fill="#EAF8FE"/>
</g>
</g>
<defs>
<filter id="filter0_d_137_2859" x="0" y="0" width="432" height="122" filterUnits="userSpaceOnUse" color-interpolation-filters="sRGB">
<feFlood flood-opacity="0" result="BackgroundImageFix"/>
<feColorMatrix in="SourceAlpha" type="matrix" values="0 0 0 0 0 0 0 0 0 0 0 0 0 0 0 0 0 0 127 0" result="hardAlpha"/>
<feMorphology radius="4" operator="dilate" in="SourceAlpha" result="effect1_dropShadow_137_2859"/>
<feOffset dx="2" dy="6"/>
<feGaussianBlur stdDeviation="8.5"/>
<feComposite in2="hardAlpha" operator="out"/>
<feColorMatrix type="matrix" values="0 0 0 0 0 0 0 0 0 0 0 0 0 0 0 0 0 0 0.12 0"/>
<feBlend mode="normal" in2="BackgroundImageFix" result="effect1_dropShadow_137_2859"/>
<feBlend mode="normal" in="SourceGraphic" in2="effect1_dropShadow_137_2859" result="shape"/>
</filter>
<clipPath id="clip0_137_2859">
<rect x="19" y="15" width="390" height="80" rx="12" fill="white"/>
</clipPath>
<clipPath id="clip1_137_2859">
<rect width="648.215" height="282.749" fill="white" transform="translate(25.7866 -143) rotate(6.94502)"/>
</clipPath>
</defs>
</svg>
